<svg id="papago_svg" width="117" height="28" viewBox="0 0 117 28" fill="none" xmlns="http://www.w3.org/2000/svg">
<mask id="path-1-outside-1_58_13" maskUnits="userSpaceOnUse" x="0.983154" y="0.343994" width="116" height="28" fill="black">
<rect fill="white" x="0.983154" y="0.343994" width="116" height="28"/>
<path d="M16.8392 4.35999C17.6498 5.10666 18.2472 6.00266 18.6312 7.04799C19.0152 8.07199 19.1645 9.09599 19.0792 10.12C18.9938 11.1013 18.6845 12.008 18.1512 12.84C17.6178 13.6507 16.8072 14.2693 15.7192 14.696C14.8658 15.0587 14.0232 15.3147 13.1912 15.464C12.3592 15.6133 11.4418 15.7307 10.4392 15.816C9.99115 15.8587 9.60715 15.8907 9.28715 15.912C8.98849 15.912 8.63649 15.9227 8.23115 15.944C8.14582 15.944 7.99649 15.944 7.78316 15.944C7.59116 15.944 7.45249 15.9547 7.36716 15.976V22.6C7.30316 23.0053 7.21782 23.4213 7.11115 23.848C7.02582 24.2747 6.78049 24.6053 6.37515 24.84C6.14049 24.968 5.85249 25.0427 5.51115 25.064C5.16982 25.0853 4.86049 25.0747 4.58315 25.032C4.28449 24.9893 4.02849 24.9147 3.81515 24.808C3.62315 24.68 3.46315 24.4667 3.33515 24.168C3.24982 23.976 3.16449 23.7627 3.07915 23.528C3.01515 23.272 2.98315 22.9627 2.98315 22.6V4.90399C2.98315 4.75466 2.99382 4.61599 3.01515 4.48799C3.03649 4.35999 3.05782 4.23199 3.07915 4.10399C3.12182 3.99733 3.15382 3.87999 3.17515 3.75199C3.19649 3.62399 3.22849 3.50666 3.27115 3.39999C3.31382 3.29333 3.35649 3.19733 3.39915 3.11199C3.46315 3.02666 3.53782 2.95199 3.62315 2.88799C3.72982 2.78133 3.88982 2.68533 4.10315 2.59999C4.33782 2.51466 4.67915 2.47199 5.12715 2.47199H5.19115C5.85249 2.42933 6.58849 2.39733 7.39915 2.37599C8.20982 2.33333 8.88182 2.34399 9.41516 2.40799C9.71382 2.45066 9.99115 2.48266 10.2472 2.50399C10.5032 2.50399 10.7485 2.51466 10.9832 2.53599C11.2392 2.55733 11.4952 2.57866 11.7512 2.59999C12.0072 2.62133 12.2632 2.65333 12.5192 2.69599C12.7325 2.73866 12.9245 2.77066 13.0952 2.79199C13.2872 2.81333 13.4792 2.84533 13.6712 2.88799C13.8418 2.93066 14.0232 2.97333 14.2152 3.01599C14.4285 3.05866 14.6205 3.13333 14.7912 3.23999C15.2392 3.36799 15.6125 3.52799 15.9112 3.71999C16.2098 3.91199 16.5192 4.12533 16.8392 4.35999ZM14.9192 9.63999C14.9405 9.12799 14.8338 8.67999 14.5992 8.29599C14.3858 7.91199 14.0765 7.59199 13.6712 7.33599C13.2658 7.07999 12.8072 6.87733 12.2952 6.72799C11.7832 6.57866 11.2712 6.47199 10.7592 6.40799C10.6312 6.40799 10.4498 6.40799 10.2152 6.40799C10.0018 6.38666 9.76715 6.37599 9.51115 6.37599C9.25515 6.35466 9.00982 6.34399 8.77515 6.34399C8.56182 6.32266 8.39115 6.31199 8.26315 6.31199C8.15649 6.29066 8.02849 6.27999 7.87915 6.27999C7.72982 6.27999 7.55916 6.27999 7.36716 6.27999C7.38849 6.94133 7.39915 7.58133 7.39915 8.19999C7.39915 8.79733 7.39915 9.44799 7.39915 10.152C7.37782 10.536 7.36716 10.92 7.36716 11.304C7.36716 11.688 7.36716 12.0613 7.36716 12.424L9.35115 12.392C9.86315 12.392 10.4285 12.36 11.0472 12.296C11.6658 12.232 12.2525 12.104 12.8072 11.912C13.3618 11.72 13.8312 11.4427 14.2152 11.08C14.6205 10.7173 14.8552 10.2373 14.9192 9.63999Z"/>
<path d="M38.2584 22.824C38.2797 22.952 38.2904 23.08 38.2904 23.208C38.3117 23.3147 38.3224 23.4427 38.3224 23.592C38.3224 23.848 38.2477 24.0827 38.0984 24.296C38.0344 24.4027 37.9491 24.5093 37.8424 24.616C37.7357 24.7013 37.6077 24.776 37.4584 24.84C36.9251 25.1387 36.3597 25.2453 35.7624 25.16C35.4637 25.0747 35.1971 24.936 34.9624 24.744C34.9197 24.7013 34.8877 24.68 34.8664 24.68C34.8451 24.6587 34.8237 24.6267 34.8024 24.584C34.7811 24.5627 34.7597 24.5413 34.7384 24.52C34.7171 24.4773 34.6851 24.4453 34.6424 24.424C34.5357 24.3173 34.4504 24.2213 34.3864 24.136C34.3224 24.0293 34.2584 23.9227 34.1944 23.816C34.1517 23.7093 34.0984 23.6133 34.0344 23.528C33.9917 23.4213 33.9384 23.3147 33.8744 23.208C33.8317 23.1227 33.7891 23.048 33.7464 22.984C33.7037 22.8987 33.6717 22.8133 33.6504 22.728C33.5651 22.536 33.5117 22.3653 33.4904 22.216L32.8184 20.648C31.3464 20.648 29.8744 20.6587 28.4024 20.68C26.9517 20.68 25.4904 20.6693 24.0184 20.648L23.3464 22.216C23.3037 22.3013 23.2717 22.3867 23.2504 22.472C23.2504 22.5573 23.2291 22.6427 23.1864 22.728C23.1437 22.8133 23.1011 22.8987 23.0584 22.984C23.0371 23.048 23.0051 23.1227 22.9624 23.208C22.8984 23.3147 22.8344 23.4213 22.7704 23.528C22.7277 23.6133 22.6744 23.7093 22.6104 23.816C22.5677 23.9227 22.5144 24.0293 22.4504 24.136C22.3864 24.2213 22.3011 24.3173 22.1944 24.424C22.1517 24.4453 22.1197 24.4773 22.0984 24.52C22.0771 24.5413 22.0557 24.5627 22.0344 24.584C22.0131 24.6267 21.9917 24.6587 21.9704 24.68C21.9491 24.68 21.9171 24.7013 21.8744 24.744C21.6397 24.936 21.3731 25.0747 21.0744 25.16C20.4771 25.2453 19.9117 25.1387 19.3784 24.84C19.2291 24.776 19.1011 24.7013 18.9944 24.616C18.8877 24.5093 18.8024 24.4027 18.7384 24.296C18.5891 24.0827 18.5144 23.848 18.5144 23.592C18.5144 23.4427 18.5144 23.3147 18.5144 23.208C18.5357 23.08 18.5571 22.952 18.5784 22.824C18.6211 22.632 18.6744 22.44 18.7384 22.248C18.8024 22.056 18.8344 21.96 18.8344 21.96L25.4904 5.57599L25.6824 5.06399C25.7251 4.93599 25.7784 4.81866 25.8424 4.71199C25.9064 4.60533 25.9597 4.47733 26.0024 4.32799C26.1091 4.05066 26.2264 3.80533 26.3544 3.59199C26.4184 3.46399 26.4931 3.34666 26.5784 3.23999C26.6637 3.13333 26.7491 3.02666 26.8344 2.91999C26.9624 2.74933 27.1437 2.61066 27.3784 2.50399C27.6771 2.39733 28.0184 2.34399 28.4024 2.34399C28.8077 2.34399 29.1597 2.39733 29.4584 2.50399C29.6931 2.61066 29.8744 2.74933 30.0024 2.91999C30.1517 3.11199 30.3117 3.33599 30.4824 3.59199C30.6104 3.80533 30.7277 4.05066 30.8344 4.32799C30.8771 4.47733 30.9304 4.60533 30.9944 4.71199C31.0584 4.81866 31.1117 4.93599 31.1544 5.06399L31.3464 5.57599L38.0024 21.96C38.0024 21.96 38.0344 22.056 38.0984 22.248C38.1624 22.44 38.2157 22.632 38.2584 22.824ZM30.6744 14.984C30.3971 14.3653 30.1091 13.7253 29.8104 13.064C29.5331 12.4027 29.2344 11.7307 28.9144 11.048C28.8291 10.856 28.7437 10.664 28.6584 10.472C28.5731 10.2587 28.4877 10.056 28.4024 9.86399C28.3384 10.056 28.2637 10.2587 28.1784 10.472C28.0931 10.664 28.0077 10.856 27.9224 11.048C27.6024 11.7307 27.2931 12.4027 26.9944 13.064C26.7171 13.7253 26.4397 14.3653 26.1624 14.984L25.5864 16.392H31.2504L30.6744 14.984Z"/>
<path d="M54.7454 4.35999C55.5561 5.10666 56.1534 6.00266 56.5374 7.04799C56.9214 8.07199 57.0707 9.09599 56.9854 10.12C56.9001 11.1013 56.5907 12.008 56.0574 12.84C55.5241 13.6507 54.7134 14.2693 53.6254 14.696C52.7721 15.0587 51.9294 15.3147 51.0974 15.464C50.2654 15.6133 49.3481 15.7307 48.3454 15.816C47.8974 15.8587 47.5134 15.8907 47.1934 15.912C46.8947 15.912 46.5427 15.9227 46.1374 15.944C46.0521 15.944 45.9027 15.944 45.6894 15.944C45.4974 15.944 45.3587 15.9547 45.2734 15.976V22.6C45.2094 23.0053 45.1241 23.4213 45.0174 23.848C44.9321 24.2747 44.6867 24.6053 44.2814 24.84C44.0467 24.968 43.7587 25.0427 43.4174 25.064C43.0761 25.0853 42.7667 25.0747 42.4894 25.032C42.1907 24.9893 41.9347 24.9147 41.7214 24.808C41.5294 24.68 41.3694 24.4667 41.2414 24.168C41.1561 23.976 41.0707 23.7627 40.9854 23.528C40.9214 23.272 40.8894 22.9627 40.8894 22.6V4.90399C40.8894 4.75466 40.9001 4.61599 40.9214 4.48799C40.9427 4.35999 40.9641 4.23199 40.9854 4.10399C41.0281 3.99733 41.0601 3.87999 41.0814 3.75199C41.1027 3.62399 41.1347 3.50666 41.1774 3.39999C41.2201 3.29333 41.2627 3.19733 41.3054 3.11199C41.3694 3.02666 41.4441 2.95199 41.5294 2.88799C41.6361 2.78133 41.7961 2.68533 42.0094 2.59999C42.2441 2.51466 42.5854 2.47199 43.0334 2.47199H43.0974C43.7587 2.42933 44.4947 2.39733 45.3054 2.37599C46.1161 2.33333 46.7881 2.34399 47.3214 2.40799C47.6201 2.45066 47.8974 2.48266 48.1534 2.50399C48.4094 2.50399 48.6547 2.51466 48.8894 2.53599C49.1454 2.55733 49.4014 2.57866 49.6574 2.59999C49.9134 2.62133 50.1694 2.65333 50.4254 2.69599C50.6387 2.73866 50.8307 2.77066 51.0014 2.79199C51.1934 2.81333 51.3854 2.84533 51.5774 2.88799C51.7481 2.93066 51.9294 2.97333 52.1214 3.01599C52.3347 3.05866 52.5267 3.13333 52.6974 3.23999C53.1454 3.36799 53.5187 3.52799 53.8174 3.71999C54.1161 3.91199 54.4254 4.12533 54.7454 4.35999ZM52.8254 9.63999C52.8467 9.12799 52.7401 8.67999 52.5054 8.29599C52.2921 7.91199 51.9827 7.59199 51.5774 7.33599C51.1721 7.07999 50.7134 6.87733 50.2014 6.72799C49.6894 6.57866 49.1774 6.47199 48.6654 6.40799C48.5374 6.40799 48.3561 6.40799 48.1214 6.40799C47.9081 6.38666 47.6734 6.37599 47.4174 6.37599C47.1614 6.35466 46.9161 6.34399 46.6814 6.34399C46.4681 6.32266 46.2974 6.31199 46.1694 6.31199C46.0627 6.29066 45.9347 6.27999 45.7854 6.27999C45.6361 6.27999 45.4654 6.27999 45.2734 6.27999C45.2947 6.94133 45.3054 7.58133 45.3054 8.19999C45.3054 8.79733 45.3054 9.44799 45.3054 10.152C45.2841 10.536 45.2734 10.92 45.2734 11.304C45.2734 11.688 45.2734 12.0613 45.2734 12.424L47.2574 12.392C47.7694 12.392 48.3347 12.36 48.9534 12.296C49.5721 12.232 50.1587 12.104 50.7134 11.912C51.2681 11.72 51.7374 11.4427 52.1214 11.08C52.5267 10.7173 52.7614 10.2373 52.8254 9.63999Z"/>
<path d="M76.1647 22.824C76.186 22.952 76.1967 23.08 76.1967 23.208C76.218 23.3147 76.2287 23.4427 76.2287 23.592C76.2287 23.848 76.154 24.0827 76.0047 24.296C75.9407 24.4027 75.8553 24.5093 75.7487 24.616C75.642 24.7013 75.514 24.776 75.3647 24.84C74.8313 25.1387 74.266 25.2453 73.6687 25.16C73.37 25.0747 73.1033 24.936 72.8687 24.744C72.826 24.7013 72.794 24.68 72.7727 24.68C72.7513 24.6587 72.73 24.6267 72.7087 24.584C72.6873 24.5627 72.666 24.5413 72.6447 24.52C72.6233 24.4773 72.5913 24.4453 72.5487 24.424C72.442 24.3173 72.3567 24.2213 72.2927 24.136C72.2287 24.0293 72.1647 23.9227 72.1007 23.816C72.058 23.7093 72.0047 23.6133 71.9407 23.528C71.898 23.4213 71.8447 23.3147 71.7807 23.208C71.738 23.1227 71.6953 23.048 71.6527 22.984C71.61 22.8987 71.578 22.8133 71.5567 22.728C71.4713 22.536 71.418 22.3653 71.3967 22.216L70.7247 20.648C69.2527 20.648 67.7807 20.6587 66.3087 20.68C64.858 20.68 63.3967 20.6693 61.9247 20.648L61.2527 22.216C61.21 22.3013 61.178 22.3867 61.1567 22.472C61.1567 22.5573 61.1353 22.6427 61.0927 22.728C61.05 22.8133 61.0073 22.8987 60.9647 22.984C60.9433 23.048 60.9113 23.1227 60.8687 23.208C60.8047 23.3147 60.7407 23.4213 60.6767 23.528C60.634 23.6133 60.5807 23.7093 60.5167 23.816C60.474 23.9227 60.4207 24.0293 60.3567 24.136C60.2927 24.2213 60.2073 24.3173 60.1007 24.424C60.058 24.4453 60.026 24.4773 60.0047 24.52C59.9833 24.5413 59.962 24.5627 59.9407 24.584C59.9193 24.6267 59.898 24.6587 59.8767 24.68C59.8553 24.68 59.8233 24.7013 59.7807 24.744C59.546 24.936 59.2793 25.0747 58.9807 25.16C58.3833 25.2453 57.818 25.1387 57.2847 24.84C57.1353 24.776 57.0073 24.7013 56.9007 24.616C56.794 24.5093 56.7087 24.4027 56.6447 24.296C56.4953 24.0827 56.4207 23.848 56.4207 23.592C56.4207 23.4427 56.4207 23.3147 56.4207 23.208C56.442 23.08 56.4633 22.952 56.4847 22.824C56.5273 22.632 56.5807 22.44 56.6447 22.248C56.7087 22.056 56.7407 21.96 56.7407 21.96L63.3967 5.57599L63.5887 5.06399C63.6313 4.93599 63.6847 4.81866 63.7487 4.71199C63.8127 4.60533 63.866 4.47733 63.9087 4.32799C64.0153 4.05066 64.1327 3.80533 64.2607 3.59199C64.3247 3.46399 64.3993 3.34666 64.4847 3.23999C64.57 3.13333 64.6553 3.02666 64.7407 2.91999C64.8687 2.74933 65.05 2.61066 65.2847 2.50399C65.5833 2.39733 65.9247 2.34399 66.3087 2.34399C66.714 2.34399 67.066 2.39733 67.3647 2.50399C67.5993 2.61066 67.7807 2.74933 67.9087 2.91999C68.058 3.11199 68.218 3.33599 68.3887 3.59199C68.5167 3.80533 68.634 4.05066 68.7407 4.32799C68.7833 4.47733 68.8367 4.60533 68.9007 4.71199C68.9647 4.81866 69.018 4.93599 69.0607 5.06399L69.2527 5.57599L75.9087 21.96C75.9087 21.96 75.9407 22.056 76.0047 22.248C76.0687 22.44 76.122 22.632 76.1647 22.824ZM68.5807 14.984C68.3033 14.3653 68.0153 13.7253 67.7167 13.064C67.4393 12.4027 67.1407 11.7307 66.8207 11.048C66.7353 10.856 66.65 10.664 66.5647 10.472C66.4793 10.2587 66.394 10.056 66.3087 9.86399C66.2447 10.056 66.17 10.2587 66.0847 10.472C65.9993 10.664 65.914 10.856 65.8287 11.048C65.5087 11.7307 65.1993 12.4027 64.9007 13.064C64.6233 13.7253 64.346 14.3653 64.0687 14.984L63.4927 16.392H69.1567L68.5807 14.984Z"/>
<path d="M94.7549 17.384C94.7549 18.024 94.7229 18.6747 94.6589 19.336C94.5949 19.976 94.4669 20.6053 94.2749 21.224C94.0829 21.8213 93.7949 22.3973 93.4109 22.952C93.0269 23.4853 92.5042 23.9547 91.8429 24.36C91.5229 24.5733 91.1389 24.7547 90.6909 24.904C90.2642 25.032 89.8056 25.1387 89.3149 25.224C88.8456 25.3307 88.3762 25.3947 87.9069 25.416C87.4376 25.4587 87.0002 25.4693 86.5949 25.448C84.6749 25.384 83.1176 24.9253 81.9229 24.072C80.7496 23.1973 79.8429 22.12 79.2029 20.84C78.5842 19.56 78.1789 18.1733 77.9869 16.68C77.8162 15.1653 77.7842 13.7253 77.8909 12.36C77.9549 11.5493 78.0936 10.6747 78.3069 9.73599C78.5416 8.79733 78.8722 7.89066 79.2989 7.01599C79.7469 6.14133 80.2909 5.35199 80.9309 4.64799C81.5922 3.94399 82.3709 3.41066 83.2669 3.04799C84.0989 2.70666 85.0056 2.49333 85.9869 2.40799C86.9896 2.30133 87.9709 2.33333 88.9309 2.50399C89.9122 2.67466 90.8189 2.98399 91.6509 3.43199C92.5042 3.87999 93.1762 4.47733 93.6669 5.22399C94.0082 5.77866 94.2749 6.45066 94.4669 7.23999C94.6589 8.02933 94.6909 8.78666 94.5629 9.51199C94.4562 10.152 94.2322 10.6 93.8909 10.856C93.5496 11.0907 93.1762 11.1867 92.7709 11.144C92.3656 11.08 91.9709 10.9093 91.5869 10.632C91.2242 10.3333 90.9789 9.95999 90.8509 9.51199C90.7016 9.02133 90.5202 8.57333 90.3069 8.16799C90.0936 7.74133 89.7629 7.38933 89.3149 7.11199C88.8029 6.79199 88.2589 6.61066 87.6829 6.56799C87.1282 6.52533 86.5842 6.58933 86.0509 6.75999C85.5389 6.93066 85.0482 7.19733 84.5789 7.55999C84.1309 7.92266 83.7576 8.33866 83.4589 8.80799C83.0962 9.34133 82.8189 9.92799 82.6269 10.568C82.4349 11.1867 82.2962 11.8373 82.2109 12.52C82.1256 13.1813 82.0936 13.8533 82.1149 14.536C82.1576 15.1973 82.2429 15.8373 82.3709 16.456C82.6056 17.5013 82.9682 18.4827 83.4589 19.4C83.6509 19.7413 83.9069 20.0507 84.2269 20.328C84.5682 20.584 84.9416 20.7973 85.3469 20.968C85.7522 21.1173 86.1789 21.2133 86.6269 21.256C87.0749 21.2987 87.5016 21.2667 87.9069 21.16C88.4829 21.0107 88.9522 20.8187 89.3149 20.584C89.6776 20.328 89.9656 20.0293 90.1789 19.688C90.3922 19.3467 90.5309 18.9733 90.5949 18.568C90.6802 18.1627 90.7229 17.736 90.7229 17.288V17.256C90.4456 17.256 90.2002 17.256 89.9869 17.256C89.7736 17.2347 89.6136 17.224 89.5069 17.224C89.0376 17.224 88.5789 17.1387 88.1309 16.968C87.7469 16.84 87.4589 16.6373 87.2669 16.36C87.0536 16.1253 86.9469 15.8373 86.9469 15.496C86.9469 15.368 86.9469 15.2507 86.9469 15.144C86.9682 15.016 86.9896 14.888 87.0109 14.76C87.0749 14.5893 87.2136 14.376 87.4269 14.12C87.5549 14.0133 87.7576 13.928 88.0349 13.864C88.1629 13.8213 88.2909 13.7893 88.4189 13.768C88.5469 13.7253 88.6962 13.6933 88.8669 13.672C88.9949 13.6507 89.1336 13.64 89.2829 13.64C89.4322 13.64 89.5816 13.64 89.7309 13.64H92.6429C92.8776 13.6187 93.1442 13.6507 93.4429 13.736C93.7629 13.8 94.0082 13.9067 94.1789 14.056C94.2429 14.1413 94.3069 14.2267 94.3709 14.312C94.4349 14.3973 94.4882 14.4933 94.5309 14.6C94.6162 14.8347 94.6696 15.0693 94.6909 15.304C94.7122 15.432 94.7229 15.5707 94.7229 15.72C94.7442 15.848 94.7549 15.9653 94.7549 16.072V17.384Z"/>
<path d="M102.991 3.11199C104.42 2.57866 105.711 2.34399 106.863 2.40799C108.036 2.47199 109.082 2.77066 109.999 3.30399C110.916 3.81599 111.695 4.50933 112.335 5.38399C112.996 6.25866 113.53 7.23999 113.935 8.32799C114.255 9.13866 114.5 9.99199 114.671 10.888C114.842 11.784 114.938 12.68 114.959 13.576C115.002 14.4507 114.97 15.3147 114.863 16.168C114.778 17.0213 114.628 17.8107 114.415 18.536C114.287 19.0267 114.138 19.4747 113.967 19.88C113.796 20.2853 113.594 20.6907 113.359 21.096C112.826 22.0133 112.132 22.76 111.279 23.336C110.447 23.912 109.53 24.3173 108.527 24.552C107.844 24.7227 107.14 24.808 106.415 24.808C105.69 24.7867 104.975 24.6907 104.271 24.52C103.567 24.328 102.884 24.0613 102.223 23.72C101.583 23.3573 100.996 22.9093 100.463 22.376C99.8016 21.736 99.2576 21 98.8309 20.168C98.4042 19.3147 98.0736 18.4293 97.8389 17.512C97.6042 16.5733 97.4549 15.6347 97.3909 14.696C97.3269 13.7573 97.3269 12.8613 97.3909 12.008C97.4549 11.2187 97.6042 10.376 97.8389 9.47999C98.0949 8.58399 98.4576 7.71999 98.9269 6.88799C99.3962 6.05599 99.9616 5.30933 100.623 4.64799C101.306 3.96533 102.095 3.45333 102.991 3.11199ZM110.479 16.808C110.735 15.8053 110.842 14.6747 110.799 13.416C110.756 12.1573 110.554 10.9733 110.191 9.86399C109.956 9.18133 109.658 8.58399 109.295 8.07199C108.954 7.53866 108.538 7.13333 108.047 6.85599C107.578 6.57866 107.023 6.43999 106.383 6.43999C105.743 6.43999 105.028 6.63199 104.239 7.01599C103.77 7.25066 103.364 7.57066 103.023 7.97599C102.703 8.38133 102.436 8.83999 102.223 9.35199C102.031 9.86399 101.871 10.3973 101.743 10.952C101.636 11.5067 101.572 12.04 101.551 12.552C101.508 13.1067 101.498 13.6933 101.519 14.312C101.54 14.9093 101.604 15.5173 101.711 16.136C101.839 16.7333 102.01 17.3093 102.223 17.864C102.436 18.3973 102.724 18.8773 103.087 19.304C103.642 19.944 104.282 20.392 105.007 20.648C105.754 20.8827 106.49 20.9147 107.215 20.744C108.388 20.488 109.284 19.7093 109.903 18.408C110.159 17.9387 110.351 17.4053 110.479 16.808Z"/>
</mask>
<path class="1" d="M16.8392 4.35999C17.6498 5.10666 18.2472 6.00266 18.6312 7.04799C19.0152 8.07199 19.1645 9.09599 19.0792 10.12C18.9938 11.1013 18.6845 12.008 18.1512 12.84C17.6178 13.6507 16.8072 14.2693 15.7192 14.696C14.8658 15.0587 14.0232 15.3147 13.1912 15.464C12.3592 15.6133 11.4418 15.7307 10.4392 15.816C9.99115 15.8587 9.60715 15.8907 9.28715 15.912C8.98849 15.912 8.63649 15.9227 8.23115 15.944C8.14582 15.944 7.99649 15.944 7.78316 15.944C7.59116 15.944 7.45249 15.9547 7.36716 15.976V22.6C7.30316 23.0053 7.21782 23.4213 7.11115 23.848C7.02582 24.2747 6.78049 24.6053 6.37515 24.84C6.14049 24.968 5.85249 25.0427 5.51115 25.064C5.16982 25.0853 4.86049 25.0747 4.58315 25.032C4.28449 24.9893 4.02849 24.9147 3.81515 24.808C3.62315 24.68 3.46315 24.4667 3.33515 24.168C3.24982 23.976 3.16449 23.7627 3.07915 23.528C3.01515 23.272 2.98315 22.9627 2.98315 22.6V4.90399C2.98315 4.75466 2.99382 4.61599 3.01515 4.48799C3.03649 4.35999 3.05782 4.23199 3.07915 4.10399C3.12182 3.99733 3.15382 3.87999 3.17515 3.75199C3.19649 3.62399 3.22849 3.50666 3.27115 3.39999C3.31382 3.29333 3.35649 3.19733 3.39915 3.11199C3.46315 3.02666 3.53782 2.95199 3.62315 2.88799C3.72982 2.78133 3.88982 2.68533 4.10315 2.59999C4.33782 2.51466 4.67915 2.47199 5.12715 2.47199H5.19115C5.85249 2.42933 6.58849 2.39733 7.39915 2.37599C8.20982 2.33333 8.88182 2.34399 9.41516 2.40799C9.71382 2.45066 9.99115 2.48266 10.2472 2.50399C10.5032 2.50399 10.7485 2.51466 10.9832 2.53599C11.2392 2.55733 11.4952 2.57866 11.7512 2.59999C12.0072 2.62133 12.2632 2.65333 12.5192 2.69599C12.7325 2.73866 12.9245 2.77066 13.0952 2.79199C13.2872 2.81333 13.4792 2.84533 13.6712 2.88799C13.8418 2.93066 14.0232 2.97333 14.2152 3.01599C14.4285 3.05866 14.6205 3.13333 14.7912 3.23999C15.2392 3.36799 15.6125 3.52799 15.9112 3.71999C16.2098 3.91199 16.5192 4.12533 16.8392 4.35999ZM14.9192 9.63999C14.9405 9.12799 14.8338 8.67999 14.5992 8.29599C14.3858 7.91199 14.0765 7.59199 13.6712 7.33599C13.2658 7.07999 12.8072 6.87733 12.2952 6.72799C11.7832 6.57866 11.2712 6.47199 10.7592 6.40799C10.6312 6.40799 10.4498 6.40799 10.2152 6.40799C10.0018 6.38666 9.76715 6.37599 9.51115 6.37599C9.25515 6.35466 9.00982 6.34399 8.77515 6.34399C8.56182 6.32266 8.39115 6.31199 8.26315 6.31199C8.15649 6.29066 8.02849 6.27999 7.87915 6.27999C7.72982 6.27999 7.55916 6.27999 7.36716 6.27999C7.38849 6.94133 7.39915 7.58133 7.39915 8.19999C7.39915 8.79733 7.39915 9.44799 7.39915 10.152C7.37782 10.536 7.36716 10.92 7.36716 11.304C7.36716 11.688 7.36716 12.0613 7.36716 12.424L9.35115 12.392C9.86315 12.392 10.4285 12.36 11.0472 12.296C11.6658 12.232 12.2525 12.104 12.8072 11.912C13.3618 11.72 13.8312 11.4427 14.2152 11.08C14.6205 10.7173 14.8552 10.2373 14.9192 9.63999Z" stroke="black" stroke-width="4" mask="url(#path-1-outside-1_58_13)"/>
<path class="2" d="M38.2584 22.824C38.2797 22.952 38.2904 23.08 38.2904 23.208C38.3117 23.3147 38.3224 23.4427 38.3224 23.592C38.3224 23.848 38.2477 24.0827 38.0984 24.296C38.0344 24.4027 37.9491 24.5093 37.8424 24.616C37.7357 24.7013 37.6077 24.776 37.4584 24.84C36.9251 25.1387 36.3597 25.2453 35.7624 25.16C35.4637 25.0747 35.1971 24.936 34.9624 24.744C34.9197 24.7013 34.8877 24.68 34.8664 24.68C34.8451 24.6587 34.8237 24.6267 34.8024 24.584C34.7811 24.5627 34.7597 24.5413 34.7384 24.52C34.7171 24.4773 34.6851 24.4453 34.6424 24.424C34.5357 24.3173 34.4504 24.2213 34.3864 24.136C34.3224 24.0293 34.2584 23.9227 34.1944 23.816C34.1517 23.7093 34.0984 23.6133 34.0344 23.528C33.9917 23.4213 33.9384 23.3147 33.8744 23.208C33.8317 23.1227 33.7891 23.048 33.7464 22.984C33.7037 22.8987 33.6717 22.8133 33.6504 22.728C33.5651 22.536 33.5117 22.3653 33.4904 22.216L32.8184 20.648C31.3464 20.648 29.8744 20.6587 28.4024 20.68C26.9517 20.68 25.4904 20.6693 24.0184 20.648L23.3464 22.216C23.3037 22.3013 23.2717 22.3867 23.2504 22.472C23.2504 22.5573 23.2291 22.6427 23.1864 22.728C23.1437 22.8133 23.1011 22.8987 23.0584 22.984C23.0371 23.048 23.0051 23.1227 22.9624 23.208C22.8984 23.3147 22.8344 23.4213 22.7704 23.528C22.7277 23.6133 22.6744 23.7093 22.6104 23.816C22.5677 23.9227 22.5144 24.0293 22.4504 24.136C22.3864 24.2213 22.3011 24.3173 22.1944 24.424C22.1517 24.4453 22.1197 24.4773 22.0984 24.52C22.0771 24.5413 22.0557 24.5627 22.0344 24.584C22.0131 24.6267 21.9917 24.6587 21.9704 24.68C21.9491 24.68 21.9171 24.7013 21.8744 24.744C21.6397 24.936 21.3731 25.0747 21.0744 25.16C20.4771 25.2453 19.9117 25.1387 19.3784 24.84C19.2291 24.776 19.1011 24.7013 18.9944 24.616C18.8877 24.5093 18.8024 24.4027 18.7384 24.296C18.5891 24.0827 18.5144 23.848 18.5144 23.592C18.5144 23.4427 18.5144 23.3147 18.5144 23.208C18.5357 23.08 18.5571 22.952 18.5784 22.824C18.6211 22.632 18.6744 22.44 18.7384 22.248C18.8024 22.056 18.8344 21.96 18.8344 21.96L25.4904 5.57599L25.6824 5.06399C25.7251 4.93599 25.7784 4.81866 25.8424 4.71199C25.9064 4.60533 25.9597 4.47733 26.0024 4.32799C26.1091 4.05066 26.2264 3.80533 26.3544 3.59199C26.4184 3.46399 26.4931 3.34666 26.5784 3.23999C26.6637 3.13333 26.7491 3.02666 26.8344 2.91999C26.9624 2.74933 27.1437 2.61066 27.3784 2.50399C27.6771 2.39733 28.0184 2.34399 28.4024 2.34399C28.8077 2.34399 29.1597 2.39733 29.4584 2.50399C29.6931 2.61066 29.8744 2.74933 30.0024 2.91999C30.1517 3.11199 30.3117 3.33599 30.4824 3.59199C30.6104 3.80533 30.7277 4.05066 30.8344 4.32799C30.8771 4.47733 30.9304 4.60533 30.9944 4.71199C31.0584 4.81866 31.1117 4.93599 31.1544 5.06399L31.3464 5.57599L38.0024 21.96C38.0024 21.96 38.0344 22.056 38.0984 22.248C38.1624 22.44 38.2157 22.632 38.2584 22.824ZM30.6744 14.984C30.3971 14.3653 30.1091 13.7253 29.8104 13.064C29.5331 12.4027 29.2344 11.7307 28.9144 11.048C28.8291 10.856 28.7437 10.664 28.6584 10.472C28.5731 10.2587 28.4877 10.056 28.4024 9.86399C28.3384 10.056 28.2637 10.2587 28.1784 10.472C28.0931 10.664 28.0077 10.856 27.9224 11.048C27.6024 11.7307 27.2931 12.4027 26.9944 13.064C26.7171 13.7253 26.4397 14.3653 26.1624 14.984L25.5864 16.392H31.2504L30.6744 14.984Z" stroke="black" stroke-width="4" mask="url(#path-1-outside-1_58_13)"/>
<path class="3" d="M54.7454 4.35999C55.5561 5.10666 56.1534 6.00266 56.5374 7.04799C56.9214 8.07199 57.0707 9.09599 56.9854 10.12C56.9001 11.1013 56.5907 12.008 56.0574 12.84C55.5241 13.6507 54.7134 14.2693 53.6254 14.696C52.7721 15.0587 51.9294 15.3147 51.0974 15.464C50.2654 15.6133 49.3481 15.7307 48.3454 15.816C47.8974 15.8587 47.5134 15.8907 47.1934 15.912C46.8947 15.912 46.5427 15.9227 46.1374 15.944C46.0521 15.944 45.9027 15.944 45.6894 15.944C45.4974 15.944 45.3587 15.9547 45.2734 15.976V22.6C45.2094 23.0053 45.1241 23.4213 45.0174 23.848C44.9321 24.2747 44.6867 24.6053 44.2814 24.84C44.0467 24.968 43.7587 25.0427 43.4174 25.064C43.0761 25.0853 42.7667 25.0747 42.4894 25.032C42.1907 24.9893 41.9347 24.9147 41.7214 24.808C41.5294 24.68 41.3694 24.4667 41.2414 24.168C41.1561 23.976 41.0707 23.7627 40.9854 23.528C40.9214 23.272 40.8894 22.9627 40.8894 22.6V4.90399C40.8894 4.75466 40.9001 4.61599 40.9214 4.48799C40.9427 4.35999 40.9641 4.23199 40.9854 4.10399C41.0281 3.99733 41.0601 3.87999 41.0814 3.75199C41.1027 3.62399 41.1347 3.50666 41.1774 3.39999C41.2201 3.29333 41.2627 3.19733 41.3054 3.11199C41.3694 3.02666 41.4441 2.95199 41.5294 2.88799C41.6361 2.78133 41.7961 2.68533 42.0094 2.59999C42.2441 2.51466 42.5854 2.47199 43.0334 2.47199H43.0974C43.7587 2.42933 44.4947 2.39733 45.3054 2.37599C46.1161 2.33333 46.7881 2.34399 47.3214 2.40799C47.6201 2.45066 47.8974 2.48266 48.1534 2.50399C48.4094 2.50399 48.6547 2.51466 48.8894 2.53599C49.1454 2.55733 49.4014 2.57866 49.6574 2.59999C49.9134 2.62133 50.1694 2.65333 50.4254 2.69599C50.6387 2.73866 50.8307 2.77066 51.0014 2.79199C51.1934 2.81333 51.3854 2.84533 51.5774 2.88799C51.7481 2.93066 51.9294 2.97333 52.1214 3.01599C52.3347 3.05866 52.5267 3.13333 52.6974 3.23999C53.1454 3.36799 53.5187 3.52799 53.8174 3.71999C54.1161 3.91199 54.4254 4.12533 54.7454 4.35999ZM52.8254 9.63999C52.8467 9.12799 52.7401 8.67999 52.5054 8.29599C52.2921 7.91199 51.9827 7.59199 51.5774 7.33599C51.1721 7.07999 50.7134 6.87733 50.2014 6.72799C49.6894 6.57866 49.1774 6.47199 48.6654 6.40799C48.5374 6.40799 48.3561 6.40799 48.1214 6.40799C47.9081 6.38666 47.6734 6.37599 47.4174 6.37599C47.1614 6.35466 46.9161 6.34399 46.6814 6.34399C46.4681 6.32266 46.2974 6.31199 46.1694 6.31199C46.0627 6.29066 45.9347 6.27999 45.7854 6.27999C45.6361 6.27999 45.4654 6.27999 45.2734 6.27999C45.2947 6.94133 45.3054 7.58133 45.3054 8.19999C45.3054 8.79733 45.3054 9.44799 45.3054 10.152C45.2841 10.536 45.2734 10.92 45.2734 11.304C45.2734 11.688 45.2734 12.0613 45.2734 12.424L47.2574 12.392C47.7694 12.392 48.3347 12.36 48.9534 12.296C49.5721 12.232 50.1587 12.104 50.7134 11.912C51.2681 11.72 51.7374 11.4427 52.1214 11.08C52.5267 10.7173 52.7614 10.2373 52.8254 9.63999Z" stroke="black" stroke-width="4" mask="url(#path-1-outside-1_58_13)"/>
<path class="4" d="M76.1647 22.824C76.186 22.952 76.1967 23.08 76.1967 23.208C76.218 23.3147 76.2287 23.4427 76.2287 23.592C76.2287 23.848 76.154 24.0827 76.0047 24.296C75.9407 24.4027 75.8553 24.5093 75.7487 24.616C75.642 24.7013 75.514 24.776 75.3647 24.84C74.8313 25.1387 74.266 25.2453 73.6687 25.16C73.37 25.0747 73.1033 24.936 72.8687 24.744C72.826 24.7013 72.794 24.68 72.7727 24.68C72.7513 24.6587 72.73 24.6267 72.7087 24.584C72.6873 24.5627 72.666 24.5413 72.6447 24.52C72.6233 24.4773 72.5913 24.4453 72.5487 24.424C72.442 24.3173 72.3567 24.2213 72.2927 24.136C72.2287 24.0293 72.1647 23.9227 72.1007 23.816C72.058 23.7093 72.0047 23.6133 71.9407 23.528C71.898 23.4213 71.8447 23.3147 71.7807 23.208C71.738 23.1227 71.6953 23.048 71.6527 22.984C71.61 22.8987 71.578 22.8133 71.5567 22.728C71.4713 22.536 71.418 22.3653 71.3967 22.216L70.7247 20.648C69.2527 20.648 67.7807 20.6587 66.3087 20.68C64.858 20.68 63.3967 20.6693 61.9247 20.648L61.2527 22.216C61.21 22.3013 61.178 22.3867 61.1567 22.472C61.1567 22.5573 61.1353 22.6427 61.0927 22.728C61.05 22.8133 61.0073 22.8987 60.9647 22.984C60.9433 23.048 60.9113 23.1227 60.8687 23.208C60.8047 23.3147 60.7407 23.4213 60.6767 23.528C60.634 23.6133 60.5807 23.7093 60.5167 23.816C60.474 23.9227 60.4207 24.0293 60.3567 24.136C60.2927 24.2213 60.2073 24.3173 60.1007 24.424C60.058 24.4453 60.026 24.4773 60.0047 24.52C59.9833 24.5413 59.962 24.5627 59.9407 24.584C59.9193 24.6267 59.898 24.6587 59.8767 24.68C59.8553 24.68 59.8233 24.7013 59.7807 24.744C59.546 24.936 59.2793 25.0747 58.9807 25.16C58.3833 25.2453 57.818 25.1387 57.2847 24.84C57.1353 24.776 57.0073 24.7013 56.9007 24.616C56.794 24.5093 56.7087 24.4027 56.6447 24.296C56.4953 24.0827 56.4207 23.848 56.4207 23.592C56.4207 23.4427 56.4207 23.3147 56.4207 23.208C56.442 23.08 56.4633 22.952 56.4847 22.824C56.5273 22.632 56.5807 22.44 56.6447 22.248C56.7087 22.056 56.7407 21.96 56.7407 21.96L63.3967 5.57599L63.5887 5.06399C63.6313 4.93599 63.6847 4.81866 63.7487 4.71199C63.8127 4.60533 63.866 4.47733 63.9087 4.32799C64.0153 4.05066 64.1327 3.80533 64.2607 3.59199C64.3247 3.46399 64.3993 3.34666 64.4847 3.23999C64.57 3.13333 64.6553 3.02666 64.7407 2.91999C64.8687 2.74933 65.05 2.61066 65.2847 2.50399C65.5833 2.39733 65.9247 2.34399 66.3087 2.34399C66.714 2.34399 67.066 2.39733 67.3647 2.50399C67.5993 2.61066 67.7807 2.74933 67.9087 2.91999C68.058 3.11199 68.218 3.33599 68.3887 3.59199C68.5167 3.80533 68.634 4.05066 68.7407 4.32799C68.7833 4.47733 68.8367 4.60533 68.9007 4.71199C68.9647 4.81866 69.018 4.93599 69.0607 5.06399L69.2527 5.57599L75.9087 21.96C75.9087 21.96 75.9407 22.056 76.0047 22.248C76.0687 22.44 76.122 22.632 76.1647 22.824ZM68.5807 14.984C68.3033 14.3653 68.0153 13.7253 67.7167 13.064C67.4393 12.4027 67.1407 11.7307 66.8207 11.048C66.7353 10.856 66.65 10.664 66.5647 10.472C66.4793 10.2587 66.394 10.056 66.3087 9.86399C66.2447 10.056 66.17 10.2587 66.0847 10.472C65.9993 10.664 65.914 10.856 65.8287 11.048C65.5087 11.7307 65.1993 12.4027 64.9007 13.064C64.6233 13.7253 64.346 14.3653 64.0687 14.984L63.4927 16.392H69.1567L68.5807 14.984Z" stroke="black" stroke-width="4" mask="url(#path-1-outside-1_58_13)"/>
<path class="5" d="M94.7549 17.384C94.7549 18.024 94.7229 18.6747 94.6589 19.336C94.5949 19.976 94.4669 20.6053 94.2749 21.224C94.0829 21.8213 93.7949 22.3973 93.4109 22.952C93.0269 23.4853 92.5042 23.9547 91.8429 24.36C91.5229 24.5733 91.1389 24.7547 90.6909 24.904C90.2642 25.032 89.8056 25.1387 89.3149 25.224C88.8456 25.3307 88.3762 25.3947 87.9069 25.416C87.4376 25.4587 87.0002 25.4693 86.5949 25.448C84.6749 25.384 83.1176 24.9253 81.9229 24.072C80.7496 23.1973 79.8429 22.12 79.2029 20.84C78.5842 19.56 78.1789 18.1733 77.9869 16.68C77.8162 15.1653 77.7842 13.7253 77.8909 12.36C77.9549 11.5493 78.0936 10.6747 78.3069 9.73599C78.5416 8.79733 78.8722 7.89066 79.2989 7.01599C79.7469 6.14133 80.2909 5.35199 80.9309 4.64799C81.5922 3.94399 82.3709 3.41066 83.2669 3.04799C84.0989 2.70666 85.0056 2.49333 85.9869 2.40799C86.9896 2.30133 87.9709 2.33333 88.9309 2.50399C89.9122 2.67466 90.8189 2.98399 91.6509 3.43199C92.5042 3.87999 93.1762 4.47733 93.6669 5.22399C94.0082 5.77866 94.2749 6.45066 94.4669 7.23999C94.6589 8.02933 94.6909 8.78666 94.5629 9.51199C94.4562 10.152 94.2322 10.6 93.8909 10.856C93.5496 11.0907 93.1762 11.1867 92.7709 11.144C92.3656 11.08 91.9709 10.9093 91.5869 10.632C91.2242 10.3333 90.9789 9.95999 90.8509 9.51199C90.7016 9.02133 90.5202 8.57333 90.3069 8.16799C90.0936 7.74133 89.7629 7.38933 89.3149 7.11199C88.8029 6.79199 88.2589 6.61066 87.6829 6.56799C87.1282 6.52533 86.5842 6.58933 86.0509 6.75999C85.5389 6.93066 85.0482 7.19733 84.5789 7.55999C84.1309 7.92266 83.7576 8.33866 83.4589 8.80799C83.0962 9.34133 82.8189 9.92799 82.6269 10.568C82.4349 11.1867 82.2962 11.8373 82.2109 12.52C82.1256 13.1813 82.0936 13.8533 82.1149 14.536C82.1576 15.1973 82.2429 15.8373 82.3709 16.456C82.6056 17.5013 82.9682 18.4827 83.4589 19.4C83.6509 19.7413 83.9069 20.0507 84.2269 20.328C84.5682 20.584 84.9416 20.7973 85.3469 20.968C85.7522 21.1173 86.1789 21.2133 86.6269 21.256C87.0749 21.2987 87.5016 21.2667 87.9069 21.16C88.4829 21.0107 88.9522 20.8187 89.3149 20.584C89.6776 20.328 89.9656 20.0293 90.1789 19.688C90.3922 19.3467 90.5309 18.9733 90.5949 18.568C90.6802 18.1627 90.7229 17.736 90.7229 17.288V17.256C90.4456 17.256 90.2002 17.256 89.9869 17.256C89.7736 17.2347 89.6136 17.224 89.5069 17.224C89.0376 17.224 88.5789 17.1387 88.1309 16.968C87.7469 16.84 87.4589 16.6373 87.2669 16.36C87.0536 16.1253 86.9469 15.8373 86.9469 15.496C86.9469 15.368 86.9469 15.2507 86.9469 15.144C86.9682 15.016 86.9896 14.888 87.0109 14.76C87.0749 14.5893 87.2136 14.376 87.4269 14.12C87.5549 14.0133 87.7576 13.928 88.0349 13.864C88.1629 13.8213 88.2909 13.7893 88.4189 13.768C88.5469 13.7253 88.6962 13.6933 88.8669 13.672C88.9949 13.6507 89.1336 13.64 89.2829 13.64C89.4322 13.64 89.5816 13.64 89.7309 13.64H92.6429C92.8776 13.6187 93.1442 13.6507 93.4429 13.736C93.7629 13.8 94.0082 13.9067 94.1789 14.056C94.2429 14.1413 94.3069 14.2267 94.3709 14.312C94.4349 14.3973 94.4882 14.4933 94.5309 14.6C94.6162 14.8347 94.6696 15.0693 94.6909 15.304C94.7122 15.432 94.7229 15.5707 94.7229 15.72C94.7442 15.848 94.7549 15.9653 94.7549 16.072V17.384Z" stroke="black" stroke-width="4" mask="url(#path-1-outside-1_58_13)"/>
<path class="6" d="M102.991 3.11199C104.42 2.57866 105.711 2.34399 106.863 2.40799C108.036 2.47199 109.082 2.77066 109.999 3.30399C110.916 3.81599 111.695 4.50933 112.335 5.38399C112.996 6.25866 113.53 7.23999 113.935 8.32799C114.255 9.13866 114.5 9.99199 114.671 10.888C114.842 11.784 114.938 12.68 114.959 13.576C115.002 14.4507 114.97 15.3147 114.863 16.168C114.778 17.0213 114.628 17.8107 114.415 18.536C114.287 19.0267 114.138 19.4747 113.967 19.88C113.796 20.2853 113.594 20.6907 113.359 21.096C112.826 22.0133 112.132 22.76 111.279 23.336C110.447 23.912 109.53 24.3173 108.527 24.552C107.844 24.7227 107.14 24.808 106.415 24.808C105.69 24.7867 104.975 24.6907 104.271 24.52C103.567 24.328 102.884 24.0613 102.223 23.72C101.583 23.3573 100.996 22.9093 100.463 22.376C99.8016 21.736 99.2576 21 98.8309 20.168C98.4042 19.3147 98.0736 18.4293 97.8389 17.512C97.6042 16.5733 97.4549 15.6347 97.3909 14.696C97.3269 13.7573 97.3269 12.8613 97.3909 12.008C97.4549 11.2187 97.6042 10.376 97.8389 9.47999C98.0949 8.58399 98.4576 7.71999 98.9269 6.88799C99.3962 6.05599 99.9616 5.30933 100.623 4.64799C101.306 3.96533 102.095 3.45333 102.991 3.11199ZM110.479 16.808C110.735 15.8053 110.842 14.6747 110.799 13.416C110.756 12.1573 110.554 10.9733 110.191 9.86399C109.956 9.18133 109.658 8.58399 109.295 8.07199C108.954 7.53866 108.538 7.13333 108.047 6.85599C107.578 6.57866 107.023 6.43999 106.383 6.43999C105.743 6.43999 105.028 6.63199 104.239 7.01599C103.77 7.25066 103.364 7.57066 103.023 7.97599C102.703 8.38133 102.436 8.83999 102.223 9.35199C102.031 9.86399 101.871 10.3973 101.743 10.952C101.636 11.5067 101.572 12.04 101.551 12.552C101.508 13.1067 101.498 13.6933 101.519 14.312C101.54 14.9093 101.604 15.5173 101.711 16.136C101.839 16.7333 102.01 17.3093 102.223 17.864C102.436 18.3973 102.724 18.8773 103.087 19.304C103.642 19.944 104.282 20.392 105.007 20.648C105.754 20.8827 106.49 20.9147 107.215 20.744C108.388 20.488 109.284 19.7093 109.903 18.408C110.159 17.9387 110.351 17.4053 110.479 16.808Z" stroke="black" stroke-width="4" mask="url(#path-1-outside-1_58_13)"/>
</svg>
