<svg id="alarm-header_svg" width="95" height="31" viewBox="0 0 95 31" fill="none" xmlns="http://www.w3.org/2000/svg">
<mask id="path-1-outside-1_1_7" maskUnits="userSpaceOnUse" x="0.111877" y="0.511993" width="95" height="30" fill="black">
<rect fill="white" x="0.111877" y="0.511993" width="95" height="30"/>
<path d="M24.3239 25.552C24.3479 25.696 24.3599 25.84 24.3599 25.984C24.3839 26.104 24.3959 26.248 24.3959 26.416C24.3959 26.704 24.3119 26.968 24.1439 27.208C24.0719 27.328 23.9759 27.448 23.8559 27.568C23.7359 27.664 23.5919 27.748 23.4239 27.82C22.8239 28.156 22.1879 28.276 21.5159 28.18C21.1799 28.084 20.8799 27.928 20.6159 27.712C20.5679 27.664 20.5319 27.64 20.5079 27.64C20.4839 27.616 20.4599 27.58 20.4359 27.532C20.4119 27.508 20.3879 27.484 20.3639 27.46C20.3399 27.412 20.3039 27.376 20.2559 27.352C20.1359 27.232 20.0399 27.124 19.9679 27.028C19.8959 26.908 19.8239 26.788 19.7519 26.668C19.7039 26.548 19.6439 26.44 19.5719 26.344C19.5239 26.224 19.4639 26.104 19.3919 25.984C19.3439 25.888 19.2959 25.804 19.2479 25.732C19.1999 25.636 19.1639 25.54 19.1399 25.444C19.0439 25.228 18.9839 25.036 18.9599 24.868L18.2039 23.104C16.5479 23.104 14.8919 23.116 13.2359 23.14C11.6039 23.14 9.95988 23.128 8.30388 23.104L7.54788 24.868C7.49988 24.964 7.46388 25.06 7.43988 25.156C7.43988 25.252 7.41588 25.348 7.36788 25.444C7.31988 25.54 7.27188 25.636 7.22388 25.732C7.19988 25.804 7.16388 25.888 7.11588 25.984C7.04388 26.104 6.97188 26.224 6.89988 26.344C6.85188 26.44 6.79188 26.548 6.71988 26.668C6.67188 26.788 6.61188 26.908 6.53988 27.028C6.46788 27.124 6.37188 27.232 6.25188 27.352C6.20388 27.376 6.16788 27.412 6.14388 27.46C6.11988 27.484 6.09588 27.508 6.07188 27.532C6.04788 27.58 6.02388 27.616 5.99988 27.64C5.97588 27.64 5.93988 27.664 5.89188 27.712C5.62788 27.928 5.32788 28.084 4.99188 28.18C4.31988 28.276 3.68388 28.156 3.08388 27.82C2.91588 27.748 2.77188 27.664 2.65188 27.568C2.53188 27.448 2.43588 27.328 2.36388 27.208C2.19588 26.968 2.11188 26.704 2.11188 26.416C2.11188 26.248 2.11188 26.104 2.11188 25.984C2.13588 25.84 2.15988 25.696 2.18388 25.552C2.23188 25.336 2.29188 25.12 2.36388 24.904C2.43588 24.688 2.47188 24.58 2.47188 24.58L9.95988 6.14799L10.1759 5.57199C10.2239 5.42799 10.2839 5.29599 10.3559 5.17599C10.4279 5.05599 10.4879 4.91199 10.5359 4.74399C10.6559 4.43199 10.7879 4.15599 10.9319 3.91599C11.0039 3.77199 11.0879 3.63999 11.1839 3.51999C11.2799 3.39999 11.3759 3.27999 11.4719 3.15999C11.6159 2.96799 11.8199 2.81199 12.0839 2.69199C12.4199 2.57199 12.8039 2.51199 13.2359 2.51199C13.6919 2.51199 14.0879 2.57199 14.4239 2.69199C14.6879 2.81199 14.8919 2.96799 15.0359 3.15999C15.2039 3.37599 15.3839 3.62799 15.5759 3.91599C15.7199 4.15599 15.8519 4.43199 15.9719 4.74399C16.0199 4.91199 16.0799 5.05599 16.1519 5.17599C16.2239 5.29599 16.2839 5.42799 16.3319 5.57199L16.5479 6.14799L24.0359 24.58C24.0359 24.58 24.0719 24.688 24.1439 24.904C24.2159 25.12 24.2759 25.336 24.3239 25.552ZM15.7919 16.732C15.4799 16.036 15.1559 15.316 14.8199 14.572C14.5079 13.828 14.1719 13.072 13.8119 12.304C13.7159 12.088 13.6199 11.872 13.5239 11.656C13.4279 11.416 13.3319 11.188 13.2359 10.972C13.1639 11.188 13.0799 11.416 12.9839 11.656C12.8879 11.872 12.7919 12.088 12.6959 12.304C12.3359 13.072 11.9879 13.828 11.6519 14.572C11.3399 15.316 11.0279 16.036 10.7159 16.732L10.0679 18.316H16.4399L15.7919 16.732Z"/>
<path d="M32.0718 25.12C32.0478 25.24 32.0238 25.36 31.9998 25.48C31.9998 25.576 31.9998 25.684 31.9998 25.804L31.7838 26.56C31.7358 26.656 31.6998 26.716 31.6758 26.74L31.5678 26.956C31.4478 27.22 31.2318 27.436 30.9198 27.604C30.3438 27.892 29.7318 27.964 29.0838 27.82C28.6758 27.772 28.3518 27.652 28.1118 27.46C27.8718 27.292 27.7038 27.088 27.6078 26.848C27.5118 26.608 27.4398 26.368 27.3918 26.128C27.3198 25.888 27.2838 25.672 27.2838 25.48V5.31999C27.2838 5.15199 27.2838 5.00799 27.2838 4.88799C27.3078 4.74399 27.3318 4.61199 27.3558 4.49199C27.3798 4.32399 27.4038 4.17999 27.4278 4.05999C27.4758 3.93999 27.5238 3.80799 27.5718 3.66399C27.6438 3.42399 27.7758 3.23199 27.9678 3.08799C28.2558 2.87199 28.5318 2.75199 28.7958 2.72799C28.9638 2.67999 29.1198 2.65599 29.2638 2.65599C29.4078 2.63199 29.5758 2.61999 29.7678 2.61999C30.1038 2.61999 30.4878 2.71599 30.9198 2.90799C31.2558 3.09999 31.4958 3.36399 31.6398 3.69999C31.8798 4.17999 31.9998 4.62399 31.9998 5.03199C32.0238 5.27199 32.0358 5.63199 32.0358 6.11199C32.0598 6.59199 32.0718 6.95199 32.0718 7.19199V7.33599C32.1198 8.10399 32.1438 8.84799 32.1438 9.56799C32.1438 10.264 32.1318 11.032 32.1078 11.872C32.1078 12.688 32.0958 13.48 32.0718 14.248C32.0718 14.992 32.0718 15.736 32.0718 16.48V24.04C32.0718 24.136 32.0718 24.232 32.0718 24.328C32.0958 24.4 32.1078 24.484 32.1078 24.58C32.1078 24.82 32.0958 25 32.0718 25.12Z"/>
<path d="M39.2301 12.844C39.9501 12.484 40.7061 12.232 41.4981 12.088C42.2901 11.92 43.0701 11.884 43.8381 11.98C44.6301 12.052 45.3861 12.256 46.1061 12.592C46.8261 12.904 47.4981 13.36 48.1221 13.96C48.7461 14.584 49.2261 15.268 49.5621 16.012C49.8981 16.756 50.1381 17.584 50.2821 18.496C50.3781 19.12 50.5341 19.696 50.7501 20.224C50.9661 20.752 51.1941 21.28 51.4341 21.808C51.6981 22.336 51.9381 22.864 52.1541 23.392C52.3941 23.92 52.5861 24.472 52.7301 25.048C52.8501 25.6 52.8021 26.14 52.5861 26.668C52.3941 27.172 51.9861 27.484 51.3621 27.604C51.0021 27.676 50.6541 27.652 50.3181 27.532C50.0061 27.388 49.7181 27.196 49.4541 26.956C49.1901 26.692 48.9501 26.416 48.7341 26.128C48.5421 25.816 48.3621 25.528 48.1941 25.264C47.6421 25.984 47.0421 26.548 46.3941 26.956C45.7461 27.34 44.9661 27.592 44.0541 27.712C43.2861 27.808 42.5541 27.832 41.8581 27.784C41.1621 27.736 40.4181 27.604 39.6261 27.388C38.5941 27.124 37.7421 26.668 37.0701 26.02C36.4221 25.348 35.9181 24.58 35.5581 23.716C35.2221 22.828 35.0421 21.88 35.0181 20.872C34.9941 19.864 35.1141 18.868 35.3781 17.884C35.7141 16.588 36.2181 15.532 36.8901 14.716C37.5621 13.9 38.3421 13.276 39.2301 12.844ZM40.1301 17.056C39.7941 17.392 39.5301 17.788 39.3381 18.244C39.1461 18.7 39.0261 19.18 38.9781 19.684C38.9541 20.188 39.0021 20.692 39.1221 21.196C39.2421 21.7 39.4341 22.144 39.6981 22.528C39.9381 22.864 40.3461 23.152 40.9221 23.392C41.4981 23.608 42.0981 23.74 42.7221 23.788C43.4421 23.836 44.0661 23.644 44.5941 23.212C45.1461 22.78 45.5541 22.24 45.8181 21.592C46.1061 20.92 46.2381 20.212 46.2141 19.468C46.1901 18.7 45.9861 18.004 45.6021 17.38C45.3141 16.924 44.9301 16.588 44.4501 16.372C43.9941 16.156 43.5021 16.048 42.9741 16.048C42.4461 16.024 41.9181 16.108 41.3901 16.3C40.8861 16.468 40.4661 16.72 40.1301 17.056Z"/>
<path d="M55.7612 15.256C55.7612 14.968 55.7612 14.644 55.7612 14.284C55.7612 13.9 55.7732 13.516 55.7972 13.132C55.8212 12.724 55.8572 12.34 55.9052 11.98C55.9772 11.596 56.0732 11.26 56.1932 10.972C56.3852 10.54 56.6852 10.252 57.0932 10.108C57.5012 9.93999 57.9452 9.86799 58.4252 9.89199C58.9292 9.89199 59.3252 9.97599 59.6132 10.144C59.9012 10.312 60.1172 10.54 60.2612 10.828C60.4052 11.092 60.4892 11.404 60.5132 11.764C60.5612 12.1 60.5852 12.46 60.5852 12.844C60.8012 12.46 61.0892 12.148 61.4492 11.908C61.8332 11.668 62.2172 11.476 62.6012 11.332C62.9852 11.188 63.3332 11.092 63.6452 11.044C63.9572 10.972 64.1372 10.936 64.1852 10.936C64.7852 10.888 65.3252 10.876 65.8052 10.9C66.3092 10.924 66.8612 11.032 67.4612 11.224C67.8452 11.368 68.2412 11.572 68.6492 11.836C69.0572 12.076 69.4172 12.364 69.7292 12.7C70.0412 13.036 70.2452 13.408 70.3412 13.816C70.4612 14.2 70.4132 14.608 70.1972 15.04C69.8612 15.64 69.4892 15.94 69.0812 15.94C68.6732 15.916 68.2292 15.844 67.7492 15.724C67.4852 15.676 67.1732 15.568 66.8132 15.4C66.4532 15.232 66.1412 15.124 65.8772 15.076C65.0612 14.956 64.3412 15.016 63.7172 15.256C63.0932 15.496 62.5532 15.784 62.0972 16.12C61.5692 16.528 61.1132 16.996 60.7292 17.524V22.708C60.7292 23.356 60.7172 24.028 60.6932 24.724C60.6932 25.42 60.5972 26.056 60.4052 26.632C60.2372 27.184 59.9372 27.64 59.5052 28C59.0972 28.336 58.4972 28.48 57.7052 28.432C57.2732 28.408 56.8892 28.204 56.5532 27.82C56.2172 27.412 56.0132 27.016 55.9412 26.632C55.8932 26.272 55.8572 25.84 55.8332 25.336C55.8092 24.832 55.7852 24.304 55.7612 23.752C55.7612 23.2 55.7612 22.648 55.7612 22.096C55.7612 21.52 55.7612 20.992 55.7612 20.512V15.256Z"/>
<path d="M92.8153 19.612C92.8633 20.38 92.8873 21.112 92.8873 21.808C92.8873 22.48 92.8633 23.2 92.8153 23.968C92.8153 24.256 92.8153 24.58 92.8153 24.94C92.8153 25.3 92.7913 25.648 92.7433 25.984C92.6953 26.32 92.6113 26.632 92.4913 26.92C92.3713 27.208 92.1913 27.436 91.9513 27.604C91.6633 27.796 91.3393 27.928 90.9793 28C90.6193 28.048 90.2833 28.024 89.9713 27.928C89.6593 27.832 89.3833 27.652 89.1433 27.388C88.9273 27.124 88.8073 26.752 88.7833 26.272C88.7113 25.168 88.6753 24.064 88.6753 22.96C88.6753 22.408 88.6633 21.88 88.6393 21.376C88.6393 20.872 88.6513 20.164 88.6753 19.252C88.6753 18.796 88.6393 18.28 88.5673 17.704C88.4953 17.104 88.3153 16.684 88.0273 16.444C87.8113 16.252 87.5713 16.144 87.3073 16.12C87.0433 16.072 86.7793 16.096 86.5153 16.192C86.2753 16.288 86.0593 16.468 85.8673 16.732C85.6753 16.972 85.5433 17.284 85.4713 17.668C85.4713 17.98 85.4593 18.304 85.4353 18.64C85.4353 18.952 85.4473 19.252 85.4713 19.54C85.4953 20.308 85.5073 21.04 85.5073 21.736C85.5073 22.408 85.4953 23.128 85.4713 23.896C85.4473 24.208 85.4353 24.544 85.4353 24.904C85.4593 25.264 85.4593 25.624 85.4353 25.984C85.4113 26.32 85.3393 26.632 85.2193 26.92C85.1233 27.208 84.9433 27.436 84.6793 27.604C84.3913 27.796 84.0793 27.916 83.7433 27.964C83.4313 27.988 83.1313 27.94 82.8433 27.82C82.5793 27.676 82.3393 27.46 82.1233 27.172C81.9313 26.884 81.8233 26.5 81.7993 26.02C81.7513 25.468 81.7153 24.964 81.6913 24.508C81.6913 24.028 81.6913 23.524 81.6913 22.996C81.6913 22.444 81.7033 21.88 81.7273 21.304C81.7513 20.704 81.7393 20.128 81.6913 19.576C81.6913 19.408 81.6793 19.216 81.6553 19C81.6553 18.76 81.6433 18.52 81.6193 18.28C81.6193 18.04 81.5953 17.812 81.5473 17.596C81.5233 17.356 81.4753 17.164 81.4033 17.02C81.2113 16.684 80.8633 16.468 80.3593 16.372C79.8793 16.276 79.4713 16.312 79.1353 16.48C78.7993 16.648 78.5473 16.864 78.3793 17.128C78.2113 17.392 78.0913 17.68 78.0193 17.992C77.9473 18.304 77.9113 18.64 77.9113 19C77.9113 19.336 77.9113 19.66 77.9113 19.972C77.9113 21.532 77.9113 22.888 77.9113 24.04C77.9353 25.168 77.8153 26.08 77.5513 26.776C77.4313 27.136 77.1793 27.412 76.7953 27.604C76.4353 27.796 76.0393 27.892 75.6073 27.892C75.1993 27.892 74.8153 27.796 74.4553 27.604C74.0953 27.412 73.8553 27.112 73.7353 26.704C73.6633 26.44 73.5913 26.068 73.5193 25.588C73.4713 25.084 73.4353 24.532 73.4113 23.932C73.3873 23.332 73.3753 22.732 73.3753 22.132C73.3753 21.508 73.3753 20.944 73.3753 20.44V15.256C73.3513 14.704 73.3393 14.104 73.3393 13.456C73.3393 12.808 73.4353 12.22 73.6273 11.692C73.7953 11.236 74.0593 10.948 74.4193 10.828C74.7793 10.684 75.1513 10.624 75.5353 10.648C75.9673 10.648 76.3033 10.768 76.5433 11.008C76.8073 11.224 76.9993 11.5 77.1193 11.836C77.2393 12.148 77.3113 12.508 77.3353 12.916C77.3593 13.3 77.3833 13.672 77.4073 14.032C77.6713 13.432 77.9833 12.94 78.3433 12.556C78.7273 12.148 79.2673 11.884 79.9633 11.764C81.7393 11.428 83.1553 11.884 84.2113 13.132C84.6913 12.652 85.3033 12.256 86.0473 11.944C86.6233 11.728 87.2113 11.632 87.8113 11.656C88.4113 11.656 88.9753 11.764 89.5033 11.98C90.0553 12.196 90.5473 12.508 90.9793 12.916C91.4353 13.324 91.7953 13.816 92.0593 14.392C92.4193 15.16 92.6233 16.012 92.6713 16.948C92.7193 17.884 92.7673 18.772 92.8153 19.612Z"/>
</mask>
<path class="1" d="M24.3239 25.552C24.3479 25.696 24.3599 25.84 24.3599 25.984C24.3839 26.104 24.3959 26.248 24.3959 26.416C24.3959 26.704 24.3119 26.968 24.1439 27.208C24.0719 27.328 23.9759 27.448 23.8559 27.568C23.7359 27.664 23.5919 27.748 23.4239 27.82C22.8239 28.156 22.1879 28.276 21.5159 28.18C21.1799 28.084 20.8799 27.928 20.6159 27.712C20.5679 27.664 20.5319 27.64 20.5079 27.64C20.4839 27.616 20.4599 27.58 20.4359 27.532C20.4119 27.508 20.3879 27.484 20.3639 27.46C20.3399 27.412 20.3039 27.376 20.2559 27.352C20.1359 27.232 20.0399 27.124 19.9679 27.028C19.8959 26.908 19.8239 26.788 19.7519 26.668C19.7039 26.548 19.6439 26.44 19.5719 26.344C19.5239 26.224 19.4639 26.104 19.3919 25.984C19.3439 25.888 19.2959 25.804 19.2479 25.732C19.1999 25.636 19.1639 25.54 19.1399 25.444C19.0439 25.228 18.9839 25.036 18.9599 24.868L18.2039 23.104C16.5479 23.104 14.8919 23.116 13.2359 23.14C11.6039 23.14 9.95988 23.128 8.30388 23.104L7.54788 24.868C7.49988 24.964 7.46388 25.06 7.43988 25.156C7.43988 25.252 7.41588 25.348 7.36788 25.444C7.31988 25.54 7.27188 25.636 7.22388 25.732C7.19988 25.804 7.16388 25.888 7.11588 25.984C7.04388 26.104 6.97188 26.224 6.89988 26.344C6.85188 26.44 6.79188 26.548 6.71988 26.668C6.67188 26.788 6.61188 26.908 6.53988 27.028C6.46788 27.124 6.37188 27.232 6.25188 27.352C6.20388 27.376 6.16788 27.412 6.14388 27.46C6.11988 27.484 6.09588 27.508 6.07188 27.532C6.04788 27.58 6.02388 27.616 5.99988 27.64C5.97588 27.64 5.93988 27.664 5.89188 27.712C5.62788 27.928 5.32788 28.084 4.99188 28.18C4.31988 28.276 3.68388 28.156 3.08388 27.82C2.91588 27.748 2.77188 27.664 2.65188 27.568C2.53188 27.448 2.43588 27.328 2.36388 27.208C2.19588 26.968 2.11188 26.704 2.11188 26.416C2.11188 26.248 2.11188 26.104 2.11188 25.984C2.13588 25.84 2.15988 25.696 2.18388 25.552C2.23188 25.336 2.29188 25.12 2.36388 24.904C2.43588 24.688 2.47188 24.58 2.47188 24.58L9.95988 6.14799L10.1759 5.57199C10.2239 5.42799 10.2839 5.29599 10.3559 5.17599C10.4279 5.05599 10.4879 4.91199 10.5359 4.74399C10.6559 4.43199 10.7879 4.15599 10.9319 3.91599C11.0039 3.77199 11.0879 3.63999 11.1839 3.51999C11.2799 3.39999 11.3759 3.27999 11.4719 3.15999C11.6159 2.96799 11.8199 2.81199 12.0839 2.69199C12.4199 2.57199 12.8039 2.51199 13.2359 2.51199C13.6919 2.51199 14.0879 2.57199 14.4239 2.69199C14.6879 2.81199 14.8919 2.96799 15.0359 3.15999C15.2039 3.37599 15.3839 3.62799 15.5759 3.91599C15.7199 4.15599 15.8519 4.43199 15.9719 4.74399C16.0199 4.91199 16.0799 5.05599 16.1519 5.17599C16.2239 5.29599 16.2839 5.42799 16.3319 5.57199L16.5479 6.14799L24.0359 24.58C24.0359 24.58 24.0719 24.688 24.1439 24.904C24.2159 25.12 24.2759 25.336 24.3239 25.552ZM15.7919 16.732C15.4799 16.036 15.1559 15.316 14.8199 14.572C14.5079 13.828 14.1719 13.072 13.8119 12.304C13.7159 12.088 13.6199 11.872 13.5239 11.656C13.4279 11.416 13.3319 11.188 13.2359 10.972C13.1639 11.188 13.0799 11.416 12.9839 11.656C12.8879 11.872 12.7919 12.088 12.6959 12.304C12.3359 13.072 11.9879 13.828 11.6519 14.572C11.3399 15.316 11.0279 16.036 10.7159 16.732L10.0679 18.316H16.4399L15.7919 16.732Z" stroke="black" stroke-width="4" mask="url(#path-1-outside-1_1_7)"/>
<path class="2" d="M32.0718 25.12C32.0478 25.24 32.0238 25.36 31.9998 25.48C31.9998 25.576 31.9998 25.684 31.9998 25.804L31.7838 26.56C31.7358 26.656 31.6998 26.716 31.6758 26.74L31.5678 26.956C31.4478 27.22 31.2318 27.436 30.9198 27.604C30.3438 27.892 29.7318 27.964 29.0838 27.82C28.6758 27.772 28.3518 27.652 28.1118 27.46C27.8718 27.292 27.7038 27.088 27.6078 26.848C27.5118 26.608 27.4398 26.368 27.3918 26.128C27.3198 25.888 27.2838 25.672 27.2838 25.48V5.31999C27.2838 5.15199 27.2838 5.00799 27.2838 4.88799C27.3078 4.74399 27.3318 4.61199 27.3558 4.49199C27.3798 4.32399 27.4038 4.17999 27.4278 4.05999C27.4758 3.93999 27.5238 3.80799 27.5718 3.66399C27.6438 3.42399 27.7758 3.23199 27.9678 3.08799C28.2558 2.87199 28.5318 2.75199 28.7958 2.72799C28.9638 2.67999 29.1198 2.65599 29.2638 2.65599C29.4078 2.63199 29.5758 2.61999 29.7678 2.61999C30.1038 2.61999 30.4878 2.71599 30.9198 2.90799C31.2558 3.09999 31.4958 3.36399 31.6398 3.69999C31.8798 4.17999 31.9998 4.62399 31.9998 5.03199C32.0238 5.27199 32.0358 5.63199 32.0358 6.11199C32.0598 6.59199 32.0718 6.95199 32.0718 7.19199V7.33599C32.1198 8.10399 32.1438 8.84799 32.1438 9.56799C32.1438 10.264 32.1318 11.032 32.1078 11.872C32.1078 12.688 32.0958 13.48 32.0718 14.248C32.0718 14.992 32.0718 15.736 32.0718 16.48V24.04C32.0718 24.136 32.0718 24.232 32.0718 24.328C32.0958 24.4 32.1078 24.484 32.1078 24.58C32.1078 24.82 32.0958 25 32.0718 25.12Z" stroke="black" stroke-width="4" mask="url(#path-1-outside-1_1_7)"/>
<path class="3" d="M39.2301 12.844C39.9501 12.484 40.7061 12.232 41.4981 12.088C42.2901 11.92 43.0701 11.884 43.8381 11.98C44.6301 12.052 45.3861 12.256 46.1061 12.592C46.8261 12.904 47.4981 13.36 48.1221 13.96C48.7461 14.584 49.2261 15.268 49.5621 16.012C49.8981 16.756 50.1381 17.584 50.2821 18.496C50.3781 19.12 50.5341 19.696 50.7501 20.224C50.9661 20.752 51.1941 21.28 51.4341 21.808C51.6981 22.336 51.9381 22.864 52.1541 23.392C52.3941 23.92 52.5861 24.472 52.7301 25.048C52.8501 25.6 52.8021 26.14 52.5861 26.668C52.3941 27.172 51.9861 27.484 51.3621 27.604C51.0021 27.676 50.6541 27.652 50.3181 27.532C50.0061 27.388 49.7181 27.196 49.4541 26.956C49.1901 26.692 48.9501 26.416 48.7341 26.128C48.5421 25.816 48.3621 25.528 48.1941 25.264C47.6421 25.984 47.0421 26.548 46.3941 26.956C45.7461 27.34 44.9661 27.592 44.0541 27.712C43.2861 27.808 42.5541 27.832 41.8581 27.784C41.1621 27.736 40.4181 27.604 39.6261 27.388C38.5941 27.124 37.7421 26.668 37.0701 26.02C36.4221 25.348 35.9181 24.58 35.5581 23.716C35.2221 22.828 35.0421 21.88 35.0181 20.872C34.9941 19.864 35.1141 18.868 35.3781 17.884C35.7141 16.588 36.2181 15.532 36.8901 14.716C37.5621 13.9 38.3421 13.276 39.2301 12.844ZM40.1301 17.056C39.7941 17.392 39.5301 17.788 39.3381 18.244C39.1461 18.7 39.0261 19.18 38.9781 19.684C38.9541 20.188 39.0021 20.692 39.1221 21.196C39.2421 21.7 39.4341 22.144 39.6981 22.528C39.9381 22.864 40.3461 23.152 40.9221 23.392C41.4981 23.608 42.0981 23.74 42.7221 23.788C43.4421 23.836 44.0661 23.644 44.5941 23.212C45.1461 22.78 45.5541 22.24 45.8181 21.592C46.1061 20.92 46.2381 20.212 46.2141 19.468C46.1901 18.7 45.9861 18.004 45.6021 17.38C45.3141 16.924 44.9301 16.588 44.4501 16.372C43.9941 16.156 43.5021 16.048 42.9741 16.048C42.4461 16.024 41.9181 16.108 41.3901 16.3C40.8861 16.468 40.4661 16.72 40.1301 17.056Z" stroke="black" stroke-width="4" mask="url(#path-1-outside-1_1_7)"/>
<path class="4" d="M55.7612 15.256C55.7612 14.968 55.7612 14.644 55.7612 14.284C55.7612 13.9 55.7732 13.516 55.7972 13.132C55.8212 12.724 55.8572 12.34 55.9052 11.98C55.9772 11.596 56.0732 11.26 56.1932 10.972C56.3852 10.54 56.6852 10.252 57.0932 10.108C57.5012 9.93999 57.9452 9.86799 58.4252 9.89199C58.9292 9.89199 59.3252 9.97599 59.6132 10.144C59.9012 10.312 60.1172 10.54 60.2612 10.828C60.4052 11.092 60.4892 11.404 60.5132 11.764C60.5612 12.1 60.5852 12.46 60.5852 12.844C60.8012 12.46 61.0892 12.148 61.4492 11.908C61.8332 11.668 62.2172 11.476 62.6012 11.332C62.9852 11.188 63.3332 11.092 63.6452 11.044C63.9572 10.972 64.1372 10.936 64.1852 10.936C64.7852 10.888 65.3252 10.876 65.8052 10.9C66.3092 10.924 66.8612 11.032 67.4612 11.224C67.8452 11.368 68.2412 11.572 68.6492 11.836C69.0572 12.076 69.4172 12.364 69.7292 12.7C70.0412 13.036 70.2452 13.408 70.3412 13.816C70.4612 14.2 70.4132 14.608 70.1972 15.04C69.8612 15.64 69.4892 15.94 69.0812 15.94C68.6732 15.916 68.2292 15.844 67.7492 15.724C67.4852 15.676 67.1732 15.568 66.8132 15.4C66.4532 15.232 66.1412 15.124 65.8772 15.076C65.0612 14.956 64.3412 15.016 63.7172 15.256C63.0932 15.496 62.5532 15.784 62.0972 16.12C61.5692 16.528 61.1132 16.996 60.7292 17.524V22.708C60.7292 23.356 60.7172 24.028 60.6932 24.724C60.6932 25.42 60.5972 26.056 60.4052 26.632C60.2372 27.184 59.9372 27.64 59.5052 28C59.0972 28.336 58.4972 28.48 57.7052 28.432C57.2732 28.408 56.8892 28.204 56.5532 27.82C56.2172 27.412 56.0132 27.016 55.9412 26.632C55.8932 26.272 55.8572 25.84 55.8332 25.336C55.8092 24.832 55.7852 24.304 55.7612 23.752C55.7612 23.2 55.7612 22.648 55.7612 22.096C55.7612 21.52 55.7612 20.992 55.7612 20.512V15.256Z" stroke="black" stroke-width="4" mask="url(#path-1-outside-1_1_7)"/>
<path class="5" d="M92.8153 19.612C92.8633 20.38 92.8873 21.112 92.8873 21.808C92.8873 22.48 92.8633 23.2 92.8153 23.968C92.8153 24.256 92.8153 24.58 92.8153 24.94C92.8153 25.3 92.7913 25.648 92.7433 25.984C92.6953 26.32 92.6113 26.632 92.4913 26.92C92.3713 27.208 92.1913 27.436 91.9513 27.604C91.6633 27.796 91.3393 27.928 90.9793 28C90.6193 28.048 90.2833 28.024 89.9713 27.928C89.6593 27.832 89.3833 27.652 89.1433 27.388C88.9273 27.124 88.8073 26.752 88.7833 26.272C88.7113 25.168 88.6753 24.064 88.6753 22.96C88.6753 22.408 88.6633 21.88 88.6393 21.376C88.6393 20.872 88.6513 20.164 88.6753 19.252C88.6753 18.796 88.6393 18.28 88.5673 17.704C88.4953 17.104 88.3153 16.684 88.0273 16.444C87.8113 16.252 87.5713 16.144 87.3073 16.12C87.0433 16.072 86.7793 16.096 86.5153 16.192C86.2753 16.288 86.0593 16.468 85.8673 16.732C85.6753 16.972 85.5433 17.284 85.4713 17.668C85.4713 17.98 85.4593 18.304 85.4353 18.64C85.4353 18.952 85.4473 19.252 85.4713 19.54C85.4953 20.308 85.5073 21.04 85.5073 21.736C85.5073 22.408 85.4953 23.128 85.4713 23.896C85.4473 24.208 85.4353 24.544 85.4353 24.904C85.4593 25.264 85.4593 25.624 85.4353 25.984C85.4113 26.32 85.3393 26.632 85.2193 26.92C85.1233 27.208 84.9433 27.436 84.6793 27.604C84.3913 27.796 84.0793 27.916 83.7433 27.964C83.4313 27.988 83.1313 27.94 82.8433 27.82C82.5793 27.676 82.3393 27.46 82.1233 27.172C81.9313 26.884 81.8233 26.5 81.7993 26.02C81.7513 25.468 81.7153 24.964 81.6913 24.508C81.6913 24.028 81.6913 23.524 81.6913 22.996C81.6913 22.444 81.7033 21.88 81.7273 21.304C81.7513 20.704 81.7393 20.128 81.6913 19.576C81.6913 19.408 81.6793 19.216 81.6553 19C81.6553 18.76 81.6433 18.52 81.6193 18.28C81.6193 18.04 81.5953 17.812 81.5473 17.596C81.5233 17.356 81.4753 17.164 81.4033 17.02C81.2113 16.684 80.8633 16.468 80.3593 16.372C79.8793 16.276 79.4713 16.312 79.1353 16.48C78.7993 16.648 78.5473 16.864 78.3793 17.128C78.2113 17.392 78.0913 17.68 78.0193 17.992C77.9473 18.304 77.9113 18.64 77.9113 19C77.9113 19.336 77.9113 19.66 77.9113 19.972C77.9113 21.532 77.9113 22.888 77.9113 24.04C77.9353 25.168 77.8153 26.08 77.5513 26.776C77.4313 27.136 77.1793 27.412 76.7953 27.604C76.4353 27.796 76.0393 27.892 75.6073 27.892C75.1993 27.892 74.8153 27.796 74.4553 27.604C74.0953 27.412 73.8553 27.112 73.7353 26.704C73.6633 26.44 73.5913 26.068 73.5193 25.588C73.4713 25.084 73.4353 24.532 73.4113 23.932C73.3873 23.332 73.3753 22.732 73.3753 22.132C73.3753 21.508 73.3753 20.944 73.3753 20.44V15.256C73.3513 14.704 73.3393 14.104 73.3393 13.456C73.3393 12.808 73.4353 12.22 73.6273 11.692C73.7953 11.236 74.0593 10.948 74.4193 10.828C74.7793 10.684 75.1513 10.624 75.5353 10.648C75.9673 10.648 76.3033 10.768 76.5433 11.008C76.8073 11.224 76.9993 11.5 77.1193 11.836C77.2393 12.148 77.3113 12.508 77.3353 12.916C77.3593 13.3 77.3833 13.672 77.4073 14.032C77.6713 13.432 77.9833 12.94 78.3433 12.556C78.7273 12.148 79.2673 11.884 79.9633 11.764C81.7393 11.428 83.1553 11.884 84.2113 13.132C84.6913 12.652 85.3033 12.256 86.0473 11.944C86.6233 11.728 87.2113 11.632 87.8113 11.656C88.4113 11.656 88.9753 11.764 89.5033 11.98C90.0553 12.196 90.5473 12.508 90.9793 12.916C91.4353 13.324 91.7953 13.816 92.0593 14.392C92.4193 15.16 92.6233 16.012 92.6713 16.948C92.7193 17.884 92.7673 18.772 92.8153 19.612Z" stroke="black" stroke-width="4" mask="url(#path-1-outside-1_1_7)"/>
</svg>
