<svg id="header-title_svg" width="223" height="39" viewBox="0 0 223 39" fill="none" xmlns="http://www.w3.org/2000/svg">
<mask id="path-1-outside-1_60_4" maskUnits="userSpaceOnUse" x="0.440002" y="-0.73999" width="222" height="40" fill="black">
<rect fill="white" x="0.440002" y="-0.73999" width="222" height="40"/>
<path d="M21.376 13.528C21.424 14.32 21.412 15.136 21.34 15.976C21.292 16.816 21.208 17.632 21.088 18.424C20.848 19.792 20.404 21.124 19.756 22.42C19.108 23.716 18.16 24.82 16.912 25.732C15.616 26.692 14.14 27.352 12.484 27.712C10.828 28.048 9.184 28.252 7.552 28.324C7 28.372 6.436 28.384 5.86 28.36C5.308 28.36 4.768 28.3 4.24 28.18C3.808 28.108 3.484 27.976 3.268 27.784C3.148 27.712 3.052 27.616 2.98 27.496C2.908 27.376 2.848 27.256 2.8 27.136C2.728 27.016 2.668 26.896 2.62 26.776C2.596 26.632 2.56 26.488 2.512 26.344C2.488 26.224 2.464 26.116 2.44 26.02C2.44 25.9 2.44 25.792 2.44 25.696V5.14001C2.44 4.97201 2.44 4.81601 2.44 4.67201C2.44 4.52801 2.464 4.38401 2.512 4.24001C2.56 3.90401 2.632 3.62801 2.728 3.41201C2.824 3.12401 2.956 2.92001 3.124 2.80001C3.268 2.68001 3.412 2.59601 3.556 2.54801C3.7 2.47601 3.832 2.41601 3.952 2.36801C4.096 2.32001 4.24 2.32001 4.384 2.36801C4.552 2.39201 4.732 2.35601 4.924 2.26001L10.936 2.40401C12.52 2.45201 13.936 2.82401 15.184 3.52001C16.432 4.19201 17.5 5.05601 18.388 6.11201C19.276 7.16801 19.972 8.35601 20.476 9.67601C20.98 10.972 21.28 12.256 21.376 13.528ZM14.68 20.368C15.136 19.648 15.472 18.82 15.688 17.884C15.904 16.948 16 16 15.976 15.04C15.952 14.056 15.82 13.108 15.58 12.196C15.34 11.26 15.004 10.432 14.572 9.71201C14.236 9.18401 13.804 8.75201 13.276 8.41601C12.748 8.08001 12.16 7.82801 11.512 7.66001C10.864 7.46801 10.168 7.33601 9.424 7.26401C8.704 7.19201 7.996 7.15601 7.3 7.15601C7.324 7.85201 7.336 8.52401 7.336 9.17201C7.336 9.82001 7.336 10.504 7.336 11.224C7.312 12.088 7.3 12.928 7.3 13.744C7.3 14.56 7.3 15.352 7.3 16.12V23.464C8.044 23.44 8.752 23.404 9.424 23.356C10.12 23.284 10.78 23.14 11.404 22.924C12.052 22.708 12.64 22.408 13.168 22.024C13.72 21.616 14.224 21.064 14.68 20.368Z"/>
<path d="M36.7983 23.068C37.0863 22.996 37.3743 22.948 37.6623 22.924C37.9743 22.9 38.2503 22.936 38.4903 23.032C38.7543 23.128 38.9703 23.296 39.1383 23.536C39.3063 23.752 39.3904 24.064 39.3904 24.472C39.3904 24.76 39.3183 25.036 39.1743 25.3C39.0303 25.564 38.8503 25.804 38.6343 26.02C38.4183 26.236 38.1783 26.428 37.9143 26.596C37.6503 26.74 37.3983 26.86 37.1583 26.956C36.4623 27.268 35.6583 27.508 34.7463 27.676C33.8583 27.844 32.9343 27.904 31.9743 27.856C30.6783 27.808 29.4303 27.556 28.2303 27.1C27.0543 26.62 26.1303 25.84 25.4583 24.76C24.8343 23.704 24.4623 22.528 24.3423 21.232C24.2223 19.936 24.2823 18.712 24.5223 17.56C24.7863 16.168 25.2303 15.04 25.8543 14.176C26.5023 13.288 27.2703 12.58 28.1583 12.052C29.2383 11.428 30.4503 11.104 31.7943 11.08C33.1383 11.056 34.4223 11.32 35.6463 11.872C36.4623 12.232 37.1943 12.724 37.8424 13.348C38.4904 13.948 38.9823 14.68 39.3183 15.544C39.4143 15.76 39.4863 16.024 39.5343 16.336C39.6063 16.648 39.6543 16.984 39.6783 17.344C39.7023 17.68 39.7023 18.016 39.6783 18.352C39.6543 18.688 39.5943 18.988 39.4983 19.252C39.3543 19.684 39.1743 20.02 38.9583 20.26C38.7423 20.5 38.4663 20.68 38.1303 20.8C37.7943 20.92 37.3863 21.004 36.9063 21.052C36.4503 21.076 35.8983 21.1 35.2503 21.124C34.6743 21.148 34.1343 21.16 33.6303 21.16C33.1263 21.16 32.6103 21.16 32.0823 21.16C31.5543 21.136 31.0023 21.124 30.4263 21.124C29.8743 21.1 29.2503 21.076 28.5543 21.052C28.4823 21.532 28.5423 21.952 28.7343 22.312C28.9503 22.648 29.2383 22.936 29.5983 23.176C29.9583 23.392 30.3663 23.56 30.8223 23.68C31.2783 23.8 31.7223 23.872 32.1543 23.896C32.9703 23.944 33.7503 23.884 34.4944 23.716C35.2384 23.524 36.0063 23.308 36.7983 23.068ZM35.2503 16.084C34.7943 15.556 34.3143 15.172 33.8103 14.932C33.4263 14.764 33.0183 14.692 32.5863 14.716C32.1783 14.716 31.7823 14.776 31.3983 14.896C30.7023 15.064 30.1143 15.424 29.6343 15.976C29.5863 16.024 29.5023 16.144 29.3823 16.336C29.2623 16.504 29.1423 16.684 29.0223 16.876C28.9263 17.068 28.8543 17.248 28.8063 17.416C28.7583 17.584 28.7823 17.668 28.8783 17.668H35.9343C35.9103 17.332 35.8503 17.056 35.7543 16.84C35.6583 16.6 35.4903 16.348 35.2503 16.084Z"/>
<path d="M52.9204 12.772C53.3284 12.892 53.5924 13.12 53.7124 13.456C53.8324 13.768 53.8684 14.104 53.8204 14.464C53.6764 15.208 53.2684 15.664 52.5964 15.832C52.2124 15.928 51.8164 15.976 51.4084 15.976C51.0244 15.976 50.6284 15.988 50.2204 16.012V24.328C50.2204 24.904 50.1844 25.492 50.1124 26.092C50.1124 26.308 50.0524 26.536 49.9324 26.776C49.8844 26.896 49.8484 26.968 49.8244 26.992C49.8244 27.04 49.8004 27.112 49.7524 27.208C49.6084 27.472 49.4164 27.688 49.1764 27.856C48.6484 28.144 48.0844 28.216 47.4844 28.072C47.1244 28 46.8484 27.88 46.6564 27.712C46.4404 27.544 46.2844 27.34 46.1884 27.1C46.1404 26.98 46.1044 26.86 46.0804 26.74C46.0564 26.62 46.0204 26.5 45.9724 26.38C45.9484 26.26 45.9244 26.152 45.9004 26.056C45.9004 25.936 45.9004 25.84 45.9004 25.768V23.68C45.9004 22.432 45.9004 21.136 45.9004 19.792C45.9244 18.448 45.9364 17.152 45.9364 15.904C45.3844 15.88 44.8084 15.868 44.2084 15.868C43.6324 15.844 43.2124 15.7 42.9484 15.436C42.8044 15.292 42.7084 15.112 42.6604 14.896C42.6124 14.656 42.5884 14.416 42.5884 14.176C42.6124 13.936 42.6604 13.72 42.7324 13.528C42.8044 13.312 42.9004 13.156 43.0204 13.06C43.3324 12.772 43.6084 12.616 43.8484 12.592C44.1124 12.544 44.4364 12.508 44.8204 12.484C44.8684 12.484 45.0244 12.484 45.2884 12.484C45.5764 12.46 45.7564 12.448 45.8284 12.448C45.8524 11.632 45.8764 10.816 45.9004 10C45.9244 9.18401 45.9964 8.44001 46.1164 7.76801C46.2604 7.07201 46.4644 6.47201 46.7284 5.96801C47.0164 5.44001 47.4484 5.04401 48.0244 4.78001C48.7204 4.46801 49.5124 4.27601 50.4004 4.20401C51.2884 4.13201 52.0924 4.24001 52.8124 4.52801C53.1484 4.64801 53.4724 4.88801 53.7844 5.24801C54.1204 5.60801 54.2764 6.00401 54.2524 6.43601C54.2284 6.86801 54.1444 7.26401 54.0004 7.62401C53.8564 7.98401 53.5444 8.22401 53.0644 8.34401C52.8484 8.39201 52.6204 8.41601 52.3804 8.41601C52.1644 8.39201 51.9364 8.38001 51.6964 8.38001C51.4564 8.38001 51.2284 8.41601 51.0124 8.48801C50.8204 8.53601 50.6524 8.64401 50.5084 8.81201C50.3884 8.95601 50.3044 9.14801 50.2564 9.38801C50.2324 9.62801 50.2084 9.88001 50.1844 10.144C50.1604 10.408 50.1484 10.672 50.1484 10.936C50.1724 11.176 50.1844 11.38 50.1844 11.548V12.448C50.7364 12.496 51.2404 12.532 51.6964 12.556C52.1764 12.58 52.5844 12.652 52.9204 12.772Z"/>
<path d="M59.9489 12.844C60.6689 12.484 61.4249 12.232 62.2169 12.088C63.0089 11.92 63.7889 11.884 64.5569 11.98C65.3489 12.052 66.1049 12.256 66.8249 12.592C67.5449 12.904 68.2169 13.36 68.8409 13.96C69.4649 14.584 69.9449 15.268 70.2809 16.012C70.6169 16.756 70.8569 17.584 71.0009 18.496C71.0969 19.12 71.2529 19.696 71.4689 20.224C71.6849 20.752 71.9129 21.28 72.1529 21.808C72.4169 22.336 72.6569 22.864 72.8729 23.392C73.1129 23.92 73.3049 24.472 73.4489 25.048C73.5689 25.6 73.5209 26.14 73.3049 26.668C73.1129 27.172 72.7049 27.484 72.0809 27.604C71.7209 27.676 71.3729 27.652 71.0369 27.532C70.7249 27.388 70.4369 27.196 70.1729 26.956C69.9089 26.692 69.6689 26.416 69.4529 26.128C69.2609 25.816 69.0809 25.528 68.9129 25.264C68.3609 25.984 67.7609 26.548 67.1129 26.956C66.4649 27.34 65.6849 27.592 64.7729 27.712C64.0049 27.808 63.2729 27.832 62.5769 27.784C61.8809 27.736 61.1369 27.604 60.3449 27.388C59.3129 27.124 58.4609 26.668 57.7889 26.02C57.1409 25.348 56.6369 24.58 56.2769 23.716C55.9409 22.828 55.7609 21.88 55.7369 20.872C55.7129 19.864 55.8329 18.868 56.0969 17.884C56.4329 16.588 56.9369 15.532 57.6089 14.716C58.2809 13.9 59.0609 13.276 59.9489 12.844ZM60.8489 17.056C60.5129 17.392 60.2489 17.788 60.0569 18.244C59.8649 18.7 59.7449 19.18 59.6969 19.684C59.6729 20.188 59.7209 20.692 59.8409 21.196C59.9609 21.7 60.1529 22.144 60.4169 22.528C60.6569 22.864 61.0649 23.152 61.6409 23.392C62.2169 23.608 62.8169 23.74 63.4409 23.788C64.1609 23.836 64.7849 23.644 65.3129 23.212C65.8649 22.78 66.2729 22.24 66.5369 21.592C66.8249 20.92 66.9569 20.212 66.9329 19.468C66.9089 18.7 66.7049 18.004 66.3209 17.38C66.0329 16.924 65.6489 16.588 65.1689 16.372C64.7129 16.156 64.2209 16.048 63.6929 16.048C63.1649 16.024 62.6369 16.108 62.1089 16.3C61.6049 16.468 61.1849 16.72 60.8489 17.056Z"/>
<path d="M91.2399 19.432C91.1919 20.224 91.1439 21.028 91.0959 21.844C91.0479 22.636 90.9159 23.404 90.6999 24.148C90.5079 24.892 90.1959 25.564 89.7639 26.164C89.3559 26.764 88.7679 27.244 87.9999 27.604C87.3279 27.94 86.6079 28.168 85.8399 28.288C85.0719 28.432 84.3039 28.492 83.5359 28.468C82.7679 28.444 82.0239 28.324 81.3039 28.108C80.5839 27.916 79.9359 27.64 79.3599 27.28C78.7839 26.92 78.3159 26.452 77.9559 25.876C77.5959 25.3 77.3079 24.676 77.0919 24.004C76.8999 23.332 76.7679 22.636 76.6959 21.916C76.6239 21.196 76.5759 20.524 76.5519 19.9C76.4559 18.244 76.4559 16.612 76.5519 15.004C76.5519 14.692 76.5519 14.344 76.5519 13.96C76.5519 13.552 76.5759 13.156 76.6239 12.772C76.6959 12.388 76.8039 12.04 76.9479 11.728C77.0919 11.392 77.3319 11.14 77.6679 10.972C78.3879 10.588 79.0479 10.564 79.6479 10.9C80.2719 11.236 80.6439 11.932 80.7639 12.988C80.8359 13.54 80.8599 14.152 80.8359 14.824C80.8359 15.496 80.8599 16.108 80.9079 16.66C80.9319 17.476 80.9559 18.364 80.9799 19.324C81.0039 20.26 81.1359 21.1 81.3759 21.844C81.6399 22.588 82.0599 23.152 82.6359 23.536C83.2359 23.896 84.1239 23.908 85.2999 23.572C85.8519 23.404 86.2119 22.984 86.3799 22.312C86.5719 21.64 86.6679 20.644 86.6679 19.324C86.6679 18.748 86.6559 18.112 86.6319 17.416C86.6079 16.72 86.5959 16.036 86.5959 15.364C86.5959 14.668 86.6079 14.032 86.6319 13.456C86.6799 12.856 86.7519 12.4 86.8479 12.088C86.9679 11.656 87.2199 11.332 87.6039 11.116C87.9879 10.9 88.3959 10.792 88.8279 10.792C89.2599 10.768 89.6679 10.852 90.0519 11.044C90.4359 11.236 90.6999 11.548 90.8439 11.98C90.9879 12.364 91.0839 12.856 91.1319 13.456C91.2039 14.032 91.2519 14.668 91.2759 15.364C91.2999 16.036 91.2999 16.732 91.2759 17.452C91.2759 18.148 91.2639 18.808 91.2399 19.432Z"/>
<path d="M99.7592 25.12C99.7352 25.24 99.7112 25.36 99.6872 25.48C99.6872 25.576 99.6872 25.684 99.6872 25.804L99.4713 26.56C99.4233 26.656 99.3873 26.716 99.3633 26.74L99.2552 26.956C99.1352 27.22 98.9192 27.436 98.6072 27.604C98.0312 27.892 97.4192 27.964 96.7712 27.82C96.3632 27.772 96.0392 27.652 95.7992 27.46C95.5592 27.292 95.3912 27.088 95.2952 26.848C95.1992 26.608 95.1272 26.368 95.0792 26.128C95.0072 25.888 94.9713 25.672 94.9713 25.48V5.32001C94.9713 5.15201 94.9713 5.00801 94.9713 4.88801C94.9953 4.74401 95.0193 4.61201 95.0433 4.49201C95.0673 4.32401 95.0912 4.18001 95.1152 4.06001C95.1632 3.94001 95.2112 3.80801 95.2592 3.66401C95.3312 3.42401 95.4633 3.23201 95.6553 3.08801C95.9433 2.87201 96.2193 2.75201 96.4833 2.72801C96.6513 2.68001 96.8072 2.65601 96.9512 2.65601C97.0952 2.63201 97.2633 2.62001 97.4553 2.62001C97.7913 2.62001 98.1752 2.71601 98.6072 2.90801C98.9432 3.10001 99.1832 3.36401 99.3272 3.70001C99.5672 4.18001 99.6872 4.62401 99.6872 5.03201C99.7112 5.27201 99.7233 5.63201 99.7233 6.11201C99.7473 6.59201 99.7592 6.95201 99.7592 7.19201V7.33601C99.8072 8.10401 99.8313 8.84801 99.8313 9.56801C99.8313 10.264 99.8192 11.032 99.7952 11.872C99.7952 12.688 99.7832 13.48 99.7592 14.248C99.7592 14.992 99.7592 15.736 99.7592 16.48V24.04C99.7592 24.136 99.7592 24.232 99.7592 24.328C99.7832 24.4 99.7952 24.484 99.7952 24.58C99.7952 24.82 99.7832 25 99.7592 25.12Z"/>
<path d="M118.078 12.124C118.27 12.58 118.282 13.084 118.114 13.636C117.97 14.188 117.694 14.548 117.286 14.716C117.07 14.812 116.782 14.896 116.422 14.968C116.062 15.016 115.666 15.064 115.234 15.112C114.826 15.16 114.418 15.196 114.01 15.22C113.602 15.244 113.254 15.256 112.966 15.256C112.99 15.976 113.014 16.72 113.038 17.488C113.062 18.232 113.086 18.964 113.11 19.684C113.134 20.404 113.146 21.1 113.146 21.772C113.146 22.42 113.134 23.008 113.11 23.536C113.11 23.896 113.11 24.316 113.11 24.796C113.11 25.252 113.074 25.696 113.002 26.128C112.954 26.56 112.87 26.944 112.75 27.28C112.63 27.592 112.45 27.796 112.21 27.892C111.466 28.204 110.782 28.288 110.158 28.144C109.558 28.024 109.126 27.772 108.862 27.388C108.67 27.076 108.526 26.716 108.43 26.308C108.334 25.876 108.262 25.444 108.214 25.012C108.19 24.556 108.178 24.124 108.178 23.716C108.202 23.284 108.214 22.912 108.214 22.6C108.238 21.592 108.25 20.452 108.25 19.18C108.274 17.884 108.286 16.588 108.286 15.292H107.746C107.458 15.292 107.086 15.292 106.63 15.292C106.198 15.268 105.754 15.232 105.298 15.184C104.866 15.112 104.458 15.028 104.074 14.932C103.69 14.812 103.414 14.644 103.246 14.428C102.982 14.116 102.814 13.78 102.742 13.42C102.694 13.06 102.718 12.724 102.814 12.412C102.934 12.076 103.114 11.788 103.354 11.548C103.594 11.284 103.87 11.116 104.182 11.044C104.614 10.924 105.226 10.864 106.018 10.864C106.81 10.84 107.554 10.84 108.25 10.864C108.226 10.624 108.214 10.396 108.214 10.18C108.214 9.94001 108.202 9.71201 108.178 9.49601C108.154 9.20801 108.142 8.84801 108.142 8.41601C108.142 7.96001 108.166 7.51601 108.214 7.08401C108.286 6.62801 108.394 6.20801 108.538 5.82401C108.682 5.41601 108.886 5.10401 109.15 4.88801C109.51 4.60001 109.87 4.44401 110.23 4.42001C110.614 4.37201 110.962 4.42001 111.274 4.56401C111.61 4.70801 111.886 4.92401 112.102 5.21201C112.342 5.47601 112.51 5.77601 112.606 6.11201C112.678 6.40001 112.738 6.74801 112.786 7.15601C112.834 7.54001 112.858 7.94801 112.858 8.38001C112.882 8.81201 112.894 9.24401 112.894 9.67601C112.894 10.108 112.894 10.504 112.894 10.864H113.254C113.614 10.864 114.034 10.852 114.514 10.828C114.994 10.804 115.462 10.816 115.918 10.864C116.398 10.912 116.83 11.032 117.214 11.224C117.598 11.392 117.886 11.692 118.078 12.124Z"/>
<path d="M149.127 17.524C149.247 17.86 149.331 18.244 149.379 18.676C149.451 19.084 149.487 19.504 149.487 19.936C149.487 20.368 149.451 20.8 149.379 21.232C149.331 21.64 149.259 22 149.163 22.312C148.779 23.656 148.011 24.784 146.859 25.696C145.707 26.584 144.387 27.232 142.899 27.64C141.435 28.048 139.911 28.192 138.327 28.072C136.767 27.952 135.375 27.556 134.151 26.884C133.383 26.452 132.723 25.924 132.171 25.3C131.619 24.676 131.151 23.98 130.767 23.212C130.623 22.948 130.527 22.648 130.479 22.312C130.455 21.952 130.491 21.616 130.587 21.304C130.683 20.968 130.839 20.68 131.055 20.44C131.271 20.176 131.571 19.996 131.955 19.9C132.195 19.852 132.459 19.828 132.747 19.828C133.059 19.828 133.359 19.876 133.647 19.972C133.935 20.044 134.199 20.176 134.439 20.368C134.679 20.536 134.871 20.776 135.015 21.088C135.279 21.592 135.651 22.06 136.131 22.492C136.635 22.9 137.163 23.236 137.715 23.5C138.507 23.764 139.299 23.872 140.091 23.824C140.907 23.776 141.639 23.596 142.287 23.284C142.959 22.972 143.499 22.552 143.907 22.024C144.315 21.472 144.519 20.848 144.519 20.152C144.519 19.576 144.435 19.108 144.267 18.748C144.099 18.364 143.859 18.052 143.547 17.812C143.259 17.548 142.899 17.332 142.467 17.164C142.059 16.996 141.603 16.852 141.099 16.732C140.523 16.612 139.935 16.528 139.335 16.48C138.759 16.432 138.171 16.372 137.571 16.3C136.971 16.228 136.383 16.132 135.807 16.012C135.231 15.892 134.667 15.712 134.115 15.472C133.011 15.016 132.171 14.32 131.595 13.384C131.019 12.448 130.671 11.44 130.551 10.36C130.455 9.28001 130.587 8.21201 130.947 7.15601C131.307 6.07601 131.883 5.15201 132.675 4.38401C133.443 3.68801 134.355 3.19601 135.411 2.90801C136.491 2.59601 137.679 2.41601 138.975 2.36801C139.695 2.34401 140.415 2.36801 141.135 2.44001C141.879 2.51201 142.587 2.63201 143.259 2.80001C143.955 2.96801 144.591 3.18401 145.167 3.44801C145.767 3.71201 146.283 4.02401 146.715 4.38401C147.027 4.62401 147.339 4.94801 147.651 5.35601C147.963 5.74001 148.203 6.16001 148.371 6.61601C148.539 7.04801 148.587 7.46801 148.515 7.87601C148.467 8.28401 148.215 8.63201 147.759 8.92001C147.375 9.16001 147.003 9.26801 146.643 9.24401C146.307 9.19601 145.983 9.08801 145.671 8.92001C145.359 8.72801 145.059 8.51201 144.771 8.27201C144.483 8.03201 144.219 7.81601 143.979 7.62401C143.331 7.14401 142.527 6.82001 141.567 6.65201C140.607 6.48401 139.707 6.44801 138.867 6.54401C138.339 6.61601 137.847 6.73601 137.391 6.90401C136.935 7.07201 136.539 7.30001 136.203 7.58801C135.891 7.87601 135.639 8.23601 135.447 8.66801C135.279 9.07601 135.219 9.54401 135.267 10.072C135.291 10.456 135.399 10.78 135.591 11.044C135.807 11.308 136.059 11.524 136.347 11.692C136.659 11.86 136.995 11.992 137.355 12.088C137.715 12.184 138.075 12.256 138.435 12.304C139.515 12.448 140.595 12.556 141.675 12.628C142.755 12.7 143.811 12.94 144.843 13.348C145.899 13.756 146.799 14.308 147.543 15.004C148.287 15.7 148.815 16.54 149.127 17.524Z"/>
<path d="M164.837 23.068C165.125 22.996 165.413 22.948 165.701 22.924C166.013 22.9 166.289 22.936 166.529 23.032C166.793 23.128 167.009 23.296 167.177 23.536C167.345 23.752 167.429 24.064 167.429 24.472C167.429 24.76 167.357 25.036 167.213 25.3C167.069 25.564 166.889 25.804 166.673 26.02C166.457 26.236 166.217 26.428 165.953 26.596C165.689 26.74 165.437 26.86 165.197 26.956C164.501 27.268 163.697 27.508 162.785 27.676C161.897 27.844 160.973 27.904 160.013 27.856C158.717 27.808 157.469 27.556 156.269 27.1C155.093 26.62 154.169 25.84 153.497 24.76C152.873 23.704 152.501 22.528 152.381 21.232C152.261 19.936 152.321 18.712 152.561 17.56C152.825 16.168 153.269 15.04 153.893 14.176C154.541 13.288 155.309 12.58 156.197 12.052C157.277 11.428 158.489 11.104 159.833 11.08C161.177 11.056 162.461 11.32 163.685 11.872C164.501 12.232 165.233 12.724 165.881 13.348C166.529 13.948 167.021 14.68 167.357 15.544C167.453 15.76 167.525 16.024 167.573 16.336C167.645 16.648 167.693 16.984 167.717 17.344C167.741 17.68 167.741 18.016 167.717 18.352C167.693 18.688 167.633 18.988 167.537 19.252C167.393 19.684 167.213 20.02 166.997 20.26C166.781 20.5 166.505 20.68 166.169 20.8C165.833 20.92 165.425 21.004 164.945 21.052C164.489 21.076 163.937 21.1 163.289 21.124C162.713 21.148 162.173 21.16 161.669 21.16C161.165 21.16 160.649 21.16 160.121 21.16C159.593 21.136 159.041 21.124 158.465 21.124C157.913 21.1 157.289 21.076 156.593 21.052C156.521 21.532 156.581 21.952 156.773 22.312C156.989 22.648 157.277 22.936 157.637 23.176C157.997 23.392 158.405 23.56 158.861 23.68C159.317 23.8 159.761 23.872 160.193 23.896C161.009 23.944 161.789 23.884 162.533 23.716C163.277 23.524 164.045 23.308 164.837 23.068ZM163.289 16.084C162.833 15.556 162.353 15.172 161.849 14.932C161.465 14.764 161.057 14.692 160.625 14.716C160.217 14.716 159.821 14.776 159.437 14.896C158.741 15.064 158.153 15.424 157.673 15.976C157.625 16.024 157.541 16.144 157.421 16.336C157.301 16.504 157.181 16.684 157.061 16.876C156.965 17.068 156.893 17.248 156.845 17.416C156.797 17.584 156.821 17.668 156.917 17.668H163.973C163.949 17.332 163.889 17.056 163.793 16.84C163.697 16.6 163.529 16.348 163.289 16.084Z"/>
<path d="M184.558 12.124C184.75 12.58 184.762 13.084 184.594 13.636C184.45 14.188 184.174 14.548 183.766 14.716C183.55 14.812 183.262 14.896 182.902 14.968C182.542 15.016 182.146 15.064 181.714 15.112C181.306 15.16 180.898 15.196 180.49 15.22C180.082 15.244 179.734 15.256 179.446 15.256C179.47 15.976 179.494 16.72 179.518 17.488C179.542 18.232 179.566 18.964 179.59 19.684C179.614 20.404 179.626 21.1 179.626 21.772C179.626 22.42 179.614 23.008 179.59 23.536C179.59 23.896 179.59 24.316 179.59 24.796C179.59 25.252 179.554 25.696 179.482 26.128C179.434 26.56 179.35 26.944 179.23 27.28C179.11 27.592 178.93 27.796 178.69 27.892C177.946 28.204 177.262 28.288 176.638 28.144C176.038 28.024 175.606 27.772 175.342 27.388C175.15 27.076 175.006 26.716 174.91 26.308C174.814 25.876 174.742 25.444 174.694 25.012C174.67 24.556 174.658 24.124 174.658 23.716C174.682 23.284 174.694 22.912 174.694 22.6C174.718 21.592 174.73 20.452 174.73 19.18C174.754 17.884 174.766 16.588 174.766 15.292H174.226C173.938 15.292 173.566 15.292 173.11 15.292C172.678 15.268 172.234 15.232 171.778 15.184C171.346 15.112 170.938 15.028 170.554 14.932C170.17 14.812 169.894 14.644 169.726 14.428C169.462 14.116 169.294 13.78 169.222 13.42C169.174 13.06 169.198 12.724 169.294 12.412C169.414 12.076 169.594 11.788 169.834 11.548C170.074 11.284 170.35 11.116 170.662 11.044C171.094 10.924 171.706 10.864 172.498 10.864C173.29 10.84 174.034 10.84 174.73 10.864C174.706 10.624 174.694 10.396 174.694 10.18C174.694 9.94001 174.682 9.71201 174.658 9.49601C174.634 9.20801 174.622 8.84801 174.622 8.41601C174.622 7.96001 174.646 7.51601 174.694 7.08401C174.766 6.62801 174.874 6.20801 175.018 5.82401C175.162 5.41601 175.366 5.10401 175.63 4.88801C175.99 4.60001 176.35 4.44401 176.71 4.42001C177.094 4.37201 177.442 4.42001 177.754 4.56401C178.09 4.70801 178.366 4.92401 178.582 5.21201C178.822 5.47601 178.99 5.77601 179.086 6.11201C179.158 6.40001 179.218 6.74801 179.266 7.15601C179.314 7.54001 179.338 7.94801 179.338 8.38001C179.362 8.81201 179.374 9.24401 179.374 9.67601C179.374 10.108 179.374 10.504 179.374 10.864H179.734C180.094 10.864 180.514 10.852 180.994 10.828C181.474 10.804 181.942 10.816 182.398 10.864C182.878 10.912 183.31 11.032 183.694 11.224C184.078 11.392 184.366 11.692 184.558 12.124Z"/>
<path d="M202.404 19.432C202.356 20.224 202.308 21.028 202.26 21.844C202.212 22.636 202.08 23.404 201.864 24.148C201.672 24.892 201.36 25.564 200.928 26.164C200.52 26.764 199.932 27.244 199.164 27.604C198.492 27.94 197.772 28.168 197.004 28.288C196.236 28.432 195.468 28.492 194.7 28.468C193.932 28.444 193.188 28.324 192.468 28.108C191.748 27.916 191.1 27.64 190.524 27.28C189.948 26.92 189.48 26.452 189.12 25.876C188.76 25.3 188.472 24.676 188.256 24.004C188.064 23.332 187.932 22.636 187.86 21.916C187.788 21.196 187.74 20.524 187.716 19.9C187.62 18.244 187.62 16.612 187.716 15.004C187.716 14.692 187.716 14.344 187.716 13.96C187.716 13.552 187.74 13.156 187.788 12.772C187.86 12.388 187.968 12.04 188.112 11.728C188.256 11.392 188.496 11.14 188.832 10.972C189.552 10.588 190.212 10.564 190.812 10.9C191.436 11.236 191.808 11.932 191.928 12.988C192 13.54 192.024 14.152 192 14.824C192 15.496 192.024 16.108 192.072 16.66C192.096 17.476 192.12 18.364 192.144 19.324C192.168 20.26 192.3 21.1 192.54 21.844C192.804 22.588 193.224 23.152 193.8 23.536C194.4 23.896 195.288 23.908 196.464 23.572C197.016 23.404 197.376 22.984 197.544 22.312C197.736 21.64 197.832 20.644 197.832 19.324C197.832 18.748 197.82 18.112 197.796 17.416C197.772 16.72 197.76 16.036 197.76 15.364C197.76 14.668 197.772 14.032 197.796 13.456C197.844 12.856 197.916 12.4 198.012 12.088C198.132 11.656 198.384 11.332 198.768 11.116C199.152 10.9 199.56 10.792 199.992 10.792C200.424 10.768 200.832 10.852 201.216 11.044C201.6 11.236 201.864 11.548 202.008 11.98C202.152 12.364 202.248 12.856 202.296 13.456C202.368 14.032 202.416 14.668 202.44 15.364C202.464 16.036 202.464 16.732 202.44 17.452C202.44 18.148 202.428 18.808 202.404 19.432Z"/>
<path d="M215.442 11.8C216.138 12.088 216.774 12.508 217.35 13.06C217.926 13.588 218.418 14.2 218.826 14.896C219.258 15.592 219.582 16.348 219.798 17.164C220.038 17.956 220.158 18.76 220.158 19.576C220.182 20.8 219.894 21.952 219.294 23.032C218.718 24.112 217.77 24.94 216.45 25.516C215.442 25.924 214.398 26.236 213.318 26.452C212.262 26.644 211.158 26.776 210.006 26.848V33.436C210.006 33.58 209.982 33.712 209.934 33.832C209.91 33.952 209.898 34.072 209.898 34.192C209.85 34.432 209.79 34.648 209.718 34.84C209.67 35.032 209.598 35.236 209.502 35.452C209.406 35.596 209.31 35.728 209.214 35.848C209.118 35.968 209.01 36.088 208.89 36.208C208.314 36.496 207.714 36.556 207.09 36.388C206.706 36.364 206.394 36.244 206.154 36.028C205.938 35.812 205.782 35.584 205.686 35.344C205.59 35.104 205.506 34.828 205.434 34.516C205.41 34.396 205.386 34.276 205.362 34.156C205.362 34.06 205.362 33.952 205.362 33.832V13.78C205.362 13.636 205.362 13.492 205.362 13.348C205.386 13.18 205.41 13.012 205.434 12.844C205.458 12.556 205.53 12.268 205.65 11.98C205.866 11.38 206.31 10.972 206.982 10.756C207.654 10.54 208.41 10.444 209.25 10.468C209.826 10.492 210.414 10.552 211.014 10.648C211.638 10.744 212.226 10.864 212.778 11.008C213.354 11.128 213.87 11.26 214.326 11.404C214.782 11.548 215.154 11.68 215.442 11.8ZM215.514 19.576C215.61 18.904 215.526 18.34 215.262 17.884C215.022 17.404 214.674 17.02 214.218 16.732C213.762 16.42 213.234 16.18 212.634 16.012C212.058 15.844 211.482 15.724 210.906 15.652C210.834 15.628 210.714 15.616 210.546 15.616C210.402 15.616 210.234 15.616 210.042 15.616C210.042 16.384 210.042 17.128 210.042 17.848C210.066 18.544 210.066 19.3 210.042 20.116V22.528C210.594 22.504 211.17 22.444 211.77 22.348C212.394 22.252 212.97 22.096 213.498 21.88C214.026 21.664 214.47 21.376 214.83 21.016C215.214 20.656 215.442 20.176 215.514 19.576Z"/>
</mask>
<path class="1" d="M21.376 13.528C21.424 14.32 21.412 15.136 21.34 15.976C21.292 16.816 21.208 17.632 21.088 18.424C20.848 19.792 20.404 21.124 19.756 22.42C19.108 23.716 18.16 24.82 16.912 25.732C15.616 26.692 14.14 27.352 12.484 27.712C10.828 28.048 9.184 28.252 7.552 28.324C7 28.372 6.436 28.384 5.86 28.36C5.308 28.36 4.768 28.3 4.24 28.18C3.808 28.108 3.484 27.976 3.268 27.784C3.148 27.712 3.052 27.616 2.98 27.496C2.908 27.376 2.848 27.256 2.8 27.136C2.728 27.016 2.668 26.896 2.62 26.776C2.596 26.632 2.56 26.488 2.512 26.344C2.488 26.224 2.464 26.116 2.44 26.02C2.44 25.9 2.44 25.792 2.44 25.696V5.14001C2.44 4.97201 2.44 4.81601 2.44 4.67201C2.44 4.52801 2.464 4.38401 2.512 4.24001C2.56 3.90401 2.632 3.62801 2.728 3.41201C2.824 3.12401 2.956 2.92001 3.124 2.80001C3.268 2.68001 3.412 2.59601 3.556 2.54801C3.7 2.47601 3.832 2.41601 3.952 2.36801C4.096 2.32001 4.24 2.32001 4.384 2.36801C4.552 2.39201 4.732 2.35601 4.924 2.26001L10.936 2.40401C12.52 2.45201 13.936 2.82401 15.184 3.52001C16.432 4.19201 17.5 5.05601 18.388 6.11201C19.276 7.16801 19.972 8.35601 20.476 9.67601C20.98 10.972 21.28 12.256 21.376 13.528ZM14.68 20.368C15.136 19.648 15.472 18.82 15.688 17.884C15.904 16.948 16 16 15.976 15.04C15.952 14.056 15.82 13.108 15.58 12.196C15.34 11.26 15.004 10.432 14.572 9.71201C14.236 9.18401 13.804 8.75201 13.276 8.41601C12.748 8.08001 12.16 7.82801 11.512 7.66001C10.864 7.46801 10.168 7.33601 9.424 7.26401C8.704 7.19201 7.996 7.15601 7.3 7.15601C7.324 7.85201 7.336 8.52401 7.336 9.17201C7.336 9.82001 7.336 10.504 7.336 11.224C7.312 12.088 7.3 12.928 7.3 13.744C7.3 14.56 7.3 15.352 7.3 16.12V23.464C8.044 23.44 8.752 23.404 9.424 23.356C10.12 23.284 10.78 23.14 11.404 22.924C12.052 22.708 12.64 22.408 13.168 22.024C13.72 21.616 14.224 21.064 14.68 20.368Z" stroke="black" stroke-width="4" mask="url(#path-1-outside-1_60_4)"/>
<path class="2" d="M36.7983 23.068C37.0863 22.996 37.3743 22.948 37.6623 22.924C37.9743 22.9 38.2503 22.936 38.4903 23.032C38.7543 23.128 38.9703 23.296 39.1383 23.536C39.3063 23.752 39.3904 24.064 39.3904 24.472C39.3904 24.76 39.3183 25.036 39.1743 25.3C39.0303 25.564 38.8503 25.804 38.6343 26.02C38.4183 26.236 38.1783 26.428 37.9143 26.596C37.6503 26.74 37.3983 26.86 37.1583 26.956C36.4623 27.268 35.6583 27.508 34.7463 27.676C33.8583 27.844 32.9343 27.904 31.9743 27.856C30.6783 27.808 29.4303 27.556 28.2303 27.1C27.0543 26.62 26.1303 25.84 25.4583 24.76C24.8343 23.704 24.4623 22.528 24.3423 21.232C24.2223 19.936 24.2823 18.712 24.5223 17.56C24.7863 16.168 25.2303 15.04 25.8543 14.176C26.5023 13.288 27.2703 12.58 28.1583 12.052C29.2383 11.428 30.4503 11.104 31.7943 11.08C33.1383 11.056 34.4223 11.32 35.6463 11.872C36.4623 12.232 37.1943 12.724 37.8424 13.348C38.4904 13.948 38.9823 14.68 39.3183 15.544C39.4143 15.76 39.4863 16.024 39.5343 16.336C39.6063 16.648 39.6543 16.984 39.6783 17.344C39.7023 17.68 39.7023 18.016 39.6783 18.352C39.6543 18.688 39.5943 18.988 39.4983 19.252C39.3543 19.684 39.1743 20.02 38.9583 20.26C38.7423 20.5 38.4663 20.68 38.1303 20.8C37.7943 20.92 37.3863 21.004 36.9063 21.052C36.4503 21.076 35.8983 21.1 35.2503 21.124C34.6743 21.148 34.1343 21.16 33.6303 21.16C33.1263 21.16 32.6103 21.16 32.0823 21.16C31.5543 21.136 31.0023 21.124 30.4263 21.124C29.8743 21.1 29.2503 21.076 28.5543 21.052C28.4823 21.532 28.5423 21.952 28.7343 22.312C28.9503 22.648 29.2383 22.936 29.5983 23.176C29.9583 23.392 30.3663 23.56 30.8223 23.68C31.2783 23.8 31.7223 23.872 32.1543 23.896C32.9703 23.944 33.7503 23.884 34.4944 23.716C35.2384 23.524 36.0063 23.308 36.7983 23.068ZM35.2503 16.084C34.7943 15.556 34.3143 15.172 33.8103 14.932C33.4263 14.764 33.0183 14.692 32.5863 14.716C32.1783 14.716 31.7823 14.776 31.3983 14.896C30.7023 15.064 30.1143 15.424 29.6343 15.976C29.5863 16.024 29.5023 16.144 29.3823 16.336C29.2623 16.504 29.1423 16.684 29.0223 16.876C28.9263 17.068 28.8543 17.248 28.8063 17.416C28.7583 17.584 28.7823 17.668 28.8783 17.668H35.9343C35.9103 17.332 35.8503 17.056 35.7543 16.84C35.6583 16.6 35.4903 16.348 35.2503 16.084Z" stroke="black" stroke-width="4" mask="url(#path-1-outside-1_60_4)"/>
<path class="3" d="M52.9204 12.772C53.3284 12.892 53.5924 13.12 53.7124 13.456C53.8324 13.768 53.8684 14.104 53.8204 14.464C53.6764 15.208 53.2684 15.664 52.5964 15.832C52.2124 15.928 51.8164 15.976 51.4084 15.976C51.0244 15.976 50.6284 15.988 50.2204 16.012V24.328C50.2204 24.904 50.1844 25.492 50.1124 26.092C50.1124 26.308 50.0524 26.536 49.9324 26.776C49.8844 26.896 49.8484 26.968 49.8244 26.992C49.8244 27.04 49.8004 27.112 49.7524 27.208C49.6084 27.472 49.4164 27.688 49.1764 27.856C48.6484 28.144 48.0844 28.216 47.4844 28.072C47.1244 28 46.8484 27.88 46.6564 27.712C46.4404 27.544 46.2844 27.34 46.1884 27.1C46.1404 26.98 46.1044 26.86 46.0804 26.74C46.0564 26.62 46.0204 26.5 45.9724 26.38C45.9484 26.26 45.9244 26.152 45.9004 26.056C45.9004 25.936 45.9004 25.84 45.9004 25.768V23.68C45.9004 22.432 45.9004 21.136 45.9004 19.792C45.9244 18.448 45.9364 17.152 45.9364 15.904C45.3844 15.88 44.8084 15.868 44.2084 15.868C43.6324 15.844 43.2124 15.7 42.9484 15.436C42.8044 15.292 42.7084 15.112 42.6604 14.896C42.6124 14.656 42.5884 14.416 42.5884 14.176C42.6124 13.936 42.6604 13.72 42.7324 13.528C42.8044 13.312 42.9004 13.156 43.0204 13.06C43.3324 12.772 43.6084 12.616 43.8484 12.592C44.1124 12.544 44.4364 12.508 44.8204 12.484C44.8684 12.484 45.0244 12.484 45.2884 12.484C45.5764 12.46 45.7564 12.448 45.8284 12.448C45.8524 11.632 45.8764 10.816 45.9004 10C45.9244 9.18401 45.9964 8.44001 46.1164 7.76801C46.2604 7.07201 46.4644 6.47201 46.7284 5.96801C47.0164 5.44001 47.4484 5.04401 48.0244 4.78001C48.7204 4.46801 49.5124 4.27601 50.4004 4.20401C51.2884 4.13201 52.0924 4.24001 52.8124 4.52801C53.1484 4.64801 53.4724 4.88801 53.7844 5.24801C54.1204 5.60801 54.2764 6.00401 54.2524 6.43601C54.2284 6.86801 54.1444 7.26401 54.0004 7.62401C53.8564 7.98401 53.5444 8.22401 53.0644 8.34401C52.8484 8.39201 52.6204 8.41601 52.3804 8.41601C52.1644 8.39201 51.9364 8.38001 51.6964 8.38001C51.4564 8.38001 51.2284 8.41601 51.0124 8.48801C50.8204 8.53601 50.6524 8.64401 50.5084 8.81201C50.3884 8.95601 50.3044 9.14801 50.2564 9.38801C50.2324 9.62801 50.2084 9.88001 50.1844 10.144C50.1604 10.408 50.1484 10.672 50.1484 10.936C50.1724 11.176 50.1844 11.38 50.1844 11.548V12.448C50.7364 12.496 51.2404 12.532 51.6964 12.556C52.1764 12.58 52.5844 12.652 52.9204 12.772Z" stroke="black" stroke-width="4" mask="url(#path-1-outside-1_60_4)"/>
<path class="4" d="M59.9489 12.844C60.6689 12.484 61.4249 12.232 62.2169 12.088C63.0089 11.92 63.7889 11.884 64.5569 11.98C65.3489 12.052 66.1049 12.256 66.8249 12.592C67.5449 12.904 68.2169 13.36 68.8409 13.96C69.4649 14.584 69.9449 15.268 70.2809 16.012C70.6169 16.756 70.8569 17.584 71.0009 18.496C71.0969 19.12 71.2529 19.696 71.4689 20.224C71.6849 20.752 71.9129 21.28 72.1529 21.808C72.4169 22.336 72.6569 22.864 72.8729 23.392C73.1129 23.92 73.3049 24.472 73.4489 25.048C73.5689 25.6 73.5209 26.14 73.3049 26.668C73.1129 27.172 72.7049 27.484 72.0809 27.604C71.7209 27.676 71.3729 27.652 71.0369 27.532C70.7249 27.388 70.4369 27.196 70.1729 26.956C69.9089 26.692 69.6689 26.416 69.4529 26.128C69.2609 25.816 69.0809 25.528 68.9129 25.264C68.3609 25.984 67.7609 26.548 67.1129 26.956C66.4649 27.34 65.6849 27.592 64.7729 27.712C64.0049 27.808 63.2729 27.832 62.5769 27.784C61.8809 27.736 61.1369 27.604 60.3449 27.388C59.3129 27.124 58.4609 26.668 57.7889 26.02C57.1409 25.348 56.6369 24.58 56.2769 23.716C55.9409 22.828 55.7609 21.88 55.7369 20.872C55.7129 19.864 55.8329 18.868 56.0969 17.884C56.4329 16.588 56.9369 15.532 57.6089 14.716C58.2809 13.9 59.0609 13.276 59.9489 12.844ZM60.8489 17.056C60.5129 17.392 60.2489 17.788 60.0569 18.244C59.8649 18.7 59.7449 19.18 59.6969 19.684C59.6729 20.188 59.7209 20.692 59.8409 21.196C59.9609 21.7 60.1529 22.144 60.4169 22.528C60.6569 22.864 61.0649 23.152 61.6409 23.392C62.2169 23.608 62.8169 23.74 63.4409 23.788C64.1609 23.836 64.7849 23.644 65.3129 23.212C65.8649 22.78 66.2729 22.24 66.5369 21.592C66.8249 20.92 66.9569 20.212 66.9329 19.468C66.9089 18.7 66.7049 18.004 66.3209 17.38C66.0329 16.924 65.6489 16.588 65.1689 16.372C64.7129 16.156 64.2209 16.048 63.6929 16.048C63.1649 16.024 62.6369 16.108 62.1089 16.3C61.6049 16.468 61.1849 16.72 60.8489 17.056Z" stroke="black" stroke-width="4" mask="url(#path-1-outside-1_60_4)"/>
<path class="5" d="M91.2399 19.432C91.1919 20.224 91.1439 21.028 91.0959 21.844C91.0479 22.636 90.9159 23.404 90.6999 24.148C90.5079 24.892 90.1959 25.564 89.7639 26.164C89.3559 26.764 88.7679 27.244 87.9999 27.604C87.3279 27.94 86.6079 28.168 85.8399 28.288C85.0719 28.432 84.3039 28.492 83.5359 28.468C82.7679 28.444 82.0239 28.324 81.3039 28.108C80.5839 27.916 79.9359 27.64 79.3599 27.28C78.7839 26.92 78.3159 26.452 77.9559 25.876C77.5959 25.3 77.3079 24.676 77.0919 24.004C76.8999 23.332 76.7679 22.636 76.6959 21.916C76.6239 21.196 76.5759 20.524 76.5519 19.9C76.4559 18.244 76.4559 16.612 76.5519 15.004C76.5519 14.692 76.5519 14.344 76.5519 13.96C76.5519 13.552 76.5759 13.156 76.6239 12.772C76.6959 12.388 76.8039 12.04 76.9479 11.728C77.0919 11.392 77.3319 11.14 77.6679 10.972C78.3879 10.588 79.0479 10.564 79.6479 10.9C80.2719 11.236 80.6439 11.932 80.7639 12.988C80.8359 13.54 80.8599 14.152 80.8359 14.824C80.8359 15.496 80.8599 16.108 80.9079 16.66C80.9319 17.476 80.9559 18.364 80.9799 19.324C81.0039 20.26 81.1359 21.1 81.3759 21.844C81.6399 22.588 82.0599 23.152 82.6359 23.536C83.2359 23.896 84.1239 23.908 85.2999 23.572C85.8519 23.404 86.2119 22.984 86.3799 22.312C86.5719 21.64 86.6679 20.644 86.6679 19.324C86.6679 18.748 86.6559 18.112 86.6319 17.416C86.6079 16.72 86.5959 16.036 86.5959 15.364C86.5959 14.668 86.6079 14.032 86.6319 13.456C86.6799 12.856 86.7519 12.4 86.8479 12.088C86.9679 11.656 87.2199 11.332 87.6039 11.116C87.9879 10.9 88.3959 10.792 88.8279 10.792C89.2599 10.768 89.6679 10.852 90.0519 11.044C90.4359 11.236 90.6999 11.548 90.8439 11.98C90.9879 12.364 91.0839 12.856 91.1319 13.456C91.2039 14.032 91.2519 14.668 91.2759 15.364C91.2999 16.036 91.2999 16.732 91.2759 17.452C91.2759 18.148 91.2639 18.808 91.2399 19.432Z" stroke="black" stroke-width="4" mask="url(#path-1-outside-1_60_4)"/>
<path class="6" d="M99.7592 25.12C99.7352 25.24 99.7112 25.36 99.6872 25.48C99.6872 25.576 99.6872 25.684 99.6872 25.804L99.4713 26.56C99.4233 26.656 99.3873 26.716 99.3633 26.74L99.2552 26.956C99.1352 27.22 98.9192 27.436 98.6072 27.604C98.0312 27.892 97.4192 27.964 96.7712 27.82C96.3632 27.772 96.0392 27.652 95.7992 27.46C95.5592 27.292 95.3912 27.088 95.2952 26.848C95.1992 26.608 95.1272 26.368 95.0792 26.128C95.0072 25.888 94.9713 25.672 94.9713 25.48V5.32001C94.9713 5.15201 94.9713 5.00801 94.9713 4.88801C94.9953 4.74401 95.0193 4.61201 95.0433 4.49201C95.0673 4.32401 95.0912 4.18001 95.1152 4.06001C95.1632 3.94001 95.2112 3.80801 95.2592 3.66401C95.3312 3.42401 95.4633 3.23201 95.6553 3.08801C95.9433 2.87201 96.2193 2.75201 96.4833 2.72801C96.6513 2.68001 96.8072 2.65601 96.9512 2.65601C97.0952 2.63201 97.2633 2.62001 97.4553 2.62001C97.7913 2.62001 98.1752 2.71601 98.6072 2.90801C98.9432 3.10001 99.1832 3.36401 99.3272 3.70001C99.5672 4.18001 99.6872 4.62401 99.6872 5.03201C99.7112 5.27201 99.7233 5.63201 99.7233 6.11201C99.7473 6.59201 99.7592 6.95201 99.7592 7.19201V7.33601C99.8072 8.10401 99.8313 8.84801 99.8313 9.56801C99.8313 10.264 99.8192 11.032 99.7952 11.872C99.7952 12.688 99.7832 13.48 99.7592 14.248C99.7592 14.992 99.7592 15.736 99.7592 16.48V24.04C99.7592 24.136 99.7592 24.232 99.7592 24.328C99.7832 24.4 99.7952 24.484 99.7952 24.58C99.7952 24.82 99.7832 25 99.7592 25.12Z" stroke="black" stroke-width="4" mask="url(#path-1-outside-1_60_4)"/>
<path class="7" d="M118.078 12.124C118.27 12.58 118.282 13.084 118.114 13.636C117.97 14.188 117.694 14.548 117.286 14.716C117.07 14.812 116.782 14.896 116.422 14.968C116.062 15.016 115.666 15.064 115.234 15.112C114.826 15.16 114.418 15.196 114.01 15.22C113.602 15.244 113.254 15.256 112.966 15.256C112.99 15.976 113.014 16.72 113.038 17.488C113.062 18.232 113.086 18.964 113.11 19.684C113.134 20.404 113.146 21.1 113.146 21.772C113.146 22.42 113.134 23.008 113.11 23.536C113.11 23.896 113.11 24.316 113.11 24.796C113.11 25.252 113.074 25.696 113.002 26.128C112.954 26.56 112.87 26.944 112.75 27.28C112.63 27.592 112.45 27.796 112.21 27.892C111.466 28.204 110.782 28.288 110.158 28.144C109.558 28.024 109.126 27.772 108.862 27.388C108.67 27.076 108.526 26.716 108.43 26.308C108.334 25.876 108.262 25.444 108.214 25.012C108.19 24.556 108.178 24.124 108.178 23.716C108.202 23.284 108.214 22.912 108.214 22.6C108.238 21.592 108.25 20.452 108.25 19.18C108.274 17.884 108.286 16.588 108.286 15.292H107.746C107.458 15.292 107.086 15.292 106.63 15.292C106.198 15.268 105.754 15.232 105.298 15.184C104.866 15.112 104.458 15.028 104.074 14.932C103.69 14.812 103.414 14.644 103.246 14.428C102.982 14.116 102.814 13.78 102.742 13.42C102.694 13.06 102.718 12.724 102.814 12.412C102.934 12.076 103.114 11.788 103.354 11.548C103.594 11.284 103.87 11.116 104.182 11.044C104.614 10.924 105.226 10.864 106.018 10.864C106.81 10.84 107.554 10.84 108.25 10.864C108.226 10.624 108.214 10.396 108.214 10.18C108.214 9.94001 108.202 9.71201 108.178 9.49601C108.154 9.20801 108.142 8.84801 108.142 8.41601C108.142 7.96001 108.166 7.51601 108.214 7.08401C108.286 6.62801 108.394 6.20801 108.538 5.82401C108.682 5.41601 108.886 5.10401 109.15 4.88801C109.51 4.60001 109.87 4.44401 110.23 4.42001C110.614 4.37201 110.962 4.42001 111.274 4.56401C111.61 4.70801 111.886 4.92401 112.102 5.21201C112.342 5.47601 112.51 5.77601 112.606 6.11201C112.678 6.40001 112.738 6.74801 112.786 7.15601C112.834 7.54001 112.858 7.94801 112.858 8.38001C112.882 8.81201 112.894 9.24401 112.894 9.67601C112.894 10.108 112.894 10.504 112.894 10.864H113.254C113.614 10.864 114.034 10.852 114.514 10.828C114.994 10.804 115.462 10.816 115.918 10.864C116.398 10.912 116.83 11.032 117.214 11.224C117.598 11.392 117.886 11.692 118.078 12.124Z" stroke="black" stroke-width="4" mask="url(#path-1-outside-1_60_4)"/>
<path class="8" d="M149.127 17.524C149.247 17.86 149.331 18.244 149.379 18.676C149.451 19.084 149.487 19.504 149.487 19.936C149.487 20.368 149.451 20.8 149.379 21.232C149.331 21.64 149.259 22 149.163 22.312C148.779 23.656 148.011 24.784 146.859 25.696C145.707 26.584 144.387 27.232 142.899 27.64C141.435 28.048 139.911 28.192 138.327 28.072C136.767 27.952 135.375 27.556 134.151 26.884C133.383 26.452 132.723 25.924 132.171 25.3C131.619 24.676 131.151 23.98 130.767 23.212C130.623 22.948 130.527 22.648 130.479 22.312C130.455 21.952 130.491 21.616 130.587 21.304C130.683 20.968 130.839 20.68 131.055 20.44C131.271 20.176 131.571 19.996 131.955 19.9C132.195 19.852 132.459 19.828 132.747 19.828C133.059 19.828 133.359 19.876 133.647 19.972C133.935 20.044 134.199 20.176 134.439 20.368C134.679 20.536 134.871 20.776 135.015 21.088C135.279 21.592 135.651 22.06 136.131 22.492C136.635 22.9 137.163 23.236 137.715 23.5C138.507 23.764 139.299 23.872 140.091 23.824C140.907 23.776 141.639 23.596 142.287 23.284C142.959 22.972 143.499 22.552 143.907 22.024C144.315 21.472 144.519 20.848 144.519 20.152C144.519 19.576 144.435 19.108 144.267 18.748C144.099 18.364 143.859 18.052 143.547 17.812C143.259 17.548 142.899 17.332 142.467 17.164C142.059 16.996 141.603 16.852 141.099 16.732C140.523 16.612 139.935 16.528 139.335 16.48C138.759 16.432 138.171 16.372 137.571 16.3C136.971 16.228 136.383 16.132 135.807 16.012C135.231 15.892 134.667 15.712 134.115 15.472C133.011 15.016 132.171 14.32 131.595 13.384C131.019 12.448 130.671 11.44 130.551 10.36C130.455 9.28001 130.587 8.21201 130.947 7.15601C131.307 6.07601 131.883 5.15201 132.675 4.38401C133.443 3.68801 134.355 3.19601 135.411 2.90801C136.491 2.59601 137.679 2.41601 138.975 2.36801C139.695 2.34401 140.415 2.36801 141.135 2.44001C141.879 2.51201 142.587 2.63201 143.259 2.80001C143.955 2.96801 144.591 3.18401 145.167 3.44801C145.767 3.71201 146.283 4.02401 146.715 4.38401C147.027 4.62401 147.339 4.94801 147.651 5.35601C147.963 5.74001 148.203 6.16001 148.371 6.61601C148.539 7.04801 148.587 7.46801 148.515 7.87601C148.467 8.28401 148.215 8.63201 147.759 8.92001C147.375 9.16001 147.003 9.26801 146.643 9.24401C146.307 9.19601 145.983 9.08801 145.671 8.92001C145.359 8.72801 145.059 8.51201 144.771 8.27201C144.483 8.03201 144.219 7.81601 143.979 7.62401C143.331 7.14401 142.527 6.82001 141.567 6.65201C140.607 6.48401 139.707 6.44801 138.867 6.54401C138.339 6.61601 137.847 6.73601 137.391 6.90401C136.935 7.07201 136.539 7.30001 136.203 7.58801C135.891 7.87601 135.639 8.23601 135.447 8.66801C135.279 9.07601 135.219 9.54401 135.267 10.072C135.291 10.456 135.399 10.78 135.591 11.044C135.807 11.308 136.059 11.524 136.347 11.692C136.659 11.86 136.995 11.992 137.355 12.088C137.715 12.184 138.075 12.256 138.435 12.304C139.515 12.448 140.595 12.556 141.675 12.628C142.755 12.7 143.811 12.94 144.843 13.348C145.899 13.756 146.799 14.308 147.543 15.004C148.287 15.7 148.815 16.54 149.127 17.524Z" stroke="black" stroke-width="4" mask="url(#path-1-outside-1_60_4)"/>
<path class="9" d="M164.837 23.068C165.125 22.996 165.413 22.948 165.701 22.924C166.013 22.9 166.289 22.936 166.529 23.032C166.793 23.128 167.009 23.296 167.177 23.536C167.345 23.752 167.429 24.064 167.429 24.472C167.429 24.76 167.357 25.036 167.213 25.3C167.069 25.564 166.889 25.804 166.673 26.02C166.457 26.236 166.217 26.428 165.953 26.596C165.689 26.74 165.437 26.86 165.197 26.956C164.501 27.268 163.697 27.508 162.785 27.676C161.897 27.844 160.973 27.904 160.013 27.856C158.717 27.808 157.469 27.556 156.269 27.1C155.093 26.62 154.169 25.84 153.497 24.76C152.873 23.704 152.501 22.528 152.381 21.232C152.261 19.936 152.321 18.712 152.561 17.56C152.825 16.168 153.269 15.04 153.893 14.176C154.541 13.288 155.309 12.58 156.197 12.052C157.277 11.428 158.489 11.104 159.833 11.08C161.177 11.056 162.461 11.32 163.685 11.872C164.501 12.232 165.233 12.724 165.881 13.348C166.529 13.948 167.021 14.68 167.357 15.544C167.453 15.76 167.525 16.024 167.573 16.336C167.645 16.648 167.693 16.984 167.717 17.344C167.741 17.68 167.741 18.016 167.717 18.352C167.693 18.688 167.633 18.988 167.537 19.252C167.393 19.684 167.213 20.02 166.997 20.26C166.781 20.5 166.505 20.68 166.169 20.8C165.833 20.92 165.425 21.004 164.945 21.052C164.489 21.076 163.937 21.1 163.289 21.124C162.713 21.148 162.173 21.16 161.669 21.16C161.165 21.16 160.649 21.16 160.121 21.16C159.593 21.136 159.041 21.124 158.465 21.124C157.913 21.1 157.289 21.076 156.593 21.052C156.521 21.532 156.581 21.952 156.773 22.312C156.989 22.648 157.277 22.936 157.637 23.176C157.997 23.392 158.405 23.56 158.861 23.68C159.317 23.8 159.761 23.872 160.193 23.896C161.009 23.944 161.789 23.884 162.533 23.716C163.277 23.524 164.045 23.308 164.837 23.068ZM163.289 16.084C162.833 15.556 162.353 15.172 161.849 14.932C161.465 14.764 161.057 14.692 160.625 14.716C160.217 14.716 159.821 14.776 159.437 14.896C158.741 15.064 158.153 15.424 157.673 15.976C157.625 16.024 157.541 16.144 157.421 16.336C157.301 16.504 157.181 16.684 157.061 16.876C156.965 17.068 156.893 17.248 156.845 17.416C156.797 17.584 156.821 17.668 156.917 17.668H163.973C163.949 17.332 163.889 17.056 163.793 16.84C163.697 16.6 163.529 16.348 163.289 16.084Z" stroke="black" stroke-width="4" mask="url(#path-1-outside-1_60_4)"/>
<path class="10" d="M184.558 12.124C184.75 12.58 184.762 13.084 184.594 13.636C184.45 14.188 184.174 14.548 183.766 14.716C183.55 14.812 183.262 14.896 182.902 14.968C182.542 15.016 182.146 15.064 181.714 15.112C181.306 15.16 180.898 15.196 180.49 15.22C180.082 15.244 179.734 15.256 179.446 15.256C179.47 15.976 179.494 16.72 179.518 17.488C179.542 18.232 179.566 18.964 179.59 19.684C179.614 20.404 179.626 21.1 179.626 21.772C179.626 22.42 179.614 23.008 179.59 23.536C179.59 23.896 179.59 24.316 179.59 24.796C179.59 25.252 179.554 25.696 179.482 26.128C179.434 26.56 179.35 26.944 179.23 27.28C179.11 27.592 178.93 27.796 178.69 27.892C177.946 28.204 177.262 28.288 176.638 28.144C176.038 28.024 175.606 27.772 175.342 27.388C175.15 27.076 175.006 26.716 174.91 26.308C174.814 25.876 174.742 25.444 174.694 25.012C174.67 24.556 174.658 24.124 174.658 23.716C174.682 23.284 174.694 22.912 174.694 22.6C174.718 21.592 174.73 20.452 174.73 19.18C174.754 17.884 174.766 16.588 174.766 15.292H174.226C173.938 15.292 173.566 15.292 173.11 15.292C172.678 15.268 172.234 15.232 171.778 15.184C171.346 15.112 170.938 15.028 170.554 14.932C170.17 14.812 169.894 14.644 169.726 14.428C169.462 14.116 169.294 13.78 169.222 13.42C169.174 13.06 169.198 12.724 169.294 12.412C169.414 12.076 169.594 11.788 169.834 11.548C170.074 11.284 170.35 11.116 170.662 11.044C171.094 10.924 171.706 10.864 172.498 10.864C173.29 10.84 174.034 10.84 174.73 10.864C174.706 10.624 174.694 10.396 174.694 10.18C174.694 9.94001 174.682 9.71201 174.658 9.49601C174.634 9.20801 174.622 8.84801 174.622 8.41601C174.622 7.96001 174.646 7.51601 174.694 7.08401C174.766 6.62801 174.874 6.20801 175.018 5.82401C175.162 5.41601 175.366 5.10401 175.63 4.88801C175.99 4.60001 176.35 4.44401 176.71 4.42001C177.094 4.37201 177.442 4.42001 177.754 4.56401C178.09 4.70801 178.366 4.92401 178.582 5.21201C178.822 5.47601 178.99 5.77601 179.086 6.11201C179.158 6.40001 179.218 6.74801 179.266 7.15601C179.314 7.54001 179.338 7.94801 179.338 8.38001C179.362 8.81201 179.374 9.24401 179.374 9.67601C179.374 10.108 179.374 10.504 179.374 10.864H179.734C180.094 10.864 180.514 10.852 180.994 10.828C181.474 10.804 181.942 10.816 182.398 10.864C182.878 10.912 183.31 11.032 183.694 11.224C184.078 11.392 184.366 11.692 184.558 12.124Z" stroke="black" stroke-width="4" mask="url(#path-1-outside-1_60_4)"/>
<path class="11" d="M202.404 19.432C202.356 20.224 202.308 21.028 202.26 21.844C202.212 22.636 202.08 23.404 201.864 24.148C201.672 24.892 201.36 25.564 200.928 26.164C200.52 26.764 199.932 27.244 199.164 27.604C198.492 27.94 197.772 28.168 197.004 28.288C196.236 28.432 195.468 28.492 194.7 28.468C193.932 28.444 193.188 28.324 192.468 28.108C191.748 27.916 191.1 27.64 190.524 27.28C189.948 26.92 189.48 26.452 189.12 25.876C188.76 25.3 188.472 24.676 188.256 24.004C188.064 23.332 187.932 22.636 187.86 21.916C187.788 21.196 187.74 20.524 187.716 19.9C187.62 18.244 187.62 16.612 187.716 15.004C187.716 14.692 187.716 14.344 187.716 13.96C187.716 13.552 187.74 13.156 187.788 12.772C187.86 12.388 187.968 12.04 188.112 11.728C188.256 11.392 188.496 11.14 188.832 10.972C189.552 10.588 190.212 10.564 190.812 10.9C191.436 11.236 191.808 11.932 191.928 12.988C192 13.54 192.024 14.152 192 14.824C192 15.496 192.024 16.108 192.072 16.66C192.096 17.476 192.12 18.364 192.144 19.324C192.168 20.26 192.3 21.1 192.54 21.844C192.804 22.588 193.224 23.152 193.8 23.536C194.4 23.896 195.288 23.908 196.464 23.572C197.016 23.404 197.376 22.984 197.544 22.312C197.736 21.64 197.832 20.644 197.832 19.324C197.832 18.748 197.82 18.112 197.796 17.416C197.772 16.72 197.76 16.036 197.76 15.364C197.76 14.668 197.772 14.032 197.796 13.456C197.844 12.856 197.916 12.4 198.012 12.088C198.132 11.656 198.384 11.332 198.768 11.116C199.152 10.9 199.56 10.792 199.992 10.792C200.424 10.768 200.832 10.852 201.216 11.044C201.6 11.236 201.864 11.548 202.008 11.98C202.152 12.364 202.248 12.856 202.296 13.456C202.368 14.032 202.416 14.668 202.44 15.364C202.464 16.036 202.464 16.732 202.44 17.452C202.44 18.148 202.428 18.808 202.404 19.432Z" stroke="black" stroke-width="4" mask="url(#path-1-outside-1_60_4)"/>
<path class="12" d="M215.442 11.8C216.138 12.088 216.774 12.508 217.35 13.06C217.926 13.588 218.418 14.2 218.826 14.896C219.258 15.592 219.582 16.348 219.798 17.164C220.038 17.956 220.158 18.76 220.158 19.576C220.182 20.8 219.894 21.952 219.294 23.032C218.718 24.112 217.77 24.94 216.45 25.516C215.442 25.924 214.398 26.236 213.318 26.452C212.262 26.644 211.158 26.776 210.006 26.848V33.436C210.006 33.58 209.982 33.712 209.934 33.832C209.91 33.952 209.898 34.072 209.898 34.192C209.85 34.432 209.79 34.648 209.718 34.84C209.67 35.032 209.598 35.236 209.502 35.452C209.406 35.596 209.31 35.728 209.214 35.848C209.118 35.968 209.01 36.088 208.89 36.208C208.314 36.496 207.714 36.556 207.09 36.388C206.706 36.364 206.394 36.244 206.154 36.028C205.938 35.812 205.782 35.584 205.686 35.344C205.59 35.104 205.506 34.828 205.434 34.516C205.41 34.396 205.386 34.276 205.362 34.156C205.362 34.06 205.362 33.952 205.362 33.832V13.78C205.362 13.636 205.362 13.492 205.362 13.348C205.386 13.18 205.41 13.012 205.434 12.844C205.458 12.556 205.53 12.268 205.65 11.98C205.866 11.38 206.31 10.972 206.982 10.756C207.654 10.54 208.41 10.444 209.25 10.468C209.826 10.492 210.414 10.552 211.014 10.648C211.638 10.744 212.226 10.864 212.778 11.008C213.354 11.128 213.87 11.26 214.326 11.404C214.782 11.548 215.154 11.68 215.442 11.8ZM215.514 19.576C215.61 18.904 215.526 18.34 215.262 17.884C215.022 17.404 214.674 17.02 214.218 16.732C213.762 16.42 213.234 16.18 212.634 16.012C212.058 15.844 211.482 15.724 210.906 15.652C210.834 15.628 210.714 15.616 210.546 15.616C210.402 15.616 210.234 15.616 210.042 15.616C210.042 16.384 210.042 17.128 210.042 17.848C210.066 18.544 210.066 19.3 210.042 20.116V22.528C210.594 22.504 211.17 22.444 211.77 22.348C212.394 22.252 212.97 22.096 213.498 21.88C214.026 21.664 214.47 21.376 214.83 21.016C215.214 20.656 215.442 20.176 215.514 19.576Z" stroke="black" stroke-width="4" mask="url(#path-1-outside-1_60_4)"/>
</svg>
