<svg id="movie_rank_title_svg" width="229" height="36" viewBox="0 0 229 36" fill="none" xmlns="http://www.w3.org/2000/svg">
<mask id="path-1-outside-1_40_7" maskUnits="userSpaceOnUse" x="0.833252" y="0.901733" width="228" height="35" fill="black">
<rect fill="white" x="0.833252" y="0.901733" width="228" height="35"/>
<path d="M27.5293 26.708C27.6013 26.732 27.6733 26.744 27.7453 26.744C27.8173 26.72 27.8893 26.708 27.9613 26.708C28.3693 26.756 28.7413 26.84 29.0773 26.96C29.4373 27.056 29.7853 27.248 30.1213 27.536C30.4573 27.872 30.6253 28.292 30.6253 28.796C30.6253 29.06 30.5773 29.348 30.4813 29.66C30.4093 29.948 30.3013 30.176 30.1573 30.344C29.9653 30.536 29.7253 30.68 29.4373 30.776C29.1493 30.872 28.8733 30.944 28.6093 30.992C28.3453 31.016 28.1053 31.028 27.8893 31.028C27.6973 31.028 27.5893 31.028 27.5653 31.028H7.40525C7.28525 31.028 7.16525 31.04 7.04525 31.064C6.92525 31.064 6.80525 31.064 6.68525 31.064C6.18125 31.088 5.64125 31.088 5.06525 31.064C4.48925 31.016 3.99725 30.824 3.58925 30.488C3.08525 30.032 2.83325 29.516 2.83325 28.94C2.83325 28.58 2.94125 28.208 3.15725 27.824C3.37325 27.44 3.66125 27.176 4.02125 27.032C4.50125 26.84 4.99325 26.744 5.49725 26.744C6.02525 26.744 6.55325 26.732 7.08125 26.708H7.26125C9.34925 26.66 11.4973 26.66 13.7053 26.708L13.6693 21.452C12.9493 21.404 12.2413 21.32 11.5453 21.2C10.8493 21.08 10.1773 20.888 9.52925 20.624C8.88125 20.36 8.26925 20.024 7.69325 19.616C7.14125 19.184 6.64925 18.656 6.21725 18.032C5.66525 17.288 5.29325 16.496 5.10125 15.656C4.93325 14.816 4.84925 13.94 4.84925 13.028C4.84925 11.156 5.34125 9.59602 6.32525 8.34802C7.33325 7.07602 8.70125 6.16402 10.4293 5.61202C11.5813 5.22802 12.7453 4.98802 13.9213 4.89202C15.1213 4.77202 16.3213 4.76002 17.5213 4.85602C18.5053 4.92802 19.4893 5.02402 20.4733 5.14402C21.4573 5.26402 22.4053 5.52802 23.3173 5.93602C23.7253 6.12802 24.1213 6.35602 24.5053 6.62002C24.8893 6.88402 25.2493 7.19602 25.5853 7.55602C26.4253 8.46802 27.0013 9.45202 27.3133 10.508C27.6253 11.564 27.7333 12.692 27.6373 13.892C27.5413 15.26 27.2173 16.424 26.6653 17.384C26.1133 18.32 25.4053 19.1 24.5413 19.724C23.7013 20.324 22.7293 20.768 21.6253 21.056C20.5453 21.344 19.4173 21.488 18.2413 21.488L18.3133 26.708C18.9853 26.708 19.5973 26.708 20.1493 26.708C20.7013 26.684 21.2413 26.672 21.7693 26.672C22.2973 26.672 22.8253 26.672 23.3533 26.672C23.8813 26.672 24.4573 26.684 25.0813 26.708C25.5133 26.732 25.9333 26.732 26.3413 26.708C26.7493 26.66 27.1453 26.66 27.5293 26.708ZM22.9213 14.432C22.9933 14.12 23.0173 13.82 22.9933 13.532C22.9453 12.284 22.5493 11.36 21.8053 10.76C21.0853 10.136 20.1493 9.75202 18.9973 9.60802C18.3253 9.53602 17.4973 9.46402 16.5133 9.39202C15.5293 9.29602 14.5573 9.32002 13.5973 9.46402C12.6613 9.60802 11.8333 9.90802 11.1133 10.364C10.3933 10.796 9.96125 11.492 9.81725 12.452C9.74525 13.028 9.74525 13.58 9.81725 14.108C9.91325 14.636 10.1173 15.104 10.4293 15.512C10.7413 15.92 11.1733 16.268 11.7253 16.556C12.2773 16.844 12.9853 17.024 13.8493 17.096C14.6893 17.192 15.5413 17.276 16.4053 17.348C17.2933 17.42 18.1573 17.372 18.9973 17.204C19.4053 17.132 19.8133 17.036 20.2213 16.916C20.6533 16.772 21.0493 16.592 21.4093 16.376C21.7693 16.16 22.0813 15.896 22.3453 15.584C22.6093 15.248 22.8013 14.864 22.9213 14.432Z"/>
<path d="M56.1681 30.344C56.5521 30.392 56.8881 30.488 57.1761 30.632C57.4641 30.776 57.6681 31.04 57.7881 31.424C58.0761 32.288 57.7641 32.9 56.8521 33.26C56.5641 33.38 56.2761 33.452 55.9881 33.476C55.7001 33.5 55.4241 33.512 55.1601 33.512H38.4201C37.9401 33.512 37.4361 33.5 36.9081 33.476C36.4041 33.476 35.8881 33.464 35.3601 33.44C34.8561 33.416 34.4361 33.236 34.1001 32.9C33.7641 32.564 33.5721 32.12 33.5241 31.568L33.4161 29.048C33.3921 28.784 33.4161 28.472 33.4881 28.112C33.5841 27.752 33.7401 27.452 33.9561 27.212C34.2921 26.852 34.7121 26.624 35.2161 26.528C35.7201 26.408 36.2361 26.348 36.7641 26.348C37.1001 26.348 37.6161 26.348 38.3121 26.348C39.0321 26.348 40.0161 26.348 41.2641 26.348C42.5121 26.324 44.0841 26.312 45.9801 26.312C47.9001 26.312 50.2281 26.312 52.9641 26.312V24.944H35.9721C35.7321 24.944 35.5161 24.944 35.3241 24.944C35.1321 24.944 34.9401 24.92 34.7481 24.872C34.5321 24.824 34.3401 24.776 34.1721 24.728C34.0041 24.68 33.8601 24.56 33.7401 24.368C33.4041 23.864 33.3201 23.348 33.4881 22.82C33.5601 22.628 33.6681 22.484 33.8121 22.388C33.9561 22.268 34.1241 22.172 34.3161 22.1C34.5081 22.028 34.6881 21.98 34.8561 21.956C35.0481 21.932 35.2161 21.908 35.3601 21.884C35.7201 21.812 36.0921 21.776 36.4761 21.776C36.8361 21.776 37.1961 21.776 37.5561 21.776C37.9401 21.776 38.3961 21.776 38.9241 21.776C39.4761 21.776 40.1241 21.788 40.8681 21.812C41.6361 21.812 42.5841 21.812 43.7121 21.812C44.8401 21.812 46.1841 21.812 47.7441 21.812C49.3041 21.812 51.1641 21.812 53.3241 21.812C54.5481 21.812 55.4841 22.004 56.1321 22.388C56.7801 22.748 57.1041 23.348 57.1041 24.188V26.96C57.1041 27.296 57.0201 27.632 56.8521 27.968C56.7081 28.28 56.4441 28.544 56.0601 28.76C55.7481 28.952 55.4361 29.06 55.1241 29.084C54.8121 29.084 54.5001 29.084 54.1881 29.084H37.8441V30.344H56.1681ZM36.1161 4.24402C36.4041 4.12402 36.6801 4.06402 36.9441 4.06402C37.0641 4.06402 37.1961 4.07602 37.3401 4.10002C37.4841 4.10002 37.6161 4.12402 37.7361 4.17202C38.1681 4.29202 38.4921 4.50802 38.7081 4.82002C38.9001 5.08402 39.0321 5.36002 39.1041 5.64802C39.1521 5.84002 39.1881 6.04402 39.2121 6.26002C39.2361 6.47602 39.2601 6.69202 39.2841 6.90802L39.5001 9.14002C39.5241 9.35602 39.5241 9.51202 39.5001 9.60802C39.4761 9.70402 39.5121 9.84802 39.6081 10.04C39.6801 10.232 39.7641 10.364 39.8601 10.436C39.9801 10.484 40.1121 10.52 40.2561 10.544C40.4001 10.544 40.5441 10.532 40.6881 10.508C40.8321 10.484 40.9761 10.484 41.1201 10.508H51.5601C51.8241 10.484 52.1001 10.484 52.3881 10.508C52.6761 10.508 52.9641 10.508 53.2521 10.508C53.6841 10.508 54.1521 10.58 54.6561 10.724C55.1841 10.844 55.5921 11.144 55.8801 11.624C56.1201 12.008 56.1921 12.332 56.0961 12.596C56.0001 12.836 55.7721 13.112 55.4121 13.424C55.1241 13.664 54.7881 13.844 54.4041 13.964C54.0441 14.06 53.6721 14.132 53.2881 14.18C52.9041 14.204 52.5081 14.216 52.1001 14.216C51.7161 14.216 51.3441 14.216 50.9841 14.216C50.7921 14.216 50.5881 14.216 50.3721 14.216C50.1561 14.192 49.9521 14.192 49.7601 14.216H48.5361C48.3441 14.216 47.9121 14.216 47.2401 14.216C46.5921 14.216 45.8961 14.216 45.1521 14.216C44.4081 14.216 43.7001 14.216 43.0281 14.216C42.3801 14.216 41.9601 14.216 41.7681 14.216C41.4081 14.192 41.0361 14.192 40.6521 14.216C40.2681 14.216 39.8841 14.216 39.5001 14.216C39.0921 14.216 38.6481 14.216 38.1681 14.216C37.7121 14.192 37.2681 14.12 36.8361 14C36.4281 13.88 36.0561 13.688 35.7201 13.424C35.3841 13.16 35.1441 12.776 35.0001 12.272C34.9041 12.008 34.8201 11.78 34.7481 11.588C34.7001 11.372 34.6761 11.132 34.6761 10.868C34.7001 10.748 34.7121 10.496 34.7121 10.112C34.7121 9.72802 34.7001 9.32002 34.6761 8.88802C34.6761 8.43202 34.6641 8.01202 34.6401 7.62802C34.6401 7.24402 34.6401 6.99202 34.6401 6.87202C34.6881 6.56002 34.7481 6.26002 34.8201 5.97202C34.8921 5.66002 35.0001 5.37202 35.1441 5.10802C35.2401 4.96402 35.3841 4.82002 35.5761 4.67602C35.7921 4.50802 35.9721 4.36402 36.1161 4.24402ZM34.9281 16.196C35.1201 16.172 35.3361 16.16 35.5761 16.16C35.8401 16.136 36.0921 16.124 36.3321 16.124H37.1961H44.9721C46.2201 16.1 47.4441 16.088 48.6441 16.088C49.6761 16.088 50.7441 16.088 51.8481 16.088C52.9761 16.088 53.9361 16.1 54.7281 16.124H54.8721C55.3521 16.148 55.8321 16.16 56.3121 16.16C56.7921 16.16 57.2601 16.244 57.7161 16.412C58.4601 16.724 58.8321 17.24 58.8321 17.96C58.8321 18.56 58.5921 19.04 58.1121 19.4C57.7521 19.736 57.2961 19.928 56.7441 19.976C56.1921 20.024 55.6761 20.024 55.1961 19.976H34.8921C34.8681 19.976 34.7601 19.976 34.5681 19.976C34.3761 19.976 34.1481 19.952 33.8841 19.904C33.6441 19.856 33.3921 19.796 33.1281 19.724C32.8641 19.628 32.6481 19.484 32.4801 19.292C32.3361 19.148 32.2281 18.968 32.1561 18.752C32.0841 18.536 32.0481 18.32 32.0481 18.104C32.0481 17.624 32.2041 17.228 32.5161 16.916C32.8281 16.628 33.1401 16.46 33.4521 16.412C33.7881 16.34 34.1361 16.28 34.4961 16.232C34.5681 16.232 34.6401 16.232 34.7121 16.232C34.7841 16.208 34.8561 16.196 34.9281 16.196Z"/>
<path d="M63.8786 19.652C62.9186 18.98 62.2346 18.02 61.8266 16.772C61.5866 16.148 61.4186 15.548 61.3226 14.972C61.2506 14.396 61.2146 13.808 61.2146 13.208C61.2146 12.584 61.2626 12.008 61.3586 11.48C61.4786 10.928 61.6346 10.388 61.8266 9.86002C62.0666 9.35602 62.3186 8.88802 62.5826 8.45602C62.8706 8.00002 63.2066 7.60402 63.5906 7.26802C63.9746 6.86002 64.3706 6.51202 64.7786 6.22402C65.2106 5.93602 65.7026 5.69602 66.2546 5.50402C66.7346 5.26402 67.2506 5.09602 67.8026 5.00002C68.3786 4.88002 68.9786 4.82002 69.6026 4.82002C70.0346 4.74802 70.4546 4.74802 70.8626 4.82002C71.0546 4.82002 71.2586 4.83202 71.4746 4.85602C71.7146 4.88002 71.9306 4.91602 72.1226 4.96402C72.2186 5.01202 72.3146 5.03602 72.4106 5.03602C72.5306 5.03602 72.6506 5.06002 72.7706 5.10802C72.8906 5.10802 72.9986 5.13202 73.0946 5.18002C73.2146 5.20402 73.3106 5.24002 73.3826 5.28802C73.6466 5.36002 73.8866 5.44402 74.1026 5.54002C74.3426 5.61202 74.5826 5.70802 74.8226 5.82802C75.2306 6.02002 75.6386 6.23602 76.0466 6.47602C76.1906 6.54802 76.3466 6.65602 76.5146 6.80002C76.7066 6.94402 76.8866 7.10002 77.0546 7.26802C77.4866 7.70002 77.8346 8.14402 78.0986 8.60002C78.2426 8.84002 78.3626 9.09202 78.4586 9.35602C78.5786 9.62002 78.6626 9.90802 78.7106 10.22C78.7826 10.484 78.8426 10.76 78.8906 11.048C78.9386 11.312 78.9866 11.576 79.0346 11.84C79.0826 12.104 79.1186 12.368 79.1426 12.632C79.1666 12.896 79.1546 13.184 79.1066 13.496C79.1066 13.64 79.0946 13.808 79.0706 14C79.0466 14.168 79.0346 14.324 79.0346 14.468C78.9866 14.66 78.9506 14.852 78.9266 15.044C78.9026 15.236 78.8546 15.404 78.7826 15.548C78.6386 16.484 78.3386 17.348 77.8826 18.14C77.6186 18.548 77.3186 18.908 76.9826 19.22C76.6706 19.532 76.3106 19.832 75.9026 20.12C75.5906 20.312 75.2786 20.48 74.9666 20.624C74.6546 20.768 74.3306 20.876 73.9946 20.948C73.6826 21.044 73.3586 21.128 73.0226 21.2C72.7106 21.248 72.3866 21.308 72.0506 21.38C71.9306 21.428 71.8106 21.452 71.6906 21.452C71.5706 21.452 71.4506 21.452 71.3306 21.452C71.2586 21.452 71.1626 21.452 71.0426 21.452C70.9466 21.452 70.8386 21.476 70.7186 21.524H70.0706C69.9746 21.524 69.8666 21.524 69.7466 21.524C69.6506 21.524 69.5426 21.5 69.4226 21.452C69.2786 21.452 69.1226 21.452 68.9546 21.452C68.8106 21.452 68.6666 21.428 68.5226 21.38C68.3306 21.38 68.1506 21.368 67.9826 21.344C67.8386 21.32 67.6826 21.308 67.5146 21.308C66.8666 21.212 66.2426 21.02 65.6426 20.732C65.3066 20.564 64.9946 20.408 64.7066 20.264C64.4186 20.096 64.1426 19.892 63.8786 19.652ZM87.0986 11.228C87.1466 11.708 87.1706 12.2 87.1706 12.704C87.1706 13.208 87.1706 13.736 87.1706 14.288V20.12C87.1706 20.672 87.1706 21.188 87.1706 21.668C87.1706 22.148 87.1466 22.616 87.0986 23.072V27.176C87.0506 27.56 87.0386 27.944 87.0626 28.328C87.0866 28.688 87.0986 29.036 87.0986 29.372C87.0986 29.612 87.0986 29.84 87.0986 30.056C87.0986 30.272 87.0746 30.476 87.0266 30.668C87.0266 31.052 86.9426 31.364 86.7746 31.604C86.7266 31.724 86.6786 31.832 86.6306 31.928C86.5826 32 86.5346 32.096 86.4866 32.216C86.3906 32.288 86.2946 32.372 86.1986 32.468C86.1026 32.564 85.9586 32.648 85.7666 32.72C85.5506 32.888 85.2986 32.996 85.0106 33.044C84.7226 33.092 84.4226 33.092 84.1106 33.044C83.7026 32.948 83.4026 32.792 83.2106 32.576C83.0186 32.456 82.8386 32.204 82.6706 31.82C82.5986 31.652 82.5386 31.496 82.4906 31.352C82.4426 31.208 82.4186 31.052 82.4186 30.884C82.3706 30.764 82.3346 30.644 82.3106 30.524C82.2866 30.404 82.2746 30.308 82.2746 30.236V29.84L82.2026 8.49202C82.2026 8.18002 82.2026 7.86802 82.2026 7.55602C82.2266 7.24402 82.2746 6.89602 82.3466 6.51202C82.4186 5.86402 82.6346 5.33602 82.9946 4.92802C83.3306 4.68802 83.5946 4.53202 83.7866 4.46002C83.9546 4.41202 84.1106 4.38802 84.2546 4.38802C84.4226 4.38802 84.6026 4.38802 84.7946 4.38802C84.9866 4.38802 85.1786 4.41202 85.3706 4.46002C85.5626 4.50802 85.7546 4.59202 85.9466 4.71202C86.2586 4.95202 86.4866 5.25202 86.6306 5.61202C86.7506 5.87602 86.8466 6.14002 86.9186 6.40402C86.9906 6.66802 87.0266 6.93202 87.0266 7.19602C87.0266 7.46002 87.0266 7.74802 87.0266 8.06002C87.0266 8.34802 87.0506 8.62402 87.0986 8.88802V11.228ZM79.1786 25.484C79.4906 25.58 79.7666 25.712 80.0066 25.88C80.2466 26.12 80.4266 26.36 80.5466 26.6C80.6906 26.84 80.7626 27.104 80.7626 27.392C80.7626 27.8 80.6306 28.16 80.3666 28.472C80.1266 28.784 79.8626 28.988 79.5746 29.084C79.4546 29.132 79.3346 29.168 79.2146 29.192C79.0946 29.216 78.9746 29.228 78.8546 29.228C78.7106 29.276 78.5786 29.3 78.4586 29.3C78.3386 29.3 78.2186 29.3 78.0986 29.3H74.6786C74.2706 29.3 73.8506 29.3 73.4186 29.3C73.0106 29.3 72.5786 29.324 72.1226 29.372H69.6026C69.1706 29.324 68.7866 29.3 68.4506 29.3C68.1146 29.3 67.7786 29.3 67.4426 29.3H63.6626C63.4226 29.3 63.1946 29.288 62.9786 29.264C62.7626 29.24 62.5346 29.204 62.2946 29.156C62.1746 29.108 62.0546 29.072 61.9346 29.048C61.8386 29 61.7306 28.952 61.6106 28.904C61.3946 28.832 61.1906 28.724 60.9986 28.58C60.8546 28.412 60.7346 28.232 60.6386 28.04C60.5666 27.824 60.5306 27.56 60.5306 27.248C60.5306 26.792 60.6866 26.384 60.9986 26.024C61.1426 25.808 61.3706 25.664 61.6826 25.592C61.8266 25.544 61.9706 25.508 62.1146 25.484C62.2586 25.436 62.3906 25.388 62.5106 25.34C62.6786 25.292 62.8106 25.268 62.9066 25.268C63.0026 25.268 63.0986 25.268 63.1946 25.268H76.8026C77.0426 25.268 77.2706 25.268 77.4866 25.268C77.7026 25.268 77.9066 25.292 78.0986 25.34C78.2906 25.34 78.4706 25.352 78.6386 25.376C78.8066 25.4 78.9866 25.436 79.1786 25.484ZM66.0026 12.56C65.9306 13.016 65.9306 13.496 66.0026 14C66.1226 14.576 66.2786 15.044 66.4706 15.404C66.9506 16.148 67.6586 16.7 68.5946 17.06C68.9306 17.18 69.2666 17.264 69.6026 17.312C69.9626 17.36 70.3106 17.384 70.6466 17.384C70.8386 17.336 71.0186 17.312 71.1866 17.312C71.3546 17.312 71.5346 17.288 71.7266 17.24C71.8946 17.24 72.0506 17.204 72.1946 17.132C72.3626 17.06 72.5306 16.988 72.6986 16.916C73.1546 16.7 73.5386 16.34 73.8506 15.836C74.0186 15.572 74.1386 15.32 74.2106 15.08C74.2826 14.84 74.3546 14.588 74.4266 14.324C74.5226 13.916 74.5466 13.532 74.4986 13.172C74.4746 12.812 74.4026 12.428 74.2826 12.02C74.2346 11.852 74.1626 11.696 74.0666 11.552C73.9946 11.384 73.9226 11.24 73.8506 11.12C73.7786 11.048 73.7186 10.976 73.6706 10.904C73.6226 10.808 73.5506 10.736 73.4546 10.688C73.3826 10.52 73.2386 10.364 73.0226 10.22C72.8306 10.1 72.6386 10.004 72.4466 9.93202C72.3506 9.86002 72.2426 9.80002 72.1226 9.75202C72.0266 9.70402 71.9186 9.65602 71.7986 9.60802C71.1746 9.46402 70.5386 9.39202 69.8906 9.39202C69.5786 9.39202 69.2786 9.41602 68.9906 9.46402C68.7026 9.51202 68.4266 9.59602 68.1626 9.71602C67.8986 9.83602 67.6466 9.98002 67.4066 10.148C67.1666 10.292 66.9506 10.496 66.7586 10.76C66.5666 11 66.4106 11.276 66.2906 11.588C66.1946 11.876 66.0986 12.2 66.0026 12.56Z"/>
<path d="M113.121 5.03602C114.561 5.80402 115.581 6.86002 116.181 8.20402C116.805 9.54802 117.045 11.156 116.901 13.028C116.757 15.428 116.073 17.216 114.849 18.392C113.649 19.568 111.801 20.156 109.305 20.156C108.657 20.156 108.057 20.168 107.505 20.192C106.977 20.192 106.473 20.156 105.993 20.084C105.513 20.012 105.021 19.892 104.517 19.724C104.013 19.532 103.473 19.244 102.897 18.86C101.769 18.116 100.989 17.144 100.557 15.944C100.149 14.744 99.9449 13.508 99.9449 12.236C99.9449 10.964 100.173 9.77602 100.629 8.67202C101.085 7.54402 101.829 6.58402 102.861 5.79202C103.701 5.12002 104.637 4.62802 105.669 4.31602C106.725 4.00402 107.781 3.89602 108.837 3.99202C109.317 4.04002 109.725 4.08802 110.061 4.13602C110.421 4.16002 110.757 4.20802 111.069 4.28002C111.381 4.35202 111.693 4.44802 112.005 4.56802C112.317 4.68802 112.689 4.84402 113.121 5.03602ZM102.537 27.68C102.537 26.6 102.849 25.7 103.473 24.98C104.121 24.26 104.985 23.696 106.065 23.288C107.145 22.856 108.417 22.556 109.881 22.388C111.345 22.22 112.905 22.136 114.561 22.136C116.217 22.136 117.777 22.196 119.241 22.316C120.705 22.436 121.977 22.7 123.057 23.108C124.137 23.492 124.989 24.044 125.613 24.764C126.261 25.484 126.585 26.456 126.585 27.68C126.585 28.88 126.261 29.84 125.613 30.56C124.989 31.28 124.137 31.832 123.057 32.216C121.977 32.624 120.705 32.888 119.241 33.008C117.777 33.152 116.217 33.224 114.561 33.224C112.905 33.224 111.345 33.152 109.881 33.008C108.417 32.888 107.145 32.624 106.065 32.216C104.985 31.832 104.121 31.28 103.473 30.56C102.849 29.84 102.537 28.88 102.537 27.68ZM121.149 17.744C120.981 17.744 120.765 17.732 120.501 17.708C120.261 17.684 120.009 17.636 119.745 17.564C119.505 17.492 119.277 17.396 119.061 17.276C118.845 17.156 118.677 16.988 118.557 16.772C118.485 16.676 118.425 16.544 118.377 16.376C118.353 16.208 118.329 16.04 118.305 15.872C118.305 15.68 118.305 15.5 118.305 15.332C118.329 15.164 118.353 15.032 118.377 14.936C118.425 14.672 118.557 14.444 118.773 14.252C118.989 14.036 119.241 13.868 119.529 13.748C119.625 13.724 119.805 13.7 120.069 13.676C120.357 13.652 120.645 13.64 120.933 13.64H122.013C121.989 13.376 121.977 13.124 121.977 12.884V11.768H121.149C120.981 11.768 120.765 11.756 120.501 11.732C120.261 11.708 120.009 11.66 119.745 11.588C119.505 11.516 119.277 11.42 119.061 11.3C118.845 11.18 118.677 11.012 118.557 10.796C118.365 10.484 118.269 10.16 118.269 9.82402C118.269 9.46402 118.341 9.14002 118.485 8.85202C118.653 8.54002 118.869 8.28802 119.133 8.09602C119.421 7.88002 119.757 7.76002 120.141 7.73602C120.165 7.73602 120.273 7.73602 120.465 7.73602C120.681 7.73602 120.909 7.73602 121.149 7.73602C121.389 7.73602 121.605 7.73602 121.797 7.73602C121.989 7.71202 122.085 7.67602 122.085 7.62802C122.133 7.38802 122.145 7.12402 122.121 6.83602C122.121 6.54802 122.133 6.26002 122.157 5.97202C122.181 5.68402 122.229 5.42002 122.301 5.18002C122.397 4.91602 122.565 4.68802 122.805 4.49602C122.997 4.35202 123.225 4.25602 123.489 4.20802C123.753 4.16002 124.005 4.12402 124.245 4.10002C124.845 4.02802 125.361 4.23202 125.793 4.71202C125.961 4.92802 126.081 5.13202 126.153 5.32402C126.249 5.61202 126.285 5.91202 126.261 6.22402C126.261 6.53602 126.261 6.84802 126.261 7.16002V17.492C126.261 17.492 126.261 17.648 126.261 17.96C126.261 18.272 126.237 18.62 126.189 19.004C126.141 19.388 126.057 19.772 125.937 20.156C125.841 20.516 125.673 20.768 125.433 20.912C125.265 21.008 125.061 21.08 124.821 21.128C124.581 21.176 124.365 21.2 124.173 21.2C123.765 21.2 123.369 21.068 122.985 20.804C122.697 20.612 122.493 20.384 122.373 20.12C122.301 19.976 122.241 19.796 122.193 19.58C122.145 19.364 122.109 19.148 122.085 18.932C122.061 18.692 122.037 18.464 122.013 18.248C121.989 18.032 121.977 17.864 121.977 17.744H121.149ZM112.617 13.424C112.617 12.896 112.593 12.404 112.545 11.948C112.497 11.468 112.389 11.036 112.221 10.652C112.077 10.244 111.849 9.88402 111.537 9.57202C111.225 9.26002 110.817 9.00802 110.313 8.81602C109.761 8.62402 109.161 8.52802 108.513 8.52802C107.865 8.52802 107.253 8.64802 106.677 8.88802C106.101 9.10402 105.597 9.45202 105.165 9.93202C104.733 10.388 104.457 10.988 104.337 11.732C104.265 12.236 104.265 12.752 104.337 13.28C104.433 13.784 104.613 14.252 104.877 14.684C105.165 15.092 105.549 15.44 106.029 15.728C106.533 16.016 107.157 16.196 107.901 16.268C108.405 16.316 108.909 16.316 109.413 16.268C109.917 16.196 110.385 16.052 110.817 15.836C111.249 15.62 111.621 15.32 111.933 14.936C112.245 14.528 112.473 14.024 112.617 13.424ZM121.725 27.68C121.725 27.272 121.509 26.948 121.077 26.708C120.645 26.468 120.081 26.288 119.385 26.168C118.713 26.048 117.945 25.976 117.081 25.952C116.241 25.904 115.401 25.88 114.561 25.88C113.721 25.88 112.881 25.904 112.041 25.952C111.225 25.976 110.481 26.048 109.809 26.168C109.161 26.288 108.633 26.468 108.225 26.708C107.817 26.948 107.613 27.272 107.613 27.68C107.613 28.04 107.817 28.34 108.225 28.58C108.633 28.82 109.161 29 109.809 29.12C110.481 29.24 111.225 29.324 112.041 29.372C112.881 29.42 113.721 29.444 114.561 29.444C115.401 29.444 116.241 29.444 117.081 29.444C117.945 29.444 118.713 29.396 119.385 29.3C120.081 29.204 120.645 29.036 121.077 28.796C121.509 28.532 121.725 28.16 121.725 27.68Z"/>
<path d="M132.355 25.952C132.403 25.928 132.607 25.928 132.967 25.952C133.351 25.952 133.771 25.964 134.227 25.988C134.707 25.988 135.162 26 135.594 26.024C136.026 26.024 136.314 26.024 136.458 26.024C136.458 25.88 136.458 25.64 136.458 25.304C136.482 24.968 136.507 24.596 136.531 24.188C136.555 23.78 136.566 23.372 136.566 22.964C136.59 22.532 136.615 22.172 136.639 21.884C136.423 21.836 136.206 21.788 135.99 21.74C135.798 21.668 135.607 21.584 135.415 21.488C134.743 21.2 134.107 20.852 133.507 20.444C132.931 20.036 132.427 19.568 131.995 19.04C131.563 18.488 131.226 17.876 130.986 17.204C130.746 16.532 130.626 15.8 130.626 15.008C130.626 14.144 130.746 13.376 130.986 12.704C131.226 12.032 131.55 11.432 131.958 10.904H131.562C130.986 10.904 130.483 10.724 130.051 10.364C129.643 9.98002 129.439 9.52402 129.439 8.99602C129.439 8.44402 129.643 7.98802 130.051 7.62802C130.483 7.24402 130.986 7.05202 131.562 7.05202H136.314V5.57602C136.314 5.09602 136.518 4.71202 136.926 4.42402C137.334 4.11202 137.826 3.95602 138.402 3.95602C139.002 3.95602 139.507 4.11202 139.915 4.42402C140.323 4.71202 140.527 5.09602 140.527 5.57602V7.05202H145.495C146.095 7.05202 146.598 7.24402 147.007 7.62802C147.439 7.98802 147.654 8.44402 147.654 8.99602C147.654 9.52402 147.439 9.98002 147.007 10.364C146.598 10.724 146.095 10.904 145.495 10.904H145.387C145.795 11.432 146.119 12.032 146.359 12.704C146.623 13.376 146.755 14.144 146.755 15.008C146.755 16.136 146.503 17.156 145.999 18.068C145.495 18.956 144.786 19.748 143.874 20.444C142.986 21.092 142.003 21.56 140.923 21.848C140.947 22.136 140.958 22.484 140.958 22.892C140.982 23.3 140.995 23.72 140.995 24.152C140.995 24.56 140.995 24.932 140.995 25.268C140.995 25.604 140.995 25.844 140.995 25.988V26.024H145.783C146.575 26.024 147.211 26.168 147.691 26.456C147.955 26.624 148.159 26.852 148.303 27.14C148.447 27.404 148.531 27.692 148.555 28.004C148.603 28.316 148.59 28.628 148.518 28.94C148.47 29.252 148.387 29.516 148.267 29.732C148.051 30.116 147.739 30.356 147.331 30.452C146.923 30.524 146.527 30.56 146.143 30.56H131.923C131.923 30.56 131.85 30.56 131.706 30.56C131.562 30.536 131.394 30.512 131.202 30.488C131.01 30.44 130.806 30.392 130.59 30.344C130.374 30.296 130.182 30.236 130.014 30.164C129.51 29.9 129.199 29.408 129.079 28.688C129.031 28.304 129.054 27.944 129.15 27.608C129.27 27.272 129.451 26.996 129.691 26.78C130.123 26.42 130.567 26.192 131.023 26.096C131.503 26 131.947 25.952 132.355 25.952ZM156.294 16.268C156.414 16.244 156.522 16.244 156.618 16.268C156.738 16.292 156.859 16.304 156.979 16.304C157.122 16.328 157.254 16.352 157.374 16.376C157.518 16.376 157.663 16.388 157.807 16.412C158.071 16.46 158.334 16.556 158.598 16.7C158.862 16.82 159.067 17.012 159.211 17.276C159.355 17.564 159.426 17.888 159.426 18.248C159.426 18.416 159.426 18.584 159.426 18.752C159.426 18.92 159.403 19.088 159.355 19.256C159.307 19.448 159.247 19.652 159.174 19.868C159.103 20.084 158.994 20.252 158.85 20.372C158.538 20.612 158.202 20.768 157.842 20.84C157.458 20.888 156.991 20.9 156.439 20.876C155.887 20.852 155.419 20.852 155.035 20.876C155.011 20.9 154.987 20.912 154.963 20.912H154.926V20.948C154.926 20.972 154.915 20.996 154.891 21.02C154.891 21.02 154.891 21.032 154.891 21.056C154.867 21.656 154.855 22.232 154.855 22.784C154.879 23.312 154.891 23.888 154.891 24.512C154.939 25.76 154.939 26.984 154.891 28.184V28.688C154.891 29 154.891 29.348 154.891 29.732C154.891 30.092 154.855 30.452 154.783 30.812C154.735 31.172 154.651 31.52 154.531 31.856C154.435 32.192 154.279 32.468 154.062 32.684C153.702 32.996 153.306 33.152 152.874 33.152H152.803C152.227 33.128 151.758 32.948 151.398 32.612C151.062 32.3 150.811 31.916 150.643 31.46C150.475 31.004 150.366 30.536 150.318 30.056C150.27 29.552 150.247 29.108 150.247 28.724V7.34002C150.247 7.31602 150.247 7.20802 150.247 7.01602C150.247 6.80002 150.259 6.56002 150.283 6.29602C150.331 6.00802 150.403 5.72002 150.499 5.43202C150.619 5.12002 150.775 4.86802 150.967 4.67602C151.159 4.50802 151.411 4.38802 151.723 4.31602C152.035 4.22002 152.323 4.17202 152.587 4.17202C153.139 4.17202 153.594 4.35202 153.954 4.71202C154.266 5.04802 154.459 5.40802 154.531 5.79202C154.603 6.15202 154.65 6.53602 154.674 6.94402C154.698 7.01602 154.71 7.08802 154.71 7.16002C154.71 7.23202 154.723 7.31602 154.747 7.41202C154.795 7.79602 154.818 8.20402 154.818 8.63602C154.818 9.06802 154.831 9.50002 154.855 9.93202C154.855 10.196 154.855 10.46 154.855 10.724C154.879 10.964 154.891 11.216 154.891 11.48V15.368C154.891 15.488 154.891 15.62 154.891 15.764C154.891 15.908 154.915 16.04 154.963 16.16C154.963 16.184 155.082 16.196 155.322 16.196C155.562 16.196 155.707 16.208 155.755 16.232C155.827 16.232 155.899 16.244 155.971 16.268C156.067 16.268 156.151 16.268 156.223 16.268H156.294ZM139.374 17.888C140.142 17.744 140.815 17.456 141.391 17.024C141.967 16.592 142.255 15.92 142.255 15.008C142.255 14.48 142.146 14.036 141.93 13.676C141.738 13.292 141.475 12.992 141.139 12.776C140.827 12.536 140.455 12.356 140.023 12.236C139.591 12.116 139.159 12.056 138.727 12.056C138.271 12.032 137.827 12.068 137.395 12.164C136.963 12.26 136.579 12.428 136.243 12.668C135.907 12.884 135.631 13.184 135.415 13.568C135.223 13.952 135.126 14.432 135.126 15.008C135.126 15.656 135.246 16.196 135.486 16.628C135.75 17.036 136.087 17.348 136.495 17.564C136.903 17.78 137.359 17.912 137.863 17.96C138.367 18.008 138.87 17.984 139.374 17.888Z"/>
<path d="M192.953 21.632C191.753 21.68 190.589 21.716 189.461 21.74C188.333 21.764 187.157 21.776 185.933 21.776C185.909 22.28 185.885 22.736 185.861 23.144C185.837 23.528 185.825 24.056 185.825 24.728C185.777 24.992 185.657 25.22 185.465 25.412C185.297 25.604 185.093 25.772 184.853 25.916C184.613 26.06 184.349 26.168 184.061 26.24C183.797 26.288 183.545 26.312 183.305 26.312C182.585 26.264 182.021 26.084 181.613 25.772C181.229 25.46 181.001 24.944 180.929 24.224C180.881 23.744 180.869 23.324 180.893 22.964C180.941 22.604 180.965 22.184 180.965 21.704C180.413 21.704 179.693 21.704 178.805 21.704C177.941 21.68 177.041 21.668 176.105 21.668C175.169 21.644 174.269 21.62 173.405 21.596C172.541 21.572 171.857 21.536 171.353 21.488C170.969 21.44 170.657 21.392 170.417 21.344C170.201 21.272 169.937 21.092 169.625 20.804C169.457 20.66 169.337 20.468 169.265 20.228C169.193 19.988 169.157 19.736 169.157 19.472C169.157 18.968 169.313 18.56 169.625 18.248C169.793 18.056 170.021 17.912 170.309 17.816C170.597 17.72 170.873 17.648 171.137 17.6C171.401 17.552 171.629 17.528 171.821 17.528C172.037 17.528 172.157 17.528 172.181 17.528H192.773C193.133 17.528 193.493 17.528 193.853 17.528C194.213 17.528 194.561 17.54 194.897 17.564C195.233 17.588 195.557 17.636 195.869 17.708C196.205 17.78 196.505 17.936 196.769 18.176C197.033 18.368 197.177 18.584 197.201 18.824C197.249 19.064 197.273 19.328 197.273 19.616C197.273 19.976 197.165 20.3 196.949 20.588C196.757 20.876 196.481 21.08 196.121 21.2C195.641 21.392 195.113 21.512 194.537 21.56C193.985 21.584 193.457 21.608 192.953 21.632ZM177.761 14C177.305 14.312 176.849 14.648 176.393 15.008C175.961 15.368 175.433 15.608 174.809 15.728C174.593 15.776 174.365 15.824 174.125 15.872C173.909 15.92 173.693 15.932 173.477 15.908C173.261 15.884 173.045 15.824 172.829 15.728C172.637 15.608 172.457 15.416 172.289 15.152C172.097 14.864 171.989 14.6 171.965 14.36C171.965 14.096 172.013 13.856 172.109 13.64C172.229 13.424 172.373 13.22 172.541 13.028C172.709 12.836 172.889 12.656 173.081 12.488C173.801 11.84 174.545 11.168 175.313 10.472C176.105 9.75202 176.909 9.11602 177.725 8.56402C177.989 8.39602 178.289 8.16802 178.625 7.88002C178.985 7.56802 179.333 7.26802 179.669 6.98002C180.053 6.64402 180.449 6.29602 180.857 5.93602C180.809 5.60002 180.797 5.27602 180.821 4.96402C180.845 4.70002 180.905 4.42402 181.001 4.13602C181.097 3.82402 181.277 3.57202 181.541 3.38002C181.853 3.16402 182.273 3.02002 182.801 2.94802C183.329 2.87602 183.785 2.88802 184.169 2.98402C184.721 3.12802 185.081 3.35602 185.249 3.66802C185.441 3.98002 185.573 4.35202 185.645 4.78402C185.693 5.14402 185.765 5.48002 185.861 5.79202C185.957 6.10402 186.137 6.41602 186.401 6.72802C186.593 6.94402 186.833 7.16002 187.121 7.37602C187.433 7.59202 187.709 7.79602 187.949 7.98802C188.789 8.70802 189.605 9.38002 190.397 10.004C191.213 10.628 192.053 11.3 192.917 12.02C193.205 12.236 193.445 12.524 193.637 12.884C193.853 13.22 193.997 13.568 194.069 13.928C194.141 14.264 194.117 14.6 193.997 14.936C193.901 15.248 193.673 15.5 193.313 15.692C192.617 15.956 191.945 15.944 191.297 15.656C190.673 15.344 190.133 14.984 189.677 14.576C189.197 14.216 188.645 13.856 188.021 13.496C187.397 13.112 186.857 12.716 186.401 12.308L183.197 10.004C182.861 10.268 182.561 10.508 182.297 10.724C182.057 10.916 181.829 11.084 181.613 11.228C181.421 11.372 181.301 11.468 181.253 11.516C180.725 11.924 180.149 12.344 179.525 12.776C178.925 13.184 178.337 13.592 177.761 14ZM193.961 28.796C193.985 28.796 194.069 28.82 194.213 28.868C194.357 28.916 194.513 29 194.681 29.12C194.873 29.216 195.041 29.36 195.185 29.552C195.353 29.72 195.461 29.924 195.509 30.164C195.653 31.076 195.509 31.784 195.077 32.288C194.813 32.624 194.525 32.828 194.213 32.9C193.901 32.972 193.733 33.008 193.709 33.008H174.053C173.141 33.008 172.421 32.852 171.893 32.54C171.365 32.252 171.101 31.832 171.101 31.28V27.716C171.053 27.188 171.053 26.648 171.101 26.096C171.149 25.592 171.341 25.184 171.677 24.872C172.013 24.56 172.433 24.404 172.937 24.404C173.057 24.404 173.213 24.416 173.405 24.44C173.621 24.44 173.789 24.464 173.909 24.512C174.221 24.608 174.461 24.752 174.629 24.944C174.797 25.136 174.929 25.364 175.025 25.628C175.121 25.868 175.181 26.132 175.205 26.42C175.229 26.684 175.253 26.948 175.277 27.212C175.277 27.404 175.289 27.668 175.313 28.004C175.337 28.316 175.373 28.556 175.421 28.724C175.469 28.748 175.685 28.784 176.069 28.832C176.477 28.856 177.101 28.868 177.941 28.868C178.661 28.868 179.297 28.856 179.849 28.832C180.425 28.808 180.725 28.796 180.749 28.796H193.961Z"/>
<path d="M213.736 5.18002C214.144 5.34802 214.528 5.54002 214.888 5.75602C215.272 5.94802 215.632 6.17602 215.968 6.44002C216.352 6.80002 216.7 7.19602 217.012 7.62802C217.324 8.06002 217.54 8.52802 217.66 9.03202C217.78 9.48802 217.876 9.96802 217.948 10.472C218.044 10.952 218.068 11.432 218.02 11.912C217.996 12.224 217.96 12.536 217.912 12.848C217.888 13.16 217.828 13.46 217.732 13.748C217.54 14.564 217.204 15.332 216.724 16.052C216.244 16.748 215.596 17.324 214.78 17.78C214.18 18.116 213.544 18.368 212.872 18.536C212.224 18.68 211.552 18.8 210.856 18.896C210.616 18.944 210.388 18.98 210.172 19.004C209.956 19.004 209.728 19.016 209.488 19.04C209.296 19.064 209.092 19.076 208.876 19.076C208.684 19.052 208.48 19.028 208.264 19.004C207.928 18.98 207.592 18.956 207.256 18.932C206.944 18.884 206.62 18.848 206.284 18.824C205.612 18.728 204.952 18.56 204.304 18.32C203.656 18.056 203.068 17.744 202.54 17.384C201.532 16.712 200.824 15.86 200.416 14.828C200.032 13.796 199.84 12.74 199.84 11.66C199.84 11.132 199.9 10.58 200.02 10.004C200.14 9.42802 200.332 8.87602 200.596 8.34802C200.86 7.82002 201.196 7.32802 201.604 6.87202C202.012 6.39202 202.504 5.97202 203.08 5.61202C203.512 5.34802 203.956 5.13202 204.412 4.96402C204.868 4.77202 205.348 4.61602 205.852 4.49602C206.644 4.35202 207.448 4.28002 208.264 4.28002C209.224 4.23202 210.124 4.28002 210.964 4.42402C211.18 4.47202 211.396 4.52002 211.612 4.56802C211.828 4.59202 212.044 4.62802 212.26 4.67602C212.788 4.82002 213.28 4.98802 213.736 5.18002ZM225.58 32.216C225.46 32.528 225.232 32.78 224.896 32.972C224.632 33.14 224.344 33.236 224.032 33.26C223.72 33.308 223.408 33.308 223.096 33.26C222.736 33.188 222.436 33.044 222.196 32.828C221.98 32.636 221.812 32.384 221.692 32.072C221.596 31.784 221.512 31.496 221.44 31.208C221.392 30.92 221.368 30.668 221.368 30.452C221.368 30.236 221.368 30.128 221.368 30.128V8.20402C221.368 7.94002 221.368 7.64002 221.368 7.30402C221.368 6.96802 221.392 6.63202 221.44 6.29602C221.488 5.96002 221.548 5.66002 221.62 5.39602C221.716 5.10802 221.848 4.88002 222.016 4.71202C222.28 4.44802 222.556 4.29202 222.844 4.24402C223.132 4.19602 223.444 4.17202 223.78 4.17202C224.188 4.17202 224.56 4.28002 224.896 4.49602C225.232 4.71202 225.472 5.01202 225.616 5.39602C225.832 5.90002 225.952 6.42802 225.976 6.98002C226 7.50802 226.024 8.04802 226.048 8.60002C226.096 10.52 226.108 12.44 226.084 14.36C226.06 16.28 226.048 18.092 226.048 19.796V28.796C226.048 29.348 226.012 29.912 225.94 30.488C225.892 31.04 225.772 31.616 225.58 32.216ZM201.532 24.98C201.196 24.956 200.86 24.896 200.524 24.8C200.188 24.68 199.876 24.464 199.588 24.152C199.3 23.864 199.156 23.444 199.156 22.892C199.156 22.388 199.3 21.968 199.588 21.632C199.756 21.44 199.96 21.296 200.2 21.2C200.464 21.104 200.716 21.032 200.956 20.984C201.196 20.936 201.4 20.912 201.568 20.912C201.76 20.912 201.868 20.912 201.892 20.912H216.04C216.52 20.912 217.024 20.936 217.552 20.984C218.08 21.032 218.524 21.224 218.884 21.56C219.1 21.776 219.244 22.004 219.316 22.244C219.412 22.484 219.46 22.748 219.46 23.036C219.46 23.396 219.376 23.732 219.208 24.044C219.04 24.332 218.788 24.536 218.452 24.656C218.02 24.848 217.576 24.968 217.12 25.016C216.664 25.04 216.208 25.064 215.752 25.088C215.032 25.112 214.48 25.136 214.096 25.16C213.736 25.184 213.424 25.208 213.16 25.232C212.92 25.232 212.68 25.232 212.44 25.232C212.2 25.232 211.864 25.232 211.432 25.232L211.36 30.272C211.36 30.632 211.288 30.968 211.144 31.28C211 31.592 210.796 31.856 210.532 32.072C210.292 32.312 210.016 32.492 209.704 32.612C209.392 32.732 209.068 32.78 208.732 32.756C208.468 32.732 208.216 32.684 207.976 32.612C207.736 32.54 207.52 32.42 207.328 32.252C207.136 32.108 206.98 31.904 206.86 31.64C206.74 31.352 206.68 30.98 206.68 30.524L206.572 25.196C205.732 25.172 204.928 25.148 204.16 25.124C203.416 25.076 202.54 25.028 201.532 24.98ZM213.088 12.776C213.232 12.08 213.184 11.42 212.944 10.796C212.896 10.676 212.836 10.544 212.764 10.4C212.692 10.256 212.596 10.124 212.476 10.004C212.356 9.86002 212.236 9.74002 212.116 9.64402C212.02 9.52402 211.876 9.40402 211.684 9.28402C211.516 9.16402 211.324 9.05602 211.108 8.96002C210.916 8.86402 210.712 8.78002 210.496 8.70802C209.872 8.54002 209.248 8.45602 208.624 8.45602C208 8.45602 207.424 8.55202 206.896 8.74402C206.368 8.93602 205.912 9.23602 205.528 9.64402C205.144 10.052 204.904 10.58 204.808 11.228C204.736 11.636 204.724 12.056 204.772 12.488C204.844 12.92 205 13.304 205.24 13.64C205.744 14.288 206.44 14.768 207.328 15.08C207.664 15.2 208 15.284 208.336 15.332C208.672 15.356 209.008 15.356 209.344 15.332C209.68 15.308 210.016 15.272 210.352 15.224C210.712 15.176 211.048 15.08 211.36 14.936C211.816 14.72 212.188 14.42 212.476 14.036C212.764 13.628 212.968 13.208 213.088 12.776Z"/>
</mask>
<path class="1" d="M27.5293 26.708C27.6013 26.732 27.6733 26.744 27.7453 26.744C27.8173 26.72 27.8893 26.708 27.9613 26.708C28.3693 26.756 28.7413 26.84 29.0773 26.96C29.4373 27.056 29.7853 27.248 30.1213 27.536C30.4573 27.872 30.6253 28.292 30.6253 28.796C30.6253 29.06 30.5773 29.348 30.4813 29.66C30.4093 29.948 30.3013 30.176 30.1573 30.344C29.9653 30.536 29.7253 30.68 29.4373 30.776C29.1493 30.872 28.8733 30.944 28.6093 30.992C28.3453 31.016 28.1053 31.028 27.8893 31.028C27.6973 31.028 27.5893 31.028 27.5653 31.028H7.40525C7.28525 31.028 7.16525 31.04 7.04525 31.064C6.92525 31.064 6.80525 31.064 6.68525 31.064C6.18125 31.088 5.64125 31.088 5.06525 31.064C4.48925 31.016 3.99725 30.824 3.58925 30.488C3.08525 30.032 2.83325 29.516 2.83325 28.94C2.83325 28.58 2.94125 28.208 3.15725 27.824C3.37325 27.44 3.66125 27.176 4.02125 27.032C4.50125 26.84 4.99325 26.744 5.49725 26.744C6.02525 26.744 6.55325 26.732 7.08125 26.708H7.26125C9.34925 26.66 11.4973 26.66 13.7053 26.708L13.6693 21.452C12.9493 21.404 12.2413 21.32 11.5453 21.2C10.8493 21.08 10.1773 20.888 9.52925 20.624C8.88125 20.36 8.26925 20.024 7.69325 19.616C7.14125 19.184 6.64925 18.656 6.21725 18.032C5.66525 17.288 5.29325 16.496 5.10125 15.656C4.93325 14.816 4.84925 13.94 4.84925 13.028C4.84925 11.156 5.34125 9.59602 6.32525 8.34802C7.33325 7.07602 8.70125 6.16402 10.4293 5.61202C11.5813 5.22802 12.7453 4.98802 13.9213 4.89202C15.1213 4.77202 16.3213 4.76002 17.5213 4.85602C18.5053 4.92802 19.4893 5.02402 20.4733 5.14402C21.4573 5.26402 22.4053 5.52802 23.3173 5.93602C23.7253 6.12802 24.1213 6.35602 24.5053 6.62002C24.8893 6.88402 25.2493 7.19602 25.5853 7.55602C26.4253 8.46802 27.0013 9.45202 27.3133 10.508C27.6253 11.564 27.7333 12.692 27.6373 13.892C27.5413 15.26 27.2173 16.424 26.6653 17.384C26.1133 18.32 25.4053 19.1 24.5413 19.724C23.7013 20.324 22.7293 20.768 21.6253 21.056C20.5453 21.344 19.4173 21.488 18.2413 21.488L18.3133 26.708C18.9853 26.708 19.5973 26.708 20.1493 26.708C20.7013 26.684 21.2413 26.672 21.7693 26.672C22.2973 26.672 22.8253 26.672 23.3533 26.672C23.8813 26.672 24.4573 26.684 25.0813 26.708C25.5133 26.732 25.9333 26.732 26.3413 26.708C26.7493 26.66 27.1453 26.66 27.5293 26.708ZM22.9213 14.432C22.9933 14.12 23.0173 13.82 22.9933 13.532C22.9453 12.284 22.5493 11.36 21.8053 10.76C21.0853 10.136 20.1493 9.75202 18.9973 9.60802C18.3253 9.53602 17.4973 9.46402 16.5133 9.39202C15.5293 9.29602 14.5573 9.32002 13.5973 9.46402C12.6613 9.60802 11.8333 9.90802 11.1133 10.364C10.3933 10.796 9.96125 11.492 9.81725 12.452C9.74525 13.028 9.74525 13.58 9.81725 14.108C9.91325 14.636 10.1173 15.104 10.4293 15.512C10.7413 15.92 11.1733 16.268 11.7253 16.556C12.2773 16.844 12.9853 17.024 13.8493 17.096C14.6893 17.192 15.5413 17.276 16.4053 17.348C17.2933 17.42 18.1573 17.372 18.9973 17.204C19.4053 17.132 19.8133 17.036 20.2213 16.916C20.6533 16.772 21.0493 16.592 21.4093 16.376C21.7693 16.16 22.0813 15.896 22.3453 15.584C22.6093 15.248 22.8013 14.864 22.9213 14.432Z" stroke="black" stroke-width="4" mask="url(#path-1-outside-1_40_7)"/>
<path class="2" d="M56.1681 30.344C56.5521 30.392 56.8881 30.488 57.1761 30.632C57.4641 30.776 57.6681 31.04 57.7881 31.424C58.0761 32.288 57.7641 32.9 56.8521 33.26C56.5641 33.38 56.2761 33.452 55.9881 33.476C55.7001 33.5 55.4241 33.512 55.1601 33.512H38.4201C37.9401 33.512 37.4361 33.5 36.9081 33.476C36.4041 33.476 35.8881 33.464 35.3601 33.44C34.8561 33.416 34.4361 33.236 34.1001 32.9C33.7641 32.564 33.5721 32.12 33.5241 31.568L33.4161 29.048C33.3921 28.784 33.4161 28.472 33.4881 28.112C33.5841 27.752 33.7401 27.452 33.9561 27.212C34.2921 26.852 34.7121 26.624 35.2161 26.528C35.7201 26.408 36.2361 26.348 36.7641 26.348C37.1001 26.348 37.6161 26.348 38.3121 26.348C39.0321 26.348 40.0161 26.348 41.2641 26.348C42.5121 26.324 44.0841 26.312 45.9801 26.312C47.9001 26.312 50.2281 26.312 52.9641 26.312V24.944H35.9721C35.7321 24.944 35.5161 24.944 35.3241 24.944C35.1321 24.944 34.9401 24.92 34.7481 24.872C34.5321 24.824 34.3401 24.776 34.1721 24.728C34.0041 24.68 33.8601 24.56 33.7401 24.368C33.4041 23.864 33.3201 23.348 33.4881 22.82C33.5601 22.628 33.6681 22.484 33.8121 22.388C33.9561 22.268 34.1241 22.172 34.3161 22.1C34.5081 22.028 34.6881 21.98 34.8561 21.956C35.0481 21.932 35.2161 21.908 35.3601 21.884C35.7201 21.812 36.0921 21.776 36.4761 21.776C36.8361 21.776 37.1961 21.776 37.5561 21.776C37.9401 21.776 38.3961 21.776 38.9241 21.776C39.4761 21.776 40.1241 21.788 40.8681 21.812C41.6361 21.812 42.5841 21.812 43.7121 21.812C44.8401 21.812 46.1841 21.812 47.7441 21.812C49.3041 21.812 51.1641 21.812 53.3241 21.812C54.5481 21.812 55.4841 22.004 56.1321 22.388C56.7801 22.748 57.1041 23.348 57.1041 24.188V26.96C57.1041 27.296 57.0201 27.632 56.8521 27.968C56.7081 28.28 56.4441 28.544 56.0601 28.76C55.7481 28.952 55.4361 29.06 55.1241 29.084C54.8121 29.084 54.5001 29.084 54.1881 29.084H37.8441V30.344H56.1681ZM36.1161 4.24402C36.4041 4.12402 36.6801 4.06402 36.9441 4.06402C37.0641 4.06402 37.1961 4.07602 37.3401 4.10002C37.4841 4.10002 37.6161 4.12402 37.7361 4.17202C38.1681 4.29202 38.4921 4.50802 38.7081 4.82002C38.9001 5.08402 39.0321 5.36002 39.1041 5.64802C39.1521 5.84002 39.1881 6.04402 39.2121 6.26002C39.2361 6.47602 39.2601 6.69202 39.2841 6.90802L39.5001 9.14002C39.5241 9.35602 39.5241 9.51202 39.5001 9.60802C39.4761 9.70402 39.5121 9.84802 39.6081 10.04C39.6801 10.232 39.7641 10.364 39.8601 10.436C39.9801 10.484 40.1121 10.52 40.2561 10.544C40.4001 10.544 40.5441 10.532 40.6881 10.508C40.8321 10.484 40.9761 10.484 41.1201 10.508H51.5601C51.8241 10.484 52.1001 10.484 52.3881 10.508C52.6761 10.508 52.9641 10.508 53.2521 10.508C53.6841 10.508 54.1521 10.58 54.6561 10.724C55.1841 10.844 55.5921 11.144 55.8801 11.624C56.1201 12.008 56.1921 12.332 56.0961 12.596C56.0001 12.836 55.7721 13.112 55.4121 13.424C55.1241 13.664 54.7881 13.844 54.4041 13.964C54.0441 14.06 53.6721 14.132 53.2881 14.18C52.9041 14.204 52.5081 14.216 52.1001 14.216C51.7161 14.216 51.3441 14.216 50.9841 14.216C50.7921 14.216 50.5881 14.216 50.3721 14.216C50.1561 14.192 49.9521 14.192 49.7601 14.216H48.5361C48.3441 14.216 47.9121 14.216 47.2401 14.216C46.5921 14.216 45.8961 14.216 45.1521 14.216C44.4081 14.216 43.7001 14.216 43.0281 14.216C42.3801 14.216 41.9601 14.216 41.7681 14.216C41.4081 14.192 41.0361 14.192 40.6521 14.216C40.2681 14.216 39.8841 14.216 39.5001 14.216C39.0921 14.216 38.6481 14.216 38.1681 14.216C37.7121 14.192 37.2681 14.12 36.8361 14C36.4281 13.88 36.0561 13.688 35.7201 13.424C35.3841 13.16 35.1441 12.776 35.0001 12.272C34.9041 12.008 34.8201 11.78 34.7481 11.588C34.7001 11.372 34.6761 11.132 34.6761 10.868C34.7001 10.748 34.7121 10.496 34.7121 10.112C34.7121 9.72802 34.7001 9.32002 34.6761 8.88802C34.6761 8.43202 34.6641 8.01202 34.6401 7.62802C34.6401 7.24402 34.6401 6.99202 34.6401 6.87202C34.6881 6.56002 34.7481 6.26002 34.8201 5.97202C34.8921 5.66002 35.0001 5.37202 35.1441 5.10802C35.2401 4.96402 35.3841 4.82002 35.5761 4.67602C35.7921 4.50802 35.9721 4.36402 36.1161 4.24402ZM34.9281 16.196C35.1201 16.172 35.3361 16.16 35.5761 16.16C35.8401 16.136 36.0921 16.124 36.3321 16.124H37.1961H44.9721C46.2201 16.1 47.4441 16.088 48.6441 16.088C49.6761 16.088 50.7441 16.088 51.8481 16.088C52.9761 16.088 53.9361 16.1 54.7281 16.124H54.8721C55.3521 16.148 55.8321 16.16 56.3121 16.16C56.7921 16.16 57.2601 16.244 57.7161 16.412C58.4601 16.724 58.8321 17.24 58.8321 17.96C58.8321 18.56 58.5921 19.04 58.1121 19.4C57.7521 19.736 57.2961 19.928 56.7441 19.976C56.1921 20.024 55.6761 20.024 55.1961 19.976H34.8921C34.8681 19.976 34.7601 19.976 34.5681 19.976C34.3761 19.976 34.1481 19.952 33.8841 19.904C33.6441 19.856 33.3921 19.796 33.1281 19.724C32.8641 19.628 32.6481 19.484 32.4801 19.292C32.3361 19.148 32.2281 18.968 32.1561 18.752C32.0841 18.536 32.0481 18.32 32.0481 18.104C32.0481 17.624 32.2041 17.228 32.5161 16.916C32.8281 16.628 33.1401 16.46 33.4521 16.412C33.7881 16.34 34.1361 16.28 34.4961 16.232C34.5681 16.232 34.6401 16.232 34.7121 16.232C34.7841 16.208 34.8561 16.196 34.9281 16.196Z" stroke="black" stroke-width="4" mask="url(#path-1-outside-1_40_7)"/>
<path class="3" d="M63.8786 19.652C62.9186 18.98 62.2346 18.02 61.8266 16.772C61.5866 16.148 61.4186 15.548 61.3226 14.972C61.2506 14.396 61.2146 13.808 61.2146 13.208C61.2146 12.584 61.2626 12.008 61.3586 11.48C61.4786 10.928 61.6346 10.388 61.8266 9.86002C62.0666 9.35602 62.3186 8.88802 62.5826 8.45602C62.8706 8.00002 63.2066 7.60402 63.5906 7.26802C63.9746 6.86002 64.3706 6.51202 64.7786 6.22402C65.2106 5.93602 65.7026 5.69602 66.2546 5.50402C66.7346 5.26402 67.2506 5.09602 67.8026 5.00002C68.3786 4.88002 68.9786 4.82002 69.6026 4.82002C70.0346 4.74802 70.4546 4.74802 70.8626 4.82002C71.0546 4.82002 71.2586 4.83202 71.4746 4.85602C71.7146 4.88002 71.9306 4.91602 72.1226 4.96402C72.2186 5.01202 72.3146 5.03602 72.4106 5.03602C72.5306 5.03602 72.6506 5.06002 72.7706 5.10802C72.8906 5.10802 72.9986 5.13202 73.0946 5.18002C73.2146 5.20402 73.3106 5.24002 73.3826 5.28802C73.6466 5.36002 73.8866 5.44402 74.1026 5.54002C74.3426 5.61202 74.5826 5.70802 74.8226 5.82802C75.2306 6.02002 75.6386 6.23602 76.0466 6.47602C76.1906 6.54802 76.3466 6.65602 76.5146 6.80002C76.7066 6.94402 76.8866 7.10002 77.0546 7.26802C77.4866 7.70002 77.8346 8.14402 78.0986 8.60002C78.2426 8.84002 78.3626 9.09202 78.4586 9.35602C78.5786 9.62002 78.6626 9.90802 78.7106 10.22C78.7826 10.484 78.8426 10.76 78.8906 11.048C78.9386 11.312 78.9866 11.576 79.0346 11.84C79.0826 12.104 79.1186 12.368 79.1426 12.632C79.1666 12.896 79.1546 13.184 79.1066 13.496C79.1066 13.64 79.0946 13.808 79.0706 14C79.0466 14.168 79.0346 14.324 79.0346 14.468C78.9866 14.66 78.9506 14.852 78.9266 15.044C78.9026 15.236 78.8546 15.404 78.7826 15.548C78.6386 16.484 78.3386 17.348 77.8826 18.14C77.6186 18.548 77.3186 18.908 76.9826 19.22C76.6706 19.532 76.3106 19.832 75.9026 20.12C75.5906 20.312 75.2786 20.48 74.9666 20.624C74.6546 20.768 74.3306 20.876 73.9946 20.948C73.6826 21.044 73.3586 21.128 73.0226 21.2C72.7106 21.248 72.3866 21.308 72.0506 21.38C71.9306 21.428 71.8106 21.452 71.6906 21.452C71.5706 21.452 71.4506 21.452 71.3306 21.452C71.2586 21.452 71.1626 21.452 71.0426 21.452C70.9466 21.452 70.8386 21.476 70.7186 21.524H70.0706C69.9746 21.524 69.8666 21.524 69.7466 21.524C69.6506 21.524 69.5426 21.5 69.4226 21.452C69.2786 21.452 69.1226 21.452 68.9546 21.452C68.8106 21.452 68.6666 21.428 68.5226 21.38C68.3306 21.38 68.1506 21.368 67.9826 21.344C67.8386 21.32 67.6826 21.308 67.5146 21.308C66.8666 21.212 66.2426 21.02 65.6426 20.732C65.3066 20.564 64.9946 20.408 64.7066 20.264C64.4186 20.096 64.1426 19.892 63.8786 19.652ZM87.0986 11.228C87.1466 11.708 87.1706 12.2 87.1706 12.704C87.1706 13.208 87.1706 13.736 87.1706 14.288V20.12C87.1706 20.672 87.1706 21.188 87.1706 21.668C87.1706 22.148 87.1466 22.616 87.0986 23.072V27.176C87.0506 27.56 87.0386 27.944 87.0626 28.328C87.0866 28.688 87.0986 29.036 87.0986 29.372C87.0986 29.612 87.0986 29.84 87.0986 30.056C87.0986 30.272 87.0746 30.476 87.0266 30.668C87.0266 31.052 86.9426 31.364 86.7746 31.604C86.7266 31.724 86.6786 31.832 86.6306 31.928C86.5826 32 86.5346 32.096 86.4866 32.216C86.3906 32.288 86.2946 32.372 86.1986 32.468C86.1026 32.564 85.9586 32.648 85.7666 32.72C85.5506 32.888 85.2986 32.996 85.0106 33.044C84.7226 33.092 84.4226 33.092 84.1106 33.044C83.7026 32.948 83.4026 32.792 83.2106 32.576C83.0186 32.456 82.8386 32.204 82.6706 31.82C82.5986 31.652 82.5386 31.496 82.4906 31.352C82.4426 31.208 82.4186 31.052 82.4186 30.884C82.3706 30.764 82.3346 30.644 82.3106 30.524C82.2866 30.404 82.2746 30.308 82.2746 30.236V29.84L82.2026 8.49202C82.2026 8.18002 82.2026 7.86802 82.2026 7.55602C82.2266 7.24402 82.2746 6.89602 82.3466 6.51202C82.4186 5.86402 82.6346 5.33602 82.9946 4.92802C83.3306 4.68802 83.5946 4.53202 83.7866 4.46002C83.9546 4.41202 84.1106 4.38802 84.2546 4.38802C84.4226 4.38802 84.6026 4.38802 84.7946 4.38802C84.9866 4.38802 85.1786 4.41202 85.3706 4.46002C85.5626 4.50802 85.7546 4.59202 85.9466 4.71202C86.2586 4.95202 86.4866 5.25202 86.6306 5.61202C86.7506 5.87602 86.8466 6.14002 86.9186 6.40402C86.9906 6.66802 87.0266 6.93202 87.0266 7.19602C87.0266 7.46002 87.0266 7.74802 87.0266 8.06002C87.0266 8.34802 87.0506 8.62402 87.0986 8.88802V11.228ZM79.1786 25.484C79.4906 25.58 79.7666 25.712 80.0066 25.88C80.2466 26.12 80.4266 26.36 80.5466 26.6C80.6906 26.84 80.7626 27.104 80.7626 27.392C80.7626 27.8 80.6306 28.16 80.3666 28.472C80.1266 28.784 79.8626 28.988 79.5746 29.084C79.4546 29.132 79.3346 29.168 79.2146 29.192C79.0946 29.216 78.9746 29.228 78.8546 29.228C78.7106 29.276 78.5786 29.3 78.4586 29.3C78.3386 29.3 78.2186 29.3 78.0986 29.3H74.6786C74.2706 29.3 73.8506 29.3 73.4186 29.3C73.0106 29.3 72.5786 29.324 72.1226 29.372H69.6026C69.1706 29.324 68.7866 29.3 68.4506 29.3C68.1146 29.3 67.7786 29.3 67.4426 29.3H63.6626C63.4226 29.3 63.1946 29.288 62.9786 29.264C62.7626 29.24 62.5346 29.204 62.2946 29.156C62.1746 29.108 62.0546 29.072 61.9346 29.048C61.8386 29 61.7306 28.952 61.6106 28.904C61.3946 28.832 61.1906 28.724 60.9986 28.58C60.8546 28.412 60.7346 28.232 60.6386 28.04C60.5666 27.824 60.5306 27.56 60.5306 27.248C60.5306 26.792 60.6866 26.384 60.9986 26.024C61.1426 25.808 61.3706 25.664 61.6826 25.592C61.8266 25.544 61.9706 25.508 62.1146 25.484C62.2586 25.436 62.3906 25.388 62.5106 25.34C62.6786 25.292 62.8106 25.268 62.9066 25.268C63.0026 25.268 63.0986 25.268 63.1946 25.268H76.8026C77.0426 25.268 77.2706 25.268 77.4866 25.268C77.7026 25.268 77.9066 25.292 78.0986 25.34C78.2906 25.34 78.4706 25.352 78.6386 25.376C78.8066 25.4 78.9866 25.436 79.1786 25.484ZM66.0026 12.56C65.9306 13.016 65.9306 13.496 66.0026 14C66.1226 14.576 66.2786 15.044 66.4706 15.404C66.9506 16.148 67.6586 16.7 68.5946 17.06C68.9306 17.18 69.2666 17.264 69.6026 17.312C69.9626 17.36 70.3106 17.384 70.6466 17.384C70.8386 17.336 71.0186 17.312 71.1866 17.312C71.3546 17.312 71.5346 17.288 71.7266 17.24C71.8946 17.24 72.0506 17.204 72.1946 17.132C72.3626 17.06 72.5306 16.988 72.6986 16.916C73.1546 16.7 73.5386 16.34 73.8506 15.836C74.0186 15.572 74.1386 15.32 74.2106 15.08C74.2826 14.84 74.3546 14.588 74.4266 14.324C74.5226 13.916 74.5466 13.532 74.4986 13.172C74.4746 12.812 74.4026 12.428 74.2826 12.02C74.2346 11.852 74.1626 11.696 74.0666 11.552C73.9946 11.384 73.9226 11.24 73.8506 11.12C73.7786 11.048 73.7186 10.976 73.6706 10.904C73.6226 10.808 73.5506 10.736 73.4546 10.688C73.3826 10.52 73.2386 10.364 73.0226 10.22C72.8306 10.1 72.6386 10.004 72.4466 9.93202C72.3506 9.86002 72.2426 9.80002 72.1226 9.75202C72.0266 9.70402 71.9186 9.65602 71.7986 9.60802C71.1746 9.46402 70.5386 9.39202 69.8906 9.39202C69.5786 9.39202 69.2786 9.41602 68.9906 9.46402C68.7026 9.51202 68.4266 9.59602 68.1626 9.71602C67.8986 9.83602 67.6466 9.98002 67.4066 10.148C67.1666 10.292 66.9506 10.496 66.7586 10.76C66.5666 11 66.4106 11.276 66.2906 11.588C66.1946 11.876 66.0986 12.2 66.0026 12.56Z" stroke="black" stroke-width="4" mask="url(#path-1-outside-1_40_7)"/>
<path class="4" d="M113.121 5.03602C114.561 5.80402 115.581 6.86002 116.181 8.20402C116.805 9.54802 117.045 11.156 116.901 13.028C116.757 15.428 116.073 17.216 114.849 18.392C113.649 19.568 111.801 20.156 109.305 20.156C108.657 20.156 108.057 20.168 107.505 20.192C106.977 20.192 106.473 20.156 105.993 20.084C105.513 20.012 105.021 19.892 104.517 19.724C104.013 19.532 103.473 19.244 102.897 18.86C101.769 18.116 100.989 17.144 100.557 15.944C100.149 14.744 99.9449 13.508 99.9449 12.236C99.9449 10.964 100.173 9.77602 100.629 8.67202C101.085 7.54402 101.829 6.58402 102.861 5.79202C103.701 5.12002 104.637 4.62802 105.669 4.31602C106.725 4.00402 107.781 3.89602 108.837 3.99202C109.317 4.04002 109.725 4.08802 110.061 4.13602C110.421 4.16002 110.757 4.20802 111.069 4.28002C111.381 4.35202 111.693 4.44802 112.005 4.56802C112.317 4.68802 112.689 4.84402 113.121 5.03602ZM102.537 27.68C102.537 26.6 102.849 25.7 103.473 24.98C104.121 24.26 104.985 23.696 106.065 23.288C107.145 22.856 108.417 22.556 109.881 22.388C111.345 22.22 112.905 22.136 114.561 22.136C116.217 22.136 117.777 22.196 119.241 22.316C120.705 22.436 121.977 22.7 123.057 23.108C124.137 23.492 124.989 24.044 125.613 24.764C126.261 25.484 126.585 26.456 126.585 27.68C126.585 28.88 126.261 29.84 125.613 30.56C124.989 31.28 124.137 31.832 123.057 32.216C121.977 32.624 120.705 32.888 119.241 33.008C117.777 33.152 116.217 33.224 114.561 33.224C112.905 33.224 111.345 33.152 109.881 33.008C108.417 32.888 107.145 32.624 106.065 32.216C104.985 31.832 104.121 31.28 103.473 30.56C102.849 29.84 102.537 28.88 102.537 27.68ZM121.149 17.744C120.981 17.744 120.765 17.732 120.501 17.708C120.261 17.684 120.009 17.636 119.745 17.564C119.505 17.492 119.277 17.396 119.061 17.276C118.845 17.156 118.677 16.988 118.557 16.772C118.485 16.676 118.425 16.544 118.377 16.376C118.353 16.208 118.329 16.04 118.305 15.872C118.305 15.68 118.305 15.5 118.305 15.332C118.329 15.164 118.353 15.032 118.377 14.936C118.425 14.672 118.557 14.444 118.773 14.252C118.989 14.036 119.241 13.868 119.529 13.748C119.625 13.724 119.805 13.7 120.069 13.676C120.357 13.652 120.645 13.64 120.933 13.64H122.013C121.989 13.376 121.977 13.124 121.977 12.884V11.768H121.149C120.981 11.768 120.765 11.756 120.501 11.732C120.261 11.708 120.009 11.66 119.745 11.588C119.505 11.516 119.277 11.42 119.061 11.3C118.845 11.18 118.677 11.012 118.557 10.796C118.365 10.484 118.269 10.16 118.269 9.82402C118.269 9.46402 118.341 9.14002 118.485 8.85202C118.653 8.54002 118.869 8.28802 119.133 8.09602C119.421 7.88002 119.757 7.76002 120.141 7.73602C120.165 7.73602 120.273 7.73602 120.465 7.73602C120.681 7.73602 120.909 7.73602 121.149 7.73602C121.389 7.73602 121.605 7.73602 121.797 7.73602C121.989 7.71202 122.085 7.67602 122.085 7.62802C122.133 7.38802 122.145 7.12402 122.121 6.83602C122.121 6.54802 122.133 6.26002 122.157 5.97202C122.181 5.68402 122.229 5.42002 122.301 5.18002C122.397 4.91602 122.565 4.68802 122.805 4.49602C122.997 4.35202 123.225 4.25602 123.489 4.20802C123.753 4.16002 124.005 4.12402 124.245 4.10002C124.845 4.02802 125.361 4.23202 125.793 4.71202C125.961 4.92802 126.081 5.13202 126.153 5.32402C126.249 5.61202 126.285 5.91202 126.261 6.22402C126.261 6.53602 126.261 6.84802 126.261 7.16002V17.492C126.261 17.492 126.261 17.648 126.261 17.96C126.261 18.272 126.237 18.62 126.189 19.004C126.141 19.388 126.057 19.772 125.937 20.156C125.841 20.516 125.673 20.768 125.433 20.912C125.265 21.008 125.061 21.08 124.821 21.128C124.581 21.176 124.365 21.2 124.173 21.2C123.765 21.2 123.369 21.068 122.985 20.804C122.697 20.612 122.493 20.384 122.373 20.12C122.301 19.976 122.241 19.796 122.193 19.58C122.145 19.364 122.109 19.148 122.085 18.932C122.061 18.692 122.037 18.464 122.013 18.248C121.989 18.032 121.977 17.864 121.977 17.744H121.149ZM112.617 13.424C112.617 12.896 112.593 12.404 112.545 11.948C112.497 11.468 112.389 11.036 112.221 10.652C112.077 10.244 111.849 9.88402 111.537 9.57202C111.225 9.26002 110.817 9.00802 110.313 8.81602C109.761 8.62402 109.161 8.52802 108.513 8.52802C107.865 8.52802 107.253 8.64802 106.677 8.88802C106.101 9.10402 105.597 9.45202 105.165 9.93202C104.733 10.388 104.457 10.988 104.337 11.732C104.265 12.236 104.265 12.752 104.337 13.28C104.433 13.784 104.613 14.252 104.877 14.684C105.165 15.092 105.549 15.44 106.029 15.728C106.533 16.016 107.157 16.196 107.901 16.268C108.405 16.316 108.909 16.316 109.413 16.268C109.917 16.196 110.385 16.052 110.817 15.836C111.249 15.62 111.621 15.32 111.933 14.936C112.245 14.528 112.473 14.024 112.617 13.424ZM121.725 27.68C121.725 27.272 121.509 26.948 121.077 26.708C120.645 26.468 120.081 26.288 119.385 26.168C118.713 26.048 117.945 25.976 117.081 25.952C116.241 25.904 115.401 25.88 114.561 25.88C113.721 25.88 112.881 25.904 112.041 25.952C111.225 25.976 110.481 26.048 109.809 26.168C109.161 26.288 108.633 26.468 108.225 26.708C107.817 26.948 107.613 27.272 107.613 27.68C107.613 28.04 107.817 28.34 108.225 28.58C108.633 28.82 109.161 29 109.809 29.12C110.481 29.24 111.225 29.324 112.041 29.372C112.881 29.42 113.721 29.444 114.561 29.444C115.401 29.444 116.241 29.444 117.081 29.444C117.945 29.444 118.713 29.396 119.385 29.3C120.081 29.204 120.645 29.036 121.077 28.796C121.509 28.532 121.725 28.16 121.725 27.68Z" stroke="black" stroke-width="4" mask="url(#path-1-outside-1_40_7)"/>
<path class="5" d="M132.355 25.952C132.403 25.928 132.607 25.928 132.967 25.952C133.351 25.952 133.771 25.964 134.227 25.988C134.707 25.988 135.162 26 135.594 26.024C136.026 26.024 136.314 26.024 136.458 26.024C136.458 25.88 136.458 25.64 136.458 25.304C136.482 24.968 136.507 24.596 136.531 24.188C136.555 23.78 136.566 23.372 136.566 22.964C136.59 22.532 136.615 22.172 136.639 21.884C136.423 21.836 136.206 21.788 135.99 21.74C135.798 21.668 135.607 21.584 135.415 21.488C134.743 21.2 134.107 20.852 133.507 20.444C132.931 20.036 132.427 19.568 131.995 19.04C131.563 18.488 131.226 17.876 130.986 17.204C130.746 16.532 130.626 15.8 130.626 15.008C130.626 14.144 130.746 13.376 130.986 12.704C131.226 12.032 131.55 11.432 131.958 10.904H131.562C130.986 10.904 130.483 10.724 130.051 10.364C129.643 9.98002 129.439 9.52402 129.439 8.99602C129.439 8.44402 129.643 7.98802 130.051 7.62802C130.483 7.24402 130.986 7.05202 131.562 7.05202H136.314V5.57602C136.314 5.09602 136.518 4.71202 136.926 4.42402C137.334 4.11202 137.826 3.95602 138.402 3.95602C139.002 3.95602 139.507 4.11202 139.915 4.42402C140.323 4.71202 140.527 5.09602 140.527 5.57602V7.05202H145.495C146.095 7.05202 146.598 7.24402 147.007 7.62802C147.439 7.98802 147.654 8.44402 147.654 8.99602C147.654 9.52402 147.439 9.98002 147.007 10.364C146.598 10.724 146.095 10.904 145.495 10.904H145.387C145.795 11.432 146.119 12.032 146.359 12.704C146.623 13.376 146.755 14.144 146.755 15.008C146.755 16.136 146.503 17.156 145.999 18.068C145.495 18.956 144.786 19.748 143.874 20.444C142.986 21.092 142.003 21.56 140.923 21.848C140.947 22.136 140.958 22.484 140.958 22.892C140.982 23.3 140.995 23.72 140.995 24.152C140.995 24.56 140.995 24.932 140.995 25.268C140.995 25.604 140.995 25.844 140.995 25.988V26.024H145.783C146.575 26.024 147.211 26.168 147.691 26.456C147.955 26.624 148.159 26.852 148.303 27.14C148.447 27.404 148.531 27.692 148.555 28.004C148.603 28.316 148.59 28.628 148.518 28.94C148.47 29.252 148.387 29.516 148.267 29.732C148.051 30.116 147.739 30.356 147.331 30.452C146.923 30.524 146.527 30.56 146.143 30.56H131.923C131.923 30.56 131.85 30.56 131.706 30.56C131.562 30.536 131.394 30.512 131.202 30.488C131.01 30.44 130.806 30.392 130.59 30.344C130.374 30.296 130.182 30.236 130.014 30.164C129.51 29.9 129.199 29.408 129.079 28.688C129.031 28.304 129.054 27.944 129.15 27.608C129.27 27.272 129.451 26.996 129.691 26.78C130.123 26.42 130.567 26.192 131.023 26.096C131.503 26 131.947 25.952 132.355 25.952ZM156.294 16.268C156.414 16.244 156.522 16.244 156.618 16.268C156.738 16.292 156.859 16.304 156.979 16.304C157.122 16.328 157.254 16.352 157.374 16.376C157.518 16.376 157.663 16.388 157.807 16.412C158.071 16.46 158.334 16.556 158.598 16.7C158.862 16.82 159.067 17.012 159.211 17.276C159.355 17.564 159.426 17.888 159.426 18.248C159.426 18.416 159.426 18.584 159.426 18.752C159.426 18.92 159.403 19.088 159.355 19.256C159.307 19.448 159.247 19.652 159.174 19.868C159.103 20.084 158.994 20.252 158.85 20.372C158.538 20.612 158.202 20.768 157.842 20.84C157.458 20.888 156.991 20.9 156.439 20.876C155.887 20.852 155.419 20.852 155.035 20.876C155.011 20.9 154.987 20.912 154.963 20.912H154.926V20.948C154.926 20.972 154.915 20.996 154.891 21.02C154.891 21.02 154.891 21.032 154.891 21.056C154.867 21.656 154.855 22.232 154.855 22.784C154.879 23.312 154.891 23.888 154.891 24.512C154.939 25.76 154.939 26.984 154.891 28.184V28.688C154.891 29 154.891 29.348 154.891 29.732C154.891 30.092 154.855 30.452 154.783 30.812C154.735 31.172 154.651 31.52 154.531 31.856C154.435 32.192 154.279 32.468 154.062 32.684C153.702 32.996 153.306 33.152 152.874 33.152H152.803C152.227 33.128 151.758 32.948 151.398 32.612C151.062 32.3 150.811 31.916 150.643 31.46C150.475 31.004 150.366 30.536 150.318 30.056C150.27 29.552 150.247 29.108 150.247 28.724V7.34002C150.247 7.31602 150.247 7.20802 150.247 7.01602C150.247 6.80002 150.259 6.56002 150.283 6.29602C150.331 6.00802 150.403 5.72002 150.499 5.43202C150.619 5.12002 150.775 4.86802 150.967 4.67602C151.159 4.50802 151.411 4.38802 151.723 4.31602C152.035 4.22002 152.323 4.17202 152.587 4.17202C153.139 4.17202 153.594 4.35202 153.954 4.71202C154.266 5.04802 154.459 5.40802 154.531 5.79202C154.603 6.15202 154.65 6.53602 154.674 6.94402C154.698 7.01602 154.71 7.08802 154.71 7.16002C154.71 7.23202 154.723 7.31602 154.747 7.41202C154.795 7.79602 154.818 8.20402 154.818 8.63602C154.818 9.06802 154.831 9.50002 154.855 9.93202C154.855 10.196 154.855 10.46 154.855 10.724C154.879 10.964 154.891 11.216 154.891 11.48V15.368C154.891 15.488 154.891 15.62 154.891 15.764C154.891 15.908 154.915 16.04 154.963 16.16C154.963 16.184 155.082 16.196 155.322 16.196C155.562 16.196 155.707 16.208 155.755 16.232C155.827 16.232 155.899 16.244 155.971 16.268C156.067 16.268 156.151 16.268 156.223 16.268H156.294ZM139.374 17.888C140.142 17.744 140.815 17.456 141.391 17.024C141.967 16.592 142.255 15.92 142.255 15.008C142.255 14.48 142.146 14.036 141.93 13.676C141.738 13.292 141.475 12.992 141.139 12.776C140.827 12.536 140.455 12.356 140.023 12.236C139.591 12.116 139.159 12.056 138.727 12.056C138.271 12.032 137.827 12.068 137.395 12.164C136.963 12.26 136.579 12.428 136.243 12.668C135.907 12.884 135.631 13.184 135.415 13.568C135.223 13.952 135.126 14.432 135.126 15.008C135.126 15.656 135.246 16.196 135.486 16.628C135.75 17.036 136.087 17.348 136.495 17.564C136.903 17.78 137.359 17.912 137.863 17.96C138.367 18.008 138.87 17.984 139.374 17.888Z" stroke="black" stroke-width="4" mask="url(#path-1-outside-1_40_7)"/>
<path class="6" d="M192.953 21.632C191.753 21.68 190.589 21.716 189.461 21.74C188.333 21.764 187.157 21.776 185.933 21.776C185.909 22.28 185.885 22.736 185.861 23.144C185.837 23.528 185.825 24.056 185.825 24.728C185.777 24.992 185.657 25.22 185.465 25.412C185.297 25.604 185.093 25.772 184.853 25.916C184.613 26.06 184.349 26.168 184.061 26.24C183.797 26.288 183.545 26.312 183.305 26.312C182.585 26.264 182.021 26.084 181.613 25.772C181.229 25.46 181.001 24.944 180.929 24.224C180.881 23.744 180.869 23.324 180.893 22.964C180.941 22.604 180.965 22.184 180.965 21.704C180.413 21.704 179.693 21.704 178.805 21.704C177.941 21.68 177.041 21.668 176.105 21.668C175.169 21.644 174.269 21.62 173.405 21.596C172.541 21.572 171.857 21.536 171.353 21.488C170.969 21.44 170.657 21.392 170.417 21.344C170.201 21.272 169.937 21.092 169.625 20.804C169.457 20.66 169.337 20.468 169.265 20.228C169.193 19.988 169.157 19.736 169.157 19.472C169.157 18.968 169.313 18.56 169.625 18.248C169.793 18.056 170.021 17.912 170.309 17.816C170.597 17.72 170.873 17.648 171.137 17.6C171.401 17.552 171.629 17.528 171.821 17.528C172.037 17.528 172.157 17.528 172.181 17.528H192.773C193.133 17.528 193.493 17.528 193.853 17.528C194.213 17.528 194.561 17.54 194.897 17.564C195.233 17.588 195.557 17.636 195.869 17.708C196.205 17.78 196.505 17.936 196.769 18.176C197.033 18.368 197.177 18.584 197.201 18.824C197.249 19.064 197.273 19.328 197.273 19.616C197.273 19.976 197.165 20.3 196.949 20.588C196.757 20.876 196.481 21.08 196.121 21.2C195.641 21.392 195.113 21.512 194.537 21.56C193.985 21.584 193.457 21.608 192.953 21.632ZM177.761 14C177.305 14.312 176.849 14.648 176.393 15.008C175.961 15.368 175.433 15.608 174.809 15.728C174.593 15.776 174.365 15.824 174.125 15.872C173.909 15.92 173.693 15.932 173.477 15.908C173.261 15.884 173.045 15.824 172.829 15.728C172.637 15.608 172.457 15.416 172.289 15.152C172.097 14.864 171.989 14.6 171.965 14.36C171.965 14.096 172.013 13.856 172.109 13.64C172.229 13.424 172.373 13.22 172.541 13.028C172.709 12.836 172.889 12.656 173.081 12.488C173.801 11.84 174.545 11.168 175.313 10.472C176.105 9.75202 176.909 9.11602 177.725 8.56402C177.989 8.39602 178.289 8.16802 178.625 7.88002C178.985 7.56802 179.333 7.26802 179.669 6.98002C180.053 6.64402 180.449 6.29602 180.857 5.93602C180.809 5.60002 180.797 5.27602 180.821 4.96402C180.845 4.70002 180.905 4.42402 181.001 4.13602C181.097 3.82402 181.277 3.57202 181.541 3.38002C181.853 3.16402 182.273 3.02002 182.801 2.94802C183.329 2.87602 183.785 2.88802 184.169 2.98402C184.721 3.12802 185.081 3.35602 185.249 3.66802C185.441 3.98002 185.573 4.35202 185.645 4.78402C185.693 5.14402 185.765 5.48002 185.861 5.79202C185.957 6.10402 186.137 6.41602 186.401 6.72802C186.593 6.94402 186.833 7.16002 187.121 7.37602C187.433 7.59202 187.709 7.79602 187.949 7.98802C188.789 8.70802 189.605 9.38002 190.397 10.004C191.213 10.628 192.053 11.3 192.917 12.02C193.205 12.236 193.445 12.524 193.637 12.884C193.853 13.22 193.997 13.568 194.069 13.928C194.141 14.264 194.117 14.6 193.997 14.936C193.901 15.248 193.673 15.5 193.313 15.692C192.617 15.956 191.945 15.944 191.297 15.656C190.673 15.344 190.133 14.984 189.677 14.576C189.197 14.216 188.645 13.856 188.021 13.496C187.397 13.112 186.857 12.716 186.401 12.308L183.197 10.004C182.861 10.268 182.561 10.508 182.297 10.724C182.057 10.916 181.829 11.084 181.613 11.228C181.421 11.372 181.301 11.468 181.253 11.516C180.725 11.924 180.149 12.344 179.525 12.776C178.925 13.184 178.337 13.592 177.761 14ZM193.961 28.796C193.985 28.796 194.069 28.82 194.213 28.868C194.357 28.916 194.513 29 194.681 29.12C194.873 29.216 195.041 29.36 195.185 29.552C195.353 29.72 195.461 29.924 195.509 30.164C195.653 31.076 195.509 31.784 195.077 32.288C194.813 32.624 194.525 32.828 194.213 32.9C193.901 32.972 193.733 33.008 193.709 33.008H174.053C173.141 33.008 172.421 32.852 171.893 32.54C171.365 32.252 171.101 31.832 171.101 31.28V27.716C171.053 27.188 171.053 26.648 171.101 26.096C171.149 25.592 171.341 25.184 171.677 24.872C172.013 24.56 172.433 24.404 172.937 24.404C173.057 24.404 173.213 24.416 173.405 24.44C173.621 24.44 173.789 24.464 173.909 24.512C174.221 24.608 174.461 24.752 174.629 24.944C174.797 25.136 174.929 25.364 175.025 25.628C175.121 25.868 175.181 26.132 175.205 26.42C175.229 26.684 175.253 26.948 175.277 27.212C175.277 27.404 175.289 27.668 175.313 28.004C175.337 28.316 175.373 28.556 175.421 28.724C175.469 28.748 175.685 28.784 176.069 28.832C176.477 28.856 177.101 28.868 177.941 28.868C178.661 28.868 179.297 28.856 179.849 28.832C180.425 28.808 180.725 28.796 180.749 28.796H193.961Z" stroke="black" stroke-width="4" mask="url(#path-1-outside-1_40_7)"/>
<path class="7" d="M213.736 5.18002C214.144 5.34802 214.528 5.54002 214.888 5.75602C215.272 5.94802 215.632 6.17602 215.968 6.44002C216.352 6.80002 216.7 7.19602 217.012 7.62802C217.324 8.06002 217.54 8.52802 217.66 9.03202C217.78 9.48802 217.876 9.96802 217.948 10.472C218.044 10.952 218.068 11.432 218.02 11.912C217.996 12.224 217.96 12.536 217.912 12.848C217.888 13.16 217.828 13.46 217.732 13.748C217.54 14.564 217.204 15.332 216.724 16.052C216.244 16.748 215.596 17.324 214.78 17.78C214.18 18.116 213.544 18.368 212.872 18.536C212.224 18.68 211.552 18.8 210.856 18.896C210.616 18.944 210.388 18.98 210.172 19.004C209.956 19.004 209.728 19.016 209.488 19.04C209.296 19.064 209.092 19.076 208.876 19.076C208.684 19.052 208.48 19.028 208.264 19.004C207.928 18.98 207.592 18.956 207.256 18.932C206.944 18.884 206.62 18.848 206.284 18.824C205.612 18.728 204.952 18.56 204.304 18.32C203.656 18.056 203.068 17.744 202.54 17.384C201.532 16.712 200.824 15.86 200.416 14.828C200.032 13.796 199.84 12.74 199.84 11.66C199.84 11.132 199.9 10.58 200.02 10.004C200.14 9.42802 200.332 8.87602 200.596 8.34802C200.86 7.82002 201.196 7.32802 201.604 6.87202C202.012 6.39202 202.504 5.97202 203.08 5.61202C203.512 5.34802 203.956 5.13202 204.412 4.96402C204.868 4.77202 205.348 4.61602 205.852 4.49602C206.644 4.35202 207.448 4.28002 208.264 4.28002C209.224 4.23202 210.124 4.28002 210.964 4.42402C211.18 4.47202 211.396 4.52002 211.612 4.56802C211.828 4.59202 212.044 4.62802 212.26 4.67602C212.788 4.82002 213.28 4.98802 213.736 5.18002ZM225.58 32.216C225.46 32.528 225.232 32.78 224.896 32.972C224.632 33.14 224.344 33.236 224.032 33.26C223.72 33.308 223.408 33.308 223.096 33.26C222.736 33.188 222.436 33.044 222.196 32.828C221.98 32.636 221.812 32.384 221.692 32.072C221.596 31.784 221.512 31.496 221.44 31.208C221.392 30.92 221.368 30.668 221.368 30.452C221.368 30.236 221.368 30.128 221.368 30.128V8.20402C221.368 7.94002 221.368 7.64002 221.368 7.30402C221.368 6.96802 221.392 6.63202 221.44 6.29602C221.488 5.96002 221.548 5.66002 221.62 5.39602C221.716 5.10802 221.848 4.88002 222.016 4.71202C222.28 4.44802 222.556 4.29202 222.844 4.24402C223.132 4.19602 223.444 4.17202 223.78 4.17202C224.188 4.17202 224.56 4.28002 224.896 4.49602C225.232 4.71202 225.472 5.01202 225.616 5.39602C225.832 5.90002 225.952 6.42802 225.976 6.98002C226 7.50802 226.024 8.04802 226.048 8.60002C226.096 10.52 226.108 12.44 226.084 14.36C226.06 16.28 226.048 18.092 226.048 19.796V28.796C226.048 29.348 226.012 29.912 225.94 30.488C225.892 31.04 225.772 31.616 225.58 32.216ZM201.532 24.98C201.196 24.956 200.86 24.896 200.524 24.8C200.188 24.68 199.876 24.464 199.588 24.152C199.3 23.864 199.156 23.444 199.156 22.892C199.156 22.388 199.3 21.968 199.588 21.632C199.756 21.44 199.96 21.296 200.2 21.2C200.464 21.104 200.716 21.032 200.956 20.984C201.196 20.936 201.4 20.912 201.568 20.912C201.76 20.912 201.868 20.912 201.892 20.912H216.04C216.52 20.912 217.024 20.936 217.552 20.984C218.08 21.032 218.524 21.224 218.884 21.56C219.1 21.776 219.244 22.004 219.316 22.244C219.412 22.484 219.46 22.748 219.46 23.036C219.46 23.396 219.376 23.732 219.208 24.044C219.04 24.332 218.788 24.536 218.452 24.656C218.02 24.848 217.576 24.968 217.12 25.016C216.664 25.04 216.208 25.064 215.752 25.088C215.032 25.112 214.48 25.136 214.096 25.16C213.736 25.184 213.424 25.208 213.16 25.232C212.92 25.232 212.68 25.232 212.44 25.232C212.2 25.232 211.864 25.232 211.432 25.232L211.36 30.272C211.36 30.632 211.288 30.968 211.144 31.28C211 31.592 210.796 31.856 210.532 32.072C210.292 32.312 210.016 32.492 209.704 32.612C209.392 32.732 209.068 32.78 208.732 32.756C208.468 32.732 208.216 32.684 207.976 32.612C207.736 32.54 207.52 32.42 207.328 32.252C207.136 32.108 206.98 31.904 206.86 31.64C206.74 31.352 206.68 30.98 206.68 30.524L206.572 25.196C205.732 25.172 204.928 25.148 204.16 25.124C203.416 25.076 202.54 25.028 201.532 24.98ZM213.088 12.776C213.232 12.08 213.184 11.42 212.944 10.796C212.896 10.676 212.836 10.544 212.764 10.4C212.692 10.256 212.596 10.124 212.476 10.004C212.356 9.86002 212.236 9.74002 212.116 9.64402C212.02 9.52402 211.876 9.40402 211.684 9.28402C211.516 9.16402 211.324 9.05602 211.108 8.96002C210.916 8.86402 210.712 8.78002 210.496 8.70802C209.872 8.54002 209.248 8.45602 208.624 8.45602C208 8.45602 207.424 8.55202 206.896 8.74402C206.368 8.93602 205.912 9.23602 205.528 9.64402C205.144 10.052 204.904 10.58 204.808 11.228C204.736 11.636 204.724 12.056 204.772 12.488C204.844 12.92 205 13.304 205.24 13.64C205.744 14.288 206.44 14.768 207.328 15.08C207.664 15.2 208 15.284 208.336 15.332C208.672 15.356 209.008 15.356 209.344 15.332C209.68 15.308 210.016 15.272 210.352 15.224C210.712 15.176 211.048 15.08 211.36 14.936C211.816 14.72 212.188 14.42 212.476 14.036C212.764 13.628 212.968 13.208 213.088 12.776Z" stroke="black" stroke-width="4" mask="url(#path-1-outside-1_40_7)"/>
</svg>
