<svg id='designer_svg' width="593" height="102" viewBox="0 0 593 102" fill="none" xmlns="http://www.w3.org/2000/svg">
<mask id="path-1-outside-1_4_9" maskUnits="userSpaceOnUse" x="0" y="0" width="593" height="102" fill="black">
<rect fill="white" width="593" height="102"/>
<path d="M32.776 6.152C42.504 6.152 50.9093 7.98667 57.992 11.656C65.16 15.24 70.6213 20.4027 74.376 27.144C78.216 33.8853 80.136 41.8213 80.136 50.952C80.136 60.0827 78.216 68.0187 74.376 74.76C70.6213 81.416 65.16 86.536 57.992 90.12C50.9093 93.6187 42.504 95.368 32.776 95.368H5V6.152H32.776ZM32.776 85.768C44.296 85.768 53.0853 82.7387 59.144 76.68C65.2027 70.536 68.232 61.96 68.232 50.952C68.232 39.8587 65.16 31.1973 59.016 24.968C52.9573 18.7387 44.2107 15.624 32.776 15.624H16.648V85.768H32.776Z"/>
<path d="M107.148 15.624V45.448H139.66V55.048H107.148V85.768H143.5V95.368H95.5V6.024H143.5V15.624H107.148Z"/>
<path d="M189.413 96.264C183.525 96.264 178.234 95.24 173.541 93.192C168.933 91.0587 165.306 88.1573 162.661 84.488C160.016 80.7333 158.65 76.424 158.565 71.56H170.981C171.408 75.7413 173.114 79.2827 176.101 82.184C179.173 85 183.61 86.408 189.413 86.408C194.96 86.408 199.312 85.0427 202.469 82.312C205.712 79.496 207.333 75.912 207.333 71.56C207.333 68.1467 206.394 65.3733 204.517 63.24C202.64 61.1067 200.293 59.4853 197.477 58.376C194.661 57.2667 190.864 56.072 186.085 54.792C180.197 53.256 175.461 51.72 171.877 50.184C168.378 48.648 165.349 46.2587 162.789 43.016C160.314 39.688 159.077 35.2507 159.077 29.704C159.077 24.84 160.314 20.5307 162.789 16.776C165.264 13.0213 168.72 10.12 173.157 8.072C177.68 6.024 182.842 5 188.645 5C197.008 5 203.834 7.09067 209.125 11.272C214.501 15.4533 217.53 21 218.213 27.912H205.413C204.986 24.4987 203.194 21.512 200.037 18.952C196.88 16.3067 192.698 14.984 187.493 14.984C182.629 14.984 178.661 16.264 175.589 18.824C172.517 21.2987 170.981 24.7973 170.981 29.32C170.981 32.5627 171.877 35.208 173.669 37.256C175.546 39.304 177.808 40.8827 180.453 41.992C183.184 43.016 186.981 44.2107 191.845 45.576C197.733 47.1973 202.469 48.8187 206.053 50.44C209.637 51.976 212.709 54.408 215.269 57.736C217.829 60.9787 219.109 65.416 219.109 71.048C219.109 75.4 217.957 79.496 215.653 83.336C213.349 87.176 209.936 90.2907 205.413 92.68C200.89 95.0693 195.557 96.264 189.413 96.264Z"/>
<path d="M247.898 6.152V95.368H236.25V6.152H247.898Z"/>
<path d="M335.334 32.008C332.859 26.8027 329.275 22.792 324.582 19.976C319.889 17.0747 314.427 15.624 308.198 15.624C301.969 15.624 296.337 17.0747 291.302 19.976C286.353 22.792 282.427 26.888 279.526 32.264C276.71 37.5547 275.302 43.6987 275.302 50.696C275.302 57.6933 276.71 63.8373 279.526 69.128C282.427 74.4187 286.353 78.5147 291.302 81.416C296.337 84.232 301.969 85.64 308.198 85.64C316.902 85.64 324.07 83.0373 329.702 77.832C335.334 72.6267 338.619 65.5867 339.558 56.712H303.974V47.24H351.974V56.2C351.291 63.5387 348.987 70.28 345.062 76.424C341.137 82.4827 335.974 87.304 329.574 90.888C323.174 94.3867 316.049 96.136 308.198 96.136C299.921 96.136 292.369 94.216 285.542 90.376C278.715 86.4507 273.297 81.032 269.286 74.12C265.361 67.208 263.398 59.4 263.398 50.696C263.398 41.992 265.361 34.184 269.286 27.272C273.297 20.2747 278.715 14.856 285.542 11.016C292.369 7.09067 299.921 5.128 308.198 5.128C317.67 5.128 326.033 7.47467 333.286 12.168C340.625 16.8613 345.958 23.4747 349.286 32.008H335.334Z"/>
<path d="M437.519 95.368H425.871L379.023 24.328V95.368H367.375V6.024H379.023L425.871 76.936V6.024H437.519V95.368Z"/>
<path d="M469.023 15.624V45.448H501.535V55.048H469.023V85.768H505.375V95.368H457.375V6.024H505.375V15.624H469.023Z"/>
<path d="M569.976 95.368L548.728 58.888H534.648V95.368H523V6.152H551.8C558.541 6.152 564.216 7.304 568.824 9.608C573.517 11.912 577.016 15.0267 579.32 18.952C581.624 22.8773 582.776 27.3573 582.776 32.392C582.776 38.536 580.984 43.9547 577.4 48.648C573.901 53.3413 568.611 56.456 561.528 57.992L583.928 95.368H569.976ZM534.648 49.544H551.8C558.115 49.544 562.851 48.008 566.008 44.936C569.165 41.7787 570.744 37.5973 570.744 32.392C570.744 27.1013 569.165 23.0053 566.008 20.104C562.936 17.2027 558.2 15.752 551.8 15.752H534.648V49.544Z"/>
</mask>
<path class="1" d="M32.776 6.152C42.504 6.152 50.9093 7.98667 57.992 11.656C65.16 15.24 70.6213 20.4027 74.376 27.144C78.216 33.8853 80.136 41.8213 80.136 50.952C80.136 60.0827 78.216 68.0187 74.376 74.76C70.6213 81.416 65.16 86.536 57.992 90.12C50.9093 93.6187 42.504 95.368 32.776 95.368H5V6.152H32.776ZM32.776 85.768C44.296 85.768 53.0853 82.7387 59.144 76.68C65.2027 70.536 68.232 61.96 68.232 50.952C68.232 39.8587 65.16 31.1973 59.016 24.968C52.9573 18.7387 44.2107 15.624 32.776 15.624H16.648V85.768H32.776Z" stroke="white" stroke-width="10" mask="url(#path-1-outside-1_4_9)"/>
<path class="2" d="M107.148 15.624V45.448H139.66V55.048H107.148V85.768H143.5V95.368H95.5V6.024H143.5V15.624H107.148Z" stroke="white" stroke-width="10" mask="url(#path-1-outside-1_4_9)"/>
<path class="3" d="M189.413 96.264C183.525 96.264 178.234 95.24 173.541 93.192C168.933 91.0587 165.306 88.1573 162.661 84.488C160.016 80.7333 158.65 76.424 158.565 71.56H170.981C171.408 75.7413 173.114 79.2827 176.101 82.184C179.173 85 183.61 86.408 189.413 86.408C194.96 86.408 199.312 85.0427 202.469 82.312C205.712 79.496 207.333 75.912 207.333 71.56C207.333 68.1467 206.394 65.3733 204.517 63.24C202.64 61.1067 200.293 59.4853 197.477 58.376C194.661 57.2667 190.864 56.072 186.085 54.792C180.197 53.256 175.461 51.72 171.877 50.184C168.378 48.648 165.349 46.2587 162.789 43.016C160.314 39.688 159.077 35.2507 159.077 29.704C159.077 24.84 160.314 20.5307 162.789 16.776C165.264 13.0213 168.72 10.12 173.157 8.072C177.68 6.024 182.842 5 188.645 5C197.008 5 203.834 7.09067 209.125 11.272C214.501 15.4533 217.53 21 218.213 27.912H205.413C204.986 24.4987 203.194 21.512 200.037 18.952C196.88 16.3067 192.698 14.984 187.493 14.984C182.629 14.984 178.661 16.264 175.589 18.824C172.517 21.2987 170.981 24.7973 170.981 29.32C170.981 32.5627 171.877 35.208 173.669 37.256C175.546 39.304 177.808 40.8827 180.453 41.992C183.184 43.016 186.981 44.2107 191.845 45.576C197.733 47.1973 202.469 48.8187 206.053 50.44C209.637 51.976 212.709 54.408 215.269 57.736C217.829 60.9787 219.109 65.416 219.109 71.048C219.109 75.4 217.957 79.496 215.653 83.336C213.349 87.176 209.936 90.2907 205.413 92.68C200.89 95.0693 195.557 96.264 189.413 96.264Z" stroke="white" stroke-width="10" mask="url(#path-1-outside-1_4_9)"/>
<path class="4" d="M247.898 6.152V95.368H236.25V6.152H247.898Z" stroke="white" stroke-width="10" mask="url(#path-1-outside-1_4_9)"/>
<path class="5" d="M335.334 32.008C332.859 26.8027 329.275 22.792 324.582 19.976C319.889 17.0747 314.427 15.624 308.198 15.624C301.969 15.624 296.337 17.0747 291.302 19.976C286.353 22.792 282.427 26.888 279.526 32.264C276.71 37.5547 275.302 43.6987 275.302 50.696C275.302 57.6933 276.71 63.8373 279.526 69.128C282.427 74.4187 286.353 78.5147 291.302 81.416C296.337 84.232 301.969 85.64 308.198 85.64C316.902 85.64 324.07 83.0373 329.702 77.832C335.334 72.6267 338.619 65.5867 339.558 56.712H303.974V47.24H351.974V56.2C351.291 63.5387 348.987 70.28 345.062 76.424C341.137 82.4827 335.974 87.304 329.574 90.888C323.174 94.3867 316.049 96.136 308.198 96.136C299.921 96.136 292.369 94.216 285.542 90.376C278.715 86.4507 273.297 81.032 269.286 74.12C265.361 67.208 263.398 59.4 263.398 50.696C263.398 41.992 265.361 34.184 269.286 27.272C273.297 20.2747 278.715 14.856 285.542 11.016C292.369 7.09067 299.921 5.128 308.198 5.128C317.67 5.128 326.033 7.47467 333.286 12.168C340.625 16.8613 345.958 23.4747 349.286 32.008H335.334Z" stroke="white" stroke-width="10" mask="url(#path-1-outside-1_4_9)"/>
<path class="6" d="M437.519 95.368H425.871L379.023 24.328V95.368H367.375V6.024H379.023L425.871 76.936V6.024H437.519V95.368Z" stroke="white" stroke-width="10" mask="url(#path-1-outside-1_4_9)"/>
<path class="7" d="M469.023 15.624V45.448H501.535V55.048H469.023V85.768H505.375V95.368H457.375V6.024H505.375V15.624H469.023Z" stroke="white" stroke-width="10" mask="url(#path-1-outside-1_4_9)"/>
<path class="8" d="M569.976 95.368L548.728 58.888H534.648V95.368H523V6.152H551.8C558.541 6.152 564.216 7.304 568.824 9.608C573.517 11.912 577.016 15.0267 579.32 18.952C581.624 22.8773 582.776 27.3573 582.776 32.392C582.776 38.536 580.984 43.9547 577.4 48.648C573.901 53.3413 568.611 56.456 561.528 57.992L583.928 95.368H569.976ZM534.648 49.544H551.8C558.115 49.544 562.851 48.008 566.008 44.936C569.165 41.7787 570.744 37.5973 570.744 32.392C570.744 27.1013 569.165 23.0053 566.008 20.104C562.936 17.2027 558.2 15.752 551.8 15.752H534.648V49.544Z" stroke="white" stroke-width="10" mask="url(#path-1-outside-1_4_9)"/>
</svg>
