<svg id="header-title_svg" width="254" height="36" viewBox="0 0 254 36" fill="none" xmlns="http://www.w3.org/2000/svg">
<mask id="path-1-outside-1_17_3" maskUnits="userSpaceOnUse" x="0.831543" y="0.978851" width="253" height="35" fill="black">
<rect fill="white" x="0.831543" y="0.978851" width="253" height="35"/>
<path d="M26.4337 18.104C26.8417 18.128 27.2497 18.188 27.6577 18.284C28.0897 18.38 28.4737 18.56 28.8097 18.824C29.1457 19.088 29.3137 19.46 29.3137 19.94C29.3137 20.18 29.2657 20.444 29.1697 20.732C29.0977 21.02 28.9897 21.224 28.8457 21.344C28.6537 21.536 28.4017 21.68 28.0897 21.776C27.8017 21.848 27.5137 21.908 27.2257 21.956C26.9377 21.98 26.6857 21.992 26.4697 21.992C26.2777 21.992 26.1697 21.992 26.1457 21.992L6.95767 22.028C6.40567 22.052 5.82967 22.052 5.22967 22.028C4.65367 22.004 4.16169 21.824 3.75369 21.488C3.20169 21.08 2.92569 20.612 2.92569 20.084C2.92569 19.748 3.03369 19.412 3.24969 19.076C3.48969 18.716 3.8017 18.476 4.1857 18.356C4.6897 18.188 5.20567 18.116 5.73367 18.14C6.26167 18.14 6.8017 18.128 7.3537 18.104C7.9297 18.08 8.42168 18.068 8.82968 18.068C9.26168 18.068 9.66968 18.068 10.0537 18.068C10.4617 18.068 10.8817 18.08 11.3137 18.104C11.7457 18.104 12.2617 18.104 12.8617 18.104V16.268C11.5657 16.22 10.3897 16.112 9.33368 15.944C8.27768 15.776 7.3777 15.524 6.6337 15.188C5.8897 14.828 5.3137 14.372 4.9057 13.82C4.5217 13.244 4.32968 12.524 4.32968 11.66C4.32968 10.868 4.54569 10.184 4.97769 9.608C4.49769 9.56 4.0297 9.428 3.5737 9.212C3.1417 8.996 2.9017 8.612 2.8537 8.06C2.7577 7.24399 2.97368 6.69199 3.50168 6.404C4.05368 6.11599 4.70168 5.97199 5.44568 5.97199L12.9337 6.00799L12.9697 4.92799C12.9937 4.27999 13.1497 3.85999 13.4377 3.66799C13.7257 3.45199 14.0617 3.28399 14.4457 3.16399C14.8777 3.01999 15.2977 2.95999 15.7057 2.98399C16.1137 3.00799 16.4737 3.10399 16.7857 3.27199C17.0977 3.41599 17.3497 3.63199 17.5417 3.92C17.7337 4.18399 17.8297 4.49599 17.8297 4.856V6.00799L24.4537 5.97199C24.8617 5.97199 25.3057 5.97199 25.7857 5.97199C26.2897 5.94799 26.7577 5.972 27.1897 6.044C27.6457 6.11599 28.0297 6.25999 28.3417 6.47599C28.6537 6.69199 28.8337 7.01599 28.8817 7.44799C28.9297 8.19199 28.7137 8.72 28.2337 9.032C27.7777 9.31999 27.2377 9.49999 26.6137 9.57199C26.9977 10.196 27.1897 10.892 27.1897 11.66C27.1897 12.548 26.9617 13.28 26.5057 13.856C26.0737 14.432 25.4497 14.9 24.6337 15.26C23.8177 15.596 22.8457 15.848 21.7177 16.016C20.5897 16.16 19.3297 16.244 17.9377 16.268C17.9617 16.604 17.9737 16.94 17.9737 17.276C17.9737 17.588 17.9737 17.864 17.9737 18.104C18.6457 18.104 19.3657 18.104 20.1337 18.104C20.9017 18.08 21.6697 18.068 22.4377 18.068C23.2057 18.068 23.9377 18.068 24.6337 18.068C25.3297 18.068 25.9297 18.08 26.4337 18.104ZM4.72568 32.648C4.70168 32.648 4.66568 32.624 4.61768 32.576C4.37768 32.384 4.20968 32.12 4.11368 31.784C4.04168 31.448 4.00568 31.148 4.00568 30.884C3.98168 30.452 3.94567 30.02 3.89767 29.588C3.87367 29.156 3.86169 28.736 3.86169 28.328C3.86169 27.704 3.86169 27.14 3.86169 26.636C3.86169 26.132 3.92169 25.58 4.04169 24.98C4.11369 24.596 4.23367 24.296 4.40167 24.08C4.56967 23.84 4.83369 23.648 5.19369 23.504C5.86569 23.24 6.53769 23.108 7.20969 23.108H24.1657C24.6217 23.132 25.0897 23.168 25.5697 23.216C26.0497 23.264 26.5057 23.384 26.9377 23.576C27.4177 23.768 27.7297 24.044 27.8737 24.404C28.0417 24.74 28.1497 25.148 28.1977 25.628C28.2217 26.036 28.2337 26.504 28.2337 27.032C28.2577 27.56 28.2577 28.1 28.2337 28.652C28.2097 29.18 28.1737 29.708 28.1257 30.236C28.0777 30.764 27.9937 31.244 27.8737 31.676C27.8017 31.94 27.7177 32.168 27.6217 32.36C27.5257 32.576 27.3337 32.732 27.0457 32.828C26.7817 32.924 26.5057 32.984 26.2177 33.008C25.9537 33.032 25.6897 33.044 25.4257 33.044L6.66968 32.972C6.35768 32.948 6.02168 32.936 5.66168 32.936C5.30168 32.936 4.98968 32.84 4.72568 32.648ZM8.14569 28.544C8.14569 28.664 8.14569 28.784 8.14569 28.904C8.16969 29.024 8.21767 29.108 8.28967 29.156C8.33767 29.204 8.40968 29.24 8.50568 29.264C8.62568 29.264 8.74569 29.264 8.86569 29.264C8.98569 29.264 9.1297 29.252 9.2977 29.228H20.5657C20.9017 29.252 21.2257 29.276 21.5377 29.3C21.8017 29.324 22.0777 29.336 22.3657 29.336C22.6537 29.336 22.9177 29.312 23.1577 29.264C23.3977 29.24 23.5417 29.168 23.5897 29.048C23.6377 28.928 23.6737 28.76 23.6977 28.544C23.7217 28.352 23.7337 28.136 23.7337 27.896C23.7337 27.632 23.6617 27.404 23.5177 27.212C23.3497 27.02 23.1097 26.924 22.7977 26.924C22.5097 26.9 22.2457 26.9 22.0057 26.924H11.9977C11.4697 26.876 10.9537 26.864 10.4497 26.888C9.94568 26.888 9.42967 26.9 8.90167 26.924C8.70967 26.924 8.55368 26.936 8.43368 26.96C8.33768 26.96 8.26568 27.068 8.21768 27.284C8.16968 27.452 8.14569 27.62 8.14569 27.788C8.14569 27.932 8.14569 28.076 8.14569 28.22C8.16969 28.268 8.16969 28.316 8.14569 28.364C8.14569 28.412 8.14569 28.472 8.14569 28.544ZM22.2217 11.66C22.2217 11.324 22.0297 11.06 21.6457 10.868C21.2617 10.676 20.7577 10.532 20.1337 10.436C19.5337 10.34 18.8377 10.28 18.0457 10.256C17.2537 10.232 16.4617 10.22 15.6697 10.22C14.8777 10.22 14.0977 10.232 13.3297 10.256C12.5617 10.28 11.8777 10.34 11.2777 10.436C10.6777 10.532 10.1977 10.676 9.83768 10.868C9.47768 11.06 9.2977 11.324 9.2977 11.66C9.2977 11.972 9.47768 12.212 9.83768 12.38C10.1977 12.548 10.6777 12.68 11.2777 12.776C11.8777 12.848 12.5617 12.896 13.3297 12.92C14.0977 12.92 14.8777 12.92 15.6697 12.92C16.4617 12.92 17.2537 12.932 18.0457 12.956C18.8377 12.98 19.5337 12.968 20.1337 12.92C20.7577 12.848 21.2617 12.728 21.6457 12.56C22.0297 12.368 22.2217 12.068 22.2217 11.66Z"/>
<path d="M52.4749 28.868C52.4749 29.468 52.4509 29.948 52.4029 30.308C52.3789 30.668 52.2709 31.124 52.0789 31.676C51.9589 32.036 51.7789 32.336 51.5389 32.576C51.2989 32.816 50.9149 32.936 50.3869 32.936C50.2429 32.936 50.0629 32.912 49.8469 32.864C49.6309 32.84 49.4629 32.78 49.3429 32.684C49.1029 32.54 48.9109 32.312 48.7669 32C48.6469 31.664 48.5509 31.316 48.4789 30.956C48.4069 30.596 48.3589 30.248 48.3349 29.912C48.3349 29.576 48.3349 29.312 48.3349 29.12V20.48L46.7509 20.444C46.5349 20.444 46.2949 20.42 46.0309 20.372C45.7909 20.3 45.5509 20.204 45.3109 20.084C45.0949 19.94 44.9029 19.76 44.7349 19.544C44.5669 19.304 44.4709 19.004 44.4469 18.644C44.3989 18.212 44.4229 17.756 44.5189 17.276C44.6389 16.796 44.9749 16.424 45.5269 16.16C45.7429 16.04 45.9829 15.968 46.2469 15.944C46.5349 15.896 46.7989 15.884 47.0389 15.908L48.3349 15.872V7.556C48.3349 7.244 48.3349 6.93199 48.3349 6.61999C48.3349 6.28399 48.3709 5.95999 48.4429 5.64799C48.4909 5.52799 48.5269 5.41999 48.5509 5.32399C48.5989 5.22799 48.6469 5.11999 48.6949 4.99999C48.8389 4.75999 48.9829 4.57999 49.1269 4.45999C49.2709 4.31599 49.4749 4.19599 49.7389 4.09999C49.8589 4.052 49.9789 4.028 50.0989 4.028C50.2429 4.00399 50.3749 3.99199 50.4949 3.99199C50.9029 3.99199 51.2269 4.08799 51.4669 4.27999C51.7309 4.472 51.9589 4.736 52.1509 5.072C52.2469 5.21599 52.3069 5.42 52.3309 5.684C52.3789 5.948 52.4149 6.224 52.4389 6.512C52.4629 6.776 52.4749 7.016 52.4749 7.232C52.4749 7.424 52.4749 7.544 52.4749 7.592V24.8V28.868ZM58.1989 31.928C58.0549 32.24 57.8269 32.504 57.5149 32.72C57.2509 32.888 57.0109 32.984 56.7949 33.008C56.6029 33.056 56.3509 33.044 56.0389 32.972C55.6789 32.9 55.3789 32.744 55.1389 32.504C54.9229 32.288 54.7549 32.036 54.6349 31.748C54.5149 31.46 54.4309 31.148 54.3829 30.812C54.3349 30.476 54.3109 30.152 54.3109 29.84V7.95199C54.3109 7.688 54.3109 7.388 54.3109 7.052C54.3109 6.692 54.3349 6.356 54.3829 6.044C54.4309 5.708 54.4909 5.396 54.5629 5.10799C54.6589 4.81999 54.7909 4.59199 54.9589 4.42399C55.2229 4.184 55.4629 4.03999 55.6789 3.99199C55.9189 3.91999 56.2069 3.884 56.5429 3.884C56.9509 3.884 57.2989 4.004 57.5869 4.244C57.8749 4.46 58.0909 4.75999 58.2349 5.14399C58.4509 5.64799 58.5709 6.164 58.5949 6.692C58.6189 7.21999 58.6429 7.75999 58.6669 8.31199V8.49199C58.7149 10.316 58.7269 12.188 58.7029 14.108C58.6789 16.004 58.6669 17.804 58.6669 19.508V28.508C58.6669 29.132 58.6429 29.732 58.5949 30.308C58.5709 30.884 58.4389 31.424 58.1989 31.928ZM46.6789 9.31999C46.6309 9.41599 46.4989 9.49999 46.2829 9.57199C45.8749 9.764 45.4909 9.836 45.1309 9.78799C44.7709 9.74 44.3749 9.764 43.9429 9.86C43.9909 10.196 44.0149 10.508 44.0149 10.796C44.0389 11.06 44.0509 11.288 44.0509 11.48V26.924C44.0509 26.9 44.1349 26.9 44.3029 26.924C44.4709 26.948 44.6509 26.984 44.8429 27.032C45.0589 27.056 45.2509 27.092 45.4189 27.14C45.6109 27.188 45.7309 27.212 45.7789 27.212C46.3069 27.308 46.7029 27.464 46.9669 27.68C47.2309 27.872 47.3269 28.316 47.2549 29.012C47.2069 29.588 47.0989 30.02 46.9309 30.308C46.7629 30.572 46.5349 30.752 46.2469 30.848C45.9829 30.92 45.6709 30.956 45.3109 30.956C44.9749 30.932 44.5909 30.92 44.1589 30.92C43.6069 30.944 43.0549 30.956 42.5029 30.956C41.9509 30.932 41.4109 30.92 40.8829 30.92C40.4509 30.92 40.0789 30.92 39.7669 30.92C39.4789 30.92 39.1909 30.92 38.9029 30.92C38.6149 30.92 38.3149 30.932 38.0029 30.956C37.7149 30.956 37.3669 30.956 36.9589 30.956C36.3829 30.956 35.8069 30.956 35.2309 30.956C34.6789 30.956 34.1149 30.944 33.5389 30.92C33.2749 30.92 32.9749 30.896 32.6389 30.848C32.3029 30.8 31.9909 30.716 31.7029 30.596C31.4149 30.452 31.1629 30.26 30.9469 30.02C30.7309 29.78 30.5989 29.468 30.5509 29.084C30.5029 28.532 30.5749 28.124 30.7669 27.86C30.9829 27.572 31.2589 27.38 31.5949 27.284C31.9549 27.164 32.3269 27.104 32.7109 27.104C33.1189 27.08 33.4789 27.044 33.7909 26.996C33.7909 26.78 33.7789 26.456 33.7549 26.024C33.7549 25.592 33.7549 25.148 33.7549 24.692C33.7549 24.212 33.7549 23.768 33.7549 23.36C33.7549 22.928 33.7549 22.604 33.7549 22.388V11.984C33.7549 11.912 33.7309 11.672 33.6829 11.264C33.6589 10.856 33.6589 10.388 33.6829 9.86C33.3469 9.83599 33.0349 9.82399 32.7469 9.82399C32.4829 9.82399 32.2189 9.78799 31.9549 9.716C31.7149 9.644 31.4869 9.524 31.2709 9.356C31.0789 9.164 30.8989 8.888 30.7309 8.528C30.4669 7.976 30.4549 7.472 30.6949 7.016C30.9349 6.536 31.2949 6.19999 31.7749 6.00799C32.2789 5.81599 32.7709 5.69599 33.2509 5.64799C33.7549 5.59999 34.2709 5.576 34.7989 5.576C35.6629 5.576 36.4789 5.576 37.2469 5.576C38.0149 5.576 38.7589 5.58799 39.4789 5.61199C40.2229 5.61199 40.9789 5.61199 41.7469 5.61199C42.5149 5.61199 43.3429 5.61199 44.2309 5.61199C44.6389 5.61199 45.0949 5.67199 45.5989 5.79199C46.1029 5.88799 46.5109 6.128 46.8229 6.512C46.9669 6.70399 47.0749 6.93199 47.1469 7.196C47.2429 7.436 47.2789 7.688 47.2549 7.95199C47.2549 8.216 47.2069 8.48 47.1109 8.744C47.0149 8.984 46.8709 9.17599 46.6789 9.31999ZM38.1829 9.86C38.0389 9.83599 37.9429 9.88399 37.8949 10.004C37.8709 10.1 37.8589 10.232 37.8589 10.4C37.8349 10.64 37.8109 10.94 37.7869 11.3C37.7869 11.66 37.7989 12.008 37.8229 12.344L37.8589 26.24C37.8589 26.312 37.8709 26.444 37.8949 26.636C37.9429 26.804 38.0629 26.9 38.2549 26.924H39.8749V13.028C39.8749 13.028 39.8749 12.92 39.8749 12.704C39.8749 12.464 39.8749 12.188 39.8749 11.876C39.8749 11.564 39.8629 11.264 39.8389 10.976C39.8389 10.664 39.8269 10.436 39.8029 10.292C39.8029 10.22 39.7909 10.148 39.7669 10.076C39.7669 9.98 39.6949 9.908 39.5509 9.86H38.1829Z"/>
<path d="M68.8217 4.208C69.1337 4.208 69.4337 4.22 69.7217 4.244C70.0097 4.26799 70.2977 4.304 70.5857 4.352C71.4977 4.496 72.3017 4.91599 72.9977 5.61199C73.5737 6.236 74.0417 6.956 74.4017 7.77199C74.7857 8.56399 75.0857 9.40399 75.3017 10.292C75.5177 11.18 75.6737 12.092 75.7697 13.028C75.8657 13.94 75.9377 14.828 75.9857 15.692C76.0337 16.796 76.0457 17.9 76.0217 19.004C75.9977 20.108 75.9257 21.2 75.8057 22.28C75.6857 23.408 75.5057 24.548 75.2657 25.7C75.0497 26.828 74.6417 27.848 74.0417 28.76C73.5377 29.528 72.9137 30.164 72.1697 30.668C71.4257 31.148 70.6457 31.472 69.8297 31.64C69.0857 31.784 68.3297 31.808 67.5617 31.712C66.7937 31.616 66.0617 31.364 65.3657 30.956C64.7177 30.572 64.1657 30.092 63.7097 29.516C63.2777 28.94 62.8937 28.268 62.5577 27.5C62.0777 26.348 61.8017 25.16 61.7297 23.936C61.6337 22.928 61.5617 21.92 61.5137 20.912C61.4897 19.904 61.4777 18.896 61.4777 17.888C61.4777 16.544 61.5497 15.2 61.6937 13.856C61.7417 13.304 61.7897 12.764 61.8377 12.236C61.8857 11.684 61.9577 11.144 62.0537 10.616C62.1497 10.184 62.2337 9.77599 62.3057 9.392C62.3777 9.00799 62.5097 8.61199 62.7017 8.204C62.8937 7.796 63.0977 7.41199 63.3137 7.052C63.5537 6.692 63.8297 6.368 64.1417 6.07999C64.6697 5.55199 65.2577 5.144 65.9057 4.856C66.5537 4.568 67.2257 4.376 67.9217 4.27999C68.0657 4.256 68.2097 4.244 68.3537 4.244C68.5217 4.244 68.6777 4.23199 68.8217 4.208ZM86.2817 29.984C86.2337 30.272 86.1977 30.56 86.1737 30.848C86.1497 31.112 86.0897 31.388 85.9937 31.676C85.9457 31.772 85.9097 31.856 85.8857 31.928C85.8617 32 85.8257 32.084 85.7777 32.18C85.6097 32.516 85.3937 32.78 85.1297 32.972C84.5777 33.308 83.9657 33.392 83.2937 33.224C82.9097 33.152 82.5977 33.008 82.3577 32.792C82.1417 32.6 81.9737 32.348 81.8537 32.036C81.7577 31.748 81.6737 31.46 81.6017 31.172C81.5537 30.884 81.5297 30.632 81.5297 30.416C81.5297 30.2 81.5297 30.08 81.5297 30.056V8.276C81.5297 7.988 81.5297 7.676 81.5297 7.33999C81.5297 7.00399 81.5537 6.66799 81.6017 6.33199C81.6497 5.99599 81.7217 5.68399 81.8177 5.39599C81.9137 5.10799 82.0457 4.87999 82.2137 4.712C82.4777 4.44799 82.7537 4.29199 83.0417 4.244C83.3297 4.17199 83.6417 4.13599 83.9777 4.13599C84.3857 4.13599 84.7577 4.25599 85.0937 4.49599C85.4537 4.71199 85.7057 5.02399 85.8497 5.43199C86.0657 5.936 86.1857 6.464 86.2097 7.016C86.2337 7.568 86.2577 8.12 86.2817 8.672V8.852C86.3297 10.7 86.3417 12.596 86.3177 14.54C86.2937 16.484 86.2817 18.32 86.2817 20.048V28.688C86.2817 28.904 86.2817 29.12 86.2817 29.336C86.3057 29.552 86.3057 29.768 86.2817 29.984ZM68.7137 26.852C69.1697 26.852 69.6137 26.708 70.0457 26.42C70.4537 26.132 70.7417 25.748 70.9097 25.268C71.0777 24.788 71.2217 24.26 71.3417 23.684C71.5337 22.58 71.6417 21.404 71.6657 20.156C71.6897 18.908 71.6777 17.708 71.6297 16.556C71.6297 16.1 71.6177 15.62 71.5937 15.116C71.5697 14.588 71.5217 14.072 71.4497 13.568C71.4017 13.064 71.3177 12.584 71.1977 12.128C71.0777 11.648 70.9097 11.228 70.6937 10.868C70.4537 10.46 70.1657 10.148 69.8297 9.932C69.4937 9.716 69.1337 9.632 68.7497 9.68C68.3417 9.728 67.9697 9.87199 67.6337 10.112C67.2977 10.352 67.0217 10.712 66.8057 11.192L66.4817 11.948C66.3377 12.404 66.2297 12.884 66.1577 13.388C66.0857 13.868 66.0257 14.348 65.9777 14.828C65.9297 15.308 65.8937 15.8 65.8697 16.304C65.8457 16.808 65.8337 17.3 65.8337 17.78C65.8577 18.26 65.8457 18.728 65.7977 19.184C65.7737 19.64 65.7857 20.108 65.8337 20.588C65.8817 21.212 65.9417 21.884 66.0137 22.604C66.1097 23.324 66.2537 24.008 66.4457 24.656C66.6377 25.28 66.9137 25.808 67.2737 26.24C67.6337 26.648 68.1137 26.852 68.7137 26.852Z"/>
<path d="M103.665 5.79199C104.649 5.79199 105.489 5.87599 106.185 6.044C106.881 6.21199 107.433 6.64399 107.841 7.33999C108.225 7.98799 108.285 8.63599 108.021 9.28399C107.685 9.95599 107.085 10.352 106.221 10.472C105.645 10.568 104.985 10.628 104.241 10.652C103.497 10.652 102.513 10.628 101.289 10.58C101.265 10.988 101.253 11.42 101.253 11.876C101.253 12.308 101.253 12.716 101.253 13.1C101.253 13.46 101.253 13.772 101.253 14.036C101.277 14.3 101.289 14.468 101.289 14.54V18.572C101.289 18.764 101.301 19.028 101.325 19.364C101.349 19.676 101.373 19.916 101.397 20.084C101.589 20.276 101.853 20.564 102.189 20.948C102.525 21.308 102.789 21.608 102.981 21.848C103.221 22.136 103.461 22.436 103.701 22.748C103.965 23.06 104.229 23.408 104.493 23.792C104.685 24.008 104.853 24.224 104.997 24.44C105.141 24.656 105.273 24.848 105.393 25.016C105.849 25.664 106.317 26.372 106.797 27.14C107.277 27.908 107.601 28.676 107.769 29.444C107.841 29.78 107.841 30.152 107.769 30.56C107.721 30.944 107.553 31.268 107.265 31.532C106.857 31.892 106.401 32.072 105.897 32.072C105.345 32.072 104.817 31.928 104.313 31.64C103.809 31.328 103.401 31.004 103.089 30.668C102.633 30.188 102.201 29.684 101.793 29.156C101.409 28.628 101.025 28.112 100.641 27.608C100.377 27.224 100.101 26.852 99.8132 26.492C99.5252 26.108 99.2252 25.736 98.9132 25.376C98.8652 25.28 98.8172 25.22 98.7692 25.196C98.7692 25.22 98.7572 25.232 98.7332 25.232C98.7332 25.232 98.7332 25.244 98.7332 25.268C98.6132 25.46 98.4692 25.652 98.3012 25.844C98.1572 26.012 98.0252 26.192 97.9052 26.384C97.7132 26.6 97.5332 26.828 97.3652 27.068C97.2212 27.284 97.0772 27.5 96.9332 27.716C96.5972 28.22 96.2612 28.724 95.9252 29.228C95.5892 29.708 95.2052 30.164 94.7732 30.596C93.7412 31.628 92.7692 32.144 91.8572 32.144C91.6172 32.144 91.3892 32.108 91.1732 32.036C90.6212 31.892 90.2492 31.556 90.0572 31.028C89.8652 30.62 89.7932 30.176 89.8412 29.696C89.9132 29.216 90.0332 28.796 90.2012 28.436C90.3932 28.028 90.6092 27.644 90.8492 27.284C91.0892 26.924 91.3412 26.564 91.6052 26.204C91.7732 25.988 91.9292 25.772 92.0732 25.556C92.2412 25.34 92.3852 25.124 92.5052 24.908C92.7212 24.548 93.0092 24.128 93.3692 23.648C93.7532 23.144 94.1252 22.664 94.4852 22.208C94.8692 21.728 95.2172 21.296 95.5292 20.912C95.8412 20.528 96.0572 20.252 96.1772 20.084V10.58H93.9812C93.0692 10.58 92.4332 10.58 92.0732 10.58C91.7372 10.556 91.4852 10.52 91.3172 10.472C90.4052 10.328 89.7932 9.812 89.4812 8.924C89.2172 8.15599 89.3132 7.48399 89.7692 6.90799C90.1772 6.332 90.7532 5.972 91.4972 5.82799C91.6172 5.80399 91.7372 5.79199 91.8572 5.79199C91.9772 5.76799 92.1092 5.75599 92.2532 5.75599C92.4932 5.75599 92.6612 5.76799 92.7572 5.79199H103.665ZM115.797 30.056C115.749 30.344 115.713 30.632 115.689 30.92C115.665 31.184 115.605 31.46 115.509 31.748C115.461 31.844 115.425 31.928 115.401 32C115.377 32.072 115.341 32.156 115.293 32.252C115.125 32.588 114.909 32.852 114.645 33.044C114.093 33.38 113.481 33.464 112.809 33.296C112.425 33.224 112.113 33.08 111.873 32.864C111.657 32.672 111.489 32.42 111.369 32.108C111.273 31.82 111.189 31.532 111.117 31.244C111.069 30.956 111.045 30.704 111.045 30.488C111.045 30.272 111.045 30.152 111.045 30.128V8.276C111.045 7.988 111.045 7.676 111.045 7.33999C111.045 7.00399 111.069 6.66799 111.117 6.33199C111.165 5.99599 111.237 5.68399 111.333 5.39599C111.429 5.10799 111.561 4.87999 111.729 4.712C111.993 4.44799 112.269 4.29199 112.557 4.244C112.845 4.17199 113.157 4.13599 113.493 4.13599C113.901 4.13599 114.273 4.25599 114.609 4.49599C114.969 4.71199 115.221 5.02399 115.365 5.43199C115.581 5.936 115.701 6.464 115.725 7.016C115.749 7.568 115.773 8.12 115.797 8.672V8.852C115.845 10.7 115.857 12.596 115.833 14.54C115.809 16.484 115.797 18.32 115.797 20.048V28.76C115.797 28.976 115.797 29.192 115.797 29.408C115.821 29.624 115.821 29.84 115.797 30.056Z"/>
<path d="M143.792 26.852C144.104 27.068 144.32 27.356 144.44 27.716C144.584 28.076 144.644 28.448 144.62 28.832C144.596 29.216 144.488 29.576 144.296 29.912C144.128 30.248 143.876 30.5 143.54 30.668C143.012 30.956 142.46 31.148 141.884 31.244C141.308 31.34 140.744 31.388 140.192 31.388H138.716C138.044 31.412 137.372 31.412 136.7 31.388C136.052 31.364 135.392 31.364 134.72 31.388H134.108C133.7 31.388 133.268 31.376 132.812 31.352C132.38 31.328 131.936 31.268 131.48 31.172C131.048 31.076 130.64 30.944 130.256 30.776C129.872 30.584 129.56 30.332 129.32 30.02C129.08 29.732 128.9 29.36 128.78 28.904C128.66 28.424 128.576 27.956 128.528 27.5C128.48 27.044 128.456 26.648 128.456 26.312C128.456 25.976 128.456 25.784 128.456 25.736V8.744C128.456 8.72 128.456 8.612 128.456 8.42C128.456 8.22799 128.468 8.02399 128.492 7.80799C128.516 7.568 128.552 7.33999 128.6 7.12399C128.648 6.884 128.708 6.69199 128.78 6.548C128.996 6.212 129.212 5.96 129.428 5.79199C129.644 5.624 129.932 5.516 130.292 5.46799C130.388 5.44399 130.496 5.43199 130.616 5.43199C130.76 5.43199 130.904 5.41999 131.048 5.39599C131.192 5.39599 131.36 5.384 131.552 5.36H139.976H140.408C140.528 5.36 140.648 5.372 140.768 5.39599C140.912 5.39599 141.044 5.384 141.164 5.36H141.236C141.476 5.36 141.704 5.372 141.92 5.39599C142.136 5.41999 142.352 5.46799 142.568 5.54C142.784 5.58799 143 5.64799 143.216 5.72C143.432 5.79199 143.624 5.92399 143.792 6.11599C144.08 6.42799 144.26 6.82399 144.332 7.30399C144.38 7.49599 144.404 7.676 144.404 7.844C144.428 8.012 144.416 8.19199 144.368 8.384C144.296 8.88799 144.092 9.332 143.756 9.716C143.444 10.076 143.012 10.256 142.46 10.256H133.388V13.388V14.036V15.476C133.772 15.5 134.12 15.512 134.432 15.512C134.768 15.512 135.068 15.512 135.332 15.512C135.62 15.512 135.884 15.5 136.124 15.476H139.616C139.736 15.476 139.856 15.488 139.976 15.512C140.096 15.512 140.216 15.5 140.336 15.476H141.308C141.572 15.476 141.836 15.5 142.1 15.548C142.388 15.596 142.652 15.692 142.892 15.836C143.252 16.052 143.48 16.376 143.576 16.808C143.672 17.216 143.696 17.612 143.648 17.996C143.648 18.188 143.636 18.38 143.612 18.572C143.612 18.764 143.552 18.932 143.432 19.076C143.144 19.484 142.856 19.736 142.568 19.832C142.28 19.904 141.968 19.94 141.632 19.94H137.312C137.168 19.964 136.988 19.976 136.772 19.976H135.296C134.984 19.976 134.672 19.976 134.36 19.976C134.048 19.976 133.736 19.964 133.424 19.94C133.448 20.9 133.448 21.74 133.424 22.46C133.4 23.18 133.388 23.552 133.388 23.576V24.872C133.388 25.208 133.412 25.508 133.46 25.772C133.508 26.012 133.556 26.144 133.604 26.168C133.772 26.264 134.048 26.336 134.432 26.384C134.816 26.432 135.236 26.456 135.692 26.456H135.836C136.628 26.432 137.42 26.432 138.212 26.456H139.976C140.048 26.456 140.12 26.456 140.192 26.456C140.288 26.456 140.384 26.444 140.48 26.42H141.092C141.476 26.42 141.86 26.432 142.244 26.456C142.628 26.48 143.012 26.552 143.396 26.672C143.468 26.696 143.528 26.72 143.576 26.744C143.648 26.768 143.72 26.804 143.792 26.852ZM153.8 15.26C153.92 15.26 154.028 15.272 154.124 15.296C154.244 15.32 154.364 15.332 154.484 15.332C154.604 15.356 154.736 15.38 154.88 15.404C155.024 15.404 155.168 15.416 155.312 15.44C155.576 15.488 155.84 15.584 156.104 15.728C156.368 15.848 156.56 16.04 156.68 16.304C156.848 16.568 156.932 16.88 156.932 17.24C156.932 17.432 156.92 17.612 156.896 17.78C156.896 17.924 156.872 18.092 156.824 18.284C156.776 18.476 156.716 18.68 156.644 18.896C156.596 19.112 156.488 19.28 156.32 19.4C155.984 19.64 155.66 19.796 155.348 19.868C154.964 19.916 154.496 19.928 153.944 19.904C153.392 19.88 152.924 19.88 152.54 19.904C152.516 19.904 152.492 19.916 152.468 19.94H152.432L152.396 19.976V20.084C152.396 20.372 152.396 20.72 152.396 21.128C152.396 21.536 152.396 21.956 152.396 22.388C152.396 22.796 152.396 23.204 152.396 23.612C152.396 23.996 152.396 24.344 152.396 24.656C152.444 25.904 152.444 27.128 152.396 28.328V28.832C152.396 29.144 152.384 29.492 152.36 29.876C152.36 30.236 152.336 30.596 152.288 30.956C152.24 31.316 152.156 31.664 152.036 32C151.916 32.312 151.748 32.576 151.532 32.792C151.244 33.128 150.86 33.296 150.38 33.296C150.38 33.296 150.356 33.284 150.308 33.26C149.732 33.236 149.264 33.068 148.904 32.756C148.568 32.444 148.304 32.06 148.112 31.604C147.944 31.148 147.836 30.68 147.788 30.2C147.74 29.696 147.716 29.252 147.716 28.868V7.48399C147.716 7.45999 147.716 7.35199 147.716 7.15999C147.716 6.94399 147.74 6.70399 147.788 6.43999C147.836 6.15199 147.908 5.86399 148.004 5.576C148.124 5.26399 148.28 5.01199 148.472 4.81999C148.64 4.65199 148.88 4.53199 149.192 4.45999C149.528 4.36399 149.828 4.31599 150.092 4.31599C150.62 4.31599 151.064 4.49599 151.424 4.856C151.76 5.192 151.952 5.552 152 5.93599C152.072 6.29599 152.132 6.68 152.18 7.088C152.204 7.184 152.216 7.328 152.216 7.52C152.264 7.92799 152.288 8.34799 152.288 8.77999C152.312 9.212 152.336 9.644 152.36 10.076C152.36 10.34 152.36 10.604 152.36 10.868C152.384 11.108 152.396 11.36 152.396 11.624C152.372 11.768 152.36 11.912 152.36 12.056C152.384 12.176 152.396 12.296 152.396 12.416V14.396C152.396 14.516 152.396 14.648 152.396 14.792C152.396 14.936 152.42 15.068 152.468 15.188C152.468 15.212 152.588 15.224 152.828 15.224C153.068 15.224 153.2 15.224 153.224 15.224C153.44 15.272 153.608 15.284 153.728 15.26H153.8Z"/>
<path d="M165.958 4.208C166.27 4.208 166.57 4.22 166.858 4.244C167.146 4.26799 167.434 4.304 167.722 4.352C168.634 4.496 169.438 4.91599 170.134 5.61199C170.71 6.236 171.178 6.956 171.538 7.77199C171.922 8.56399 172.222 9.40399 172.438 10.292C172.654 11.18 172.81 12.092 172.906 13.028C173.002 13.94 173.074 14.828 173.122 15.692C173.17 16.796 173.182 17.9 173.158 19.004C173.134 20.108 173.062 21.2 172.942 22.28C172.822 23.408 172.642 24.548 172.402 25.7C172.186 26.828 171.778 27.848 171.178 28.76C170.674 29.528 170.05 30.164 169.306 30.668C168.562 31.148 167.782 31.472 166.966 31.64C166.222 31.784 165.466 31.808 164.698 31.712C163.93 31.616 163.198 31.364 162.502 30.956C161.854 30.572 161.302 30.092 160.846 29.516C160.414 28.94 160.03 28.268 159.694 27.5C159.214 26.348 158.938 25.16 158.866 23.936C158.77 22.928 158.698 21.92 158.65 20.912C158.626 19.904 158.614 18.896 158.614 17.888C158.614 16.544 158.686 15.2 158.83 13.856C158.878 13.304 158.926 12.764 158.974 12.236C159.022 11.684 159.094 11.144 159.19 10.616C159.286 10.184 159.37 9.77599 159.442 9.392C159.514 9.00799 159.646 8.61199 159.838 8.204C160.03 7.796 160.234 7.41199 160.45 7.052C160.69 6.692 160.966 6.368 161.278 6.07999C161.806 5.55199 162.394 5.144 163.042 4.856C163.69 4.568 164.362 4.376 165.058 4.27999C165.202 4.256 165.346 4.244 165.49 4.244C165.658 4.244 165.814 4.23199 165.958 4.208ZM183.418 29.984C183.37 30.272 183.334 30.56 183.31 30.848C183.286 31.112 183.226 31.388 183.13 31.676C183.082 31.772 183.046 31.856 183.022 31.928C182.998 32 182.962 32.084 182.914 32.18C182.746 32.516 182.53 32.78 182.266 32.972C181.714 33.308 181.102 33.392 180.43 33.224C180.046 33.152 179.734 33.008 179.494 32.792C179.278 32.6 179.11 32.348 178.99 32.036C178.894 31.748 178.81 31.46 178.738 31.172C178.69 30.884 178.666 30.632 178.666 30.416C178.666 30.2 178.666 30.08 178.666 30.056V8.276C178.666 7.988 178.666 7.676 178.666 7.33999C178.666 7.00399 178.69 6.66799 178.738 6.33199C178.786 5.99599 178.858 5.68399 178.954 5.39599C179.05 5.10799 179.182 4.87999 179.35 4.712C179.614 4.44799 179.89 4.29199 180.178 4.244C180.466 4.17199 180.778 4.13599 181.114 4.13599C181.522 4.13599 181.894 4.25599 182.23 4.49599C182.59 4.71199 182.842 5.02399 182.986 5.43199C183.202 5.936 183.322 6.464 183.346 7.016C183.37 7.568 183.394 8.12 183.418 8.672V8.852C183.466 10.7 183.478 12.596 183.454 14.54C183.43 16.484 183.418 18.32 183.418 20.048V28.688C183.418 28.904 183.418 29.12 183.418 29.336C183.442 29.552 183.442 29.768 183.418 29.984ZM165.85 26.852C166.306 26.852 166.75 26.708 167.182 26.42C167.59 26.132 167.878 25.748 168.046 25.268C168.214 24.788 168.358 24.26 168.478 23.684C168.67 22.58 168.778 21.404 168.802 20.156C168.826 18.908 168.814 17.708 168.766 16.556C168.766 16.1 168.754 15.62 168.73 15.116C168.706 14.588 168.658 14.072 168.586 13.568C168.538 13.064 168.454 12.584 168.334 12.128C168.214 11.648 168.046 11.228 167.83 10.868C167.59 10.46 167.302 10.148 166.966 9.932C166.63 9.716 166.27 9.632 165.886 9.68C165.478 9.728 165.106 9.87199 164.77 10.112C164.434 10.352 164.158 10.712 163.942 11.192L163.618 11.948C163.474 12.404 163.366 12.884 163.294 13.388C163.222 13.868 163.162 14.348 163.114 14.828C163.066 15.308 163.03 15.8 163.006 16.304C162.982 16.808 162.97 17.3 162.97 17.78C162.994 18.26 162.982 18.728 162.934 19.184C162.91 19.64 162.922 20.108 162.97 20.588C163.018 21.212 163.078 21.884 163.15 22.604C163.246 23.324 163.39 24.008 163.582 24.656C163.774 25.28 164.05 25.808 164.41 26.24C164.77 26.648 165.25 26.852 165.85 26.852Z"/>
<path d="M210.63 30.56C211.014 30.608 211.35 30.704 211.638 30.848C211.926 30.992 212.13 31.256 212.25 31.64C212.538 32.504 212.226 33.116 211.314 33.476C211.026 33.596 210.738 33.668 210.45 33.692C210.162 33.716 209.886 33.728 209.622 33.728H192.882C192.402 33.728 191.898 33.716 191.37 33.692C190.866 33.692 190.35 33.68 189.822 33.656C189.318 33.632 188.898 33.452 188.562 33.116C188.226 32.78 188.034 32.336 187.986 31.784L187.878 29.264C187.854 29 187.854 28.688 187.878 28.328C187.902 27.968 188.022 27.668 188.238 27.428C188.574 27.068 189.018 26.84 189.57 26.744C190.146 26.648 190.698 26.6 191.226 26.6C191.562 26.6 192.114 26.6 192.882 26.6C193.674 26.6 194.742 26.612 196.086 26.636C197.43 26.636 199.086 26.636 201.054 26.636C203.046 26.636 205.41 26.636 208.146 26.636V25.34H190.434C190.194 25.34 189.978 25.34 189.786 25.34C189.594 25.34 189.402 25.316 189.21 25.268C188.994 25.22 188.802 25.172 188.634 25.124C188.466 25.076 188.322 24.956 188.202 24.764C187.866 24.26 187.782 23.744 187.95 23.216C188.022 23.024 188.13 22.88 188.274 22.784C188.418 22.664 188.586 22.568 188.778 22.496C188.97 22.424 189.15 22.376 189.318 22.352C189.51 22.328 189.678 22.304 189.822 22.28C190.182 22.208 190.554 22.172 190.938 22.172C191.298 22.172 191.682 22.172 192.09 22.172C192.498 22.172 192.99 22.172 193.566 22.172C194.166 22.172 194.874 22.184 195.69 22.208C196.506 22.208 197.502 22.208 198.678 22.208C199.878 22.208 201.27 22.208 202.854 22.208C204.462 22.208 206.346 22.208 208.506 22.208C209.73 22.208 210.666 22.4 211.314 22.784C211.962 23.144 212.286 23.744 212.286 24.584V27.14C212.286 27.476 212.202 27.812 212.034 28.148C211.89 28.46 211.626 28.724 211.242 28.94C210.93 29.132 210.618 29.24 210.306 29.264C209.994 29.264 209.682 29.264 209.37 29.264H192.306V30.56H210.63ZM207.678 3.34399C207.894 3.34399 208.098 3.35599 208.29 3.38C208.482 3.38 208.686 3.404 208.902 3.45199C209.118 3.5 209.322 3.548 209.514 3.59599C209.706 3.61999 209.886 3.71599 210.054 3.884C210.198 3.98 210.306 4.1 210.378 4.244C210.45 4.38799 210.51 4.51999 210.558 4.63999C210.606 4.784 210.63 4.916 210.63 5.036C210.654 5.156 210.642 5.288 210.594 5.43199C210.546 5.76799 210.354 6.05599 210.018 6.29599C209.706 6.53599 209.298 6.65599 208.794 6.65599H208.146L193.494 6.692L193.53 7.66399V7.736C193.698 7.736 193.962 7.736 194.322 7.736C194.682 7.736 195.09 7.736 195.546 7.736C196.026 7.736 196.53 7.736 197.058 7.736C197.61 7.736 198.162 7.736 198.714 7.736H202.818H206.13C206.226 7.736 206.334 7.74799 206.454 7.77199C206.574 7.77199 206.694 7.75999 206.814 7.736H207.75C207.99 7.736 208.23 7.74799 208.47 7.77199C208.734 7.79599 208.974 7.86799 209.19 7.98799C209.526 8.132 209.742 8.34799 209.838 8.63599C209.958 8.89999 209.994 9.164 209.946 9.42799C209.922 9.57199 209.898 9.71599 209.874 9.86C209.874 9.98 209.814 10.1 209.694 10.22C209.43 10.484 209.154 10.652 208.866 10.724C208.602 10.772 208.326 10.796 208.038 10.796H193.494L193.53 11.552C193.506 11.792 193.518 11.888 193.566 11.84C193.614 11.768 193.674 11.732 193.746 11.732C193.89 11.804 194.142 11.864 194.502 11.912C194.886 11.936 195.282 11.948 195.69 11.948H195.87C196.062 11.948 196.59 11.948 197.454 11.948C198.342 11.924 199.29 11.912 200.298 11.912C201.33 11.912 202.278 11.924 203.142 11.948C204.03 11.948 204.57 11.948 204.762 11.948H206.454C206.646 11.948 206.802 11.936 206.922 11.912H207.534C207.894 11.912 208.254 11.924 208.614 11.948C208.974 11.948 209.334 11.996 209.694 12.092C209.742 12.092 209.802 12.104 209.874 12.128C209.946 12.152 210.006 12.176 210.054 12.2C210.342 12.344 210.546 12.548 210.666 12.812C210.81 13.052 210.87 13.304 210.846 13.568C210.822 13.808 210.714 14.048 210.522 14.288C210.354 14.528 210.114 14.708 209.802 14.828C209.322 15.02 208.806 15.152 208.254 15.224C207.702 15.272 207.186 15.296 206.706 15.296H205.23C205.014 15.296 204.63 15.296 204.078 15.296C203.55 15.296 202.938 15.296 202.242 15.296C201.546 15.296 200.802 15.296 200.01 15.296C199.218 15.296 198.474 15.296 197.778 15.296C197.082 15.296 196.458 15.296 195.906 15.296C195.378 15.296 195.006 15.296 194.79 15.296H194.178C193.818 15.296 193.422 15.296 192.99 15.296C192.558 15.272 192.138 15.224 191.73 15.152C191.322 15.08 190.938 14.984 190.578 14.864C190.218 14.744 189.918 14.576 189.678 14.36C189.438 14.192 189.258 13.952 189.138 13.64C189.042 13.304 188.97 12.98 188.922 12.668C188.874 12.356 188.85 12.08 188.85 11.84C188.874 11.6 188.886 11.468 188.886 11.444V5.64799C188.886 5.62399 188.886 5.55199 188.886 5.43199C188.886 5.288 188.886 5.144 188.886 4.99999C188.91 4.83199 188.946 4.676 188.994 4.532C189.042 4.36399 189.102 4.23199 189.174 4.13599C189.366 3.89599 189.558 3.72799 189.75 3.63199C189.966 3.53599 190.242 3.46399 190.578 3.41599C190.818 3.36799 191.07 3.34399 191.334 3.34399H191.766H207.678ZM189.534 17.06C189.918 17.012 190.302 17.012 190.686 17.06C191.094 17.084 191.514 17.084 191.946 17.06C193.266 17.012 194.538 17 195.762 17.024C197.01 17.048 198.366 17.06 199.83 17.06C201.438 17.06 203.07 17.048 204.726 17.024C206.382 17 208.074 17.012 209.802 17.06H209.982C210.486 17.06 210.978 17.072 211.458 17.096C211.938 17.096 212.418 17.168 212.898 17.312C213.258 17.432 213.534 17.66 213.726 17.996C213.918 18.308 214.014 18.62 214.014 18.932C214.014 19.436 213.786 19.868 213.33 20.228C212.922 20.516 212.442 20.672 211.89 20.696C211.362 20.72 210.846 20.72 210.342 20.696H189.462C189.462 20.696 189.354 20.696 189.138 20.696C188.946 20.696 188.718 20.684 188.454 20.66C188.19 20.612 187.914 20.552 187.626 20.48C187.338 20.384 187.11 20.252 186.942 20.084C186.774 19.964 186.654 19.772 186.582 19.508C186.51 19.244 186.474 19.016 186.474 18.824C186.474 18.368 186.642 18.008 186.978 17.744C187.29 17.48 187.614 17.312 187.95 17.24C188.31 17.144 188.694 17.084 189.102 17.06C189.174 17.036 189.246 17.036 189.318 17.06C189.39 17.06 189.462 17.06 189.534 17.06Z"/>
<path d="M236.278 19.796C236.11 19.82 235.726 19.832 235.126 19.832C234.55 19.832 233.926 19.832 233.254 19.832C232.582 19.808 231.946 19.796 231.346 19.796C230.746 19.796 230.35 19.796 230.158 19.796H230.122C229.69 19.796 229.258 19.796 228.826 19.796C228.418 19.772 228.022 19.736 227.638 19.688C227.254 19.616 226.906 19.508 226.594 19.364C226.282 19.22 226.03 19.004 225.838 18.716C225.622 18.404 225.466 18.008 225.37 17.528C225.298 17.048 225.238 16.592 225.19 16.16C225.166 15.704 225.154 15.308 225.154 14.972C225.178 14.636 225.19 14.456 225.19 14.432V13.64C225.19 13.376 225.19 13.076 225.19 12.74C225.19 12.404 225.202 12.032 225.226 11.624C225.226 11.192 225.226 10.772 225.226 10.364C225.25 9.932 225.262 9.548 225.262 9.212V8.06C225.262 7.988 225.262 7.85599 225.262 7.66399C225.262 7.47199 225.274 7.268 225.298 7.052C225.322 6.812 225.358 6.584 225.406 6.368C225.454 6.12799 225.526 5.93599 225.622 5.79199C225.838 5.45599 226.054 5.21599 226.27 5.072C226.51 4.90399 226.81 4.78399 227.17 4.712C227.29 4.68799 227.47 4.67599 227.71 4.67599C227.95 4.65199 228.178 4.62799 228.394 4.60399C228.658 4.58 228.934 4.56799 229.222 4.56799H237.358C237.886 4.56799 238.438 4.616 239.014 4.712C239.614 4.78399 240.142 4.96399 240.598 5.25199C240.958 5.46799 241.21 5.74399 241.354 6.07999C241.498 6.41599 241.594 6.77599 241.642 7.15999C241.69 7.54399 241.702 7.94 241.678 8.348C241.654 8.732 241.642 9.09199 241.642 9.42799C241.642 9.812 241.63 10.196 241.606 10.58C241.606 10.94 241.618 11.312 241.642 11.696V13.676C241.618 13.796 241.606 13.928 241.606 14.072C241.63 14.216 241.642 14.36 241.642 14.504C241.594 14.816 241.582 15.128 241.606 15.44C241.63 15.728 241.642 16.04 241.642 16.376C241.642 16.64 241.618 16.928 241.57 17.24C241.546 17.528 241.474 17.828 241.354 18.14C241.258 18.428 241.114 18.692 240.922 18.932C240.754 19.172 240.526 19.34 240.238 19.436C239.614 19.7 238.954 19.832 238.258 19.832C237.586 19.808 236.926 19.796 236.278 19.796ZM227.746 27.68C227.746 26.6 228.058 25.7 228.682 24.98C229.33 24.26 230.194 23.696 231.274 23.288C232.354 22.856 233.626 22.556 235.09 22.388C236.554 22.22 238.114 22.136 239.77 22.136C241.426 22.136 242.986 22.196 244.45 22.316C245.914 22.436 247.186 22.7 248.266 23.108C249.346 23.492 250.198 24.044 250.822 24.764C251.47 25.484 251.794 26.456 251.794 27.68C251.794 28.88 251.47 29.84 250.822 30.56C250.198 31.28 249.346 31.832 248.266 32.216C247.186 32.624 245.914 32.888 244.45 33.008C242.986 33.152 241.426 33.224 239.77 33.224C238.114 33.224 236.554 33.152 235.09 33.008C233.626 32.888 232.354 32.624 231.274 32.216C230.194 31.832 229.33 31.28 228.682 30.56C228.058 29.84 227.746 28.88 227.746 27.68ZM246.25 17.744C246.082 17.744 245.866 17.732 245.602 17.708C245.362 17.684 245.11 17.636 244.846 17.564C244.606 17.492 244.378 17.396 244.162 17.276C243.946 17.156 243.778 16.988 243.658 16.772C243.586 16.676 243.526 16.544 243.478 16.376C243.454 16.208 243.43 16.04 243.406 15.872C243.406 15.68 243.406 15.5 243.406 15.332C243.43 15.164 243.454 15.032 243.478 14.936C243.526 14.672 243.658 14.444 243.874 14.252C244.09 14.036 244.342 13.868 244.63 13.748C244.726 13.724 244.906 13.7 245.17 13.676C245.458 13.652 245.746 13.64 246.034 13.64H247.114C247.09 13.376 247.078 13.124 247.078 12.884V11.768H246.25C246.082 11.768 245.866 11.756 245.602 11.732C245.362 11.708 245.11 11.66 244.846 11.588C244.606 11.516 244.378 11.42 244.162 11.3C243.946 11.18 243.778 11.012 243.658 10.796C243.466 10.484 243.37 10.16 243.37 9.82399C243.37 9.46399 243.442 9.13999 243.586 8.852C243.754 8.54 243.97 8.288 244.234 8.09599C244.522 7.87999 244.858 7.75999 245.242 7.736C245.266 7.736 245.374 7.736 245.566 7.736C245.782 7.736 246.01 7.736 246.25 7.736C246.49 7.736 246.706 7.736 246.898 7.736C247.09 7.712 247.186 7.676 247.186 7.62799C247.234 7.38799 247.246 7.12399 247.222 6.83599C247.222 6.54799 247.234 6.25999 247.258 5.97199C247.282 5.684 247.33 5.41999 247.402 5.17999C247.498 4.91599 247.666 4.68799 247.906 4.49599C248.098 4.35199 248.326 4.25599 248.59 4.208C248.854 4.15999 249.106 4.12399 249.346 4.09999C249.946 4.02799 250.462 4.23199 250.894 4.712C251.062 4.928 251.182 5.13199 251.254 5.32399C251.35 5.61199 251.386 5.91199 251.362 6.22399C251.362 6.536 251.362 6.848 251.362 7.15999V17.492C251.362 17.492 251.362 17.648 251.362 17.96C251.362 18.272 251.338 18.62 251.29 19.004C251.242 19.388 251.158 19.772 251.038 20.156C250.942 20.516 250.774 20.768 250.534 20.912C250.366 21.008 250.162 21.08 249.922 21.128C249.682 21.176 249.466 21.2 249.274 21.2C248.866 21.2 248.47 21.068 248.086 20.804C247.798 20.612 247.594 20.384 247.474 20.12C247.402 19.976 247.342 19.796 247.294 19.58C247.246 19.364 247.21 19.148 247.186 18.932C247.162 18.692 247.138 18.464 247.114 18.248C247.09 18.032 247.078 17.864 247.078 17.744H246.25ZM231.67 9.068C231.454 9.068 231.25 9.068 231.058 9.068C230.89 9.068 230.734 9.092 230.59 9.13999C230.254 9.164 229.978 9.308 229.762 9.57199C229.666 9.69199 229.606 9.87199 229.582 10.112C229.582 10.352 229.582 10.496 229.582 10.544V12.056C229.558 12.248 229.546 12.428 229.546 12.596C229.546 12.74 229.546 12.872 229.546 12.992V13.424C229.546 13.424 229.546 13.496 229.546 13.64C229.546 13.784 229.546 13.952 229.546 14.144C229.57 14.336 229.606 14.528 229.654 14.72C229.702 14.912 229.786 15.08 229.906 15.224C230.098 15.464 230.41 15.608 230.842 15.656C231.274 15.68 231.706 15.692 232.138 15.692H232.174C232.798 15.668 233.314 15.668 233.722 15.692C234.13 15.692 234.658 15.692 235.306 15.692C235.498 15.692 235.69 15.704 235.882 15.728C236.098 15.728 236.302 15.704 236.494 15.656C236.686 15.632 236.818 15.572 236.89 15.476C236.962 15.38 237.022 15.26 237.07 15.116C237.118 14.924 237.142 14.768 237.142 14.648C237.238 14.192 237.286 13.676 237.286 13.1C237.286 12.716 237.286 12.332 237.286 11.948C237.31 11.564 237.31 11.18 237.286 10.796C237.262 10.604 237.25 10.412 237.25 10.22C237.274 10.028 237.262 9.83599 237.214 9.64399C237.118 9.37999 236.962 9.236 236.746 9.212C236.53 9.164 236.314 9.13999 236.098 9.13999L231.67 9.068ZM246.934 27.68C246.934 27.272 246.718 26.948 246.286 26.708C245.854 26.468 245.29 26.288 244.594 26.168C243.922 26.048 243.154 25.976 242.29 25.952C241.45 25.904 240.61 25.88 239.77 25.88C238.93 25.88 238.09 25.904 237.25 25.952C236.434 25.976 235.69 26.048 235.018 26.168C234.37 26.288 233.842 26.468 233.434 26.708C233.026 26.948 232.822 27.272 232.822 27.68C232.822 28.04 233.026 28.34 233.434 28.58C233.842 28.82 234.37 29 235.018 29.12C235.69 29.24 236.434 29.324 237.25 29.372C238.09 29.42 238.93 29.444 239.77 29.444C240.61 29.444 241.45 29.444 242.29 29.444C243.154 29.444 243.922 29.396 244.594 29.3C245.29 29.204 245.854 29.036 246.286 28.796C246.718 28.532 246.934 28.16 246.934 27.68Z"/>
</mask>
<path class="1" d="M26.4337 18.104C26.8417 18.128 27.2497 18.188 27.6577 18.284C28.0897 18.38 28.4737 18.56 28.8097 18.824C29.1457 19.088 29.3137 19.46 29.3137 19.94C29.3137 20.18 29.2657 20.444 29.1697 20.732C29.0977 21.02 28.9897 21.224 28.8457 21.344C28.6537 21.536 28.4017 21.68 28.0897 21.776C27.8017 21.848 27.5137 21.908 27.2257 21.956C26.9377 21.98 26.6857 21.992 26.4697 21.992C26.2777 21.992 26.1697 21.992 26.1457 21.992L6.95767 22.028C6.40567 22.052 5.82967 22.052 5.22967 22.028C4.65367 22.004 4.16169 21.824 3.75369 21.488C3.20169 21.08 2.92569 20.612 2.92569 20.084C2.92569 19.748 3.03369 19.412 3.24969 19.076C3.48969 18.716 3.8017 18.476 4.1857 18.356C4.6897 18.188 5.20567 18.116 5.73367 18.14C6.26167 18.14 6.8017 18.128 7.3537 18.104C7.9297 18.08 8.42168 18.068 8.82968 18.068C9.26168 18.068 9.66968 18.068 10.0537 18.068C10.4617 18.068 10.8817 18.08 11.3137 18.104C11.7457 18.104 12.2617 18.104 12.8617 18.104V16.268C11.5657 16.22 10.3897 16.112 9.33368 15.944C8.27768 15.776 7.3777 15.524 6.6337 15.188C5.8897 14.828 5.3137 14.372 4.9057 13.82C4.5217 13.244 4.32968 12.524 4.32968 11.66C4.32968 10.868 4.54569 10.184 4.97769 9.608C4.49769 9.56 4.0297 9.428 3.5737 9.212C3.1417 8.996 2.9017 8.612 2.8537 8.06C2.7577 7.24399 2.97368 6.69199 3.50168 6.404C4.05368 6.11599 4.70168 5.97199 5.44568 5.97199L12.9337 6.00799L12.9697 4.92799C12.9937 4.27999 13.1497 3.85999 13.4377 3.66799C13.7257 3.45199 14.0617 3.28399 14.4457 3.16399C14.8777 3.01999 15.2977 2.95999 15.7057 2.98399C16.1137 3.00799 16.4737 3.10399 16.7857 3.27199C17.0977 3.41599 17.3497 3.63199 17.5417 3.92C17.7337 4.18399 17.8297 4.49599 17.8297 4.856V6.00799L24.4537 5.97199C24.8617 5.97199 25.3057 5.97199 25.7857 5.97199C26.2897 5.94799 26.7577 5.972 27.1897 6.044C27.6457 6.11599 28.0297 6.25999 28.3417 6.47599C28.6537 6.69199 28.8337 7.01599 28.8817 7.44799C28.9297 8.19199 28.7137 8.72 28.2337 9.032C27.7777 9.31999 27.2377 9.49999 26.6137 9.57199C26.9977 10.196 27.1897 10.892 27.1897 11.66C27.1897 12.548 26.9617 13.28 26.5057 13.856C26.0737 14.432 25.4497 14.9 24.6337 15.26C23.8177 15.596 22.8457 15.848 21.7177 16.016C20.5897 16.16 19.3297 16.244 17.9377 16.268C17.9617 16.604 17.9737 16.94 17.9737 17.276C17.9737 17.588 17.9737 17.864 17.9737 18.104C18.6457 18.104 19.3657 18.104 20.1337 18.104C20.9017 18.08 21.6697 18.068 22.4377 18.068C23.2057 18.068 23.9377 18.068 24.6337 18.068C25.3297 18.068 25.9297 18.08 26.4337 18.104ZM4.72568 32.648C4.70168 32.648 4.66568 32.624 4.61768 32.576C4.37768 32.384 4.20968 32.12 4.11368 31.784C4.04168 31.448 4.00568 31.148 4.00568 30.884C3.98168 30.452 3.94567 30.02 3.89767 29.588C3.87367 29.156 3.86169 28.736 3.86169 28.328C3.86169 27.704 3.86169 27.14 3.86169 26.636C3.86169 26.132 3.92169 25.58 4.04169 24.98C4.11369 24.596 4.23367 24.296 4.40167 24.08C4.56967 23.84 4.83369 23.648 5.19369 23.504C5.86569 23.24 6.53769 23.108 7.20969 23.108H24.1657C24.6217 23.132 25.0897 23.168 25.5697 23.216C26.0497 23.264 26.5057 23.384 26.9377 23.576C27.4177 23.768 27.7297 24.044 27.8737 24.404C28.0417 24.74 28.1497 25.148 28.1977 25.628C28.2217 26.036 28.2337 26.504 28.2337 27.032C28.2577 27.56 28.2577 28.1 28.2337 28.652C28.2097 29.18 28.1737 29.708 28.1257 30.236C28.0777 30.764 27.9937 31.244 27.8737 31.676C27.8017 31.94 27.7177 32.168 27.6217 32.36C27.5257 32.576 27.3337 32.732 27.0457 32.828C26.7817 32.924 26.5057 32.984 26.2177 33.008C25.9537 33.032 25.6897 33.044 25.4257 33.044L6.66968 32.972C6.35768 32.948 6.02168 32.936 5.66168 32.936C5.30168 32.936 4.98968 32.84 4.72568 32.648ZM8.14569 28.544C8.14569 28.664 8.14569 28.784 8.14569 28.904C8.16969 29.024 8.21767 29.108 8.28967 29.156C8.33767 29.204 8.40968 29.24 8.50568 29.264C8.62568 29.264 8.74569 29.264 8.86569 29.264C8.98569 29.264 9.1297 29.252 9.2977 29.228H20.5657C20.9017 29.252 21.2257 29.276 21.5377 29.3C21.8017 29.324 22.0777 29.336 22.3657 29.336C22.6537 29.336 22.9177 29.312 23.1577 29.264C23.3977 29.24 23.5417 29.168 23.5897 29.048C23.6377 28.928 23.6737 28.76 23.6977 28.544C23.7217 28.352 23.7337 28.136 23.7337 27.896C23.7337 27.632 23.6617 27.404 23.5177 27.212C23.3497 27.02 23.1097 26.924 22.7977 26.924C22.5097 26.9 22.2457 26.9 22.0057 26.924H11.9977C11.4697 26.876 10.9537 26.864 10.4497 26.888C9.94568 26.888 9.42967 26.9 8.90167 26.924C8.70967 26.924 8.55368 26.936 8.43368 26.96C8.33768 26.96 8.26568 27.068 8.21768 27.284C8.16968 27.452 8.14569 27.62 8.14569 27.788C8.14569 27.932 8.14569 28.076 8.14569 28.22C8.16969 28.268 8.16969 28.316 8.14569 28.364C8.14569 28.412 8.14569 28.472 8.14569 28.544ZM22.2217 11.66C22.2217 11.324 22.0297 11.06 21.6457 10.868C21.2617 10.676 20.7577 10.532 20.1337 10.436C19.5337 10.34 18.8377 10.28 18.0457 10.256C17.2537 10.232 16.4617 10.22 15.6697 10.22C14.8777 10.22 14.0977 10.232 13.3297 10.256C12.5617 10.28 11.8777 10.34 11.2777 10.436C10.6777 10.532 10.1977 10.676 9.83768 10.868C9.47768 11.06 9.2977 11.324 9.2977 11.66C9.2977 11.972 9.47768 12.212 9.83768 12.38C10.1977 12.548 10.6777 12.68 11.2777 12.776C11.8777 12.848 12.5617 12.896 13.3297 12.92C14.0977 12.92 14.8777 12.92 15.6697 12.92C16.4617 12.92 17.2537 12.932 18.0457 12.956C18.8377 12.98 19.5337 12.968 20.1337 12.92C20.7577 12.848 21.2617 12.728 21.6457 12.56C22.0297 12.368 22.2217 12.068 22.2217 11.66Z" stroke="black" stroke-width="4" mask="url(#path-1-outside-1_17_3)"/>
<path class="2" d="M52.4749 28.868C52.4749 29.468 52.4509 29.948 52.4029 30.308C52.3789 30.668 52.2709 31.124 52.0789 31.676C51.9589 32.036 51.7789 32.336 51.5389 32.576C51.2989 32.816 50.9149 32.936 50.3869 32.936C50.2429 32.936 50.0629 32.912 49.8469 32.864C49.6309 32.84 49.4629 32.78 49.3429 32.684C49.1029 32.54 48.9109 32.312 48.7669 32C48.6469 31.664 48.5509 31.316 48.4789 30.956C48.4069 30.596 48.3589 30.248 48.3349 29.912C48.3349 29.576 48.3349 29.312 48.3349 29.12V20.48L46.7509 20.444C46.5349 20.444 46.2949 20.42 46.0309 20.372C45.7909 20.3 45.5509 20.204 45.3109 20.084C45.0949 19.94 44.9029 19.76 44.7349 19.544C44.5669 19.304 44.4709 19.004 44.4469 18.644C44.3989 18.212 44.4229 17.756 44.5189 17.276C44.6389 16.796 44.9749 16.424 45.5269 16.16C45.7429 16.04 45.9829 15.968 46.2469 15.944C46.5349 15.896 46.7989 15.884 47.0389 15.908L48.3349 15.872V7.556C48.3349 7.244 48.3349 6.93199 48.3349 6.61999C48.3349 6.28399 48.3709 5.95999 48.4429 5.64799C48.4909 5.52799 48.5269 5.41999 48.5509 5.32399C48.5989 5.22799 48.6469 5.11999 48.6949 4.99999C48.8389 4.75999 48.9829 4.57999 49.1269 4.45999C49.2709 4.31599 49.4749 4.19599 49.7389 4.09999C49.8589 4.052 49.9789 4.028 50.0989 4.028C50.2429 4.00399 50.3749 3.99199 50.4949 3.99199C50.9029 3.99199 51.2269 4.08799 51.4669 4.27999C51.7309 4.472 51.9589 4.736 52.1509 5.072C52.2469 5.21599 52.3069 5.42 52.3309 5.684C52.3789 5.948 52.4149 6.224 52.4389 6.512C52.4629 6.776 52.4749 7.016 52.4749 7.232C52.4749 7.424 52.4749 7.544 52.4749 7.592V24.8V28.868ZM58.1989 31.928C58.0549 32.24 57.8269 32.504 57.5149 32.72C57.2509 32.888 57.0109 32.984 56.7949 33.008C56.6029 33.056 56.3509 33.044 56.0389 32.972C55.6789 32.9 55.3789 32.744 55.1389 32.504C54.9229 32.288 54.7549 32.036 54.6349 31.748C54.5149 31.46 54.4309 31.148 54.3829 30.812C54.3349 30.476 54.3109 30.152 54.3109 29.84V7.95199C54.3109 7.688 54.3109 7.388 54.3109 7.052C54.3109 6.692 54.3349 6.356 54.3829 6.044C54.4309 5.708 54.4909 5.396 54.5629 5.10799C54.6589 4.81999 54.7909 4.59199 54.9589 4.42399C55.2229 4.184 55.4629 4.03999 55.6789 3.99199C55.9189 3.91999 56.2069 3.884 56.5429 3.884C56.9509 3.884 57.2989 4.004 57.5869 4.244C57.8749 4.46 58.0909 4.75999 58.2349 5.14399C58.4509 5.64799 58.5709 6.164 58.5949 6.692C58.6189 7.21999 58.6429 7.75999 58.6669 8.31199V8.49199C58.7149 10.316 58.7269 12.188 58.7029 14.108C58.6789 16.004 58.6669 17.804 58.6669 19.508V28.508C58.6669 29.132 58.6429 29.732 58.5949 30.308C58.5709 30.884 58.4389 31.424 58.1989 31.928ZM46.6789 9.31999C46.6309 9.41599 46.4989 9.49999 46.2829 9.57199C45.8749 9.764 45.4909 9.836 45.1309 9.78799C44.7709 9.74 44.3749 9.764 43.9429 9.86C43.9909 10.196 44.0149 10.508 44.0149 10.796C44.0389 11.06 44.0509 11.288 44.0509 11.48V26.924C44.0509 26.9 44.1349 26.9 44.3029 26.924C44.4709 26.948 44.6509 26.984 44.8429 27.032C45.0589 27.056 45.2509 27.092 45.4189 27.14C45.6109 27.188 45.7309 27.212 45.7789 27.212C46.3069 27.308 46.7029 27.464 46.9669 27.68C47.2309 27.872 47.3269 28.316 47.2549 29.012C47.2069 29.588 47.0989 30.02 46.9309 30.308C46.7629 30.572 46.5349 30.752 46.2469 30.848C45.9829 30.92 45.6709 30.956 45.3109 30.956C44.9749 30.932 44.5909 30.92 44.1589 30.92C43.6069 30.944 43.0549 30.956 42.5029 30.956C41.9509 30.932 41.4109 30.92 40.8829 30.92C40.4509 30.92 40.0789 30.92 39.7669 30.92C39.4789 30.92 39.1909 30.92 38.9029 30.92C38.6149 30.92 38.3149 30.932 38.0029 30.956C37.7149 30.956 37.3669 30.956 36.9589 30.956C36.3829 30.956 35.8069 30.956 35.2309 30.956C34.6789 30.956 34.1149 30.944 33.5389 30.92C33.2749 30.92 32.9749 30.896 32.6389 30.848C32.3029 30.8 31.9909 30.716 31.7029 30.596C31.4149 30.452 31.1629 30.26 30.9469 30.02C30.7309 29.78 30.5989 29.468 30.5509 29.084C30.5029 28.532 30.5749 28.124 30.7669 27.86C30.9829 27.572 31.2589 27.38 31.5949 27.284C31.9549 27.164 32.3269 27.104 32.7109 27.104C33.1189 27.08 33.4789 27.044 33.7909 26.996C33.7909 26.78 33.7789 26.456 33.7549 26.024C33.7549 25.592 33.7549 25.148 33.7549 24.692C33.7549 24.212 33.7549 23.768 33.7549 23.36C33.7549 22.928 33.7549 22.604 33.7549 22.388V11.984C33.7549 11.912 33.7309 11.672 33.6829 11.264C33.6589 10.856 33.6589 10.388 33.6829 9.86C33.3469 9.83599 33.0349 9.82399 32.7469 9.82399C32.4829 9.82399 32.2189 9.78799 31.9549 9.716C31.7149 9.644 31.4869 9.524 31.2709 9.356C31.0789 9.164 30.8989 8.888 30.7309 8.528C30.4669 7.976 30.4549 7.472 30.6949 7.016C30.9349 6.536 31.2949 6.19999 31.7749 6.00799C32.2789 5.81599 32.7709 5.69599 33.2509 5.64799C33.7549 5.59999 34.2709 5.576 34.7989 5.576C35.6629 5.576 36.4789 5.576 37.2469 5.576C38.0149 5.576 38.7589 5.58799 39.4789 5.61199C40.2229 5.61199 40.9789 5.61199 41.7469 5.61199C42.5149 5.61199 43.3429 5.61199 44.2309 5.61199C44.6389 5.61199 45.0949 5.67199 45.5989 5.79199C46.1029 5.88799 46.5109 6.128 46.8229 6.512C46.9669 6.70399 47.0749 6.93199 47.1469 7.196C47.2429 7.436 47.2789 7.688 47.2549 7.95199C47.2549 8.216 47.2069 8.48 47.1109 8.744C47.0149 8.984 46.8709 9.17599 46.6789 9.31999ZM38.1829 9.86C38.0389 9.83599 37.9429 9.88399 37.8949 10.004C37.8709 10.1 37.8589 10.232 37.8589 10.4C37.8349 10.64 37.8109 10.94 37.7869 11.3C37.7869 11.66 37.7989 12.008 37.8229 12.344L37.8589 26.24C37.8589 26.312 37.8709 26.444 37.8949 26.636C37.9429 26.804 38.0629 26.9 38.2549 26.924H39.8749V13.028C39.8749 13.028 39.8749 12.92 39.8749 12.704C39.8749 12.464 39.8749 12.188 39.8749 11.876C39.8749 11.564 39.8629 11.264 39.8389 10.976C39.8389 10.664 39.8269 10.436 39.8029 10.292C39.8029 10.22 39.7909 10.148 39.7669 10.076C39.7669 9.98 39.6949 9.908 39.5509 9.86H38.1829Z" stroke="black" stroke-width="4" mask="url(#path-1-outside-1_17_3)"/>
<path class="3" d="M68.8217 4.208C69.1337 4.208 69.4337 4.22 69.7217 4.244C70.0097 4.26799 70.2977 4.304 70.5857 4.352C71.4977 4.496 72.3017 4.91599 72.9977 5.61199C73.5737 6.236 74.0417 6.956 74.4017 7.77199C74.7857 8.56399 75.0857 9.40399 75.3017 10.292C75.5177 11.18 75.6737 12.092 75.7697 13.028C75.8657 13.94 75.9377 14.828 75.9857 15.692C76.0337 16.796 76.0457 17.9 76.0217 19.004C75.9977 20.108 75.9257 21.2 75.8057 22.28C75.6857 23.408 75.5057 24.548 75.2657 25.7C75.0497 26.828 74.6417 27.848 74.0417 28.76C73.5377 29.528 72.9137 30.164 72.1697 30.668C71.4257 31.148 70.6457 31.472 69.8297 31.64C69.0857 31.784 68.3297 31.808 67.5617 31.712C66.7937 31.616 66.0617 31.364 65.3657 30.956C64.7177 30.572 64.1657 30.092 63.7097 29.516C63.2777 28.94 62.8937 28.268 62.5577 27.5C62.0777 26.348 61.8017 25.16 61.7297 23.936C61.6337 22.928 61.5617 21.92 61.5137 20.912C61.4897 19.904 61.4777 18.896 61.4777 17.888C61.4777 16.544 61.5497 15.2 61.6937 13.856C61.7417 13.304 61.7897 12.764 61.8377 12.236C61.8857 11.684 61.9577 11.144 62.0537 10.616C62.1497 10.184 62.2337 9.77599 62.3057 9.392C62.3777 9.00799 62.5097 8.61199 62.7017 8.204C62.8937 7.796 63.0977 7.41199 63.3137 7.052C63.5537 6.692 63.8297 6.368 64.1417 6.07999C64.6697 5.55199 65.2577 5.144 65.9057 4.856C66.5537 4.568 67.2257 4.376 67.9217 4.27999C68.0657 4.256 68.2097 4.244 68.3537 4.244C68.5217 4.244 68.6777 4.23199 68.8217 4.208ZM86.2817 29.984C86.2337 30.272 86.1977 30.56 86.1737 30.848C86.1497 31.112 86.0897 31.388 85.9937 31.676C85.9457 31.772 85.9097 31.856 85.8857 31.928C85.8617 32 85.8257 32.084 85.7777 32.18C85.6097 32.516 85.3937 32.78 85.1297 32.972C84.5777 33.308 83.9657 33.392 83.2937 33.224C82.9097 33.152 82.5977 33.008 82.3577 32.792C82.1417 32.6 81.9737 32.348 81.8537 32.036C81.7577 31.748 81.6737 31.46 81.6017 31.172C81.5537 30.884 81.5297 30.632 81.5297 30.416C81.5297 30.2 81.5297 30.08 81.5297 30.056V8.276C81.5297 7.988 81.5297 7.676 81.5297 7.33999C81.5297 7.00399 81.5537 6.66799 81.6017 6.33199C81.6497 5.99599 81.7217 5.68399 81.8177 5.39599C81.9137 5.10799 82.0457 4.87999 82.2137 4.712C82.4777 4.44799 82.7537 4.29199 83.0417 4.244C83.3297 4.17199 83.6417 4.13599 83.9777 4.13599C84.3857 4.13599 84.7577 4.25599 85.0937 4.49599C85.4537 4.71199 85.7057 5.02399 85.8497 5.43199C86.0657 5.936 86.1857 6.464 86.2097 7.016C86.2337 7.568 86.2577 8.12 86.2817 8.672V8.852C86.3297 10.7 86.3417 12.596 86.3177 14.54C86.2937 16.484 86.2817 18.32 86.2817 20.048V28.688C86.2817 28.904 86.2817 29.12 86.2817 29.336C86.3057 29.552 86.3057 29.768 86.2817 29.984ZM68.7137 26.852C69.1697 26.852 69.6137 26.708 70.0457 26.42C70.4537 26.132 70.7417 25.748 70.9097 25.268C71.0777 24.788 71.2217 24.26 71.3417 23.684C71.5337 22.58 71.6417 21.404 71.6657 20.156C71.6897 18.908 71.6777 17.708 71.6297 16.556C71.6297 16.1 71.6177 15.62 71.5937 15.116C71.5697 14.588 71.5217 14.072 71.4497 13.568C71.4017 13.064 71.3177 12.584 71.1977 12.128C71.0777 11.648 70.9097 11.228 70.6937 10.868C70.4537 10.46 70.1657 10.148 69.8297 9.932C69.4937 9.716 69.1337 9.632 68.7497 9.68C68.3417 9.728 67.9697 9.87199 67.6337 10.112C67.2977 10.352 67.0217 10.712 66.8057 11.192L66.4817 11.948C66.3377 12.404 66.2297 12.884 66.1577 13.388C66.0857 13.868 66.0257 14.348 65.9777 14.828C65.9297 15.308 65.8937 15.8 65.8697 16.304C65.8457 16.808 65.8337 17.3 65.8337 17.78C65.8577 18.26 65.8457 18.728 65.7977 19.184C65.7737 19.64 65.7857 20.108 65.8337 20.588C65.8817 21.212 65.9417 21.884 66.0137 22.604C66.1097 23.324 66.2537 24.008 66.4457 24.656C66.6377 25.28 66.9137 25.808 67.2737 26.24C67.6337 26.648 68.1137 26.852 68.7137 26.852Z" stroke="black" stroke-width="4" mask="url(#path-1-outside-1_17_3)"/>
<path class="4" d="M103.665 5.79199C104.649 5.79199 105.489 5.87599 106.185 6.044C106.881 6.21199 107.433 6.64399 107.841 7.33999C108.225 7.98799 108.285 8.63599 108.021 9.28399C107.685 9.95599 107.085 10.352 106.221 10.472C105.645 10.568 104.985 10.628 104.241 10.652C103.497 10.652 102.513 10.628 101.289 10.58C101.265 10.988 101.253 11.42 101.253 11.876C101.253 12.308 101.253 12.716 101.253 13.1C101.253 13.46 101.253 13.772 101.253 14.036C101.277 14.3 101.289 14.468 101.289 14.54V18.572C101.289 18.764 101.301 19.028 101.325 19.364C101.349 19.676 101.373 19.916 101.397 20.084C101.589 20.276 101.853 20.564 102.189 20.948C102.525 21.308 102.789 21.608 102.981 21.848C103.221 22.136 103.461 22.436 103.701 22.748C103.965 23.06 104.229 23.408 104.493 23.792C104.685 24.008 104.853 24.224 104.997 24.44C105.141 24.656 105.273 24.848 105.393 25.016C105.849 25.664 106.317 26.372 106.797 27.14C107.277 27.908 107.601 28.676 107.769 29.444C107.841 29.78 107.841 30.152 107.769 30.56C107.721 30.944 107.553 31.268 107.265 31.532C106.857 31.892 106.401 32.072 105.897 32.072C105.345 32.072 104.817 31.928 104.313 31.64C103.809 31.328 103.401 31.004 103.089 30.668C102.633 30.188 102.201 29.684 101.793 29.156C101.409 28.628 101.025 28.112 100.641 27.608C100.377 27.224 100.101 26.852 99.8132 26.492C99.5252 26.108 99.2252 25.736 98.9132 25.376C98.8652 25.28 98.8172 25.22 98.7692 25.196C98.7692 25.22 98.7572 25.232 98.7332 25.232C98.7332 25.232 98.7332 25.244 98.7332 25.268C98.6132 25.46 98.4692 25.652 98.3012 25.844C98.1572 26.012 98.0252 26.192 97.9052 26.384C97.7132 26.6 97.5332 26.828 97.3652 27.068C97.2212 27.284 97.0772 27.5 96.9332 27.716C96.5972 28.22 96.2612 28.724 95.9252 29.228C95.5892 29.708 95.2052 30.164 94.7732 30.596C93.7412 31.628 92.7692 32.144 91.8572 32.144C91.6172 32.144 91.3892 32.108 91.1732 32.036C90.6212 31.892 90.2492 31.556 90.0572 31.028C89.8652 30.62 89.7932 30.176 89.8412 29.696C89.9132 29.216 90.0332 28.796 90.2012 28.436C90.3932 28.028 90.6092 27.644 90.8492 27.284C91.0892 26.924 91.3412 26.564 91.6052 26.204C91.7732 25.988 91.9292 25.772 92.0732 25.556C92.2412 25.34 92.3852 25.124 92.5052 24.908C92.7212 24.548 93.0092 24.128 93.3692 23.648C93.7532 23.144 94.1252 22.664 94.4852 22.208C94.8692 21.728 95.2172 21.296 95.5292 20.912C95.8412 20.528 96.0572 20.252 96.1772 20.084V10.58H93.9812C93.0692 10.58 92.4332 10.58 92.0732 10.58C91.7372 10.556 91.4852 10.52 91.3172 10.472C90.4052 10.328 89.7932 9.812 89.4812 8.924C89.2172 8.15599 89.3132 7.48399 89.7692 6.90799C90.1772 6.332 90.7532 5.972 91.4972 5.82799C91.6172 5.80399 91.7372 5.79199 91.8572 5.79199C91.9772 5.76799 92.1092 5.75599 92.2532 5.75599C92.4932 5.75599 92.6612 5.76799 92.7572 5.79199H103.665ZM115.797 30.056C115.749 30.344 115.713 30.632 115.689 30.92C115.665 31.184 115.605 31.46 115.509 31.748C115.461 31.844 115.425 31.928 115.401 32C115.377 32.072 115.341 32.156 115.293 32.252C115.125 32.588 114.909 32.852 114.645 33.044C114.093 33.38 113.481 33.464 112.809 33.296C112.425 33.224 112.113 33.08 111.873 32.864C111.657 32.672 111.489 32.42 111.369 32.108C111.273 31.82 111.189 31.532 111.117 31.244C111.069 30.956 111.045 30.704 111.045 30.488C111.045 30.272 111.045 30.152 111.045 30.128V8.276C111.045 7.988 111.045 7.676 111.045 7.33999C111.045 7.00399 111.069 6.66799 111.117 6.33199C111.165 5.99599 111.237 5.68399 111.333 5.39599C111.429 5.10799 111.561 4.87999 111.729 4.712C111.993 4.44799 112.269 4.29199 112.557 4.244C112.845 4.17199 113.157 4.13599 113.493 4.13599C113.901 4.13599 114.273 4.25599 114.609 4.49599C114.969 4.71199 115.221 5.02399 115.365 5.43199C115.581 5.936 115.701 6.464 115.725 7.016C115.749 7.568 115.773 8.12 115.797 8.672V8.852C115.845 10.7 115.857 12.596 115.833 14.54C115.809 16.484 115.797 18.32 115.797 20.048V28.76C115.797 28.976 115.797 29.192 115.797 29.408C115.821 29.624 115.821 29.84 115.797 30.056Z" stroke="black" stroke-width="4" mask="url(#path-1-outside-1_17_3)"/>
<path class="5" d="M143.792 26.852C144.104 27.068 144.32 27.356 144.44 27.716C144.584 28.076 144.644 28.448 144.62 28.832C144.596 29.216 144.488 29.576 144.296 29.912C144.128 30.248 143.876 30.5 143.54 30.668C143.012 30.956 142.46 31.148 141.884 31.244C141.308 31.34 140.744 31.388 140.192 31.388H138.716C138.044 31.412 137.372 31.412 136.7 31.388C136.052 31.364 135.392 31.364 134.72 31.388H134.108C133.7 31.388 133.268 31.376 132.812 31.352C132.38 31.328 131.936 31.268 131.48 31.172C131.048 31.076 130.64 30.944 130.256 30.776C129.872 30.584 129.56 30.332 129.32 30.02C129.08 29.732 128.9 29.36 128.78 28.904C128.66 28.424 128.576 27.956 128.528 27.5C128.48 27.044 128.456 26.648 128.456 26.312C128.456 25.976 128.456 25.784 128.456 25.736V8.744C128.456 8.72 128.456 8.612 128.456 8.42C128.456 8.22799 128.468 8.02399 128.492 7.80799C128.516 7.568 128.552 7.33999 128.6 7.12399C128.648 6.884 128.708 6.69199 128.78 6.548C128.996 6.212 129.212 5.96 129.428 5.79199C129.644 5.624 129.932 5.516 130.292 5.46799C130.388 5.44399 130.496 5.43199 130.616 5.43199C130.76 5.43199 130.904 5.41999 131.048 5.39599C131.192 5.39599 131.36 5.384 131.552 5.36H139.976H140.408C140.528 5.36 140.648 5.372 140.768 5.39599C140.912 5.39599 141.044 5.384 141.164 5.36H141.236C141.476 5.36 141.704 5.372 141.92 5.39599C142.136 5.41999 142.352 5.46799 142.568 5.54C142.784 5.58799 143 5.64799 143.216 5.72C143.432 5.79199 143.624 5.92399 143.792 6.11599C144.08 6.42799 144.26 6.82399 144.332 7.30399C144.38 7.49599 144.404 7.676 144.404 7.844C144.428 8.012 144.416 8.19199 144.368 8.384C144.296 8.88799 144.092 9.332 143.756 9.716C143.444 10.076 143.012 10.256 142.46 10.256H133.388V13.388V14.036V15.476C133.772 15.5 134.12 15.512 134.432 15.512C134.768 15.512 135.068 15.512 135.332 15.512C135.62 15.512 135.884 15.5 136.124 15.476H139.616C139.736 15.476 139.856 15.488 139.976 15.512C140.096 15.512 140.216 15.5 140.336 15.476H141.308C141.572 15.476 141.836 15.5 142.1 15.548C142.388 15.596 142.652 15.692 142.892 15.836C143.252 16.052 143.48 16.376 143.576 16.808C143.672 17.216 143.696 17.612 143.648 17.996C143.648 18.188 143.636 18.38 143.612 18.572C143.612 18.764 143.552 18.932 143.432 19.076C143.144 19.484 142.856 19.736 142.568 19.832C142.28 19.904 141.968 19.94 141.632 19.94H137.312C137.168 19.964 136.988 19.976 136.772 19.976H135.296C134.984 19.976 134.672 19.976 134.36 19.976C134.048 19.976 133.736 19.964 133.424 19.94C133.448 20.9 133.448 21.74 133.424 22.46C133.4 23.18 133.388 23.552 133.388 23.576V24.872C133.388 25.208 133.412 25.508 133.46 25.772C133.508 26.012 133.556 26.144 133.604 26.168C133.772 26.264 134.048 26.336 134.432 26.384C134.816 26.432 135.236 26.456 135.692 26.456H135.836C136.628 26.432 137.42 26.432 138.212 26.456H139.976C140.048 26.456 140.12 26.456 140.192 26.456C140.288 26.456 140.384 26.444 140.48 26.42H141.092C141.476 26.42 141.86 26.432 142.244 26.456C142.628 26.48 143.012 26.552 143.396 26.672C143.468 26.696 143.528 26.72 143.576 26.744C143.648 26.768 143.72 26.804 143.792 26.852ZM153.8 15.26C153.92 15.26 154.028 15.272 154.124 15.296C154.244 15.32 154.364 15.332 154.484 15.332C154.604 15.356 154.736 15.38 154.88 15.404C155.024 15.404 155.168 15.416 155.312 15.44C155.576 15.488 155.84 15.584 156.104 15.728C156.368 15.848 156.56 16.04 156.68 16.304C156.848 16.568 156.932 16.88 156.932 17.24C156.932 17.432 156.92 17.612 156.896 17.78C156.896 17.924 156.872 18.092 156.824 18.284C156.776 18.476 156.716 18.68 156.644 18.896C156.596 19.112 156.488 19.28 156.32 19.4C155.984 19.64 155.66 19.796 155.348 19.868C154.964 19.916 154.496 19.928 153.944 19.904C153.392 19.88 152.924 19.88 152.54 19.904C152.516 19.904 152.492 19.916 152.468 19.94H152.432L152.396 19.976V20.084C152.396 20.372 152.396 20.72 152.396 21.128C152.396 21.536 152.396 21.956 152.396 22.388C152.396 22.796 152.396 23.204 152.396 23.612C152.396 23.996 152.396 24.344 152.396 24.656C152.444 25.904 152.444 27.128 152.396 28.328V28.832C152.396 29.144 152.384 29.492 152.36 29.876C152.36 30.236 152.336 30.596 152.288 30.956C152.24 31.316 152.156 31.664 152.036 32C151.916 32.312 151.748 32.576 151.532 32.792C151.244 33.128 150.86 33.296 150.38 33.296C150.38 33.296 150.356 33.284 150.308 33.26C149.732 33.236 149.264 33.068 148.904 32.756C148.568 32.444 148.304 32.06 148.112 31.604C147.944 31.148 147.836 30.68 147.788 30.2C147.74 29.696 147.716 29.252 147.716 28.868V7.48399C147.716 7.45999 147.716 7.35199 147.716 7.15999C147.716 6.94399 147.74 6.70399 147.788 6.43999C147.836 6.15199 147.908 5.86399 148.004 5.576C148.124 5.26399 148.28 5.01199 148.472 4.81999C148.64 4.65199 148.88 4.53199 149.192 4.45999C149.528 4.36399 149.828 4.31599 150.092 4.31599C150.62 4.31599 151.064 4.49599 151.424 4.856C151.76 5.192 151.952 5.552 152 5.93599C152.072 6.29599 152.132 6.68 152.18 7.088C152.204 7.184 152.216 7.328 152.216 7.52C152.264 7.92799 152.288 8.34799 152.288 8.77999C152.312 9.212 152.336 9.644 152.36 10.076C152.36 10.34 152.36 10.604 152.36 10.868C152.384 11.108 152.396 11.36 152.396 11.624C152.372 11.768 152.36 11.912 152.36 12.056C152.384 12.176 152.396 12.296 152.396 12.416V14.396C152.396 14.516 152.396 14.648 152.396 14.792C152.396 14.936 152.42 15.068 152.468 15.188C152.468 15.212 152.588 15.224 152.828 15.224C153.068 15.224 153.2 15.224 153.224 15.224C153.44 15.272 153.608 15.284 153.728 15.26H153.8Z" stroke="black" stroke-width="4" mask="url(#path-1-outside-1_17_3)"/>
<path class="6" d="M165.958 4.208C166.27 4.208 166.57 4.22 166.858 4.244C167.146 4.26799 167.434 4.304 167.722 4.352C168.634 4.496 169.438 4.91599 170.134 5.61199C170.71 6.236 171.178 6.956 171.538 7.77199C171.922 8.56399 172.222 9.40399 172.438 10.292C172.654 11.18 172.81 12.092 172.906 13.028C173.002 13.94 173.074 14.828 173.122 15.692C173.17 16.796 173.182 17.9 173.158 19.004C173.134 20.108 173.062 21.2 172.942 22.28C172.822 23.408 172.642 24.548 172.402 25.7C172.186 26.828 171.778 27.848 171.178 28.76C170.674 29.528 170.05 30.164 169.306 30.668C168.562 31.148 167.782 31.472 166.966 31.64C166.222 31.784 165.466 31.808 164.698 31.712C163.93 31.616 163.198 31.364 162.502 30.956C161.854 30.572 161.302 30.092 160.846 29.516C160.414 28.94 160.03 28.268 159.694 27.5C159.214 26.348 158.938 25.16 158.866 23.936C158.77 22.928 158.698 21.92 158.65 20.912C158.626 19.904 158.614 18.896 158.614 17.888C158.614 16.544 158.686 15.2 158.83 13.856C158.878 13.304 158.926 12.764 158.974 12.236C159.022 11.684 159.094 11.144 159.19 10.616C159.286 10.184 159.37 9.77599 159.442 9.392C159.514 9.00799 159.646 8.61199 159.838 8.204C160.03 7.796 160.234 7.41199 160.45 7.052C160.69 6.692 160.966 6.368 161.278 6.07999C161.806 5.55199 162.394 5.144 163.042 4.856C163.69 4.568 164.362 4.376 165.058 4.27999C165.202 4.256 165.346 4.244 165.49 4.244C165.658 4.244 165.814 4.23199 165.958 4.208ZM183.418 29.984C183.37 30.272 183.334 30.56 183.31 30.848C183.286 31.112 183.226 31.388 183.13 31.676C183.082 31.772 183.046 31.856 183.022 31.928C182.998 32 182.962 32.084 182.914 32.18C182.746 32.516 182.53 32.78 182.266 32.972C181.714 33.308 181.102 33.392 180.43 33.224C180.046 33.152 179.734 33.008 179.494 32.792C179.278 32.6 179.11 32.348 178.99 32.036C178.894 31.748 178.81 31.46 178.738 31.172C178.69 30.884 178.666 30.632 178.666 30.416C178.666 30.2 178.666 30.08 178.666 30.056V8.276C178.666 7.988 178.666 7.676 178.666 7.33999C178.666 7.00399 178.69 6.66799 178.738 6.33199C178.786 5.99599 178.858 5.68399 178.954 5.39599C179.05 5.10799 179.182 4.87999 179.35 4.712C179.614 4.44799 179.89 4.29199 180.178 4.244C180.466 4.17199 180.778 4.13599 181.114 4.13599C181.522 4.13599 181.894 4.25599 182.23 4.49599C182.59 4.71199 182.842 5.02399 182.986 5.43199C183.202 5.936 183.322 6.464 183.346 7.016C183.37 7.568 183.394 8.12 183.418 8.672V8.852C183.466 10.7 183.478 12.596 183.454 14.54C183.43 16.484 183.418 18.32 183.418 20.048V28.688C183.418 28.904 183.418 29.12 183.418 29.336C183.442 29.552 183.442 29.768 183.418 29.984ZM165.85 26.852C166.306 26.852 166.75 26.708 167.182 26.42C167.59 26.132 167.878 25.748 168.046 25.268C168.214 24.788 168.358 24.26 168.478 23.684C168.67 22.58 168.778 21.404 168.802 20.156C168.826 18.908 168.814 17.708 168.766 16.556C168.766 16.1 168.754 15.62 168.73 15.116C168.706 14.588 168.658 14.072 168.586 13.568C168.538 13.064 168.454 12.584 168.334 12.128C168.214 11.648 168.046 11.228 167.83 10.868C167.59 10.46 167.302 10.148 166.966 9.932C166.63 9.716 166.27 9.632 165.886 9.68C165.478 9.728 165.106 9.87199 164.77 10.112C164.434 10.352 164.158 10.712 163.942 11.192L163.618 11.948C163.474 12.404 163.366 12.884 163.294 13.388C163.222 13.868 163.162 14.348 163.114 14.828C163.066 15.308 163.03 15.8 163.006 16.304C162.982 16.808 162.97 17.3 162.97 17.78C162.994 18.26 162.982 18.728 162.934 19.184C162.91 19.64 162.922 20.108 162.97 20.588C163.018 21.212 163.078 21.884 163.15 22.604C163.246 23.324 163.39 24.008 163.582 24.656C163.774 25.28 164.05 25.808 164.41 26.24C164.77 26.648 165.25 26.852 165.85 26.852Z" stroke="black" stroke-width="4" mask="url(#path-1-outside-1_17_3)"/>
<path class="7" d="M210.63 30.56C211.014 30.608 211.35 30.704 211.638 30.848C211.926 30.992 212.13 31.256 212.25 31.64C212.538 32.504 212.226 33.116 211.314 33.476C211.026 33.596 210.738 33.668 210.45 33.692C210.162 33.716 209.886 33.728 209.622 33.728H192.882C192.402 33.728 191.898 33.716 191.37 33.692C190.866 33.692 190.35 33.68 189.822 33.656C189.318 33.632 188.898 33.452 188.562 33.116C188.226 32.78 188.034 32.336 187.986 31.784L187.878 29.264C187.854 29 187.854 28.688 187.878 28.328C187.902 27.968 188.022 27.668 188.238 27.428C188.574 27.068 189.018 26.84 189.57 26.744C190.146 26.648 190.698 26.6 191.226 26.6C191.562 26.6 192.114 26.6 192.882 26.6C193.674 26.6 194.742 26.612 196.086 26.636C197.43 26.636 199.086 26.636 201.054 26.636C203.046 26.636 205.41 26.636 208.146 26.636V25.34H190.434C190.194 25.34 189.978 25.34 189.786 25.34C189.594 25.34 189.402 25.316 189.21 25.268C188.994 25.22 188.802 25.172 188.634 25.124C188.466 25.076 188.322 24.956 188.202 24.764C187.866 24.26 187.782 23.744 187.95 23.216C188.022 23.024 188.13 22.88 188.274 22.784C188.418 22.664 188.586 22.568 188.778 22.496C188.97 22.424 189.15 22.376 189.318 22.352C189.51 22.328 189.678 22.304 189.822 22.28C190.182 22.208 190.554 22.172 190.938 22.172C191.298 22.172 191.682 22.172 192.09 22.172C192.498 22.172 192.99 22.172 193.566 22.172C194.166 22.172 194.874 22.184 195.69 22.208C196.506 22.208 197.502 22.208 198.678 22.208C199.878 22.208 201.27 22.208 202.854 22.208C204.462 22.208 206.346 22.208 208.506 22.208C209.73 22.208 210.666 22.4 211.314 22.784C211.962 23.144 212.286 23.744 212.286 24.584V27.14C212.286 27.476 212.202 27.812 212.034 28.148C211.89 28.46 211.626 28.724 211.242 28.94C210.93 29.132 210.618 29.24 210.306 29.264C209.994 29.264 209.682 29.264 209.37 29.264H192.306V30.56H210.63ZM207.678 3.34399C207.894 3.34399 208.098 3.35599 208.29 3.38C208.482 3.38 208.686 3.404 208.902 3.45199C209.118 3.5 209.322 3.548 209.514 3.59599C209.706 3.61999 209.886 3.71599 210.054 3.884C210.198 3.98 210.306 4.1 210.378 4.244C210.45 4.38799 210.51 4.51999 210.558 4.63999C210.606 4.784 210.63 4.916 210.63 5.036C210.654 5.156 210.642 5.288 210.594 5.43199C210.546 5.76799 210.354 6.05599 210.018 6.29599C209.706 6.53599 209.298 6.65599 208.794 6.65599H208.146L193.494 6.692L193.53 7.66399V7.736C193.698 7.736 193.962 7.736 194.322 7.736C194.682 7.736 195.09 7.736 195.546 7.736C196.026 7.736 196.53 7.736 197.058 7.736C197.61 7.736 198.162 7.736 198.714 7.736H202.818H206.13C206.226 7.736 206.334 7.74799 206.454 7.77199C206.574 7.77199 206.694 7.75999 206.814 7.736H207.75C207.99 7.736 208.23 7.74799 208.47 7.77199C208.734 7.79599 208.974 7.86799 209.19 7.98799C209.526 8.132 209.742 8.34799 209.838 8.63599C209.958 8.89999 209.994 9.164 209.946 9.42799C209.922 9.57199 209.898 9.71599 209.874 9.86C209.874 9.98 209.814 10.1 209.694 10.22C209.43 10.484 209.154 10.652 208.866 10.724C208.602 10.772 208.326 10.796 208.038 10.796H193.494L193.53 11.552C193.506 11.792 193.518 11.888 193.566 11.84C193.614 11.768 193.674 11.732 193.746 11.732C193.89 11.804 194.142 11.864 194.502 11.912C194.886 11.936 195.282 11.948 195.69 11.948H195.87C196.062 11.948 196.59 11.948 197.454 11.948C198.342 11.924 199.29 11.912 200.298 11.912C201.33 11.912 202.278 11.924 203.142 11.948C204.03 11.948 204.57 11.948 204.762 11.948H206.454C206.646 11.948 206.802 11.936 206.922 11.912H207.534C207.894 11.912 208.254 11.924 208.614 11.948C208.974 11.948 209.334 11.996 209.694 12.092C209.742 12.092 209.802 12.104 209.874 12.128C209.946 12.152 210.006 12.176 210.054 12.2C210.342 12.344 210.546 12.548 210.666 12.812C210.81 13.052 210.87 13.304 210.846 13.568C210.822 13.808 210.714 14.048 210.522 14.288C210.354 14.528 210.114 14.708 209.802 14.828C209.322 15.02 208.806 15.152 208.254 15.224C207.702 15.272 207.186 15.296 206.706 15.296H205.23C205.014 15.296 204.63 15.296 204.078 15.296C203.55 15.296 202.938 15.296 202.242 15.296C201.546 15.296 200.802 15.296 200.01 15.296C199.218 15.296 198.474 15.296 197.778 15.296C197.082 15.296 196.458 15.296 195.906 15.296C195.378 15.296 195.006 15.296 194.79 15.296H194.178C193.818 15.296 193.422 15.296 192.99 15.296C192.558 15.272 192.138 15.224 191.73 15.152C191.322 15.08 190.938 14.984 190.578 14.864C190.218 14.744 189.918 14.576 189.678 14.36C189.438 14.192 189.258 13.952 189.138 13.64C189.042 13.304 188.97 12.98 188.922 12.668C188.874 12.356 188.85 12.08 188.85 11.84C188.874 11.6 188.886 11.468 188.886 11.444V5.64799C188.886 5.62399 188.886 5.55199 188.886 5.43199C188.886 5.288 188.886 5.144 188.886 4.99999C188.91 4.83199 188.946 4.676 188.994 4.532C189.042 4.36399 189.102 4.23199 189.174 4.13599C189.366 3.89599 189.558 3.72799 189.75 3.63199C189.966 3.53599 190.242 3.46399 190.578 3.41599C190.818 3.36799 191.07 3.34399 191.334 3.34399H191.766H207.678ZM189.534 17.06C189.918 17.012 190.302 17.012 190.686 17.06C191.094 17.084 191.514 17.084 191.946 17.06C193.266 17.012 194.538 17 195.762 17.024C197.01 17.048 198.366 17.06 199.83 17.06C201.438 17.06 203.07 17.048 204.726 17.024C206.382 17 208.074 17.012 209.802 17.06H209.982C210.486 17.06 210.978 17.072 211.458 17.096C211.938 17.096 212.418 17.168 212.898 17.312C213.258 17.432 213.534 17.66 213.726 17.996C213.918 18.308 214.014 18.62 214.014 18.932C214.014 19.436 213.786 19.868 213.33 20.228C212.922 20.516 212.442 20.672 211.89 20.696C211.362 20.72 210.846 20.72 210.342 20.696H189.462C189.462 20.696 189.354 20.696 189.138 20.696C188.946 20.696 188.718 20.684 188.454 20.66C188.19 20.612 187.914 20.552 187.626 20.48C187.338 20.384 187.11 20.252 186.942 20.084C186.774 19.964 186.654 19.772 186.582 19.508C186.51 19.244 186.474 19.016 186.474 18.824C186.474 18.368 186.642 18.008 186.978 17.744C187.29 17.48 187.614 17.312 187.95 17.24C188.31 17.144 188.694 17.084 189.102 17.06C189.174 17.036 189.246 17.036 189.318 17.06C189.39 17.06 189.462 17.06 189.534 17.06Z" stroke="black" stroke-width="4" mask="url(#path-1-outside-1_17_3)"/>
<path class="8" d="M236.278 19.796C236.11 19.82 235.726 19.832 235.126 19.832C234.55 19.832 233.926 19.832 233.254 19.832C232.582 19.808 231.946 19.796 231.346 19.796C230.746 19.796 230.35 19.796 230.158 19.796H230.122C229.69 19.796 229.258 19.796 228.826 19.796C228.418 19.772 228.022 19.736 227.638 19.688C227.254 19.616 226.906 19.508 226.594 19.364C226.282 19.22 226.03 19.004 225.838 18.716C225.622 18.404 225.466 18.008 225.37 17.528C225.298 17.048 225.238 16.592 225.19 16.16C225.166 15.704 225.154 15.308 225.154 14.972C225.178 14.636 225.19 14.456 225.19 14.432V13.64C225.19 13.376 225.19 13.076 225.19 12.74C225.19 12.404 225.202 12.032 225.226 11.624C225.226 11.192 225.226 10.772 225.226 10.364C225.25 9.932 225.262 9.548 225.262 9.212V8.06C225.262 7.988 225.262 7.85599 225.262 7.66399C225.262 7.47199 225.274 7.268 225.298 7.052C225.322 6.812 225.358 6.584 225.406 6.368C225.454 6.12799 225.526 5.93599 225.622 5.79199C225.838 5.45599 226.054 5.21599 226.27 5.072C226.51 4.90399 226.81 4.78399 227.17 4.712C227.29 4.68799 227.47 4.67599 227.71 4.67599C227.95 4.65199 228.178 4.62799 228.394 4.60399C228.658 4.58 228.934 4.56799 229.222 4.56799H237.358C237.886 4.56799 238.438 4.616 239.014 4.712C239.614 4.78399 240.142 4.96399 240.598 5.25199C240.958 5.46799 241.21 5.74399 241.354 6.07999C241.498 6.41599 241.594 6.77599 241.642 7.15999C241.69 7.54399 241.702 7.94 241.678 8.348C241.654 8.732 241.642 9.09199 241.642 9.42799C241.642 9.812 241.63 10.196 241.606 10.58C241.606 10.94 241.618 11.312 241.642 11.696V13.676C241.618 13.796 241.606 13.928 241.606 14.072C241.63 14.216 241.642 14.36 241.642 14.504C241.594 14.816 241.582 15.128 241.606 15.44C241.63 15.728 241.642 16.04 241.642 16.376C241.642 16.64 241.618 16.928 241.57 17.24C241.546 17.528 241.474 17.828 241.354 18.14C241.258 18.428 241.114 18.692 240.922 18.932C240.754 19.172 240.526 19.34 240.238 19.436C239.614 19.7 238.954 19.832 238.258 19.832C237.586 19.808 236.926 19.796 236.278 19.796ZM227.746 27.68C227.746 26.6 228.058 25.7 228.682 24.98C229.33 24.26 230.194 23.696 231.274 23.288C232.354 22.856 233.626 22.556 235.09 22.388C236.554 22.22 238.114 22.136 239.77 22.136C241.426 22.136 242.986 22.196 244.45 22.316C245.914 22.436 247.186 22.7 248.266 23.108C249.346 23.492 250.198 24.044 250.822 24.764C251.47 25.484 251.794 26.456 251.794 27.68C251.794 28.88 251.47 29.84 250.822 30.56C250.198 31.28 249.346 31.832 248.266 32.216C247.186 32.624 245.914 32.888 244.45 33.008C242.986 33.152 241.426 33.224 239.77 33.224C238.114 33.224 236.554 33.152 235.09 33.008C233.626 32.888 232.354 32.624 231.274 32.216C230.194 31.832 229.33 31.28 228.682 30.56C228.058 29.84 227.746 28.88 227.746 27.68ZM246.25 17.744C246.082 17.744 245.866 17.732 245.602 17.708C245.362 17.684 245.11 17.636 244.846 17.564C244.606 17.492 244.378 17.396 244.162 17.276C243.946 17.156 243.778 16.988 243.658 16.772C243.586 16.676 243.526 16.544 243.478 16.376C243.454 16.208 243.43 16.04 243.406 15.872C243.406 15.68 243.406 15.5 243.406 15.332C243.43 15.164 243.454 15.032 243.478 14.936C243.526 14.672 243.658 14.444 243.874 14.252C244.09 14.036 244.342 13.868 244.63 13.748C244.726 13.724 244.906 13.7 245.17 13.676C245.458 13.652 245.746 13.64 246.034 13.64H247.114C247.09 13.376 247.078 13.124 247.078 12.884V11.768H246.25C246.082 11.768 245.866 11.756 245.602 11.732C245.362 11.708 245.11 11.66 244.846 11.588C244.606 11.516 244.378 11.42 244.162 11.3C243.946 11.18 243.778 11.012 243.658 10.796C243.466 10.484 243.37 10.16 243.37 9.82399C243.37 9.46399 243.442 9.13999 243.586 8.852C243.754 8.54 243.97 8.288 244.234 8.09599C244.522 7.87999 244.858 7.75999 245.242 7.736C245.266 7.736 245.374 7.736 245.566 7.736C245.782 7.736 246.01 7.736 246.25 7.736C246.49 7.736 246.706 7.736 246.898 7.736C247.09 7.712 247.186 7.676 247.186 7.62799C247.234 7.38799 247.246 7.12399 247.222 6.83599C247.222 6.54799 247.234 6.25999 247.258 5.97199C247.282 5.684 247.33 5.41999 247.402 5.17999C247.498 4.91599 247.666 4.68799 247.906 4.49599C248.098 4.35199 248.326 4.25599 248.59 4.208C248.854 4.15999 249.106 4.12399 249.346 4.09999C249.946 4.02799 250.462 4.23199 250.894 4.712C251.062 4.928 251.182 5.13199 251.254 5.32399C251.35 5.61199 251.386 5.91199 251.362 6.22399C251.362 6.536 251.362 6.848 251.362 7.15999V17.492C251.362 17.492 251.362 17.648 251.362 17.96C251.362 18.272 251.338 18.62 251.29 19.004C251.242 19.388 251.158 19.772 251.038 20.156C250.942 20.516 250.774 20.768 250.534 20.912C250.366 21.008 250.162 21.08 249.922 21.128C249.682 21.176 249.466 21.2 249.274 21.2C248.866 21.2 248.47 21.068 248.086 20.804C247.798 20.612 247.594 20.384 247.474 20.12C247.402 19.976 247.342 19.796 247.294 19.58C247.246 19.364 247.21 19.148 247.186 18.932C247.162 18.692 247.138 18.464 247.114 18.248C247.09 18.032 247.078 17.864 247.078 17.744H246.25ZM231.67 9.068C231.454 9.068 231.25 9.068 231.058 9.068C230.89 9.068 230.734 9.092 230.59 9.13999C230.254 9.164 229.978 9.308 229.762 9.57199C229.666 9.69199 229.606 9.87199 229.582 10.112C229.582 10.352 229.582 10.496 229.582 10.544V12.056C229.558 12.248 229.546 12.428 229.546 12.596C229.546 12.74 229.546 12.872 229.546 12.992V13.424C229.546 13.424 229.546 13.496 229.546 13.64C229.546 13.784 229.546 13.952 229.546 14.144C229.57 14.336 229.606 14.528 229.654 14.72C229.702 14.912 229.786 15.08 229.906 15.224C230.098 15.464 230.41 15.608 230.842 15.656C231.274 15.68 231.706 15.692 232.138 15.692H232.174C232.798 15.668 233.314 15.668 233.722 15.692C234.13 15.692 234.658 15.692 235.306 15.692C235.498 15.692 235.69 15.704 235.882 15.728C236.098 15.728 236.302 15.704 236.494 15.656C236.686 15.632 236.818 15.572 236.89 15.476C236.962 15.38 237.022 15.26 237.07 15.116C237.118 14.924 237.142 14.768 237.142 14.648C237.238 14.192 237.286 13.676 237.286 13.1C237.286 12.716 237.286 12.332 237.286 11.948C237.31 11.564 237.31 11.18 237.286 10.796C237.262 10.604 237.25 10.412 237.25 10.22C237.274 10.028 237.262 9.83599 237.214 9.64399C237.118 9.37999 236.962 9.236 236.746 9.212C236.53 9.164 236.314 9.13999 236.098 9.13999L231.67 9.068ZM246.934 27.68C246.934 27.272 246.718 26.948 246.286 26.708C245.854 26.468 245.29 26.288 244.594 26.168C243.922 26.048 243.154 25.976 242.29 25.952C241.45 25.904 240.61 25.88 239.77 25.88C238.93 25.88 238.09 25.904 237.25 25.952C236.434 25.976 235.69 26.048 235.018 26.168C234.37 26.288 233.842 26.468 233.434 26.708C233.026 26.948 232.822 27.272 232.822 27.68C232.822 28.04 233.026 28.34 233.434 28.58C233.842 28.82 234.37 29 235.018 29.12C235.69 29.24 236.434 29.324 237.25 29.372C238.09 29.42 238.93 29.444 239.77 29.444C240.61 29.444 241.45 29.444 242.29 29.444C243.154 29.444 243.922 29.396 244.594 29.3C245.29 29.204 245.854 29.036 246.286 28.796C246.718 28.532 246.934 28.16 246.934 27.68Z" stroke="black" stroke-width="4" mask="url(#path-1-outside-1_17_3)"/>
</svg>
