<svg id="kakao-todo-bakground_svg" width="1999" height="824" viewBox="0 0 1999 824" fill="none" xmlns="http://www.w3.org/2000/svg">
<path class="1" d="M94.4027 822.219L138.813 436.66L167.715 245.639L208.953 86.2587C214.551 72.1583 216.686 73.0696 218.822 89.3838C218.822 89.3838 223.052 140.557 224.109 170.246C225.166 199.934 225.519 218.685 218.47 229.622C208.534 243.092 218.47 248.373 228.691 239.779C238.912 231.185 244.199 212.044 242.79 184.699C241.577 144.1 233.273 120.244 228.691 106.962C224.109 93.6808 207.896 77.2336 194.855 79.2272C181.813 81.2208 167.278 104.01 151.149 137.042C136.793 169.812 126.878 191.413 130.354 212.434C132.986 224.457 136.921 227.93 146.567 235.091C159.341 143.81 171.24 105.4 204.371 96.0246C237.647 92.6218 261.823 107.353 287.552 138.604C313.282 169.855 321.741 208.919 309.758 217.122C297.774 225.325 297.421 223.372 297.421 223.372C289.316 180.136 280.856 156.964 260.413 129.619C241.191 111.573 235.388 101.103 257.945 96.0246C280.503 90.9463 315.044 98.3684 326.676 114.775C334.461 125.887 336.144 131.84 335.84 142.12C297.637 109.461 275.914 94.9164 236.093 82.3523C250.88 60.0861 277.683 53.8358 293.192 56.9609C308.7 60.086 314.185 64.3157 318.569 79.2272C301.792 68.916 291.801 67.0986 272.749 72.1957C244.599 82.202 231.832 85.2718 225.519 76.8834C217.502 68.8463 221.642 76.4927 208.953 44.4605C196.264 12.4283 182.416 -4.60438 161.723 2.66234C156.666 4.99243 147.272 15.944 144.1 22.1942C140.928 28.4444 149.405 28.6333 155.731 28.4444C180.405 29.2291 200.142 47.195 205.429 68.2894C173.403 63.8594 146.567 72.1957 130.354 87.8212C111.068 102.934 101.099 125.713 105.329 158.527C136.427 98.9869 158.092 82.3248 201.199 70.2426C213.213 69.2197 212.982 81.3564 207.191 112.822C200.909 131.986 198.009 142.819 194.855 162.433L178.289 235.091C164.364 292.529 155.04 311.674 136.346 328.063C130.954 333.149 125.58 335.39 108.501 337.438C88.2755 345.666 79.5331 353.053 65.1483 367.517C68.952 348.766 73.7286 339.918 91.583 330.016C109.741 323.816 121.009 326.285 141.985 335.485C141.123 316.449 135.742 307.38 113.788 295.249C129.876 282.971 142.338 285.874 146.567 301.5C150.797 317.125 151.211 345.094 155.379 349.548L162.428 355.017C188.39 351.167 197.433 355.599 208.248 369.861C202.701 346.938 193.683 341.662 165.953 347.204C156.734 347.884 161.223 353.563 172.649 365.564C174.623 367.127 197.204 395.904 208.248 410.097C209.652 389.373 194.855 373.377 181.461 367.517C168.067 361.658 152.318 362.053 160.666 381.58C169.854 398.408 171.465 414.057 169.125 451.114C183.425 452.507 184.658 443.982 184.633 425.722C182.014 395.947 178.289 387.83 162.428 369.861C146.567 351.892 135.93 347.703 117.313 358.142C107.102 363.902 96.2759 382.413 74.3123 423.378C65.7444 410.336 68.276 401.673 78.8943 385.096C107.89 349.619 121.216 337.876 136.346 340.954C150.512 349.94 152.499 363.99 148.33 400.721C142.814 426.152 132.821 442.91 122.247 446.035C111.673 449.16 113.582 440.384 125.067 428.847C139.535 390.985 149.739 349.548 146.567 342.517C144.183 338.242 139.005 344.434 127.182 361.267L82.7714 442.91L50.3448 522.21L21.4429 619.869L1 731.2L29.902 673.386C3.56946 752.167 29.902 734.325 38.7135 676.902C43.797 588.552 55.6318 637.057 47.1726 681.589C30.2338 745.994 38.7135 756.592 73.9598 756.592C109.206 756.592 141.28 756.592 141.28 756.592C141.28 756.592 323.151 757.764 298.831 755.029C274.511 752.295 257.945 759.717 296.364 715.184C334.782 670.652 392.234 661.667 433.472 718.7C449.014 745.882 455.507 759.218 436.292 756.592H411.267C395.522 759.585 413.312 762.516 440.521 767.53C443.074 771.919 386.145 771.925 300.594 772.608C306.016 778.95 306.237 781.776 292.487 783.155C256.217 778.366 265.7 792.14 294.602 789.796H318.569C331.396 789.755 332.022 791.857 316.102 801.124C327.899 802.954 337.602 797.609 343.594 801.124C349.586 804.64 339.012 812.843 358.397 812.843C358.397 812.843 389.414 812.062 406.685 809.328C423.956 806.593 432.415 798.781 406.685 795.265C380.955 791.749 372.496 783.155 409.857 783.546C409.857 783.546 459.202 783.155 481.759 780.811C504.317 778.467 508.899 776.514 481.759 769.483C454.62 762.451 459.907 750.732 491.276 755.029C491.276 755.029 678.786 755.029 689.36 755.029C699.934 755.029 703.811 745.263 703.811 719.481C703.811 693.699 702.401 700.34 703.811 681.589C705.221 662.839 709.451 660.495 711.213 681.589C710.97 710.423 713.018 725.336 723.549 747.998C725.899 747.306 724.038 740.841 719.672 701.121L738 752.685C736.456 688.677 730.621 652.517 716.852 587.837C692.259 488.991 662.573 416.347 647.065 408.925C643.324 410.967 645.183 425.989 654.819 474.943C657.263 485.591 662.22 487.443 665.393 494.084C668.565 500.725 663.278 499.553 658.343 497.99C653.409 496.428 642.059 475.955 642.13 463.223C639.366 419.597 644.449 414.404 654.819 408.925C667.851 407.75 699.934 441.348 704.869 459.708C709.803 478.068 704.868 494.084 700.991 485.099C686.342 445.486 673.852 423.441 660.458 419.081C647.065 414.722 623.097 428.066 612.171 456.583C601.244 485.099 603.491 495.807 618.868 500.334C620.269 461.797 624.155 450.332 635.081 429.629C627.593 421.423 609.351 426.894 598.425 436.269C587.498 445.645 587.401 451.876 589.261 459.708L635.081 414.394C623.074 405.332 615.928 404.255 602.302 410.878C593.714 414.39 592.14 418.077 592.08 426.113C598.229 418.832 602.284 416.509 610.761 415.956C625.685 417.656 633.724 418.415 638.958 414.394C644.169 406.066 645.217 400.959 644.95 391.346C646.147 377.571 653.056 362.439 660.458 362.439C667.86 362.439 675.747 367.246 678.081 373.377C660.091 378.413 654.199 385.188 650.237 403.456C679.687 405.056 694.205 411.321 713.68 439.785C712.911 421.799 709.422 413.21 691.827 403.456C654.392 391.627 654.819 418.272 595.605 396.424C576.131 384.572 567.056 371.007 554.719 332.36L518.768 188.606C515.683 169.367 521.72 167.54 542.736 176.105C570.075 188.403 585.171 198.332 609.703 247.201C612.549 216.67 598.425 191.34 582.564 180.012C566.703 168.683 541.337 166.06 524.407 168.683C531.309 144.362 553.662 133.916 574.457 133.135C571 121.868 566.644 117.388 554.367 112.822C540.186 111.006 518.768 142.12 518.768 153.448C518.768 164.777 508.656 179.811 498.325 183.527C485.812 167.827 476.473 165.016 462.374 162.824C448.275 160.631 434.425 166.617 427.128 180.012C449.977 169.742 466.604 172.589 493.391 183.527C461.004 197.63 444.592 211.005 415.144 234.31C414.903 215.456 421.239 206.962 446.866 196.418C487.183 191.036 502.907 200.715 487.399 213.997C471.89 227.279 446.866 275.718 446.866 304.234C428.473 301.14 429.481 287.628 439.464 255.014C461.051 213.492 476.984 203.482 507.842 194.074C538.083 189.556 547.954 204.237 561.064 241.342C569.668 271.029 573.193 286.561 577.277 312.438C597.055 295.437 594.377 275.078 569.523 222.982C548.06 186.496 537.815 175.205 524.407 180.012C502.859 192.557 496.328 208.726 493.391 251.889C492.896 297.974 501.85 315.563 510.309 319.86C518.768 324.157 523.35 318.688 514.186 304.234C503.444 286.827 510.309 187.043 514.186 178.058C515.667 167.604 519.649 177.682 531.457 219.466L561.064 332.36L574.105 408.925L587.498 494.084L601.244 586.665L621.335 741.357L631.204 823H827.5H1399.5L1230.5 719.5C1287.29 717.045 1333.25 719.18 1463.5 735C1537.51 727.821 1563 693 1563 650L1556 536.5C1553.48 521.586 1548 511.5 1535.5 511.5C1523 511.5 1522.5 525.5 1535.5 525.5C1535.5 525.5 1567.5 500 1576.5 493.5C1585.5 487 1597 493.5 1606.5 511.5C1612.62 521.952 1617.66 524.811 1629 525.5C1644.46 521.365 1644.83 516.217 1641 505.5C1634.66 492.446 1627.37 490.374 1609.5 493.5C1599.22 485.159 1591.86 482.702 1576.5 481.5C1555.81 482.214 1547.38 486.371 1535.5 497.5C1528.01 485.596 1523.41 480.947 1513.5 481.5C1501.3 482.125 1497.77 485.826 1496.5 497.5C1497.36 503.58 1499.33 505.692 1504.5 508C1495.62 508.883 1493.52 511.358 1494.5 519C1473.79 530.644 1479.5 543 1494.5 547.5C1504.74 547.901 1510.27 544.58 1520 536.5C1525.55 547.77 1529.31 552.081 1538.5 552C1551.73 552.032 1555.95 547.932 1563 540C1577.87 554.097 1583.94 554.848 1592 547.5C1601.09 538.79 1596.35 533.156 1586.5 523C1579.2 516.769 1576.73 517.147 1574.5 523C1580.53 536.771 1599.5 550 1617 552C1634.5 554 1636 536.5 1603.5 523L1579.5 505.5C1576.04 470.877 1572.19 456.257 1563 436C1560.74 402.043 1578.05 389.393 1622.5 371.5C1603.45 367.482 1599.67 361.181 1600.5 345.5C1589.14 347.434 1583.73 345.403 1576.5 334C1575.08 343.721 1572.66 348.533 1560.5 354C1582.53 358.853 1588.39 364.038 1578.5 381L1603 371.5L1551 409L1524.5 384C1537.55 386.441 1542.45 383.243 1548 371.5C1570.59 394.576 1591.5 365 1554.5 360C1517.5 355 1531 358 1531 358C1559.86 354.298 1562.37 344.982 1560.5 325C1576.59 330.604 1584.33 330.733 1594.5 322.5C1600.47 314.534 1586.5 293.5 1576.5 296C1566.5 298.5 1565.5 310 1565.5 310H1546C1537.48 319.296 1535.99 324.56 1537 334C1509.76 329.599 1494.5 338 1494.5 354C1499.07 370.069 1517.5 371 1519 367C1520.5 363 1511.41 353.809 1498 354C1490.89 357.854 1487.18 359.686 1481.5 367C1458.78 370.15 1447.16 374.088 1431 390C1426.4 401.275 1434 413 1441.5 413C1449 413 1467.5 408.5 1472 401.5C1476.5 394.5 1468.41 385.009 1458 393C1447.59 400.991 1454 420.5 1462 424C1470 427.5 1492 427 1496 401.5C1510.83 402.933 1517.5 393 1516 385.5C1531.54 402.789 1537.23 411.473 1534 422.5C1527.55 411.226 1517.48 399.15 1514.5 402.5C1511.52 405.85 1520.02 420.769 1531 422.5C1531 422.5 1533.5 423.5 1540 434.5C1546.5 445.5 1550.46 470.057 1542 485.5C1533.41 439.706 1517.46 416.153 1501.5 403.5C1486.85 397.501 1485 393 1491.5 384C1485.24 361.485 1445.5 342 1429.5 340.5C1418.16 344.911 1459.22 365.233 1461 362.5C1462.78 359.767 1424.5 340.5 1421 334C1411.67 320.338 1413.5 317.5 1418 315C1422.5 312.5 1439 334.5 1418 336C1397 337.5 1382.19 331.5 1372.5 316C1357.08 313.86 1349.91 311.394 1340 304.5C1330.98 298.468 1325.95 293.971 1317 285.5C1300.98 280.44 1294.89 279.514 1288 280.5C1281.5 282.589 1310 293.5 1315 295C1320 296.5 1327 307.5 1311 304.5C1304.03 300.611 1300.83 298.514 1297 295C1294.73 299.576 1292.9 301.793 1286 303.5C1295.77 308.983 1301.42 313.904 1294 324C1286.58 334.096 1274 316 1273.5 317C1272.93 330.793 1261.98 347.344 1247.5 330C1233.02 312.656 1265.5 309.5 1268.5 311C1255.48 301.037 1250.31 294.95 1250 282C1253.8 274.116 1261 263 1264 266C1267 269 1255 283.5 1249 284.5C1243 285.5 1230 266.5 1241.5 257.5C1253 248.5 1257 253 1257 255.5C1257 258 1242 262.5 1239.5 258.5C1237 254.5 1245 237 1262 243.5C1257.8 233.653 1259.97 231.201 1270 231C1272.09 220.504 1275.95 220.257 1286.5 227.5C1290 211.281 1308.08 226.144 1312 232.5C1315.92 238.856 1320.28 243.091 1319.5 252.5C1311.3 264.673 1300.5 274 1298.5 272.5C1296.5 271 1310.5 256.5 1315.5 253.5C1320.5 250.5 1328.5 262 1329.5 268.5C1331.11 283.074 1333.3 283.091 1339.5 269C1348.28 243.344 1350.5 254.5 1346.5 270C1342.5 285.5 1341.95 295.141 1338.5 308C1328.73 308.61 1325.31 311.51 1327.5 327C1318.36 340.686 1327.27 340.199 1342 340C1309.57 372.307 1360.5 378 1355 341.5C1357.5 343.9 1359.1 343.695 1362 343C1361.47 358.057 1370 367.5 1376.5 347C1376.51 335.235 1366.48 324.094 1347 303.5C1340.38 297.559 1350.5 282 1368.5 273.5C1369.98 288.095 1380 292.5 1385.5 290C1378.34 280.479 1375.72 274.779 1371.5 264.5C1386.52 267.565 1393.5 243.5 1393.5 235.5C1403.04 251.965 1409.96 257.712 1427 257.5C1424.96 281.139 1428.85 290.35 1450.5 295L1455.5 305.5C1439.14 303.917 1430.03 302.875 1415.5 296.5C1411.29 290.143 1406.15 288.547 1393 288.5C1398.82 290.549 1401.7 291.733 1405 294C1401.3 300.072 1400.23 302.654 1400.5 305.5C1401.37 308.422 1403.15 308.964 1408 308.5C1413.05 307.849 1415.86 307.46 1421 307C1431.14 315.394 1434.5 311.5 1456.5 310C1465.2 329.667 1495 358.5 1490 352.5C1485 346.5 1467.5 327.651 1464 305.5C1461.63 292.652 1476.5 272.5 1486.5 268C1496.5 263.5 1496.5 264 1496.5 264C1515.06 259.751 1524 263 1523.5 267C1523 271 1503.55 271.144 1494.5 262C1492.2 258.731 1491.59 256.972 1492 254C1494.49 240.492 1505.5 232.5 1509.5 234.5C1513.5 236.5 1498.5 253.5 1489 258.5C1479.5 263.5 1475.76 264.379 1472.5 263C1466.08 257.495 1476.5 236.5 1480.5 237.5C1484.5 238.5 1481.5 252.5 1471.5 266C1461.5 279.5 1450.07 285.887 1447 281C1441.5 271 1453.5 248 1459.5 250C1465.5 252 1451 281.5 1441.5 275.5C1428.13 269.26 1436 253.5 1446.5 244C1425.56 253.418 1401.5 255.5 1383 244C1372.88 259.353 1354 252.5 1348 228C1336.28 231.747 1313.5 229 1312 213C1292.79 222.944 1298.87 210.949 1308 201C1283.14 195.531 1282.5 180.5 1304 179C1306.36 161.324 1318 154 1331.5 166.5C1350.33 183.248 1350.85 188.491 1337.5 196C1324.15 203.509 1328.5 176.5 1335 163.5C1341.5 150.5 1358 145 1371.5 150.5C1364.81 131.355 1372.5 125 1389 122.5C1398.38 99.1244 1411.5 85 1426 80.5C1440.5 76 1471 80.5 1471 97.5C1463.17 108.321 1455.8 104.015 1444 101C1436.11 96.6195 1436 92.5 1441 89.5C1446 86.5 1449 96 1439 107.5C1429 119 1429 120.5 1429 124C1429 127.5 1435.72 128.138 1443 127.5C1427.86 147.256 1441 159.5 1461.5 158.5C1419.02 176.491 1433 195 1460.5 186C1466.84 182.164 1468.67 179.659 1471 175C1476.89 200.021 1509.5 204 1517.5 175C1517.1 157.626 1513 149.441 1508 152.5C1503 155.559 1514.5 176 1522 177.5C1529.5 179 1529.3 172.973 1533 162C1536.68 142.632 1536.64 125.374 1535 117C1522.46 124.063 1507 118.5 1500 101C1466.28 132.685 1427.22 109.753 1473 60C1494.13 41.2417 1546.5 42 1573 57.5C1577.52 49.5734 1580.32 46.233 1586.5 45.5C1594.46 44.6519 1607.5 48 1610.5 50C1613.5 52 1620 47.5 1627 50.5C1638 56.0332 1642.69 57.2912 1649 57C1653.31 57.0626 1668.5 51 1680.5 49C1692.5 47 1704.5 72 1681.5 74C1652.27 67.54 1642.2 68.7155 1637 80.5L1635 93.5C1624.7 92.0456 1614 98.5 1622 112.5C1609.75 125.611 1603.2 133.142 1598.5 150.5C1587.97 145.293 1582.91 150.273 1574.5 163.5C1557.48 150.405 1551.13 156.637 1539.5 166.5C1545.82 140.32 1548 123 1539.5 104.5C1553.21 101.116 1557.39 90.1286 1559 72.5C1566.82 89.5727 1599.52 91.9939 1605 82.5C1615.69 69.0054 1613 62.5 1606 62.5C1599 62.5 1587.5 78.5 1607.5 83.5C1622.16 88.5862 1649 82.5 1651.5 75.5C1662.83 86.0418 1672.67 94.7553 1681 90C1689.33 85.2447 1721.5 65.5 1710 97C1723.01 81.2676 1739 95 1747 113C1750.58 98.6466 1753.5 93.0959 1766 103C1779.6 93.6194 1794 99 1799 118C1813.14 116.175 1818.73 118.644 1824 130C1845 136 1847.5 168.5 1820 163.5C1810.29 161.261 1807.51 158.717 1805 153C1800.85 141.91 1809 137 1813.5 140.5C1818 144 1815 155 1799 155C1773.38 156.355 1767.11 160.482 1757.5 168.5C1746.85 178.098 1744 192 1750 193.5C1756 195 1760.5 182.5 1757.5 166C1754.5 149.5 1757.5 142 1761 137C1764.73 150.224 1775.5 153.5 1791 149C1771.58 143.981 1766.62 138.417 1761 127C1751.08 137.715 1745.21 143.434 1732 151C1718.49 155.408 1703.5 156.5 1702.5 152.5C1701.5 148.5 1723.5 146.5 1732 149.5C1740.5 152.5 1743.5 158.5 1738.5 168C1720.06 195.506 1684.5 200 1663.5 162.5C1657.28 143.503 1663 127 1668 127C1673 127 1671 160.5 1660 167.5C1649 174.5 1637.86 171.647 1621.5 164C1607.39 188.531 1589 197.5 1569.5 181.5C1567.87 190.816 1553 204 1538 199.5C1546.44 206.809 1550.5 216 1544 229C1582.57 220.684 1605 231 1584 253.5L1587.5 256C1610.9 238.422 1632.5 230.5 1642 231C1651.5 231.5 1650.5 235 1655.5 235C1666.55 241.302 1676.5 240 1678 235C1679.5 230 1661.53 223.238 1654 236C1646.47 248.762 1639.5 245.5 1630.5 243C1610.94 235.784 1606.88 239.891 1602 250C1600.98 258.033 1620 268 1640 276C1645.62 279.549 1648 285.5 1646.5 295.5C1656 293.733 1662 294.5 1669 299.5C1670.59 288.608 1673.51 283.018 1680.5 273.5C1674.1 264.445 1674.5 256.5 1678 252C1686.48 252.897 1689.48 250.446 1693 243C1676.56 228.562 1674 211.5 1679 199.5C1670.41 197.767 1666.6 195.655 1658 184C1638.37 201.39 1619 212 1612 203C1605 194 1626.5 178.5 1638 176.5C1645.49 189.414 1664 208.5 1684.5 208C1682.11 224.926 1685.38 231.904 1701 239C1698.94 247.406 1698.03 252.141 1685 259.5C1687.91 262.047 1688.95 264.004 1688 270C1711.12 251.567 1708 234.986 1706 218C1715.42 214.917 1719 205.5 1721 196C1728.11 194.505 1730.76 192.342 1735.5 188.5C1735.1 191.892 1727.5 199.5 1724 200.5C1726.09 207.587 1721 222 1712 225.5C1716.34 253.003 1704.6 260.674 1688.5 277C1708.91 286.461 1732.5 282 1742 259.5C1725.03 259.881 1719.5 241.5 1744 236C1765.03 231.512 1774 242.5 1780 251C1794.84 245.206 1814 250.5 1814 265.5C1814 280.5 1791 290 1779 287C1762.35 285.318 1749.5 276.5 1752 272.5C1754.5 268.5 1798 279 1779 289.5C1752.82 300.321 1718.5 304.5 1717 297.5C1715.5 290.5 1745.5 276 1766.5 295C1779.81 306.146 1801.5 317 1810.5 309C1790.6 307.846 1804 287 1829 269.5C1832.52 268.982 1832.72 267.414 1831.5 263.5C1838.03 263.458 1840.62 260.331 1845.5 255.5C1880.28 259.819 1909 264.5 1928.5 253.5C1942.83 258.028 1948.79 259.992 1964 275.5C1974.46 278.403 1979.91 278.192 1987 277.5C1994.97 270.328 1992.5 255 1987 250.5C2004.27 236.227 1984 212 1966.5 216.5C1944.48 187.988 1926.88 227.152 1936 236.5C1959.38 240.418 1968 247 1969.5 268.5C1987.03 246.257 1964 222 1940 235C1925.28 251.748 1918.92 255.239 1909.5 255.5C1901.54 254.273 1894 240.5 1903 232C1905.75 239.028 1908.87 241.74 1916.5 245C1896.15 249.534 1888.2 200.845 1911.5 204C1934.8 207.155 1931.11 231.297 1902 248C1887.62 248.823 1845.5 247 1839 246C1832.5 245 1812 232.5 1803 217.5C1792.18 199.161 1787.5 193.5 1798.5 188C1821.27 180.247 1823.5 186.5 1833.5 183.5C1843.5 180.5 1867 184 1852 209C1876.48 198.251 1893.5 206 1871.5 225C1856.58 234.568 1822.5 229.5 1805 217.5C1792.18 210.346 1787.91 205.986 1782 198C1791.78 204.359 1796.67 206.097 1804.5 206.5C1798.72 231.999 1815 240 1837 251C1803.8 263.876 1817.5 267.5 1861 276C1865.5 277.5 1864.5 286 1872.5 289C1925.13 301.222 1930 318 1878 317.5C1857.28 317.092 1848.91 317.447 1839.5 319C1877.15 324.742 1881 334 1839.5 350.5C1854.06 359.736 1847.5 371.5 1822 370.5C1806.88 369.773 1798.47 366.597 1783.5 356C1791.81 375.17 1771 378 1737.5 370C1715.99 361.52 1707.23 360.104 1693.5 359.5C1706.87 334.928 1730 329 1752 309.5C1720.94 323.404 1687 347.5 1702 312L1709 291.5C1701.64 299.747 1684.5 298.5 1684.5 285.5C1679.52 300.569 1676.53 307.931 1671 320C1662.84 331.138 1656.98 336.499 1645 345C1630.22 357.856 1628 384 1660.5 371.5C1676.81 361.887 1679.53 355.009 1685.5 343C1675.83 343.762 1668.5 340.5 1667.5 335C1675.54 338.114 1684 338 1692 338C1686.17 353.788 1687.7 357.063 1689.5 364C1709.13 367.218 1722 372 1724 383C1744.75 379.299 1759.5 379.5 1773.5 382.5C1787.08 386.794 1793 393.5 1796 403C1807.54 401.901 1818 406 1819.5 412.5C1820.84 417.603 1814.93 419.3 1802.5 422C1819.73 422.912 1827.34 425.988 1832.5 442C1842.45 431.718 1849.04 430.307 1862 433C1883.54 440.877 1893 451.5 1893.5 461C1887.59 458.641 1883.97 458.938 1877.5 459.5C1874.94 461.104 1882.44 464.284 1896 470C1918.14 482.027 1921 501.5 1896.5 507.5C1873.42 510.347 1859 506.5 1849 489C1839 471.5 1879.5 471.5 1881 478C1882.5 484.5 1860.07 489.48 1839.5 490.5C1798.93 494.248 1773.5 491.5 1763.5 474C1757.3 457.456 1765 451.5 1775.5 446.5C1786 441.5 1816.5 446 1805.5 459.5C1794.5 473 1780 459.5 1774.5 444C1769.43 429.26 1758 423 1740 420.5C1724.2 437.656 1698.5 440.5 1679 421.5C1663.94 431.178 1634.5 432 1627 416.5C1621.54 404.566 1633.5 394 1642 388.5C1659.23 379.897 1669.04 375.888 1686.5 368.5C1673.78 390.54 1690 394 1713.5 388C1716.48 387.256 1718.5 387 1712.5 392.5C1706.5 398 1648.95 396.591 1629 415C1622.65 420.871 1618 434.5 1621.5 440C1626.33 449.44 1660 445.5 1688.5 439C1699.87 448.136 1718 447.5 1723.5 446.5C1729 445.5 1755 463 1735 472C1746.31 475.909 1787 499 1772.5 510.5C1762.71 516.581 1748.5 517.5 1742.5 506.5C1736.11 499.124 1735.5 492.5 1739.5 491.5C1743.5 490.5 1749.5 501.5 1740.5 506.5C1722.8 514.064 1719.5 514 1713.5 513C1707.5 512 1722.5 484.5 1724.5 485.5C1726.5 486.5 1724.74 503.569 1712 508C1700.19 507.308 1695.07 506.855 1688.5 506C1675.36 506.834 1667.5 510 1669.5 514.5C1671.5 519 1685.39 512.121 1691 502.5C1691.22 502.115 1697.5 489.5 1697.5 489.5C1702.11 492.184 1706 494 1710 494C1714 494 1700.5 488 1693 479C1668.44 497.004 1657.5 489.5 1649 481C1662.92 480.956 1670 469 1674.5 458.5C1678.39 452.036 1681.51 449.722 1687 445.5C1680.26 447.663 1677.29 447.839 1672.5 447.5C1666.13 461.782 1660.16 467.926 1644.5 475C1623.43 487.885 1610.18 497.192 1609.5 480.5C1609.5 480.5 1614.5 442.5 1613 434.5C1611.5 426.5 1591 426.5 1584 444.5C1574.58 470.436 1594.5 469 1610 458L1620 450.5C1630.38 454.948 1644.5 455 1662 451.5C1627.03 465.235 1611.03 472.973 1604.5 487C1602.13 496.779 1603.61 502.601 1614.5 514C1588.95 530.007 1584.05 541.514 1584.5 564.5L1596.5 671.5C1612.2 720.391 1623.75 734.782 1648.5 740.5C1723.59 760.172 1845 749.5 1998 740.5" stroke="black"/>
</svg>
