<svg id='pointi_svg' width="446" height="102" viewBox="0 0 446 102" fill="none" xmlns="http://www.w3.org/2000/svg">
<mask id="path-1-outside-1_1_11" maskUnits="userSpaceOnUse" x="0.869995" y="0.0319824" width="445" height="101" fill="black">
<rect fill="white" x="0.869995" y="0.0319824" width="445" height="101"/>
<path d="M60.294 13.44C63.5367 16.4266 65.926 20.0106 67.462 24.192C68.998 28.288 69.5953 32.384 69.254 36.48C68.9127 40.4053 67.6753 44.032 65.542 47.36C63.4087 50.6027 60.166 53.0773 55.814 54.784C52.4007 56.2346 49.03 57.2587 45.702 57.856C42.374 58.4533 38.7047 58.9227 34.694 59.264C32.902 59.4346 31.366 59.5626 30.086 59.648C28.8913 59.648 27.4833 59.6907 25.862 59.776C25.5207 59.776 24.9233 59.776 24.07 59.776C23.302 59.776 22.7473 59.8186 22.406 59.904V86.4C22.15 88.0213 21.8087 89.6853 21.382 91.392C21.0407 93.0986 20.0593 94.4213 18.438 95.36C17.4993 95.872 16.3473 96.1706 14.982 96.256C13.6167 96.3413 12.3793 96.2986 11.27 96.128C10.0753 95.9573 9.05133 95.6587 8.19799 95.232C7.42999 94.72 6.79 93.8666 6.278 92.672C5.93666 91.904 5.59533 91.0507 5.254 90.112C4.998 89.088 4.87 87.8507 4.87 86.4V15.616C4.87 15.0186 4.91266 14.464 4.998 13.952C5.08333 13.44 5.16866 12.928 5.254 12.416C5.42466 11.9893 5.55266 11.52 5.638 11.008C5.72333 10.496 5.85133 10.0266 6.022 9.59998C6.19266 9.17332 6.36333 8.78932 6.534 8.44798C6.79 8.10665 7.08866 7.80798 7.43 7.55198C7.85666 7.12531 8.49666 6.74131 9.34999 6.39998C10.2887 6.05864 11.654 5.88798 13.446 5.88798H13.702C16.3473 5.71731 19.2913 5.58931 22.534 5.50398C25.7767 5.33331 28.4647 5.37598 30.598 5.63198C31.7927 5.80265 32.902 5.93065 33.926 6.01598C34.95 6.01598 35.9313 6.05865 36.87 6.14398C37.894 6.22931 38.918 6.31465 39.942 6.39998C40.966 6.48531 41.99 6.61331 43.014 6.78398C43.8673 6.95465 44.6353 7.08265 45.318 7.16798C46.086 7.25332 46.854 7.38131 47.622 7.55198C48.3047 7.72265 49.03 7.89332 49.798 8.06398C50.6513 8.23464 51.4193 8.53331 52.102 8.95998C53.894 9.47198 55.3873 10.112 56.582 10.88C57.7767 11.648 59.014 12.5013 60.294 13.44ZM52.614 34.56C52.6993 32.512 52.2727 30.72 51.334 29.184C50.4807 27.648 49.2433 26.368 47.622 25.344C46.0007 24.32 44.166 23.5093 42.118 22.912C40.07 22.3146 38.022 21.888 35.974 21.632C35.462 21.632 34.7367 21.632 33.798 21.632C32.9447 21.5466 32.006 21.504 30.982 21.504C29.958 21.4187 28.9767 21.376 28.038 21.376C27.1847 21.2906 26.502 21.248 25.99 21.248C25.5633 21.1626 25.0513 21.12 24.454 21.12C23.8567 21.12 23.174 21.12 22.406 21.12C22.4913 23.7653 22.534 26.3253 22.534 28.8C22.534 31.1893 22.534 33.792 22.534 36.608C22.4487 38.144 22.406 39.68 22.406 41.216C22.406 42.752 22.406 44.2453 22.406 45.696L30.342 45.568C32.39 45.568 34.6513 45.44 37.126 45.184C39.6007 44.928 41.9473 44.416 44.166 43.648C46.3847 42.88 48.262 41.7706 49.798 40.32C51.4193 38.8693 52.358 36.9493 52.614 34.56Z"/>
<path d="M102.401 8.44798C108.118 6.31465 113.281 5.37598 117.889 5.63198C122.582 5.88798 126.764 7.08265 130.433 9.21598C134.102 11.264 137.217 14.0373 139.777 17.536C142.422 21.0346 144.556 24.96 146.177 29.312C147.457 32.5546 148.438 35.968 149.121 39.552C149.804 43.136 150.188 46.72 150.273 50.304C150.444 53.8027 150.316 57.2586 149.889 60.672C149.548 64.0853 148.95 67.2426 148.097 70.144C147.585 72.1066 146.988 73.8986 146.305 75.52C145.622 77.1413 144.812 78.7627 143.873 80.384C141.74 84.0533 138.966 87.04 135.553 89.344C132.225 91.648 128.556 93.2693 124.545 94.208C121.814 94.8907 118.998 95.232 116.097 95.232C113.196 95.1467 110.337 94.7627 107.521 94.08C104.705 93.312 101.974 92.2453 99.329 90.88C96.769 89.4293 94.4223 87.6373 92.289 85.504C89.6437 82.944 87.4677 80 85.761 76.672C84.0543 73.2586 82.7317 69.7173 81.793 66.048C80.8543 62.2933 80.257 58.5386 80.001 54.784C79.745 51.0293 79.745 47.4453 80.001 44.032C80.257 40.8746 80.8543 37.504 81.793 33.92C82.817 30.336 84.2677 26.88 86.145 23.552C88.0223 20.224 90.2837 17.2373 92.929 14.592C95.6597 11.8613 98.817 9.81331 102.401 8.44798ZM132.353 63.232C133.377 59.2213 133.804 54.6987 133.633 49.664C133.462 44.6293 132.652 39.8933 131.201 35.456C130.262 32.7253 129.068 30.336 127.617 28.288C126.252 26.1546 124.588 24.5333 122.625 23.424C120.748 22.3146 118.529 21.76 115.969 21.76C113.409 21.76 110.55 22.528 107.393 24.064C105.516 25.0026 103.894 26.2827 102.529 27.904C101.249 29.5253 100.182 31.36 99.329 33.408C98.561 35.456 97.921 37.5893 97.409 39.808C96.9823 42.0266 96.7263 44.16 96.641 46.208C96.4703 48.4266 96.4277 50.7733 96.513 53.248C96.5983 55.6373 96.8543 58.0693 97.281 60.544C97.793 62.9333 98.4757 65.2373 99.329 67.456C100.182 69.5893 101.334 71.5093 102.785 73.216C105.004 75.776 107.564 77.568 110.465 78.592C113.452 79.5306 116.396 79.6586 119.297 78.976C123.99 77.952 127.574 74.8373 130.049 69.632C131.073 67.7546 131.841 65.6213 132.353 63.232Z"/>
<path d="M164.713 82.432L164.841 72.32L164.969 53.504C165.054 50.7733 165.097 47.9573 165.097 45.056C165.097 42.1547 165.097 39.168 165.097 36.096C165.097 33.024 165.097 30.2933 165.097 27.904C165.097 25.5147 165.182 22.8266 165.353 19.84V19.328C165.438 18.4746 165.481 17.6213 165.481 16.768C165.566 15.8293 165.609 14.8906 165.609 13.952C165.694 12.416 166.164 10.752 167.017 8.95998C167.614 7.76532 168.51 6.74132 169.705 5.88798C171.07 5.20531 172.393 4.86398 173.673 4.86398C174.356 4.86398 174.953 4.90665 175.465 4.99198C176.062 4.99198 176.617 5.03465 177.129 5.11998C178.238 5.29065 179.22 5.80265 180.073 6.65598C180.585 7.08265 181.054 7.76531 181.481 8.70398C181.652 9.21598 181.78 9.72798 181.865 10.24C182.036 10.6666 182.164 11.136 182.249 11.648C182.334 12.2453 182.377 12.8 182.377 13.312C182.462 13.824 182.505 14.336 182.505 14.848C182.505 15.4453 182.462 16 182.377 16.512C182.377 16.9386 182.377 17.408 182.377 17.92V20.096L181.609 86.528V87.808C181.609 88.064 181.566 88.4053 181.481 88.832C181.481 89.1733 181.438 89.6 181.353 90.112C181.182 90.5387 181.012 91.008 180.841 91.52C180.756 91.9466 180.628 92.416 180.457 92.928C180.201 93.3547 179.902 93.7813 179.561 94.208C179.305 94.5493 178.964 94.8907 178.537 95.232C177.854 95.9147 176.745 96.384 175.209 96.64C172.905 97.152 170.729 96.9387 168.681 96C167.657 95.3173 166.932 94.464 166.505 93.44C166.249 93.184 166.121 92.928 166.121 92.672C166.036 92.5013 165.95 92.3733 165.865 92.288C165.78 92.2027 165.694 92.0747 165.609 91.904C165.438 91.4773 165.31 91.0507 165.225 90.624C165.14 90.112 165.097 89.6 165.097 89.088C165.012 88.6613 164.926 88.2346 164.841 87.808C164.841 87.3813 164.798 86.9547 164.713 86.528C164.628 85.8453 164.628 85.12 164.713 84.352V82.432Z"/>
<path d="M266.252 86.272C266.167 87.7227 265.953 89.2586 265.612 90.88C265.356 92.5013 264.545 93.824 263.18 94.848C262.156 95.7013 261.004 96.2133 259.724 96.384C258.444 96.5547 257.164 96.4693 255.884 96.128C254.689 95.872 253.537 95.4453 252.428 94.848C251.319 94.1653 250.423 93.3547 249.74 92.416C246.839 88.832 244.151 85.1626 241.676 81.408C239.287 77.568 236.855 73.728 234.38 69.888L223.628 53.632C222.177 51.328 220.641 48.768 219.02 45.952C217.399 43.0506 215.735 40.3626 214.028 37.888L213.644 86.784V87.936C213.644 89.3013 213.388 90.6666 212.876 92.032C212.449 93.312 211.681 94.4213 210.572 95.36C209.719 96.0427 208.609 96.512 207.244 96.768C205.111 97.1946 203.319 97.0667 201.868 96.384C200.503 95.7013 199.393 94.7627 198.54 93.568C197.772 92.3733 197.217 91.008 196.876 89.472C196.62 87.8507 196.577 86.272 196.748 84.736V82.56L197.004 72.576L197.132 54.016C197.217 51.2853 197.26 48.512 197.26 45.696C197.26 42.7946 197.26 39.8506 197.26 36.864C197.175 33.1947 197.175 29.312 197.26 25.216C197.431 21.12 197.601 17.28 197.772 13.696C197.943 11.7333 198.412 10.0693 199.18 8.70398C199.521 7.50931 200.417 6.48531 201.868 5.63198C202.807 5.03465 204.001 4.65064 205.452 4.47998C206.988 4.30932 208.311 4.35198 209.42 4.60798C209.847 4.77865 210.273 4.99198 210.7 5.24798C211.127 5.41865 211.553 5.63198 211.98 5.88798C212.407 6.22931 212.791 6.57065 213.132 6.91198C213.559 7.25331 213.943 7.63731 214.284 8.06398C214.711 8.49065 215.095 8.95998 215.436 9.47198C215.777 9.89865 216.119 10.3253 216.46 10.752C216.716 11.264 216.972 11.7333 217.228 12.16C217.484 12.5866 217.783 13.0133 218.124 13.44L219.532 15.488L249.1 62.08V53.632C249.1 50.9013 249.057 48.128 248.972 45.312C248.972 42.4106 248.929 39.424 248.844 36.352C248.844 32.768 248.844 28.928 248.844 24.832C248.929 20.736 249.057 16.896 249.228 13.312C249.228 11.8613 249.655 10.1973 250.508 8.31998C250.935 7.21065 251.66 6.31465 252.684 5.63198C253.708 4.94931 254.86 4.47998 256.14 4.22398C257.42 3.96798 258.7 3.96798 259.98 4.22398C261.26 4.47998 262.369 4.99198 263.308 5.75998C263.564 6.01598 263.82 6.31465 264.076 6.65598C264.332 6.99732 264.545 7.38132 264.716 7.80798C265.143 8.91731 265.399 9.89865 265.484 10.752C265.74 11.9467 265.868 13.0133 265.868 13.952C265.868 24.6186 265.868 35.4986 265.868 46.592C265.953 57.6853 266.039 68.5653 266.124 79.232C266.124 80.4266 266.167 81.6213 266.252 82.816C266.337 83.9253 266.337 85.0773 266.252 86.272Z"/>
<path d="M347.276 9.34398C348.215 10.4533 348.684 11.6053 348.684 12.8C348.684 13.312 348.641 13.8666 348.556 14.464C348.556 14.976 348.513 15.4453 348.428 15.872C348.172 16.8106 347.617 17.7066 346.764 18.56C346.081 19.072 345.143 19.456 343.948 19.712C343.351 19.8826 342.753 20.0106 342.156 20.096C341.559 20.1813 340.919 20.3093 340.236 20.48C339.639 20.5653 339.041 20.608 338.444 20.608C337.847 20.608 337.207 20.608 336.524 20.608H329.996C328.46 20.6933 326.924 20.736 325.388 20.736C323.937 20.736 322.487 20.736 321.036 20.736C321.121 23.3813 321.164 26.24 321.164 29.312C321.164 32.2986 321.121 35.7973 321.036 39.808C321.036 43.8186 320.993 48.4693 320.908 53.76C320.908 59.0506 320.908 65.1947 320.908 72.192V81.92C320.908 82.7733 320.951 83.4133 321.036 83.84C321.036 84.1813 321.036 84.5226 321.036 84.864C321.036 85.12 320.993 85.4613 320.908 85.888C320.737 86.656 320.609 87.552 320.524 88.576C320.524 89.0026 320.481 89.4293 320.396 89.856C320.311 90.1973 320.183 90.5813 320.012 91.008C319.671 91.3493 319.5 91.6053 319.5 91.776L319.116 92.544C318.689 93.3973 317.879 94.208 316.684 94.976C314.807 95.9146 312.716 96.128 310.412 95.616C308.961 95.4453 307.852 95.0613 307.084 94.464C306.316 93.696 305.761 92.928 305.42 92.16C304.908 91.2213 304.609 90.3253 304.524 89.472C304.268 88.704 304.14 87.8933 304.14 87.04V21.248C303.628 21.248 302.561 21.248 300.94 21.248C299.319 21.248 297.569 21.248 295.692 21.248C293.9 21.1626 292.193 21.0773 290.572 20.992C288.951 20.9066 287.841 20.8213 287.244 20.736C286.732 20.6506 285.921 20.5226 284.812 20.352C283.788 20.1813 282.935 20.0106 282.252 19.84C280.46 19.328 279.052 18.5173 278.028 17.408C277.089 16.2986 276.62 15.0613 276.62 13.696C276.62 13.184 276.62 12.672 276.62 12.16C276.62 11.648 276.705 11.1786 276.876 10.752C277.132 9.72798 277.815 8.87465 278.924 8.19198C279.265 7.93598 279.777 7.63732 280.46 7.29598C281.228 6.86932 281.953 6.57065 282.636 6.39998C283.66 6.05864 284.94 5.80265 286.476 5.63198C287.159 5.54665 287.841 5.50398 288.524 5.50398C289.207 5.50398 289.932 5.50398 290.7 5.50398C293.687 5.50398 296.503 5.50398 299.148 5.50398C301.879 5.50398 304.737 5.46132 307.724 5.37598C312.673 5.29065 317.58 5.29065 322.444 5.37598C327.393 5.37598 332.3 5.46132 337.164 5.63198C338.273 5.71731 339.34 5.84531 340.364 6.01598C341.388 6.18665 342.412 6.48531 343.436 6.91198C344.204 7.16798 344.929 7.50932 345.612 7.93598C346.295 8.27732 346.849 8.74665 347.276 9.34398Z"/>
<path d="M399.574 36.224C401.025 35.8826 402.475 35.968 403.926 36.48C405.462 36.992 406.87 37.8453 408.15 39.04C408.747 39.6373 409.174 40.3626 409.43 41.216C409.771 42.0693 409.942 42.9653 409.942 43.904C409.942 44.928 409.771 46.0373 409.43 47.232C409.174 48.3413 408.79 49.1946 408.278 49.792C407.595 50.56 406.699 51.1573 405.59 51.584C404.481 52.0107 403.414 52.3093 402.39 52.48C401.366 52.5653 400.47 52.608 399.702 52.608C399.019 52.608 398.635 52.608 398.55 52.608L373.462 52.736C372.438 52.8213 371.371 52.9066 370.262 52.992C369.238 52.992 368.214 52.9493 367.19 52.864C366.166 52.6933 365.185 52.4373 364.246 52.096C363.393 51.6693 362.582 51.1146 361.814 50.432C360.875 49.4933 360.15 48.5973 359.638 47.744C359.126 46.8053 358.87 45.7386 358.87 44.544C358.87 43.0933 359.254 41.6853 360.022 40.32C360.875 38.8693 362.027 37.888 363.478 37.376C365.27 36.608 367.105 36.2666 368.982 36.352C370.945 36.352 372.907 36.3093 374.87 36.224H399.574Z"/>
<path d="M423.463 82.432L423.591 72.32L423.719 53.504C423.804 50.7733 423.847 47.9573 423.847 45.056C423.847 42.1547 423.847 39.168 423.847 36.096C423.847 33.024 423.847 30.2933 423.847 27.904C423.847 25.5147 423.932 22.8266 424.103 19.84V19.328C424.188 18.4746 424.231 17.6213 424.231 16.768C424.316 15.8293 424.359 14.8906 424.359 13.952C424.444 12.416 424.914 10.752 425.767 8.95998C426.364 7.76532 427.26 6.74132 428.455 5.88798C429.82 5.20531 431.143 4.86398 432.423 4.86398C433.106 4.86398 433.703 4.90665 434.215 4.99198C434.812 4.99198 435.367 5.03465 435.879 5.11998C436.988 5.29065 437.97 5.80265 438.823 6.65598C439.335 7.08265 439.804 7.76531 440.231 8.70398C440.402 9.21598 440.53 9.72798 440.615 10.24C440.786 10.6666 440.914 11.136 440.999 11.648C441.084 12.2453 441.127 12.8 441.127 13.312C441.212 13.824 441.255 14.336 441.255 14.848C441.255 15.4453 441.212 16 441.127 16.512C441.127 16.9386 441.127 17.408 441.127 17.92V20.096L440.359 86.528V87.808C440.359 88.064 440.316 88.4053 440.231 88.832C440.231 89.1733 440.188 89.6 440.103 90.112C439.932 90.5387 439.762 91.008 439.591 91.52C439.506 91.9466 439.378 92.416 439.207 92.928C438.951 93.3547 438.652 93.7813 438.311 94.208C438.055 94.5493 437.714 94.8907 437.287 95.232C436.604 95.9147 435.495 96.384 433.959 96.64C431.655 97.152 429.479 96.9387 427.431 96C426.407 95.3173 425.682 94.464 425.255 93.44C424.999 93.184 424.871 92.928 424.871 92.672C424.786 92.5013 424.7 92.3733 424.615 92.288C424.53 92.2027 424.444 92.0747 424.359 91.904C424.188 91.4773 424.06 91.0507 423.975 90.624C423.89 90.112 423.847 89.6 423.847 89.088C423.762 88.6613 423.676 88.2346 423.591 87.808C423.591 87.3813 423.548 86.9547 423.463 86.528C423.378 85.8453 423.378 85.12 423.463 84.352V82.432Z"/>
</mask>
<path class="1" d="M60.294 13.44C63.5367 16.4266 65.926 20.0106 67.462 24.192C68.998 28.288 69.5953 32.384 69.254 36.48C68.9127 40.4053 67.6753 44.032 65.542 47.36C63.4087 50.6027 60.166 53.0773 55.814 54.784C52.4007 56.2346 49.03 57.2587 45.702 57.856C42.374 58.4533 38.7047 58.9227 34.694 59.264C32.902 59.4346 31.366 59.5626 30.086 59.648C28.8913 59.648 27.4833 59.6907 25.862 59.776C25.5207 59.776 24.9233 59.776 24.07 59.776C23.302 59.776 22.7473 59.8186 22.406 59.904V86.4C22.15 88.0213 21.8087 89.6853 21.382 91.392C21.0407 93.0986 20.0593 94.4213 18.438 95.36C17.4993 95.872 16.3473 96.1706 14.982 96.256C13.6167 96.3413 12.3793 96.2986 11.27 96.128C10.0753 95.9573 9.05133 95.6587 8.19799 95.232C7.42999 94.72 6.79 93.8666 6.278 92.672C5.93666 91.904 5.59533 91.0507 5.254 90.112C4.998 89.088 4.87 87.8507 4.87 86.4V15.616C4.87 15.0186 4.91266 14.464 4.998 13.952C5.08333 13.44 5.16866 12.928 5.254 12.416C5.42466 11.9893 5.55266 11.52 5.638 11.008C5.72333 10.496 5.85133 10.0266 6.022 9.59998C6.19266 9.17332 6.36333 8.78932 6.534 8.44798C6.79 8.10665 7.08866 7.80798 7.43 7.55198C7.85666 7.12531 8.49666 6.74131 9.34999 6.39998C10.2887 6.05864 11.654 5.88798 13.446 5.88798H13.702C16.3473 5.71731 19.2913 5.58931 22.534 5.50398C25.7767 5.33331 28.4647 5.37598 30.598 5.63198C31.7927 5.80265 32.902 5.93065 33.926 6.01598C34.95 6.01598 35.9313 6.05865 36.87 6.14398C37.894 6.22931 38.918 6.31465 39.942 6.39998C40.966 6.48531 41.99 6.61331 43.014 6.78398C43.8673 6.95465 44.6353 7.08265 45.318 7.16798C46.086 7.25332 46.854 7.38131 47.622 7.55198C48.3047 7.72265 49.03 7.89332 49.798 8.06398C50.6513 8.23464 51.4193 8.53331 52.102 8.95998C53.894 9.47198 55.3873 10.112 56.582 10.88C57.7767 11.648 59.014 12.5013 60.294 13.44ZM52.614 34.56C52.6993 32.512 52.2727 30.72 51.334 29.184C50.4807 27.648 49.2433 26.368 47.622 25.344C46.0007 24.32 44.166 23.5093 42.118 22.912C40.07 22.3146 38.022 21.888 35.974 21.632C35.462 21.632 34.7367 21.632 33.798 21.632C32.9447 21.5466 32.006 21.504 30.982 21.504C29.958 21.4187 28.9767 21.376 28.038 21.376C27.1847 21.2906 26.502 21.248 25.99 21.248C25.5633 21.1626 25.0513 21.12 24.454 21.12C23.8567 21.12 23.174 21.12 22.406 21.12C22.4913 23.7653 22.534 26.3253 22.534 28.8C22.534 31.1893 22.534 33.792 22.534 36.608C22.4487 38.144 22.406 39.68 22.406 41.216C22.406 42.752 22.406 44.2453 22.406 45.696L30.342 45.568C32.39 45.568 34.6513 45.44 37.126 45.184C39.6007 44.928 41.9473 44.416 44.166 43.648C46.3847 42.88 48.262 41.7706 49.798 40.32C51.4193 38.8693 52.358 36.9493 52.614 34.56Z" stroke="black" stroke-width="8" mask="url(#path-1-outside-1_1_11)"/>
<path class="2" d="M102.401 8.44798C108.118 6.31465 113.281 5.37598 117.889 5.63198C122.582 5.88798 126.764 7.08265 130.433 9.21598C134.102 11.264 137.217 14.0373 139.777 17.536C142.422 21.0346 144.556 24.96 146.177 29.312C147.457 32.5546 148.438 35.968 149.121 39.552C149.804 43.136 150.188 46.72 150.273 50.304C150.444 53.8027 150.316 57.2586 149.889 60.672C149.548 64.0853 148.95 67.2426 148.097 70.144C147.585 72.1066 146.988 73.8986 146.305 75.52C145.622 77.1413 144.812 78.7627 143.873 80.384C141.74 84.0533 138.966 87.04 135.553 89.344C132.225 91.648 128.556 93.2693 124.545 94.208C121.814 94.8907 118.998 95.232 116.097 95.232C113.196 95.1467 110.337 94.7627 107.521 94.08C104.705 93.312 101.974 92.2453 99.329 90.88C96.769 89.4293 94.4223 87.6373 92.289 85.504C89.6437 82.944 87.4677 80 85.761 76.672C84.0543 73.2586 82.7317 69.7173 81.793 66.048C80.8543 62.2933 80.257 58.5386 80.001 54.784C79.745 51.0293 79.745 47.4453 80.001 44.032C80.257 40.8746 80.8543 37.504 81.793 33.92C82.817 30.336 84.2677 26.88 86.145 23.552C88.0223 20.224 90.2837 17.2373 92.929 14.592C95.6597 11.8613 98.817 9.81331 102.401 8.44798ZM132.353 63.232C133.377 59.2213 133.804 54.6987 133.633 49.664C133.462 44.6293 132.652 39.8933 131.201 35.456C130.262 32.7253 129.068 30.336 127.617 28.288C126.252 26.1546 124.588 24.5333 122.625 23.424C120.748 22.3146 118.529 21.76 115.969 21.76C113.409 21.76 110.55 22.528 107.393 24.064C105.516 25.0026 103.894 26.2827 102.529 27.904C101.249 29.5253 100.182 31.36 99.329 33.408C98.561 35.456 97.921 37.5893 97.409 39.808C96.9823 42.0266 96.7263 44.16 96.641 46.208C96.4703 48.4266 96.4277 50.7733 96.513 53.248C96.5983 55.6373 96.8543 58.0693 97.281 60.544C97.793 62.9333 98.4757 65.2373 99.329 67.456C100.182 69.5893 101.334 71.5093 102.785 73.216C105.004 75.776 107.564 77.568 110.465 78.592C113.452 79.5306 116.396 79.6586 119.297 78.976C123.99 77.952 127.574 74.8373 130.049 69.632C131.073 67.7546 131.841 65.6213 132.353 63.232Z" stroke="black" stroke-width="8" mask="url(#path-1-outside-1_1_11)"/>
<path class="3" d="M164.713 82.432L164.841 72.32L164.969 53.504C165.054 50.7733 165.097 47.9573 165.097 45.056C165.097 42.1547 165.097 39.168 165.097 36.096C165.097 33.024 165.097 30.2933 165.097 27.904C165.097 25.5147 165.182 22.8266 165.353 19.84V19.328C165.438 18.4746 165.481 17.6213 165.481 16.768C165.566 15.8293 165.609 14.8906 165.609 13.952C165.694 12.416 166.164 10.752 167.017 8.95998C167.614 7.76532 168.51 6.74132 169.705 5.88798C171.07 5.20531 172.393 4.86398 173.673 4.86398C174.356 4.86398 174.953 4.90665 175.465 4.99198C176.062 4.99198 176.617 5.03465 177.129 5.11998C178.238 5.29065 179.22 5.80265 180.073 6.65598C180.585 7.08265 181.054 7.76531 181.481 8.70398C181.652 9.21598 181.78 9.72798 181.865 10.24C182.036 10.6666 182.164 11.136 182.249 11.648C182.334 12.2453 182.377 12.8 182.377 13.312C182.462 13.824 182.505 14.336 182.505 14.848C182.505 15.4453 182.462 16 182.377 16.512C182.377 16.9386 182.377 17.408 182.377 17.92V20.096L181.609 86.528V87.808C181.609 88.064 181.566 88.4053 181.481 88.832C181.481 89.1733 181.438 89.6 181.353 90.112C181.182 90.5387 181.012 91.008 180.841 91.52C180.756 91.9466 180.628 92.416 180.457 92.928C180.201 93.3547 179.902 93.7813 179.561 94.208C179.305 94.5493 178.964 94.8907 178.537 95.232C177.854 95.9147 176.745 96.384 175.209 96.64C172.905 97.152 170.729 96.9387 168.681 96C167.657 95.3173 166.932 94.464 166.505 93.44C166.249 93.184 166.121 92.928 166.121 92.672C166.036 92.5013 165.95 92.3733 165.865 92.288C165.78 92.2027 165.694 92.0747 165.609 91.904C165.438 91.4773 165.31 91.0507 165.225 90.624C165.14 90.112 165.097 89.6 165.097 89.088C165.012 88.6613 164.926 88.2346 164.841 87.808C164.841 87.3813 164.798 86.9547 164.713 86.528C164.628 85.8453 164.628 85.12 164.713 84.352V82.432Z" stroke="black" stroke-width="8" mask="url(#path-1-outside-1_1_11)"/>
<path class="4" d="M266.252 86.272C266.167 87.7227 265.953 89.2586 265.612 90.88C265.356 92.5013 264.545 93.824 263.18 94.848C262.156 95.7013 261.004 96.2133 259.724 96.384C258.444 96.5547 257.164 96.4693 255.884 96.128C254.689 95.872 253.537 95.4453 252.428 94.848C251.319 94.1653 250.423 93.3547 249.74 92.416C246.839 88.832 244.151 85.1626 241.676 81.408C239.287 77.568 236.855 73.728 234.38 69.888L223.628 53.632C222.177 51.328 220.641 48.768 219.02 45.952C217.399 43.0506 215.735 40.3626 214.028 37.888L213.644 86.784V87.936C213.644 89.3013 213.388 90.6666 212.876 92.032C212.449 93.312 211.681 94.4213 210.572 95.36C209.719 96.0427 208.609 96.512 207.244 96.768C205.111 97.1946 203.319 97.0667 201.868 96.384C200.503 95.7013 199.393 94.7627 198.54 93.568C197.772 92.3733 197.217 91.008 196.876 89.472C196.62 87.8507 196.577 86.272 196.748 84.736V82.56L197.004 72.576L197.132 54.016C197.217 51.2853 197.26 48.512 197.26 45.696C197.26 42.7946 197.26 39.8506 197.26 36.864C197.175 33.1947 197.175 29.312 197.26 25.216C197.431 21.12 197.601 17.28 197.772 13.696C197.943 11.7333 198.412 10.0693 199.18 8.70398C199.521 7.50931 200.417 6.48531 201.868 5.63198C202.807 5.03465 204.001 4.65064 205.452 4.47998C206.988 4.30932 208.311 4.35198 209.42 4.60798C209.847 4.77865 210.273 4.99198 210.7 5.24798C211.127 5.41865 211.553 5.63198 211.98 5.88798C212.407 6.22931 212.791 6.57065 213.132 6.91198C213.559 7.25331 213.943 7.63731 214.284 8.06398C214.711 8.49065 215.095 8.95998 215.436 9.47198C215.777 9.89865 216.119 10.3253 216.46 10.752C216.716 11.264 216.972 11.7333 217.228 12.16C217.484 12.5866 217.783 13.0133 218.124 13.44L219.532 15.488L249.1 62.08V53.632C249.1 50.9013 249.057 48.128 248.972 45.312C248.972 42.4106 248.929 39.424 248.844 36.352C248.844 32.768 248.844 28.928 248.844 24.832C248.929 20.736 249.057 16.896 249.228 13.312C249.228 11.8613 249.655 10.1973 250.508 8.31998C250.935 7.21065 251.66 6.31465 252.684 5.63198C253.708 4.94931 254.86 4.47998 256.14 4.22398C257.42 3.96798 258.7 3.96798 259.98 4.22398C261.26 4.47998 262.369 4.99198 263.308 5.75998C263.564 6.01598 263.82 6.31465 264.076 6.65598C264.332 6.99732 264.545 7.38132 264.716 7.80798C265.143 8.91731 265.399 9.89865 265.484 10.752C265.74 11.9467 265.868 13.0133 265.868 13.952C265.868 24.6186 265.868 35.4986 265.868 46.592C265.953 57.6853 266.039 68.5653 266.124 79.232C266.124 80.4266 266.167 81.6213 266.252 82.816C266.337 83.9253 266.337 85.0773 266.252 86.272Z" stroke="black" stroke-width="8" mask="url(#path-1-outside-1_1_11)"/>
<path class="5" d="M347.276 9.34398C348.215 10.4533 348.684 11.6053 348.684 12.8C348.684 13.312 348.641 13.8666 348.556 14.464C348.556 14.976 348.513 15.4453 348.428 15.872C348.172 16.8106 347.617 17.7066 346.764 18.56C346.081 19.072 345.143 19.456 343.948 19.712C343.351 19.8826 342.753 20.0106 342.156 20.096C341.559 20.1813 340.919 20.3093 340.236 20.48C339.639 20.5653 339.041 20.608 338.444 20.608C337.847 20.608 337.207 20.608 336.524 20.608H329.996C328.46 20.6933 326.924 20.736 325.388 20.736C323.937 20.736 322.487 20.736 321.036 20.736C321.121 23.3813 321.164 26.24 321.164 29.312C321.164 32.2986 321.121 35.7973 321.036 39.808C321.036 43.8186 320.993 48.4693 320.908 53.76C320.908 59.0506 320.908 65.1947 320.908 72.192V81.92C320.908 82.7733 320.951 83.4133 321.036 83.84C321.036 84.1813 321.036 84.5226 321.036 84.864C321.036 85.12 320.993 85.4613 320.908 85.888C320.737 86.656 320.609 87.552 320.524 88.576C320.524 89.0026 320.481 89.4293 320.396 89.856C320.311 90.1973 320.183 90.5813 320.012 91.008C319.671 91.3493 319.5 91.6053 319.5 91.776L319.116 92.544C318.689 93.3973 317.879 94.208 316.684 94.976C314.807 95.9146 312.716 96.128 310.412 95.616C308.961 95.4453 307.852 95.0613 307.084 94.464C306.316 93.696 305.761 92.928 305.42 92.16C304.908 91.2213 304.609 90.3253 304.524 89.472C304.268 88.704 304.14 87.8933 304.14 87.04V21.248C303.628 21.248 302.561 21.248 300.94 21.248C299.319 21.248 297.569 21.248 295.692 21.248C293.9 21.1626 292.193 21.0773 290.572 20.992C288.951 20.9066 287.841 20.8213 287.244 20.736C286.732 20.6506 285.921 20.5226 284.812 20.352C283.788 20.1813 282.935 20.0106 282.252 19.84C280.46 19.328 279.052 18.5173 278.028 17.408C277.089 16.2986 276.62 15.0613 276.62 13.696C276.62 13.184 276.62 12.672 276.62 12.16C276.62 11.648 276.705 11.1786 276.876 10.752C277.132 9.72798 277.815 8.87465 278.924 8.19198C279.265 7.93598 279.777 7.63732 280.46 7.29598C281.228 6.86932 281.953 6.57065 282.636 6.39998C283.66 6.05864 284.94 5.80265 286.476 5.63198C287.159 5.54665 287.841 5.50398 288.524 5.50398C289.207 5.50398 289.932 5.50398 290.7 5.50398C293.687 5.50398 296.503 5.50398 299.148 5.50398C301.879 5.50398 304.737 5.46132 307.724 5.37598C312.673 5.29065 317.58 5.29065 322.444 5.37598C327.393 5.37598 332.3 5.46132 337.164 5.63198C338.273 5.71731 339.34 5.84531 340.364 6.01598C341.388 6.18665 342.412 6.48531 343.436 6.91198C344.204 7.16798 344.929 7.50932 345.612 7.93598C346.295 8.27732 346.849 8.74665 347.276 9.34398Z" stroke="black" stroke-width="8" mask="url(#path-1-outside-1_1_11)"/>
<path class="6" d="M399.574 36.224C401.025 35.8826 402.475 35.968 403.926 36.48C405.462 36.992 406.87 37.8453 408.15 39.04C408.747 39.6373 409.174 40.3626 409.43 41.216C409.771 42.0693 409.942 42.9653 409.942 43.904C409.942 44.928 409.771 46.0373 409.43 47.232C409.174 48.3413 408.79 49.1946 408.278 49.792C407.595 50.56 406.699 51.1573 405.59 51.584C404.481 52.0107 403.414 52.3093 402.39 52.48C401.366 52.5653 400.47 52.608 399.702 52.608C399.019 52.608 398.635 52.608 398.55 52.608L373.462 52.736C372.438 52.8213 371.371 52.9066 370.262 52.992C369.238 52.992 368.214 52.9493 367.19 52.864C366.166 52.6933 365.185 52.4373 364.246 52.096C363.393 51.6693 362.582 51.1146 361.814 50.432C360.875 49.4933 360.15 48.5973 359.638 47.744C359.126 46.8053 358.87 45.7386 358.87 44.544C358.87 43.0933 359.254 41.6853 360.022 40.32C360.875 38.8693 362.027 37.888 363.478 37.376C365.27 36.608 367.105 36.2666 368.982 36.352C370.945 36.352 372.907 36.3093 374.87 36.224H399.574Z" stroke="black" stroke-width="8" mask="url(#path-1-outside-1_1_11)"/>
<path class="7" d="M423.463 82.432L423.591 72.32L423.719 53.504C423.804 50.7733 423.847 47.9573 423.847 45.056C423.847 42.1547 423.847 39.168 423.847 36.096C423.847 33.024 423.847 30.2933 423.847 27.904C423.847 25.5147 423.932 22.8266 424.103 19.84V19.328C424.188 18.4746 424.231 17.6213 424.231 16.768C424.316 15.8293 424.359 14.8906 424.359 13.952C424.444 12.416 424.914 10.752 425.767 8.95998C426.364 7.76532 427.26 6.74132 428.455 5.88798C429.82 5.20531 431.143 4.86398 432.423 4.86398C433.106 4.86398 433.703 4.90665 434.215 4.99198C434.812 4.99198 435.367 5.03465 435.879 5.11998C436.988 5.29065 437.97 5.80265 438.823 6.65598C439.335 7.08265 439.804 7.76531 440.231 8.70398C440.402 9.21598 440.53 9.72798 440.615 10.24C440.786 10.6666 440.914 11.136 440.999 11.648C441.084 12.2453 441.127 12.8 441.127 13.312C441.212 13.824 441.255 14.336 441.255 14.848C441.255 15.4453 441.212 16 441.127 16.512C441.127 16.9386 441.127 17.408 441.127 17.92V20.096L440.359 86.528V87.808C440.359 88.064 440.316 88.4053 440.231 88.832C440.231 89.1733 440.188 89.6 440.103 90.112C439.932 90.5387 439.762 91.008 439.591 91.52C439.506 91.9466 439.378 92.416 439.207 92.928C438.951 93.3547 438.652 93.7813 438.311 94.208C438.055 94.5493 437.714 94.8907 437.287 95.232C436.604 95.9147 435.495 96.384 433.959 96.64C431.655 97.152 429.479 96.9387 427.431 96C426.407 95.3173 425.682 94.464 425.255 93.44C424.999 93.184 424.871 92.928 424.871 92.672C424.786 92.5013 424.7 92.3733 424.615 92.288C424.53 92.2027 424.444 92.0747 424.359 91.904C424.188 91.4773 424.06 91.0507 423.975 90.624C423.89 90.112 423.847 89.6 423.847 89.088C423.762 88.6613 423.676 88.2346 423.591 87.808C423.591 87.3813 423.548 86.9547 423.463 86.528C423.378 85.8453 423.378 85.12 423.463 84.352V82.432Z" stroke="black" stroke-width="8" mask="url(#path-1-outside-1_1_11)"/>
</svg>
