<svg id="react-query_svg" width="212" height="39" viewBox="0 0 212 39" fill="none" xmlns="http://www.w3.org/2000/svg">
<mask id="path-1-outside-1_201_5" maskUnits="userSpaceOnUse" x="0.170471" y="0.460205" width="212" height="38" fill="black">
<rect fill="white" x="0.170471" y="0.460205" width="212" height="38"/>
<path d="M2.17047 29V2.81816H11.0171C13.0625 2.81816 14.7415 3.16759 16.054 3.86646C17.3665 4.5568 18.3381 5.50708 18.9688 6.71731C19.5994 7.92754 19.9148 9.30396 19.9148 10.8466C19.9148 12.3892 19.5994 13.7571 18.9688 14.9503C18.3381 16.1434 17.3708 17.0809 16.0668 17.7628C14.7628 18.4361 13.0966 18.7727 11.0682 18.7727H3.90911V15.9091H10.9659C12.3637 15.9091 13.4887 15.7045 14.3409 15.2954C15.2017 14.8863 15.8239 14.3068 16.2074 13.5568C16.5994 12.7983 16.7955 11.8949 16.7955 10.8466C16.7955 9.79827 16.5994 8.88208 16.2074 8.09799C15.8154 7.3139 15.1889 6.70879 14.3281 6.28265C13.4673 5.84799 12.3296 5.63066 10.9148 5.63066H5.34093V29H2.17047ZM14.4943 17.2386L20.9375 29H17.2557L10.9148 17.2386H14.4943Z"/>
<path d="M32.8107 29.4091C30.9187 29.4091 29.2866 28.9915 27.9144 28.1562C26.5508 27.3125 25.4982 26.1363 24.7568 24.6278C24.0238 23.1108 23.6573 21.3466 23.6573 19.3352C23.6573 17.3238 24.0238 15.5511 24.7568 14.017C25.4982 12.4744 26.5295 11.2727 27.8505 10.4119C29.1801 9.54259 30.7312 9.10793 32.5039 9.10793C33.5267 9.10793 34.5366 9.27839 35.5338 9.6193C36.5309 9.96021 37.4386 10.5142 38.2568 11.2812C39.0749 12.0398 39.7269 13.0454 40.2127 14.2983C40.6985 15.5511 40.9414 17.0937 40.9414 18.9261V20.2045H25.8051V17.5966H37.8732C37.8732 16.4886 37.6517 15.5 37.2085 14.6307C36.7738 13.7613 36.1517 13.0753 35.342 12.5724C34.5409 12.0696 33.5948 11.8182 32.5039 11.8182C31.3022 11.8182 30.2624 12.1165 29.3846 12.713C28.5153 13.3011 27.8463 14.0682 27.3775 15.0142C26.9088 15.9602 26.6744 16.9744 26.6744 18.0568V19.7954C26.6744 21.2784 26.9301 22.5355 27.4414 23.5667C27.9613 24.5895 28.6815 25.3693 29.6019 25.9062C30.5224 26.4346 31.592 26.6988 32.8107 26.6988C33.6034 26.6988 34.3193 26.588 34.9585 26.3665C35.6062 26.1363 36.1644 25.7954 36.6332 25.3437C37.1019 24.8835 37.4641 24.3125 37.7198 23.6307L40.6346 24.4488C40.3278 25.4375 39.8122 26.3068 39.0877 27.0568C38.3633 27.7983 37.4684 28.3778 36.4031 28.7954C35.3377 29.2045 34.1403 29.4091 32.8107 29.4091Z"/>
<path d="M51.3093 29.4602C50.065 29.4602 48.9357 29.2258 47.9215 28.7571C46.9073 28.2798 46.1019 27.5937 45.5053 26.6988C44.9087 25.7954 44.6105 24.7045 44.6105 23.4261C44.6105 22.3011 44.832 21.3892 45.2752 20.6903C45.7184 19.9829 46.3107 19.429 47.0522 19.0284C47.7937 18.6278 48.6119 18.3295 49.5068 18.1335C50.4102 17.929 51.3178 17.767 52.2298 17.6477C53.423 17.4943 54.3903 17.3792 55.1318 17.3025C55.8818 17.2173 56.4272 17.0767 56.7681 16.8807C57.1176 16.6846 57.2923 16.3437 57.2923 15.8579V15.7557C57.2923 14.4943 56.9471 13.5142 56.2568 12.8153C55.5749 12.1165 54.5394 11.767 53.1502 11.767C51.7099 11.767 50.5806 12.0824 49.7624 12.713C48.9443 13.3437 48.369 14.017 48.0366 14.7329L45.173 13.7102C45.6843 12.517 46.3661 11.588 47.2184 10.9233C48.0792 10.25 49.0167 9.78123 50.0309 9.51702C51.0536 9.2443 52.0593 9.10793 53.048 9.10793C53.6786 9.10793 54.4031 9.18464 55.2213 9.33805C56.048 9.48293 56.8448 9.78549 57.6119 10.2457C58.3874 10.7059 59.0309 11.4005 59.5423 12.3295C60.0536 13.2585 60.3093 14.5028 60.3093 16.0625V29H57.2923V26.3409H57.1389C56.9343 26.767 56.5934 27.223 56.1161 27.7088C55.6389 28.1946 55.0039 28.6079 54.2113 28.9488C53.4187 29.2898 52.4514 29.4602 51.3093 29.4602ZM51.7695 26.75C52.9627 26.75 53.9684 26.5156 54.7866 26.0469C55.6133 25.5781 56.2355 24.973 56.6531 24.2315C57.0792 23.49 57.2923 22.7102 57.2923 21.892V19.1307C57.1644 19.2841 56.8832 19.4247 56.4485 19.5525C56.0224 19.6719 55.5281 19.7784 54.9656 19.8721C54.4116 19.9574 53.8704 20.0341 53.342 20.1023C52.8221 20.1619 52.4002 20.213 52.0764 20.2557C51.2923 20.3579 50.5593 20.5241 49.8775 20.7542C49.2042 20.9758 48.6588 21.3125 48.2411 21.7642C47.832 22.2074 47.6275 22.8125 47.6275 23.5795C47.6275 24.6278 48.0153 25.4204 48.7909 25.9574C49.5749 26.4858 50.5678 26.75 51.7695 26.75Z"/>
<path d="M73.7933 29.4091C71.9524 29.4091 70.3672 28.9744 69.0377 28.1051C67.7081 27.2358 66.6854 26.0383 65.9695 24.5128C65.2536 22.9872 64.8956 21.2443 64.8956 19.2841C64.8956 17.2898 65.2621 15.5298 65.995 14.0042C66.7365 12.4701 67.7678 11.2727 69.0888 10.4119C70.4183 9.54259 71.9695 9.10793 73.7422 9.10793C75.1229 9.10793 76.3672 9.36362 77.4752 9.87498C78.5831 10.3863 79.4908 11.1023 80.1982 12.0227C80.9056 12.9432 81.3445 14.017 81.5149 15.2443H78.4979C78.2678 14.3494 77.7564 13.5568 76.9638 12.8665C76.1797 12.1676 75.1229 11.8182 73.7933 11.8182C72.6172 11.8182 71.586 12.125 70.6996 12.7386C69.8218 13.3437 69.1357 14.2003 68.6413 15.3082C68.1556 16.4076 67.9127 17.6988 67.9127 19.1818C67.9127 20.6988 68.1513 22.0199 68.6286 23.1449C69.1144 24.2699 69.7962 25.1434 70.674 25.7656C71.5604 26.3878 72.6002 26.6988 73.7933 26.6988C74.5774 26.6988 75.2891 26.5625 75.9283 26.2898C76.5675 26.017 77.1087 25.625 77.5519 25.1136C77.995 24.6023 78.3104 23.9886 78.4979 23.2727H81.5149C81.3445 24.4318 80.9226 25.4758 80.2493 26.4048C79.5845 27.3253 78.7024 28.0582 77.603 28.6037C76.5121 29.1406 75.2422 29.4091 73.7933 29.4091Z"/>
<path d="M94.4652 9.36362V11.9204H84.2891V9.36362H94.4652ZM87.255 4.65907H90.272V23.375C90.272 24.2273 90.3956 24.8665 90.6428 25.2926C90.8985 25.7102 91.2223 25.9915 91.6144 26.1363C92.0149 26.2727 92.4368 26.3409 92.88 26.3409C93.2124 26.3409 93.4851 26.3238 93.6982 26.2898C93.9112 26.2471 94.0817 26.213 94.2095 26.1875L94.8232 28.8977C94.6186 28.9744 94.3331 29.0511 93.9666 29.1278C93.6002 29.213 93.1357 29.2557 92.5732 29.2557C91.7209 29.2557 90.8857 29.0724 90.0675 28.7059C89.2578 28.3395 88.5845 27.7812 88.0476 27.0312C87.5192 26.2812 87.255 25.3352 87.255 24.1932V4.65907Z"/>
<path d="M119.049 20.8182H122.526L125.441 24.6534L126.208 25.6761L130.555 31.4545H127.077L124.214 27.6193L123.498 26.6477L119.049 20.8182ZM131.629 15.9091C131.629 18.6704 131.13 21.0568 130.133 23.0682C129.136 25.0795 127.768 26.6307 126.029 27.7216C124.29 28.8125 122.305 29.3579 120.072 29.3579C117.839 29.3579 115.853 28.8125 114.114 27.7216C112.376 26.6307 111.008 25.0795 110.011 23.0682C109.014 21.0568 108.515 18.6704 108.515 15.9091C108.515 13.1477 109.014 10.7613 110.011 8.74998C111.008 6.73862 112.376 5.18748 114.114 4.09657C115.853 3.00566 117.839 2.46021 120.072 2.46021C122.305 2.46021 124.29 3.00566 126.029 4.09657C127.768 5.18748 129.136 6.73862 130.133 8.74998C131.13 10.7613 131.629 13.1477 131.629 15.9091ZM128.56 15.9091C128.56 13.642 128.181 11.7287 127.423 10.169C126.673 8.60935 125.654 7.42896 124.367 6.62782C123.089 5.82668 121.657 5.42612 120.072 5.42612C118.487 5.42612 117.05 5.82668 115.764 6.62782C114.485 7.42896 113.467 8.60935 112.708 10.169C111.958 11.7287 111.583 13.642 111.583 15.9091C111.583 18.1761 111.958 20.0895 112.708 21.6491C113.467 23.2088 114.485 24.3892 115.764 25.1903C117.05 25.9915 118.487 26.392 120.072 26.392C121.657 26.392 123.089 25.9915 124.367 25.1903C125.654 24.3892 126.673 23.2088 127.423 21.6491C128.181 20.0895 128.56 18.1761 128.56 15.9091Z"/>
<path d="M148.925 20.9716V9.36362H151.942V29H148.925V25.6761H148.721C148.261 26.6733 147.545 27.5213 146.573 28.2201C145.602 28.9105 144.374 29.2557 142.891 29.2557C141.664 29.2557 140.573 28.9872 139.619 28.4503C138.664 27.9048 137.914 27.0866 137.369 25.9957C136.823 24.8963 136.55 23.5113 136.55 21.8409V9.36362H139.567V21.6363C139.567 23.0682 139.968 24.2102 140.769 25.0625C141.579 25.9148 142.61 26.3409 143.863 26.3409C144.613 26.3409 145.376 26.1491 146.151 25.7656C146.935 25.3821 147.592 24.794 148.12 24.0014C148.657 23.2088 148.925 22.1988 148.925 20.9716Z"/>
<path d="M165.701 29.4091C163.809 29.4091 162.177 28.9915 160.805 28.1562C159.441 27.3125 158.389 26.1363 157.647 24.6278C156.914 23.1108 156.548 21.3466 156.548 19.3352C156.548 17.3238 156.914 15.5511 157.647 14.017C158.389 12.4744 159.42 11.2727 160.741 10.4119C162.071 9.54259 163.622 9.10793 165.395 9.10793C166.417 9.10793 167.427 9.27839 168.424 9.6193C169.422 9.96021 170.329 10.5142 171.147 11.2812C171.966 12.0398 172.618 13.0454 173.103 14.2983C173.589 15.5511 173.832 17.0937 173.832 18.9261V20.2045H158.696V17.5966H170.764C170.764 16.4886 170.542 15.5 170.099 14.6307C169.664 13.7613 169.042 13.0753 168.233 12.5724C167.431 12.0696 166.485 11.8182 165.395 11.8182C164.193 11.8182 163.153 12.1165 162.275 12.713C161.406 13.3011 160.737 14.0682 160.268 15.0142C159.799 15.9602 159.565 16.9744 159.565 18.0568V19.7954C159.565 21.2784 159.821 22.5355 160.332 23.5667C160.852 24.5895 161.572 25.3693 162.493 25.9062C163.413 26.4346 164.483 26.6988 165.701 26.6988C166.494 26.6988 167.21 26.588 167.849 26.3665C168.497 26.1363 169.055 25.7954 169.524 25.3437C169.993 24.8835 170.355 24.3125 170.61 23.6307L173.525 24.4488C173.218 25.4375 172.703 26.3068 171.978 27.0568C171.254 27.7983 170.359 28.3778 169.294 28.7954C168.228 29.2045 167.031 29.4091 165.701 29.4091Z"/>
<path d="M178.422 29V9.36362H181.336V12.3295H181.541C181.899 11.3579 182.547 10.5696 183.484 9.96447C184.422 9.35935 185.478 9.0568 186.654 9.0568C186.876 9.0568 187.153 9.06106 187.485 9.06958C187.818 9.0781 188.069 9.09089 188.24 9.10793V12.1761C188.137 12.1505 187.903 12.1122 187.537 12.0611C187.179 12.0014 186.799 11.9716 186.399 11.9716C185.444 11.9716 184.592 12.1719 183.842 12.5724C183.101 12.9645 182.512 13.5099 182.078 14.2088C181.652 14.8991 181.439 15.6875 181.439 16.5738V29H178.422Z"/>
<path d="M194.357 36.3636C193.846 36.3636 193.39 36.321 192.989 36.2358C192.588 36.1591 192.311 36.0824 192.158 36.0057L192.925 33.3466C193.658 33.5341 194.306 33.6023 194.868 33.5511C195.431 33.5 195.929 33.2486 196.364 32.7969C196.807 32.3537 197.212 31.6335 197.578 30.6363L198.141 29.1023L190.88 9.36362H194.152L199.573 25.0113H199.777L205.198 9.36362H208.471L200.135 31.8636C199.76 32.8778 199.296 33.7173 198.742 34.3821C198.188 35.0554 197.544 35.554 196.811 35.8778C196.087 36.2017 195.269 36.3636 194.357 36.3636Z"/>
</mask>
<path class="1" d="M2.17047 29V2.81816H11.0171C13.0625 2.81816 14.7415 3.16759 16.054 3.86646C17.3665 4.5568 18.3381 5.50708 18.9688 6.71731C19.5994 7.92754 19.9148 9.30396 19.9148 10.8466C19.9148 12.3892 19.5994 13.7571 18.9688 14.9503C18.3381 16.1434 17.3708 17.0809 16.0668 17.7628C14.7628 18.4361 13.0966 18.7727 11.0682 18.7727H3.90911V15.9091H10.9659C12.3637 15.9091 13.4887 15.7045 14.3409 15.2954C15.2017 14.8863 15.8239 14.3068 16.2074 13.5568C16.5994 12.7983 16.7955 11.8949 16.7955 10.8466C16.7955 9.79827 16.5994 8.88208 16.2074 8.09799C15.8154 7.3139 15.1889 6.70879 14.3281 6.28265C13.4673 5.84799 12.3296 5.63066 10.9148 5.63066H5.34093V29H2.17047ZM14.4943 17.2386L20.9375 29H17.2557L10.9148 17.2386H14.4943Z" stroke="black" stroke-width="4" mask="url(#path-1-outside-1_201_5)"/>
<path class="2" d="M32.8107 29.4091C30.9187 29.4091 29.2866 28.9915 27.9144 28.1562C26.5508 27.3125 25.4982 26.1363 24.7568 24.6278C24.0238 23.1108 23.6573 21.3466 23.6573 19.3352C23.6573 17.3238 24.0238 15.5511 24.7568 14.017C25.4982 12.4744 26.5295 11.2727 27.8505 10.4119C29.1801 9.54259 30.7312 9.10793 32.5039 9.10793C33.5267 9.10793 34.5366 9.27839 35.5338 9.6193C36.5309 9.96021 37.4386 10.5142 38.2568 11.2812C39.0749 12.0398 39.7269 13.0454 40.2127 14.2983C40.6985 15.5511 40.9414 17.0937 40.9414 18.9261V20.2045H25.8051V17.5966H37.8732C37.8732 16.4886 37.6517 15.5 37.2085 14.6307C36.7738 13.7613 36.1517 13.0753 35.342 12.5724C34.5409 12.0696 33.5948 11.8182 32.5039 11.8182C31.3022 11.8182 30.2624 12.1165 29.3846 12.713C28.5153 13.3011 27.8463 14.0682 27.3775 15.0142C26.9088 15.9602 26.6744 16.9744 26.6744 18.0568V19.7954C26.6744 21.2784 26.9301 22.5355 27.4414 23.5667C27.9613 24.5895 28.6815 25.3693 29.6019 25.9062C30.5224 26.4346 31.592 26.6988 32.8107 26.6988C33.6034 26.6988 34.3193 26.588 34.9585 26.3665C35.6062 26.1363 36.1644 25.7954 36.6332 25.3437C37.1019 24.8835 37.4641 24.3125 37.7198 23.6307L40.6346 24.4488C40.3278 25.4375 39.8122 26.3068 39.0877 27.0568C38.3633 27.7983 37.4684 28.3778 36.4031 28.7954C35.3377 29.2045 34.1403 29.4091 32.8107 29.4091Z" stroke="black" stroke-width="4" mask="url(#path-1-outside-1_201_5)"/>
<path class="3" d="M51.3093 29.4602C50.065 29.4602 48.9357 29.2258 47.9215 28.7571C46.9073 28.2798 46.1019 27.5937 45.5053 26.6988C44.9087 25.7954 44.6105 24.7045 44.6105 23.4261C44.6105 22.3011 44.832 21.3892 45.2752 20.6903C45.7184 19.9829 46.3107 19.429 47.0522 19.0284C47.7937 18.6278 48.6119 18.3295 49.5068 18.1335C50.4102 17.929 51.3178 17.767 52.2298 17.6477C53.423 17.4943 54.3903 17.3792 55.1318 17.3025C55.8818 17.2173 56.4272 17.0767 56.7681 16.8807C57.1176 16.6846 57.2923 16.3437 57.2923 15.8579V15.7557C57.2923 14.4943 56.9471 13.5142 56.2568 12.8153C55.5749 12.1165 54.5394 11.767 53.1502 11.767C51.7099 11.767 50.5806 12.0824 49.7624 12.713C48.9443 13.3437 48.369 14.017 48.0366 14.7329L45.173 13.7102C45.6843 12.517 46.3661 11.588 47.2184 10.9233C48.0792 10.25 49.0167 9.78123 50.0309 9.51702C51.0536 9.2443 52.0593 9.10793 53.048 9.10793C53.6786 9.10793 54.4031 9.18464 55.2213 9.33805C56.048 9.48293 56.8448 9.78549 57.6119 10.2457C58.3874 10.7059 59.0309 11.4005 59.5423 12.3295C60.0536 13.2585 60.3093 14.5028 60.3093 16.0625V29H57.2923V26.3409H57.1389C56.9343 26.767 56.5934 27.223 56.1161 27.7088C55.6389 28.1946 55.0039 28.6079 54.2113 28.9488C53.4187 29.2898 52.4514 29.4602 51.3093 29.4602ZM51.7695 26.75C52.9627 26.75 53.9684 26.5156 54.7866 26.0469C55.6133 25.5781 56.2355 24.973 56.6531 24.2315C57.0792 23.49 57.2923 22.7102 57.2923 21.892V19.1307C57.1644 19.2841 56.8832 19.4247 56.4485 19.5525C56.0224 19.6719 55.5281 19.7784 54.9656 19.8721C54.4116 19.9574 53.8704 20.0341 53.342 20.1023C52.8221 20.1619 52.4002 20.213 52.0764 20.2557C51.2923 20.3579 50.5593 20.5241 49.8775 20.7542C49.2042 20.9758 48.6588 21.3125 48.2411 21.7642C47.832 22.2074 47.6275 22.8125 47.6275 23.5795C47.6275 24.6278 48.0153 25.4204 48.7909 25.9574C49.5749 26.4858 50.5678 26.75 51.7695 26.75Z" stroke="black" stroke-width="4" mask="url(#path-1-outside-1_201_5)"/>
<path class="4" d="M73.7933 29.4091C71.9524 29.4091 70.3672 28.9744 69.0377 28.1051C67.7081 27.2358 66.6854 26.0383 65.9695 24.5128C65.2536 22.9872 64.8956 21.2443 64.8956 19.2841C64.8956 17.2898 65.2621 15.5298 65.995 14.0042C66.7365 12.4701 67.7678 11.2727 69.0888 10.4119C70.4183 9.54259 71.9695 9.10793 73.7422 9.10793C75.1229 9.10793 76.3672 9.36362 77.4752 9.87498C78.5831 10.3863 79.4908 11.1023 80.1982 12.0227C80.9056 12.9432 81.3445 14.017 81.5149 15.2443H78.4979C78.2678 14.3494 77.7564 13.5568 76.9638 12.8665C76.1797 12.1676 75.1229 11.8182 73.7933 11.8182C72.6172 11.8182 71.586 12.125 70.6996 12.7386C69.8218 13.3437 69.1357 14.2003 68.6413 15.3082C68.1556 16.4076 67.9127 17.6988 67.9127 19.1818C67.9127 20.6988 68.1513 22.0199 68.6286 23.1449C69.1144 24.2699 69.7962 25.1434 70.674 25.7656C71.5604 26.3878 72.6002 26.6988 73.7933 26.6988C74.5774 26.6988 75.2891 26.5625 75.9283 26.2898C76.5675 26.017 77.1087 25.625 77.5519 25.1136C77.995 24.6023 78.3104 23.9886 78.4979 23.2727H81.5149C81.3445 24.4318 80.9226 25.4758 80.2493 26.4048C79.5845 27.3253 78.7024 28.0582 77.603 28.6037C76.5121 29.1406 75.2422 29.4091 73.7933 29.4091Z" stroke="black" stroke-width="4" mask="url(#path-1-outside-1_201_5)"/>
<path class="5" d="M94.4652 9.36362V11.9204H84.2891V9.36362H94.4652ZM87.255 4.65907H90.272V23.375C90.272 24.2273 90.3956 24.8665 90.6428 25.2926C90.8985 25.7102 91.2223 25.9915 91.6144 26.1363C92.0149 26.2727 92.4368 26.3409 92.88 26.3409C93.2124 26.3409 93.4851 26.3238 93.6982 26.2898C93.9112 26.2471 94.0817 26.213 94.2095 26.1875L94.8232 28.8977C94.6186 28.9744 94.3331 29.0511 93.9666 29.1278C93.6002 29.213 93.1357 29.2557 92.5732 29.2557C91.7209 29.2557 90.8857 29.0724 90.0675 28.7059C89.2578 28.3395 88.5845 27.7812 88.0476 27.0312C87.5192 26.2812 87.255 25.3352 87.255 24.1932V4.65907Z" stroke="black" stroke-width="4" mask="url(#path-1-outside-1_201_5)"/>
<path class="6" d="M119.049 20.8182H122.526L125.441 24.6534L126.208 25.6761L130.555 31.4545H127.077L124.214 27.6193L123.498 26.6477L119.049 20.8182ZM131.629 15.9091C131.629 18.6704 131.13 21.0568 130.133 23.0682C129.136 25.0795 127.768 26.6307 126.029 27.7216C124.29 28.8125 122.305 29.3579 120.072 29.3579C117.839 29.3579 115.853 28.8125 114.114 27.7216C112.376 26.6307 111.008 25.0795 110.011 23.0682C109.014 21.0568 108.515 18.6704 108.515 15.9091C108.515 13.1477 109.014 10.7613 110.011 8.74998C111.008 6.73862 112.376 5.18748 114.114 4.09657C115.853 3.00566 117.839 2.46021 120.072 2.46021C122.305 2.46021 124.29 3.00566 126.029 4.09657C127.768 5.18748 129.136 6.73862 130.133 8.74998C131.13 10.7613 131.629 13.1477 131.629 15.9091ZM128.56 15.9091C128.56 13.642 128.181 11.7287 127.423 10.169C126.673 8.60935 125.654 7.42896 124.367 6.62782C123.089 5.82668 121.657 5.42612 120.072 5.42612C118.487 5.42612 117.05 5.82668 115.764 6.62782C114.485 7.42896 113.467 8.60935 112.708 10.169C111.958 11.7287 111.583 13.642 111.583 15.9091C111.583 18.1761 111.958 20.0895 112.708 21.6491C113.467 23.2088 114.485 24.3892 115.764 25.1903C117.05 25.9915 118.487 26.392 120.072 26.392C121.657 26.392 123.089 25.9915 124.367 25.1903C125.654 24.3892 126.673 23.2088 127.423 21.6491C128.181 20.0895 128.56 18.1761 128.56 15.9091Z" stroke="black" stroke-width="4" mask="url(#path-1-outside-1_201_5)"/>
<path class="7" d="M148.925 20.9716V9.36362H151.942V29H148.925V25.6761H148.721C148.261 26.6733 147.545 27.5213 146.573 28.2201C145.602 28.9105 144.374 29.2557 142.891 29.2557C141.664 29.2557 140.573 28.9872 139.619 28.4503C138.664 27.9048 137.914 27.0866 137.369 25.9957C136.823 24.8963 136.55 23.5113 136.55 21.8409V9.36362H139.567V21.6363C139.567 23.0682 139.968 24.2102 140.769 25.0625C141.579 25.9148 142.61 26.3409 143.863 26.3409C144.613 26.3409 145.376 26.1491 146.151 25.7656C146.935 25.3821 147.592 24.794 148.12 24.0014C148.657 23.2088 148.925 22.1988 148.925 20.9716Z" stroke="black" stroke-width="4" mask="url(#path-1-outside-1_201_5)"/>
<path class="8" d="M165.701 29.4091C163.809 29.4091 162.177 28.9915 160.805 28.1562C159.441 27.3125 158.389 26.1363 157.647 24.6278C156.914 23.1108 156.548 21.3466 156.548 19.3352C156.548 17.3238 156.914 15.5511 157.647 14.017C158.389 12.4744 159.42 11.2727 160.741 10.4119C162.071 9.54259 163.622 9.10793 165.395 9.10793C166.417 9.10793 167.427 9.27839 168.424 9.6193C169.422 9.96021 170.329 10.5142 171.147 11.2812C171.966 12.0398 172.618 13.0454 173.103 14.2983C173.589 15.5511 173.832 17.0937 173.832 18.9261V20.2045H158.696V17.5966H170.764C170.764 16.4886 170.542 15.5 170.099 14.6307C169.664 13.7613 169.042 13.0753 168.233 12.5724C167.431 12.0696 166.485 11.8182 165.395 11.8182C164.193 11.8182 163.153 12.1165 162.275 12.713C161.406 13.3011 160.737 14.0682 160.268 15.0142C159.799 15.9602 159.565 16.9744 159.565 18.0568V19.7954C159.565 21.2784 159.821 22.5355 160.332 23.5667C160.852 24.5895 161.572 25.3693 162.493 25.9062C163.413 26.4346 164.483 26.6988 165.701 26.6988C166.494 26.6988 167.21 26.588 167.849 26.3665C168.497 26.1363 169.055 25.7954 169.524 25.3437C169.993 24.8835 170.355 24.3125 170.61 23.6307L173.525 24.4488C173.218 25.4375 172.703 26.3068 171.978 27.0568C171.254 27.7983 170.359 28.3778 169.294 28.7954C168.228 29.2045 167.031 29.4091 165.701 29.4091Z" stroke="black" stroke-width="4" mask="url(#path-1-outside-1_201_5)"/>
<path class="9" d="M178.422 29V9.36362H181.336V12.3295H181.541C181.899 11.3579 182.547 10.5696 183.484 9.96447C184.422 9.35935 185.478 9.0568 186.654 9.0568C186.876 9.0568 187.153 9.06106 187.485 9.06958C187.818 9.0781 188.069 9.09089 188.24 9.10793V12.1761C188.137 12.1505 187.903 12.1122 187.537 12.0611C187.179 12.0014 186.799 11.9716 186.399 11.9716C185.444 11.9716 184.592 12.1719 183.842 12.5724C183.101 12.9645 182.512 13.5099 182.078 14.2088C181.652 14.8991 181.439 15.6875 181.439 16.5738V29H178.422Z" stroke="black" stroke-width="4" mask="url(#path-1-outside-1_201_5)"/>
<path class="10" d="M194.357 36.3636C193.846 36.3636 193.39 36.321 192.989 36.2358C192.588 36.1591 192.311 36.0824 192.158 36.0057L192.925 33.3466C193.658 33.5341 194.306 33.6023 194.868 33.5511C195.431 33.5 195.929 33.2486 196.364 32.7969C196.807 32.3537 197.212 31.6335 197.578 30.6363L198.141 29.1023L190.88 9.36362H194.152L199.573 25.0113H199.777L205.198 9.36362H208.471L200.135 31.8636C199.76 32.8778 199.296 33.7173 198.742 34.3821C198.188 35.0554 197.544 35.554 196.811 35.8778C196.087 36.2017 195.269 36.3636 194.357 36.3636Z" stroke="black" stroke-width="4" mask="url(#path-1-outside-1_201_5)"/>
</svg>
